<svg width="36" height="36" viewBox="0 0 60 60" fill="none"
  xmlns="http://www.w3.org/2000/svg">
  <path d="M41.6217 5.85234C41.4483 5.33862 41.1182 4.89221 40.6778 4.57602C40.2374 4.25982 39.7088 4.08978 39.1667 4.08984H21.0298C21.5719 4.08987 22.1004 4.25995 22.5408 4.57613C22.9812 4.89231 23.3114 5.33867 23.4848 5.85234L39.2248 52.4898C39.3564 52.8796 39.3932 53.2952 39.3324 53.702C39.2715 54.1089 39.1146 54.4955 38.8747 54.8297C38.6348 55.1639 38.3187 55.4362 37.9527 55.624C37.5867 55.8118 37.1812 55.9098 36.7698 55.9098H54.9073C55.3186 55.9097 55.7241 55.8117 56.09 55.6238C56.4559 55.4359 56.7719 55.1636 57.0117 54.8294C57.2516 54.4952 57.4084 54.1087 57.4693 53.7019C57.5301 53.2951 57.4932 52.8796 57.3617 52.4898L41.6217 5.85234Z" fill="#7497F7"/>
  <path fill-rule="evenodd" clip-rule="evenodd" d="M31.191 37.6631L36.195 52.49C36.3266 52.8798 36.3635 53.2953 36.3026 53.7022C36.2417 54.109 36.0848 54.4956 35.8449 54.8298C35.6176 55.1465 35.3219 55.4076 34.9801 55.5939C34.7877 55.4895 34.6076 55.3604 34.445 55.2087L17.8625 39.7312C17.687 39.5676 17.5648 39.355 17.5119 39.121C17.4589 38.887 17.4777 38.6425 17.5657 38.4193C17.6537 38.1961 17.8069 38.0046 18.0053 37.8697C18.2038 37.7348 18.4382 37.6628 18.6781 37.6631H31.191Z" fill="#7497F7"/>
  <path fill-rule="evenodd" clip-rule="evenodd" d="M26.4536 35.6629L28.4847 29.645L20.4548 5.85233C20.2814 5.33865 19.9512 4.8923 19.5108 4.57612C19.4799 4.55394 19.4486 4.53248 19.4169 4.51175C19.385 4.53256 19.3535 4.55411 19.3225 4.57639C18.8814 4.89314 18.5508 5.34028 18.3773 5.85484L2.63788 52.4905C2.5064 52.8802 2.46961 53.2956 2.53054 53.7024C2.59148 54.1092 2.74839 54.4956 2.9883 54.8297C3.22821 55.1638 3.54422 55.4359 3.91019 55.6237C4.27616 55.8114 4.68157 55.9093 5.09288 55.9092H17.7579C18.3007 55.9091 18.8299 55.7387 19.2709 55.4221C19.7118 55.1055 20.0424 54.6586 20.216 54.1442L22.6492 46.9349L16.4987 41.1942L16.4976 41.1932C16.0288 40.7558 15.7024 40.1875 15.5609 39.5621C15.4193 38.9363 15.4695 38.2823 15.7049 37.6854C15.9403 37.0885 16.3501 36.5763 16.8807 36.2155C17.4108 35.8552 18.037 35.6627 18.6779 35.6629H26.4536ZM25.7786 37.6629H18.6779C18.438 37.6627 18.2035 37.7347 18.0051 37.8696C17.8067 38.0044 17.6535 38.1959 17.5655 38.4191C17.4774 38.6423 17.4587 38.8868 17.5116 39.1209C17.5646 39.3549 17.6867 39.5675 17.8622 39.7311L23.3514 44.8544L25.7786 37.6629ZM37.0532 4.25729C36.7648 4.14823 36.4576 4.09089 36.1456 4.08984H37.1098L37.0532 4.25729Z" fill="#7497F7"/>
  <path fill-rule="evenodd" clip-rule="evenodd" d="M31.191 37.6631L36.195 52.49C36.3266 52.8798 36.3635 53.2953 36.3026 53.7022C36.2417 54.109 36.0848 54.4956 35.8449 54.8298C35.6176 55.1465 35.3219 55.4076 34.9801 55.5939C34.7877 55.4895 34.6076 55.3604 34.445 55.2087L17.8625 39.7312C17.687 39.5676 17.5648 39.355 17.5119 39.121C17.4589 38.887 17.4777 38.6425 17.5657 38.4193C17.6537 38.1961 17.8069 38.0046 18.0053 37.8697C18.2038 37.7348 18.4382 37.6628 18.6781 37.6631H31.191Z" fill="#7497F7"/>
</svg>