<svg width="36" height="33" viewBox="0 0 52 48" fill="none"
  xmlns="http://www.w3.org/2000/svg">
  <path d="M1.68758 0.51967C1.44443 0.516534 1.20354 0.566658 0.98183 0.666529C0.760116 0.766397 0.562951 0.913588 0.404177 1.09776C0.245403 1.28194 0.128869 1.49864 0.0627574 1.73265C-0.00335344 1.96666 -0.0174403 2.2123 0.0214867 2.45233L7.09404 45.3875C7.18216 45.9129 7.45259 46.3904 7.85783 46.7363C8.26307 47.0821 8.77721 47.2741 9.30994 47.2785H43.2399C43.6392 47.2836 44.0271 47.1451 44.3329 46.8883C44.6387 46.6314 44.8421 46.2732 44.906 45.879L49.1639 19.7392H33.4921L31.4689 31.5506H20.6394L17.707 16.2309H34.093L49.7293 16.231L51.9785 2.46066C52.0174 2.22063 52.0034 1.97499 51.9372 1.74098C51.8711 1.50697 51.7546 1.29027 51.5958 1.1061C51.437 0.921917 51.2399 0.774727 51.0182 0.674858C50.7965 0.57499 50.5556 0.524863 50.3124 0.527999L1.68758 0.51967Z" fill="#7497F7"/>
</svg>