<svg width="36" height="36" viewBox="0 0 52 52" fill="none"
  xmlns="http://www.w3.org/2000/svg">
  <path fill-rule="evenodd" clip-rule="evenodd" d="M26 0C40.3597 0 52 11.6403 52 26C52 40.3597 40.3597 52 26 52C11.6403 52 0 40.3597 0 26C0 11.6403 11.6403 0 26 0ZM39.1616 11.5556C39.1614 11.5556 39.1611 11.5556 39.1608 11.5564H21.1856C15.8673 11.5564 11.5557 15.8677 11.5557 21.1863V39.1615C11.5557 39.8706 12.1305 40.4454 12.8396 40.4454H31.7781C36.5645 40.4454 40.4447 36.5653 40.4447 31.7789V24.3962C40.4447 23.6871 39.8698 23.1123 39.1607 23.1123H24.3949C23.6859 23.1126 23.1112 23.6873 23.1106 24.3962L23.1098 27.606C23.1093 28.2734 23.6183 28.8221 24.2694 28.8845L24.3931 28.8903C24.3929 28.8907 24.3932 28.8903 24.3931 28.8903L33.3827 28.8899C34.0501 28.8899 34.5985 29.3991 34.6607 30.0502L34.6666 30.1739V30.8158C34.6666 32.9431 32.942 34.6677 30.8147 34.6677H18.6164C17.9074 34.6677 17.3326 34.0929 17.3325 33.3839L17.3322 21.1864C17.332 19.1236 18.9537 17.4394 20.9916 17.3391L21.184 17.3345H39.1573C39.8661 17.3337 40.4409 16.7593 40.4421 16.0505L40.444 12.8407C40.4453 12.1316 39.8707 11.556 39.1616 11.5556Z" fill="#7497F7"/>
</svg>
  