<svg width="36" height="36" viewBox="0 0 36 36" fill="none"
  xmlns="http://www.w3.org/2000/svg">
  <path d="M25.2912 2.67189C23.4918 1.74972 21.1902 1 18.4387 1C5.88829 1 5.42346 9.33694 5.42346 9.33694C5.42346 9.33694 3.3992 10.0417 2.79942 13.2055C2.43206 15.1248 2.91188 16.4968 3.34672 17.284C2.92688 17.7338 2.57451 18.2662 2.30461 18.8659C1.66734 20.2829 1.5174 21.9548 1.89226 23.5817C2.26712 25.2086 3.11431 26.6256 4.28388 27.5702C5.54341 28.5899 7.08785 28.9572 8.51232 28.5899C8.5873 28.5749 8.65477 28.5524 8.72974 28.5299C11.4288 32.6159 15.5372 35 20.0131 35C27.8927 35 34.3103 27.4803 34.3103 18.2362C34.3103 11.1813 30.5692 5.13098 25.2912 2.66439V2.67189ZM20.0806 31.7312C16.2345 31.7312 12.7033 29.3771 10.6415 25.441L9.56943 23.4018C9.56943 23.4018 8.92467 25.0287 7.35025 25.2236C6.76547 25.2986 6.26315 25.0437 6.00824 24.8412C5.46095 24.3989 5.0411 23.6792 4.86117 22.8695C4.67373 22.0523 4.74121 21.2126 5.0336 20.5528C5.17605 20.2454 5.50593 19.7731 6.06072 19.5557C6.9529 19.2108 8.19744 19.3832 8.86469 20.2004C9.40449 20.9951 9.49446 21.6624 9.49446 21.6624L12.1335 20.5903C12.1335 20.5903 11.4962 19.2258 11.5112 18.0487C11.5112 17.8088 11.5187 17.5989 11.5262 17.404C11.6087 16.9092 11.6612 16.3544 11.6837 15.7321C11.6837 15.5297 11.6987 15.3272 11.6987 15.1098C11.6987 12.9056 11.3463 11.4437 10.9414 10.499C11.3613 9.77927 11.8411 9.11202 12.3809 8.48975C14.4651 6.09063 17.1941 4.77111 20.0731 4.77111C24.249 4.77111 27.8927 7.56009 29.8045 11.6686C29.8945 12.3733 29.9544 13.7603 29.1597 14.1877C28.4475 14.5625 27.8027 14.615 27.2854 14.555C25.6135 13.1755 23.6717 12.3883 23.2894 12.4708C23.2894 12.4708 29.1672 18.6785 27.3604 20.028C25.5536 21.385 22.8396 19.5032 22.6221 20.9427C22.4047 22.3896 27.5553 24.3314 29.2947 21.0476C30.2693 19.2033 29.8195 17.5239 28.8299 16.1594C29.1147 16.1969 29.4071 16.1744 29.6995 16.0545C30.3668 15.7846 30.7192 15.3797 30.8841 14.9224C31.109 15.987 31.244 17.0966 31.244 18.2512C31.244 19.8481 31.0041 21.37 30.5767 22.7945C30.2393 22.9519 29.3172 23.3568 28.35 23.5592C27.128 23.8141 26.4532 23.8291 26.4532 23.8291L26.4082 25.5535C26.4082 25.5535 27.5403 25.591 28.7474 25.1036C29.4671 24.8112 29.9319 24.3014 30.2318 23.8291C28.47 28.4924 24.5864 31.7387 20.0806 31.7387V31.7312Z" fill="#7497F7"/>
  <path d="M22.0673 25.2461C23.7317 25.6809 24.9313 25.591 24.9313 25.591L24.9613 23.8666C24.9613 23.8666 24.0691 23.8891 22.4047 23.6942C20.7403 23.4992 19.1359 22.9744 19.1359 22.9744C19.1359 22.9744 19.8557 24.6763 22.0598 25.2536L22.0673 25.2461Z" fill="#7497F7"/>
  <path d="M21.4376 27.0079C18.5961 26.3557 16.4369 22.9669 16.4369 22.9669C16.4369 22.9669 15.7322 27.4203 20.7478 29.0172C24.4215 30.1868 26.1758 26.8805 26.1758 26.8805C26.1758 26.8805 24.279 27.6602 21.4376 27.0079Z" fill="#7497F7"/>
  <path d="M19.3308 10.2816C19.3308 10.2816 19.4433 11.6386 20.8153 13.183C22.1873 14.7275 22.9295 14.7499 22.5022 15.6646C22.0748 16.5793 20.1705 17.0966 18.5811 16.9466C15.7547 16.6842 15.6422 15.2373 15.6422 15.2373C15.6422 15.2373 17.8014 15.4847 18.6261 15.2373C19.4508 14.9899 19.6907 14.2926 19.4508 13.7078C18.6861 11.871 19.3233 10.2816 19.3233 10.2816H19.3308Z" fill="#7497F7"/>
</svg>
  