<svg width="60" height="60" viewBox="0 0 60 60" fill="none"
  xmlns="http://www.w3.org/2000/svg">
  <path d="M28.2239 24.9899C25.8672 28.8703 23.6083 32.6289 21.3028 36.3587C20.7113 37.3151 20.4179 38.0951 20.8914 39.3131C22.1971 42.6749 20.3543 45.947 16.8922 46.8365C13.6319 47.6743 10.4461 45.5714 9.79873 42.1488C9.2243 39.1184 11.626 36.1474 15.0369 35.6745C15.3226 35.6334 15.6144 35.6289 16.0942 35.5939L21.2842 27.0791C18.0239 23.9013 16.0771 20.1851 16.5071 15.5811C16.8176 12.3272 18.1186 9.51426 20.5064 7.20918C22.7027 5.06888 25.5804 3.72858 28.6616 3.41079C31.7429 3.09301 34.8425 3.81683 37.4459 5.46212C42.6188 8.71599 44.9817 15.055 42.9635 20.4816L38.2221 19.2211C38.8555 16.2045 38.3867 13.4949 36.3094 11.1746C34.937 9.64198 33.1749 8.83916 31.1722 8.54418C27.162 7.94966 23.2202 10.4798 22.0512 14.3358C20.7238 18.7148 22.7327 22.2926 28.2239 24.9899Z" fill="#7497F7"/>
  <path d="M34.9556 20.3995C36.6153 23.2687 38.3028 26.1774 39.9733 29.0664C48.4206 26.5074 54.789 31.0856 57.0727 35.9892C59.8331 41.9116 57.9468 48.9257 52.527 52.5794C46.9643 56.3305 39.9283 55.6889 34.9991 50.8719L38.8664 47.7017C43.7351 50.7898 47.9921 50.6438 51.153 46.9886C52.4577 45.4671 53.1615 43.5375 53.1365 41.5507C53.1114 39.564 52.3591 37.652 51.0164 36.1626C47.8166 32.6396 43.5286 32.5316 38.3463 35.9147C36.1961 32.1789 34.0086 28.4734 31.9267 24.7117C31.2249 23.4436 30.4502 22.7077 28.8682 22.4309C26.229 21.9748 24.5212 19.7609 24.4172 17.2703C24.3532 16.081 24.6764 14.9024 25.34 13.9044C26.0037 12.9064 26.9736 12.1404 28.1101 11.7167C29.2467 11.293 30.4912 11.2336 31.6645 11.5468C32.8377 11.8601 33.8792 12.53 34.6389 13.46C35.8996 15.02 36.3001 16.7762 35.6372 18.6996C35.4524 19.2455 35.2133 19.764 34.9556 20.3995Z" fill="#7497F7"/>
  <path d="M38.9269 43.8548H28.7564C27.7815 47.7807 25.6763 50.951 22.0496 52.9672C19.3007 54.5212 16.0826 55.0823 12.955 54.5531C6.99955 53.6119 2.13243 48.3616 1.70083 42.4483C1.21644 35.7505 5.9159 29.7978 12.1818 28.4597C12.615 29.9985 13.0512 31.5524 13.4844 33.0866C7.7401 35.9588 5.74667 39.5776 7.35507 44.1042C8.77096 48.0864 12.7889 50.2698 17.1623 49.4259C21.6242 48.5638 23.8722 44.9328 23.599 39.1048C27.828 39.1048 32.0602 39.0622 36.2892 39.126C37.9411 39.1519 39.2157 38.9846 40.4608 37.5584C42.5086 35.2123 46.2796 35.4297 48.4858 37.639C49.5436 38.7211 50.1191 40.1705 50.0857 41.6683C50.0524 43.166 49.4129 44.5894 48.308 45.6254C47.2031 46.6614 45.7232 47.2251 44.1939 47.1924C42.6646 47.1598 41.2112 46.5335 40.1534 45.4513C39.711 44.9785 39.3616 44.4265 38.9269 43.8548Z" fill="#7497F7"/>
</svg>
  