<svg width="160" height="120" viewBox="0 0 160 120" fill="none" xmlns="http://www.w3.org/2000/svg">
<path opacity="0.18" d="M19.7924 88.7546C19.4874 89.0065 19.1691 89.2791 19.0521 89.6548C18.8537 90.2692 19.255 90.9101 19.6977 91.3816C21.9912 93.826 25.6128 94.3976 28.9546 94.763C44.0455 96.3823 59.2606 96.5066 74.3761 95.1343C74.2523 95.2267 74.1368 95.3297 74.0311 95.4422C72.0116 97.558 73.4389 101.076 76.3706 101.3C95.1213 102.737 114.026 100.991 132.783 99.2377C134.286 99.0903 135.488 96.4206 136.741 95.5822C137.993 94.7439 138.766 92.9964 138.018 91.694C137.022 89.9598 134.084 89.9775 133.359 88.1151C132.645 86.2837 134.684 84.6306 135.37 82.7903C136.271 80.3681 134.585 77.6026 132.294 76.3915C130.004 75.1803 127.291 75.1347 124.696 75.1273C95.4262 75.0414 66.171 76.4257 37.0419 79.2749C33.6364 79.6064 31.3088 79.6506 28.5785 81.4731C25.4707 83.5477 22.6649 86.3765 19.7924 88.7546Z" fill="#7497F7"/>
<path opacity="0.18" d="M111.029 99.0992C111.675 98.971 112.383 98.8414 112.963 99.1508C113.259 99.3084 113.493 99.5678 113.801 99.6974C114.371 99.9376 115.014 99.6842 115.612 99.525C117.885 98.9195 120.269 99.746 122.618 99.8551C124.85 99.9597 127.06 99.4131 129.22 98.8694C129.785 98.722 130.482 98.4126 130.433 97.838C130.362 97.0129 128.979 97.1013 128.522 96.4133L132.462 94.3505C132.906 94.1221 133.371 93.8555 133.538 93.3943C133.733 92.8536 133.411 92.2333 132.926 91.9209C132.442 91.6086 131.844 91.5393 131.267 91.5246C128.562 91.4583 125.948 92.3953 123.301 92.9626C120.247 93.6169 117.108 93.7845 114.001 93.4591C113.286 93.3825 112.562 93.2823 111.856 93.4046C110.062 93.717 108.57 95.2537 107.012 96.1038C105.752 96.7919 104.418 97.3297 103.084 97.8557C101.604 98.445 98.7578 98.9637 97.7687 100.256C99.1117 100.869 101.34 100.35 102.788 100.237C105.555 100.019 108.307 99.6393 111.029 99.0992Z" fill="#7497F7"/>
<path d="M118.293 18H57.6198V57.5956H118.293V18Z" fill="#7497F7"/>
<path d="M118.293 18H57.6198V57.5956H118.293V18Z" fill="url(#paint0_linear_1036_4739)"/>
<path d="M57.6198 25.7883H103.078L108.956 54.7431L57.2689 31.9455L57.6198 25.7883Z" fill="url(#paint1_linear_1036_4739)"/>
<path d="M104.1 45.2767V78.5426C104.1 79.246 103.819 79.9206 103.319 80.4179C102.82 80.9153 102.142 81.1947 101.435 81.1947H29.6431C28.9363 81.1947 28.2584 80.9153 27.7586 80.4179C27.2588 79.9206 26.978 79.246 26.978 78.5426V36.6471C26.978 35.9437 27.2588 35.2691 27.7586 34.7718C28.2584 34.2744 28.9363 33.995 29.6431 33.995H48.4872C49.2496 33.995 49.984 34.2813 50.5434 34.7968C51.1028 35.3122 51.4462 36.0188 51.5047 36.7753L51.6957 39.28C51.7659 40.1907 52.179 41.0415 52.8524 41.6622C53.5258 42.2828 54.4099 42.6276 55.3277 42.6275H101.439C102.066 42.6284 102.673 42.8493 103.153 43.2514C103.632 43.6534 103.954 44.2109 104.061 44.8258C104.087 44.9748 104.1 45.1256 104.1 45.2767Z" fill="#7497F7"/>
<path d="M104.1 45.2767V78.5426C104.1 79.246 103.819 79.9206 103.319 80.4179C102.82 80.9153 102.142 81.1947 101.435 81.1947H29.6431C28.9363 81.1947 28.2584 80.9153 27.7586 80.4179C27.2588 79.9206 26.978 79.246 26.978 78.5426V36.6471C26.978 35.9437 27.2588 35.2691 27.7586 34.7718C28.2584 34.2744 28.9363 33.995 29.6431 33.995H48.4872C49.2496 33.995 49.984 34.2813 50.5434 34.7968C51.1028 35.3122 51.4462 36.0188 51.5047 36.7753L51.6957 39.28C51.7659 40.1907 52.179 41.0415 52.8524 41.6622C53.5258 42.2828 54.4099 42.6276 55.3277 42.6275H101.439C102.066 42.6284 102.673 42.8493 103.153 43.2514C103.632 43.6534 103.954 44.2109 104.061 44.8258C104.087 44.9748 104.1 45.1256 104.1 45.2767Z" fill="url(#paint2_linear_1036_4739)"/>
<path d="M56.376 42.6275H55.3277C54.4098 42.6276 53.5258 42.2828 52.8524 41.6622C52.179 41.0415 51.7659 40.1907 51.6957 39.28L51.5047 36.7753C51.4901 36.5758 51.4554 36.3784 51.4011 36.1859H52.8817C53.6442 36.1856 54.3788 36.4718 54.9383 36.9873C55.4978 37.5028 55.841 38.2096 55.8992 38.9662L56.0917 41.4709C56.1213 41.8695 56.2174 42.2604 56.376 42.6275V42.6275Z" fill="#222A72"/>
<path d="M104.1 45.2767V78.5426C104.1 79.246 103.819 79.9206 103.319 80.4179C102.82 80.9153 102.142 81.1947 101.435 81.1947H31.4184C31.393 81.0462 31.3801 80.8959 31.3799 80.7453V38.838C31.3799 38.1346 31.6607 37.4601 32.1605 36.9627C32.6603 36.4653 33.3382 36.1859 34.045 36.1859H51.4011C51.4554 36.3784 51.4901 36.5758 51.5047 36.7753L51.6957 39.28C51.7659 40.1907 52.179 41.0415 52.8524 41.6622C53.5258 42.2828 54.4098 42.6276 55.3277 42.6275H56.376C56.6571 43.2797 57.1242 43.8355 57.7195 44.2262C58.3148 44.6169 59.0121 44.8254 59.7252 44.8258H104.061C104.087 44.9748 104.1 45.1256 104.1 45.2767Z" fill="#7497F7"/>
<path d="M104.1 44.179V77.4405C104.1 78.1439 103.819 78.8185 103.319 79.3158C102.82 79.8132 102.142 80.0926 101.435 80.0926H31.4184C31.393 79.9442 31.3801 79.7938 31.3799 79.6432V37.7433C31.3799 37.0399 31.6607 36.3653 32.1605 35.868C32.6603 35.3706 33.3382 35.0912 34.045 35.0912H51.4011C51.4547 35.2838 51.4894 35.4812 51.5047 35.6805L51.6957 38.1853C51.7658 39.0961 52.1789 39.9471 52.8523 40.568C53.5256 41.1889 54.4097 41.534 55.3277 41.5343H56.376C56.6571 42.1864 57.1242 42.7422 57.7195 43.1329C58.3148 43.5236 59.0121 43.7321 59.7252 43.7326H104.061C104.087 43.88 104.1 44.0294 104.1 44.179V44.179Z" fill="url(#paint3_linear_1036_4739)"/>
<path d="M100.366 26.7165V42.629H55.3277C54.4097 42.6287 53.5256 42.2836 52.8523 41.6627C52.1789 41.0418 51.7659 40.1908 51.6957 39.28L51.5047 36.7753C51.4465 36.0187 51.1033 35.3119 50.5438 34.7964C49.9842 34.2809 49.2497 33.9946 48.4872 33.995H35.5212V26.7165H100.366Z" fill="#7497F7"/>
<path d="M100.366 26.7165V42.629H55.3277C54.4097 42.6287 53.5256 42.2836 52.8523 41.6627C52.1789 41.0418 51.7659 40.1908 51.6957 39.28L51.5047 36.7753C51.4465 36.0187 51.1033 35.3119 50.5438 34.7964C49.9842 34.2809 49.2497 33.9946 48.4872 33.995H35.5212V26.7165H100.366Z" fill="url(#paint4_linear_1036_4739)"/>
<path d="M57.3059 32.4671V42.6334H56.376V32.4671C56.3758 32.4066 56.3876 32.3466 56.4108 32.2905C56.4339 32.2345 56.4678 32.1836 56.5107 32.1406C56.5536 32.0976 56.6046 32.0635 56.6608 32.0401C56.7169 32.0168 56.7771 32.0047 56.838 32.0045V32.0045C56.8985 32.0039 56.9585 32.0152 57.0146 32.0377C57.0707 32.0601 57.1217 32.0934 57.1649 32.1356C57.2081 32.1777 57.2425 32.2279 57.2662 32.2833C57.2899 32.3386 57.3023 32.3981 57.3029 32.4583V32.4583L57.3059 32.4671Z" fill="url(#paint5_linear_1036_4739)"/>
<path d="M61.7907 32.4671V42.6334H60.8609V32.4671C60.8609 32.3444 60.9099 32.2267 60.9971 32.14C61.0843 32.0532 61.2025 32.0045 61.3258 32.0045C61.4491 32.0045 61.5674 32.0532 61.6546 32.14C61.7418 32.2267 61.7907 32.3444 61.7907 32.4671V32.4671Z" fill="url(#paint6_linear_1036_4739)"/>
<path d="M66.2756 32.4671V42.6334H65.3442V32.4671C65.3442 32.3444 65.3932 32.2267 65.4804 32.14C65.5676 32.0532 65.6859 32.0045 65.8092 32.0045C65.9325 32.0045 66.0507 32.0532 66.1379 32.14C66.2251 32.2267 66.2741 32.3444 66.2741 32.4671V32.4671H66.2756Z" fill="url(#paint7_linear_1036_4739)"/>
<path d="M70.7604 32.4671V42.6334H69.8306V32.4671C69.8304 32.4065 69.8422 32.3465 69.8653 32.2905C69.8884 32.2345 69.9224 32.1835 69.9653 32.1406C70.0082 32.0976 70.0591 32.0635 70.1153 32.0401C70.1714 32.0168 70.2317 32.0046 70.2925 32.0045C70.4159 32.005 70.5342 32.053 70.6227 32.1385C70.7105 32.2256 70.7601 32.3437 70.7604 32.4671V32.4671Z" fill="url(#paint8_linear_1036_4739)"/>
<path d="M75.2453 32.4671V42.6334H74.3154V32.4671C74.3154 32.3444 74.3644 32.2267 74.4516 32.14C74.5388 32.0532 74.657 32.0045 74.7804 32.0045C74.9037 32.0045 75.0219 32.0532 75.1091 32.14C75.1963 32.2267 75.2453 32.3444 75.2453 32.4671V32.4671Z" fill="url(#paint9_linear_1036_4739)"/>
<path d="M79.7301 32.4671V42.6334H78.8003V32.4671C78.7999 32.4065 78.8116 32.3464 78.8346 32.2903C78.8577 32.2342 78.8916 32.1831 78.9346 32.1401C78.9775 32.0971 79.0285 32.063 79.0848 32.0397C79.141 32.0164 79.2013 32.0045 79.2623 32.0045V32.0045C79.3856 32.005 79.504 32.053 79.5924 32.1385C79.6361 32.1815 79.6707 32.2327 79.6943 32.2891C79.718 32.3455 79.7301 32.406 79.7301 32.4671V32.4671Z" fill="url(#paint10_linear_1036_4739)"/>
<path d="M84.215 32.4671V42.6334H83.2852V32.4671C83.2852 32.3444 83.3341 32.2267 83.4213 32.14C83.5085 32.0532 83.6268 32.0045 83.7501 32.0045C83.8734 32.0045 83.9916 32.0532 84.0788 32.14C84.166 32.2267 84.215 32.3444 84.215 32.4671V32.4671Z" fill="url(#paint11_linear_1036_4739)"/>
<path d="M88.6998 32.4671V42.6334H87.77V32.4671C87.77 32.4063 87.782 32.3462 87.8053 32.2901C87.8287 32.2339 87.863 32.1829 87.9061 32.14C87.9493 32.097 88.0006 32.0629 88.057 32.0397C88.1134 32.0164 88.1738 32.0045 88.2349 32.0045C88.2959 32.0045 88.3564 32.0164 88.4128 32.0397C88.4692 32.0629 88.5205 32.097 88.5636 32.14C88.6068 32.1829 88.641 32.2339 88.6644 32.2901C88.6878 32.3462 88.6998 32.4063 88.6998 32.4671V32.4671Z" fill="url(#paint12_linear_1036_4739)"/>
<path d="M109.763 52.6067C109.248 52.8896 108.715 53.1651 108.135 53.2535C106.654 53.4789 105.234 52.4402 103.728 52.4314C103.095 52.4381 102.477 52.6242 101.946 52.9679C101.416 53.3115 100.994 53.7985 100.731 54.3718C102.104 54.6208 103.512 54.5751 104.907 54.5295L112.63 54.2716C113.194 54.2525 113.828 54.2024 114.192 53.7751C114.423 53.5055 114.488 53.1401 114.636 52.8174C114.885 52.2737 115.345 51.8582 115.673 51.3558C116.035 50.7974 116.413 49.7646 116.177 49.0912C115.844 48.163 114.946 49.2666 114.442 49.6334C112.948 50.7237 111.386 51.7169 109.763 52.6067V52.6067Z" fill="#7497F7"/>
<path d="M109.763 52.6067C109.248 52.8896 108.715 53.1651 108.135 53.2535C106.654 53.4789 105.234 52.4402 103.728 52.4314C103.095 52.4381 102.477 52.6242 101.946 52.9679C101.416 53.3115 100.994 53.7985 100.731 54.3718C102.104 54.6208 103.512 54.5751 104.907 54.5295L112.63 54.2716C113.194 54.2525 113.828 54.2024 114.192 53.7751C114.423 53.5055 114.488 53.1401 114.636 52.8174C114.885 52.2737 115.345 51.8582 115.673 51.3558C116.035 50.7974 116.413 49.7646 116.177 49.0912C115.844 48.163 114.946 49.2666 114.442 49.6334C112.948 50.7237 111.386 51.7169 109.763 52.6067V52.6067Z" fill="url(#paint13_linear_1036_4739)"/>
<path d="M116.878 35.4021C116.878 35.8235 117.174 36.1889 117.255 36.6014C117.369 37.1451 117.121 37.7551 117.389 38.2413C117.685 38.7835 118.425 38.841 119.001 39.0841C119.441 39.282 119.808 39.6124 120.05 40.0287C120.292 40.445 120.396 40.9262 120.348 41.4046C120.318 41.5178 120.33 41.638 120.381 41.7435C120.424 41.7883 120.476 41.8236 120.533 41.8472C120.59 41.8708 120.652 41.8821 120.714 41.8805L122.156 42.0279C122.324 42.0616 122.497 42.0458 122.655 41.9822C122.799 41.8864 122.907 41.7453 122.96 41.5814C123.376 40.5884 123.301 39.4642 123.553 38.4166C123.875 37.0287 124.75 35.8014 124.975 34.3943C125.115 33.5034 124.986 32.5914 124.605 31.7732C124.368 31.2663 124.013 30.786 123.502 30.5547C123.139 30.4147 122.752 30.3442 122.362 30.3469C120.898 30.2762 118.884 30.4471 118.48 32.1813C118.345 32.7706 118.438 33.2303 118.052 33.749C117.666 34.2676 116.882 34.6639 116.878 35.4021Z" fill="url(#paint14_linear_1036_4739)"/>
<path d="M117.806 29.5248C117.683 30.4309 118.425 31.2118 119.157 31.7629C119.888 32.3139 122.31 33.4558 122.466 34.163C122.621 34.8702 122.572 35.604 122.522 36.3259C122.629 36.7679 123.326 35.4979 123.462 35.4507C123.983 35.0971 124.127 35.6246 124.17 35.8161C124.204 36.0036 124.176 36.1968 124.09 36.3672C123.872 36.8991 122.975 38.1809 123.24 39.1504C124.041 39.2977 124.284 37.2939 125.017 36.955C126.053 36.4791 126.942 36.0091 127.238 34.9144C127.586 33.6164 127.883 32.168 127.25 30.9805C127.154 30.7888 127.019 30.6195 126.853 30.484C126.705 30.3735 126.535 30.3042 126.381 30.207C125.962 29.9462 125.698 29.5056 125.387 29.124C124.643 28.213 123.6 27.5922 122.442 27.3707C121.465 27.188 120.266 27.2735 119.386 27.7759C118.752 28.1383 117.907 28.766 117.806 29.5248Z" fill="#3F3D56"/>
<path d="M125.26 57.7459C125.615 57.0324 125.931 56.3006 126.207 55.5535C127.253 52.5743 126.995 49.3182 126.677 46.1784C126.646 45.7021 126.564 45.2304 126.432 44.7713C126.235 44.2339 125.966 43.7255 125.633 43.2596C125.171 42.5603 124.687 41.8727 124.182 41.1969C124.053 41.026 123.906 40.8448 123.698 40.7947C123.549 40.7723 123.396 40.786 123.253 40.8344L122.036 41.1424C120.95 41.4179 119.771 41.7538 119.125 42.6673C117.143 45.4668 115.4 48.6728 114.315 51.926C113.328 54.8915 112.341 57.8574 111.354 60.8238C110.966 61.9848 110.6 63.3359 111.266 64.3599C112.052 65.5681 113.783 65.6211 115.222 65.5386L117.784 65.3913C118.862 65.3309 120.052 65.2218 120.799 64.4454C121.026 64.1876 121.222 63.9037 121.382 63.5996C122.7 61.3174 124.126 60.1387 125.26 57.7459Z" fill="#7497F7"/>
<path d="M125.26 57.7459C125.615 57.0324 125.931 56.3006 126.207 55.5535C127.253 52.5743 126.995 49.3182 126.677 46.1784C126.646 45.7021 126.564 45.2304 126.432 44.7713C126.235 44.2339 125.966 43.7255 125.633 43.2596C125.171 42.5603 124.687 41.8727 124.182 41.1969C124.053 41.026 123.906 40.8448 123.698 40.7947C123.549 40.7723 123.396 40.786 123.253 40.8344L122.036 41.1424C120.95 41.4179 119.771 41.7538 119.125 42.6673C117.143 45.4668 115.4 48.6728 114.315 51.926C113.328 54.8915 112.341 57.8574 111.354 60.8238C110.966 61.9848 110.6 63.3359 111.266 64.3599C112.052 65.5681 113.783 65.6211 115.222 65.5386L117.784 65.3913C118.862 65.3309 120.052 65.2218 120.799 64.4454C121.026 64.1876 121.222 63.9037 121.382 63.5996C122.7 61.3174 124.126 60.1387 125.26 57.7459Z" fill="url(#paint15_linear_1036_4739)"/>
<path d="M141 54.0683H91.516V84.6291H141V54.0683Z" fill="#7497F7"/>
<path d="M141 54.0683H91.516V84.6291H141V54.0683Z" fill="url(#paint16_linear_1036_4739)"/>
<path d="M118.754 72.3589C118.976 72.4284 119.21 72.4515 119.441 72.4266C119.31 72.7331 119.737 73.0027 120.073 72.9394C120.409 72.876 120.683 72.6447 121.015 72.6108C121.192 72.5946 121.379 72.6344 121.546 72.5696C121.693 72.499 121.814 72.3853 121.894 72.2439C122.257 71.7106 122.486 71.0991 122.7 70.495C123.199 69.1189 123.561 67.6853 124.198 66.3696C126.419 61.7756 126.663 55.0879 126.628 54.0418C126.25 54.0536 125.107 54.0919 124.736 54.1582C124.611 54.1714 124.491 54.2154 124.388 54.2864C124.291 54.377 124.221 54.4929 124.188 54.6208C123.803 55.7259 123.902 56.9296 123.781 58.0936C123.492 60.8812 121.955 63.3727 121.183 66.0675C120.852 67.2271 120.661 68.5575 119.87 69.5152C119.687 69.7377 119.368 69.9573 119.245 70.2122C119.081 70.5584 119.318 70.6925 119.299 71.0372C119.29 71.1713 118.585 72.3058 118.754 72.3589Z" fill="url(#paint17_linear_1036_4739)"/>
<path d="M102.182 56.2238C102.574 56.2764 102.972 56.2427 103.349 56.1251C103.724 56.0066 104.115 55.9426 104.509 55.9351C104.83 55.9483 105.215 56.0235 105.422 55.7789C105.693 55.4577 105.376 54.886 105.663 54.5795C105.735 54.5029 105.834 54.4573 105.905 54.3821C105.944 54.3481 105.969 54.3007 105.975 54.2492C105.981 54.1976 105.968 54.1457 105.937 54.1036C105.887 54.0665 105.824 54.0482 105.761 54.0521C104.497 53.9838 103.229 54.0054 101.968 54.1169C101.649 54.1449 101.285 54.2038 101.115 54.4749C100.709 55.1173 101.58 56.103 102.182 56.2238Z" fill="url(#paint18_linear_1036_4739)"/>
<path d="M101.176 80.2208C101.053 80.22 100.935 80.1711 100.848 80.0845C100.761 79.9979 100.712 79.8806 100.711 79.7582V59.4359C100.712 59.3134 100.761 59.1962 100.848 59.1096C100.935 59.023 101.053 58.974 101.176 58.9732V58.9732C101.237 58.973 101.297 58.9848 101.353 59.0077C101.409 59.0307 101.461 59.0646 101.504 59.1072C101.547 59.1499 101.581 59.2007 101.605 59.2565C101.628 59.3124 101.64 59.3723 101.641 59.4329V59.4329V79.7655C101.638 79.8868 101.588 80.0024 101.501 80.0875C101.415 80.1726 101.298 80.2205 101.176 80.2208Z" fill="url(#paint19_linear_1036_4739)"/>
<path d="M105.665 80.2208C105.542 80.22 105.424 80.1711 105.337 80.0845C105.25 79.9979 105.201 79.8806 105.2 79.7582V59.4359C105.201 59.3134 105.25 59.1962 105.337 59.1096C105.424 59.023 105.542 58.974 105.665 58.9732C105.726 58.973 105.786 58.9848 105.842 59.0077C105.899 59.0307 105.95 59.0646 105.993 59.1072C106.036 59.1499 106.071 59.2007 106.094 59.2565C106.117 59.3124 106.13 59.3723 106.13 59.4329V59.4329V79.7655C106.128 79.8868 106.078 80.0024 105.991 80.0875C105.904 80.1726 105.787 80.2205 105.665 80.2208Z" fill="url(#paint20_linear_1036_4739)"/>
<path d="M110.15 80.2208C110.027 80.22 109.909 80.1711 109.822 80.0845C109.735 79.9979 109.686 79.8806 109.685 79.7582V59.4359C109.686 59.3134 109.735 59.1962 109.822 59.1096C109.909 59.023 110.027 58.974 110.15 58.9732V58.9732C110.211 58.973 110.271 58.9848 110.327 59.0077C110.384 59.0307 110.435 59.0646 110.478 59.1072C110.521 59.1499 110.555 59.2007 110.579 59.2565C110.602 59.3124 110.615 59.3723 110.615 59.4329V59.4329V79.7655C110.612 79.8868 110.562 80.0024 110.476 80.0875C110.389 80.1726 110.272 80.2205 110.15 80.2208V80.2208Z" fill="url(#paint21_linear_1036_4739)"/>
<path d="M114.635 80.2208C114.512 80.22 114.394 80.1711 114.307 80.0845C114.22 79.9979 114.171 79.8806 114.17 79.7582V59.4359C114.171 59.3134 114.22 59.1962 114.307 59.1096C114.394 59.023 114.512 58.974 114.635 58.9732V58.9732C114.696 58.973 114.756 58.9848 114.812 59.0077C114.868 59.0307 114.92 59.0646 114.963 59.1072C115.006 59.1499 115.04 59.2007 115.064 59.2565C115.087 59.3124 115.099 59.3723 115.1 59.4329V59.4329V79.7655C115.097 79.8868 115.047 80.0024 114.96 80.0875C114.874 80.1726 114.757 80.2205 114.635 80.2208V80.2208Z" fill="url(#paint22_linear_1036_4739)"/>
<path d="M119.12 80.2208C118.996 80.22 118.879 80.171 118.792 80.0845C118.705 79.9979 118.655 79.8806 118.655 79.7582V79.7582V59.4358C118.654 59.3753 118.666 59.3153 118.689 59.2593C118.712 59.2032 118.746 59.1523 118.789 59.1093C118.832 59.0664 118.883 59.0322 118.939 59.0089C118.995 58.9855 119.056 58.9734 119.117 58.9732C119.24 58.974 119.357 59.023 119.444 59.1096C119.531 59.1962 119.581 59.3134 119.581 59.4358V59.4358V79.7582C119.581 79.8801 119.532 79.9969 119.446 80.0834C119.359 80.1699 119.242 80.2193 119.12 80.2208V80.2208Z" fill="url(#paint23_linear_1036_4739)"/>
<path d="M123.604 80.2208C123.481 80.22 123.364 80.171 123.276 80.0845C123.189 79.9979 123.14 79.8806 123.139 79.7582V79.7582V59.4358C123.139 59.3753 123.151 59.3153 123.174 59.2593C123.197 59.2032 123.231 59.1523 123.274 59.1093C123.317 59.0664 123.368 59.0322 123.424 59.0089C123.48 58.9855 123.541 58.9734 123.601 58.9732V58.9732C123.724 58.974 123.842 59.023 123.929 59.1096C124.016 59.1962 124.066 59.3134 124.066 59.4358V59.4358V79.7582C124.066 79.8801 124.017 79.9969 123.93 80.0834C123.844 80.1699 123.727 80.2193 123.604 80.2208Z" fill="url(#paint24_linear_1036_4739)"/>
<path d="M128.089 80.2208C127.966 80.22 127.848 80.171 127.761 80.0845C127.674 79.9979 127.625 79.8806 127.624 79.7582V79.7582V59.4358C127.624 59.3753 127.636 59.3153 127.659 59.2593C127.682 59.2032 127.716 59.1523 127.759 59.1093C127.802 59.0664 127.853 59.0322 127.909 59.0089C127.965 58.9855 128.025 58.9734 128.086 58.9732C128.209 58.974 128.327 59.023 128.414 59.1096C128.501 59.1962 128.55 59.3134 128.551 59.4358V59.4358V79.7582C128.55 79.8801 128.502 79.9969 128.415 80.0834C128.329 80.1699 128.212 80.2193 128.089 80.2208V80.2208Z" fill="url(#paint25_linear_1036_4739)"/>
<path d="M132.574 58.9732C132.697 58.974 132.815 59.023 132.902 59.1096C132.989 59.1962 133.038 59.3134 133.039 59.4358V79.7582C133.038 79.8806 132.989 79.9979 132.902 80.0845C132.815 80.171 132.697 80.22 132.574 80.2208V80.2208C132.451 80.22 132.333 80.171 132.246 80.0845C132.159 79.9979 132.11 79.8806 132.109 79.7582V59.4358C132.11 59.3134 132.159 59.1962 132.246 59.1096C132.333 59.023 132.451 58.974 132.574 58.9732V58.9732Z" fill="url(#paint26_linear_1036_4739)"/>
<path d="M120.572 51.8126C120.411 55.8398 120.102 59.8558 119.644 63.8604C119.553 64.659 119.459 65.4811 119.676 66.2547C119.765 66.5729 119.972 67.4717 120.184 67.728C120.48 68.1008 120.84 67.7811 121.314 67.8312C122.02 67.9063 122.284 68.3071 122.695 67.731C123.107 67.1549 123.707 65.6182 123.88 64.9316C125.173 59.5169 125.531 53.9227 124.938 48.3885C124.845 47.5133 124.721 46.6204 124.32 45.8366C123.918 45.0527 123.184 44.3838 122.304 44.2851C120.944 44.1378 120.126 45.2796 120.231 46.4657C120.397 48.2853 120.642 49.9723 120.572 51.8126Z" fill="#7497F7"/>
<path d="M101.411 53.6749C101.264 53.7451 101.137 53.8529 101.045 53.9873C100.98 54.1172 100.942 54.2591 100.934 54.4042C100.868 54.9582 100.806 55.5491 101.053 56.05C101.066 56.0855 101.091 56.1159 101.122 56.1369C101.154 56.1473 101.188 56.1473 101.22 56.1369C101.278 56.1202 101.332 56.0909 101.378 56.0512C101.424 56.0115 101.461 55.9623 101.485 55.9071C101.533 55.796 101.564 55.6782 101.575 55.5579C101.652 55.0732 101.724 54.5869 101.805 54.1007C101.71 54.4298 101.678 54.7735 101.709 55.1144C101.741 55.4574 101.888 55.7799 102.125 56.0309C102.164 56.0763 102.215 56.1096 102.273 56.1266C102.421 56.1546 102.528 56.0029 102.587 55.8688C102.818 55.3489 102.922 54.7819 102.892 54.2142C102.822 54.7718 102.926 55.3372 103.188 55.8349C103.212 55.8836 103.244 55.9276 103.284 55.9646C103.364 56.0151 103.458 56.0379 103.552 56.0294C103.642 56.0415 103.733 56.0217 103.81 55.9734C103.861 55.9257 103.897 55.8643 103.913 55.7966C104.075 55.3114 104.137 54.7988 104.095 54.2893C104.138 54.8414 104.251 55.3858 104.43 55.91C104.454 56.0116 104.509 56.1032 104.587 56.1723C104.665 56.2147 104.756 56.2268 104.843 56.2061C104.929 56.1854 105.005 56.1334 105.055 56.0603C105.151 55.9103 105.203 55.736 105.203 55.5579C105.225 55.3251 105.128 55.0835 105.194 54.8595C105.914 52.4388 101.88 53.4068 101.411 53.6749Z" fill="url(#paint27_linear_1036_4739)"/>
<path d="M118.708 69.8409C118.464 69.9514 118.173 70.1517 118.242 70.4096C118.295 70.61 118.547 70.691 118.752 70.6601C118.958 70.6291 119.146 70.5245 119.345 70.4892C119.384 70.4777 119.425 70.4755 119.465 70.4826C119.505 70.4898 119.543 70.5061 119.576 70.5304C119.61 70.5694 119.632 70.6176 119.639 70.6689C119.707 71.0269 119.515 71.3805 119.293 71.6708C119.071 71.9611 118.81 72.2351 118.701 72.5828C118.964 72.7154 119.282 72.5548 119.494 72.35C119.706 72.1452 119.878 71.8874 120.143 71.7607L119.462 72.9688C119.399 73.0779 119.34 73.2237 119.422 73.3195C119.531 73.4477 119.737 73.3313 119.855 73.212C120.207 72.8568 120.523 72.469 120.8 72.0539C120.593 72.4692 120.463 72.9185 120.417 73.3799C120.622 73.402 120.769 73.1972 120.87 73.0175L121.462 71.9463C121.456 72.2775 121.375 72.603 121.224 72.8981C121.533 72.8318 121.681 72.49 121.782 72.1924C122.06 71.3732 122.341 70.5304 122.304 69.6655C122.297 69.4769 122.26 69.2633 122.1 69.1602C121.997 69.1054 121.879 69.0809 121.762 69.0894C120.605 69.0732 119.761 69.3635 118.708 69.8409Z" fill="url(#paint28_linear_1036_4739)"/>
<path d="M120.097 67.9608C120.117 67.8315 120.175 67.7108 120.263 67.6131C120.391 67.5175 120.547 67.4658 120.707 67.4658L121.841 67.3361C122.124 67.3037 122.472 67.3007 122.626 67.5409C122.695 67.6773 122.719 67.8321 122.694 67.9829C122.667 68.365 122.596 68.7428 122.482 69.1086C122.451 69.2044 120.571 69.3944 120.4 69.3517C119.753 69.1793 119.941 68.59 120.097 67.9608Z" fill="#7497F7"/>
<path d="M120.097 67.9608C120.117 67.8315 120.175 67.7108 120.263 67.6131C120.391 67.5175 120.547 67.4658 120.707 67.4658L121.841 67.3361C122.124 67.3037 122.472 67.3007 122.626 67.5409C122.695 67.6773 122.719 67.8321 122.694 67.9829C122.667 68.365 122.596 68.7428 122.482 69.1086C122.451 69.2044 120.571 69.3944 120.4 69.3517C119.753 69.1793 119.941 68.59 120.097 67.9608Z" fill="url(#paint29_linear_1036_4739)"/>
<path d="M108.496 84.6292L105.04 96.204H108.164L114.67 84.6292H108.496Z" fill="#7497F7"/>
<path d="M123.684 84.6292L127.142 96.204H124.017L117.51 84.6292H123.684Z" fill="#7497F7"/>
<path d="M107.994 98.6454C107.698 98.7206 107.384 98.7928 107.092 98.7059C106.801 98.6189 106.558 98.2992 106.669 98.0045C105.964 98.1887 105.311 98.5408 104.606 98.725C103.451 99.0285 102.237 98.8723 101.053 98.7073C101.155 98.303 101.341 97.9242 101.597 97.5946C101.854 97.265 102.176 96.9917 102.544 96.7919C103.284 96.3971 104.144 96.3263 104.979 96.2645L106.583 96.1451C106.904 96.1215 107.599 95.9271 107.879 96.154C108.158 96.3809 108.181 98.5939 107.994 98.6454Z" fill="#7497F7"/>
<path d="M127.235 98.6454C126.939 98.7206 126.623 98.7928 126.332 98.7058C126.04 98.6189 125.793 98.2992 125.902 98.0045C125.196 98.1887 124.543 98.5408 123.838 98.725C122.683 99.0285 121.469 98.8723 120.285 98.7073C120.387 98.3028 120.573 97.9238 120.83 97.5942C121.086 97.2646 121.409 96.9914 121.777 96.7919C122.518 96.3971 123.376 96.3263 124.211 96.2645L125.806 96.1466C126.129 96.123 126.823 95.9285 127.102 96.1554C127.38 96.3823 127.41 98.5939 127.235 98.6454Z" fill="#7497F7"/>
<path d="M108.496 84.6292L105.04 96.204H108.164L114.67 84.6292H108.496Z" fill="url(#paint30_linear_1036_4739)"/>
<path d="M123.684 84.6292L127.142 96.204H124.017L117.51 84.6292H123.684Z" fill="url(#paint31_linear_1036_4739)"/>
<path d="M107.994 98.6454C107.698 98.7206 107.384 98.7928 107.092 98.7059C106.801 98.6189 106.558 98.2992 106.669 98.0045C105.964 98.1887 105.311 98.5408 104.606 98.725C103.451 99.0285 102.237 98.8723 101.053 98.7073C101.155 98.303 101.341 97.9242 101.597 97.5946C101.854 97.265 102.176 96.9917 102.544 96.7919C103.284 96.3971 104.144 96.3263 104.979 96.2645L106.583 96.1451C106.904 96.1215 107.599 95.9271 107.879 96.154C108.158 96.3809 108.181 98.5939 107.994 98.6454Z" fill="url(#paint32_linear_1036_4739)"/>
<path d="M127.235 98.6454C126.939 98.7206 126.623 98.7928 126.332 98.7058C126.04 98.6189 125.793 98.2992 125.902 98.0045C125.196 98.1887 124.543 98.5408 123.838 98.725C122.683 99.0285 121.469 98.8723 120.285 98.7073C120.387 98.3028 120.573 97.9238 120.83 97.5942C121.086 97.2646 121.409 96.9914 121.777 96.7919C122.518 96.3971 123.376 96.3263 124.211 96.2645L125.806 96.1466C126.129 96.123 126.823 95.9285 127.102 96.1554C127.38 96.3823 127.41 98.5939 127.235 98.6454Z" fill="url(#paint33_linear_1036_4739)"/>
<defs>
<linearGradient id="paint0_linear_1036_4739" x1="77.1582" y1="53.7" x2="128.232" y2="-22.2557" gradientUnits="userSpaceOnUse">
<stop offset="0.03" stop-color="white"/>
<stop offset="0.09" stop-color="white" stop-opacity="0.84"/>
<stop offset="0.18" stop-color="white" stop-opacity="0.64"/>
<stop offset="0.28" stop-color="white" stop-opacity="0.47"/>
<stop offset="0.37" stop-color="white" stop-opacity="0.33"/>
<stop offset="0.47" stop-color="white" stop-opacity="0.21"/>
<stop offset="0.58" stop-color="white" stop-opacity="0.12"/>
<stop offset="0.69" stop-color="white" stop-opacity="0.05"/>
<stop offset="0.82" stop-color="white" stop-opacity="0.01"/>
<stop offset="0.98" stop-color="white" stop-opacity="0"/>
</linearGradient>
<linearGradient id="paint1_linear_1036_4739" x1="120.842" y1="-15.3897" x2="64.7989" y2="68.4868" gradientUnits="userSpaceOnUse">
<stop offset="0.01"/>
<stop offset="0.1" stop-opacity="0.77"/>
<stop offset="0.97" stop-opacity="0"/>
</linearGradient>
<linearGradient id="paint2_linear_1036_4739" x1="121.4" y1="56.3255" x2="-6.97832" y2="59.2731" gradientUnits="userSpaceOnUse">
<stop offset="0.01"/>
<stop offset="0.1" stop-opacity="0.77"/>
<stop offset="0.97" stop-opacity="0"/>
</linearGradient>
<linearGradient id="paint3_linear_1036_4739" x1="83.0142" y1="98.2329" x2="57.548" y2="37.0795" gradientUnits="userSpaceOnUse">
<stop offset="0.01"/>
<stop offset="0.1" stop-opacity="0.77"/>
<stop offset="0.97" stop-opacity="0"/>
</linearGradient>
<linearGradient id="paint4_linear_1036_4739" x1="68.3603" y1="19.3113" x2="67.3355" y2="57.4294" gradientUnits="userSpaceOnUse">
<stop offset="0.03" stop-color="white"/>
<stop offset="0.09" stop-color="white" stop-opacity="0.84"/>
<stop offset="0.18" stop-color="white" stop-opacity="0.64"/>
<stop offset="0.28" stop-color="white" stop-opacity="0.47"/>
<stop offset="0.37" stop-color="white" stop-opacity="0.33"/>
<stop offset="0.47" stop-color="white" stop-opacity="0.21"/>
<stop offset="0.58" stop-color="white" stop-opacity="0.12"/>
<stop offset="0.69" stop-color="white" stop-opacity="0.05"/>
<stop offset="0.82" stop-color="white" stop-opacity="0.01"/>
<stop offset="0.98" stop-color="white" stop-opacity="0"/>
</linearGradient>
<linearGradient id="paint5_linear_1036_4739" x1="63.181" y1="36.8681" x2="53.2806" y2="37.6046" gradientUnits="userSpaceOnUse">
<stop offset="0.01" stop-color="white"/>
<stop offset="0.97" stop-color="white" stop-opacity="0"/>
</linearGradient>
<linearGradient id="paint6_linear_1036_4739" x1="67.6659" y1="36.8681" x2="57.7654" y2="37.6046" gradientUnits="userSpaceOnUse">
<stop offset="0.01" stop-color="white"/>
<stop offset="0.97" stop-color="white" stop-opacity="0"/>
</linearGradient>
<linearGradient id="paint7_linear_1036_4739" x1="72.1507" y1="36.8681" x2="62.2502" y2="37.6046" gradientUnits="userSpaceOnUse">
<stop offset="0.01" stop-color="white"/>
<stop offset="0.97" stop-color="white" stop-opacity="0"/>
</linearGradient>
<linearGradient id="paint8_linear_1036_4739" x1="76.6356" y1="36.8681" x2="66.7351" y2="37.6046" gradientUnits="userSpaceOnUse">
<stop offset="0.01" stop-color="white"/>
<stop offset="0.97" stop-color="white" stop-opacity="0"/>
</linearGradient>
<linearGradient id="paint9_linear_1036_4739" x1="81.1204" y1="36.8681" x2="71.2199" y2="37.6046" gradientUnits="userSpaceOnUse">
<stop offset="0.01" stop-color="white"/>
<stop offset="0.97" stop-color="white" stop-opacity="0"/>
</linearGradient>
<linearGradient id="paint10_linear_1036_4739" x1="85.6053" y1="36.8681" x2="75.7048" y2="37.6046" gradientUnits="userSpaceOnUse">
<stop offset="0.01" stop-color="white"/>
<stop offset="0.97" stop-color="white" stop-opacity="0"/>
</linearGradient>
<linearGradient id="paint11_linear_1036_4739" x1="90.0902" y1="36.8681" x2="80.1897" y2="37.6046" gradientUnits="userSpaceOnUse">
<stop offset="0.01" stop-color="white"/>
<stop offset="0.97" stop-color="white" stop-opacity="0"/>
</linearGradient>
<linearGradient id="paint12_linear_1036_4739" x1="94.575" y1="36.8681" x2="84.6745" y2="37.6046" gradientUnits="userSpaceOnUse">
<stop offset="0.01" stop-color="white"/>
<stop offset="0.97" stop-color="white" stop-opacity="0"/>
</linearGradient>
<linearGradient id="paint13_linear_1036_4739" x1="108.565" y1="57.6368" x2="108.464" y2="49.5951" gradientUnits="userSpaceOnUse">
<stop offset="0.01"/>
<stop offset="0.1" stop-opacity="0.77"/>
<stop offset="0.97" stop-opacity="0"/>
</linearGradient>
<linearGradient id="paint14_linear_1036_4739" x1="116.878" y1="36.1903" x2="125.03" y2="36.1903" gradientUnits="userSpaceOnUse">
<stop stop-color="#ECC4D7"/>
<stop offset="0.42" stop-color="#EFD4D1"/>
<stop offset="1" stop-color="#F2EAC9"/>
</linearGradient>
<linearGradient id="paint15_linear_1036_4739" x1="118.8" y1="63.4376" x2="119.216" y2="41.7022" gradientUnits="userSpaceOnUse">
<stop offset="0.01"/>
<stop offset="0.1" stop-opacity="0.77"/>
<stop offset="0.97" stop-opacity="0"/>
</linearGradient>
<linearGradient id="paint16_linear_1036_4739" x1="120.548" y1="42.3446" x2="110.353" y2="107.145" gradientUnits="userSpaceOnUse">
<stop offset="0.03" stop-color="white"/>
<stop offset="0.09" stop-color="white" stop-opacity="0.84"/>
<stop offset="0.18" stop-color="white" stop-opacity="0.64"/>
<stop offset="0.28" stop-color="white" stop-opacity="0.47"/>
<stop offset="0.37" stop-color="white" stop-opacity="0.33"/>
<stop offset="0.47" stop-color="white" stop-opacity="0.21"/>
<stop offset="0.58" stop-color="white" stop-opacity="0.12"/>
<stop offset="0.69" stop-color="white" stop-opacity="0.05"/>
<stop offset="0.82" stop-color="white" stop-opacity="0.01"/>
<stop offset="0.98" stop-color="white" stop-opacity="0"/>
</linearGradient>
<linearGradient id="paint17_linear_1036_4739" x1="118.727" y1="63.4935" x2="126.631" y2="63.4935" gradientUnits="userSpaceOnUse">
<stop offset="0.01"/>
<stop offset="0.1" stop-opacity="0.77"/>
<stop offset="0.97" stop-opacity="0"/>
</linearGradient>
<linearGradient id="paint18_linear_1036_4739" x1="101.432" y1="42.9516" x2="104.034" y2="57.7252" gradientUnits="userSpaceOnUse">
<stop offset="0.01"/>
<stop offset="0.1" stop-opacity="0.77"/>
<stop offset="0.97" stop-opacity="0"/>
</linearGradient>
<linearGradient id="paint19_linear_1036_4739" x1="101.079" y1="38.7909" x2="101.327" y2="115.455" gradientUnits="userSpaceOnUse">
<stop offset="0.01" stop-color="white"/>
<stop offset="0.97" stop-color="white" stop-opacity="0"/>
</linearGradient>
<linearGradient id="paint20_linear_1036_4739" x1="105.578" y1="42.6747" x2="105.825" y2="119.339" gradientUnits="userSpaceOnUse">
<stop offset="0.01" stop-color="white"/>
<stop offset="0.97" stop-color="white" stop-opacity="0"/>
</linearGradient>
<linearGradient id="paint21_linear_1036_4739" x1="110.062" y1="42.6614" x2="110.31" y2="119.324" gradientUnits="userSpaceOnUse">
<stop offset="0.01" stop-color="white"/>
<stop offset="0.97" stop-color="white" stop-opacity="0"/>
</linearGradient>
<linearGradient id="paint22_linear_1036_4739" x1="114.547" y1="42.6467" x2="114.795" y2="119.31" gradientUnits="userSpaceOnUse">
<stop offset="0.01" stop-color="white"/>
<stop offset="0.97" stop-color="white" stop-opacity="0"/>
</linearGradient>
<linearGradient id="paint23_linear_1036_4739" x1="119.031" y1="42.632" x2="119.278" y2="119.295" gradientUnits="userSpaceOnUse">
<stop offset="0.01" stop-color="white"/>
<stop offset="0.97" stop-color="white" stop-opacity="0"/>
</linearGradient>
<linearGradient id="paint24_linear_1036_4739" x1="123.516" y1="42.6172" x2="123.762" y2="119.28" gradientUnits="userSpaceOnUse">
<stop offset="0.01" stop-color="white"/>
<stop offset="0.97" stop-color="white" stop-opacity="0"/>
</linearGradient>
<linearGradient id="paint25_linear_1036_4739" x1="128" y1="42.6025" x2="128.247" y2="119.267" gradientUnits="userSpaceOnUse">
<stop offset="0.01" stop-color="white"/>
<stop offset="0.97" stop-color="white" stop-opacity="0"/>
</linearGradient>
<linearGradient id="paint26_linear_1036_4739" x1="132.485" y1="42.5878" x2="132.733" y2="119.252" gradientUnits="userSpaceOnUse">
<stop offset="0.01" stop-color="white"/>
<stop offset="0.97" stop-color="white" stop-opacity="0"/>
</linearGradient>
<linearGradient id="paint27_linear_1036_4739" x1="100.875" y1="54.7372" x2="105.279" y2="54.7372" gradientUnits="userSpaceOnUse">
<stop stop-color="#ECC4D7"/>
<stop offset="0.42" stop-color="#EFD4D1"/>
<stop offset="1" stop-color="#F2EAC9"/>
</linearGradient>
<linearGradient id="paint28_linear_1036_4739" x1="118.231" y1="71.2347" x2="122.327" y2="71.2347" gradientUnits="userSpaceOnUse">
<stop stop-color="#ECC4D7"/>
<stop offset="0.42" stop-color="#EFD4D1"/>
<stop offset="1" stop-color="#F2EAC9"/>
</linearGradient>
<linearGradient id="paint29_linear_1036_4739" x1="123.011" y1="62.4769" x2="120.999" y2="69.6177" gradientUnits="userSpaceOnUse">
<stop offset="0.01"/>
<stop offset="0.1" stop-opacity="0.77"/>
<stop offset="0.97" stop-opacity="0"/>
</linearGradient>
<linearGradient id="paint30_linear_1036_4739" x1="113.369" y1="79.0981" x2="101.456" y2="116.359" gradientUnits="userSpaceOnUse">
<stop offset="0.01"/>
<stop offset="0.1" stop-opacity="0.77"/>
<stop offset="0.97" stop-opacity="0"/>
</linearGradient>
<linearGradient id="paint31_linear_1036_4739" x1="119.313" y1="76.9101" x2="128.106" y2="116.724" gradientUnits="userSpaceOnUse">
<stop offset="0.01"/>
<stop offset="0.1" stop-opacity="0.77"/>
<stop offset="0.97" stop-opacity="0"/>
</linearGradient>
<linearGradient id="paint32_linear_1036_4739" x1="104.366" y1="88.9123" x2="105.034" y2="117.531" gradientUnits="userSpaceOnUse">
<stop offset="0.01"/>
<stop offset="0.1" stop-opacity="0.77"/>
<stop offset="0.97" stop-opacity="0"/>
</linearGradient>
<linearGradient id="paint33_linear_1036_4739" x1="123.587" y1="88.4644" x2="124.254" y2="117.083" gradientUnits="userSpaceOnUse">
<stop offset="0.01"/>
<stop offset="0.1" stop-opacity="0.77"/>
<stop offset="0.97" stop-opacity="0"/>
</linearGradient>
</defs>
</svg>
