<svg width="160" height="120" viewBox="0 0 160 120" fill="none" xmlns="http://www.w3.org/2000/svg">
<path opacity="0.18" d="M47.131 103.053C45.6441 103.694 44.076 105.16 44.6708 106.662C51.1953 109.025 58.3101 109.025 65.2537 108.994C82.0832 108.918 98.9127 108.846 115.72 108.693C117.121 108.693 118.585 108.653 119.816 107.985C121.046 107.317 121.929 105.792 121.393 104.506C120.888 103.304 119.455 102.829 118.18 102.524C113.971 101.514 109.687 100.842 105.37 100.515C101.864 100.246 97.9034 100.008 95.628 97.3404C94.7673 96.3316 94.2537 95.0627 93.375 94.0762C88.1166 88.18 75.7479 90.8075 71.2601 95.8294C64.4246 103.497 55.6472 99.3716 47.131 103.053Z" fill="#7497F7"/>
<path d="M63.5821 57.2373C62.5818 60.0845 61.7166 63.0304 61.6986 66.048C61.6806 69.0656 62.5998 72.1908 64.7401 74.3251C67.8717 77.4637 72.7471 77.809 77.1764 77.9839L83.034 78.217C85.3365 78.3067 87.6616 78.3964 89.919 77.939C92.1765 77.4817 94.3844 76.4011 95.7767 74.5627C96.6723 73.2585 97.2719 71.7759 97.534 70.2179C99.1201 62.5551 96.5472 54.3901 91.7124 48.2204C90.3067 46.3465 88.591 44.7242 86.6387 43.4227C83.3855 41.3646 73.7023 38.2798 70.5212 41.7278C69.0748 43.2927 68.1601 46.4627 67.2454 48.3818C65.8671 51.2668 64.6443 54.2228 63.5821 57.2373V57.2373Z" fill="white"/>
<path d="M66.5875 55.6052C65.7764 57.9099 65.078 60.2908 65.0645 62.7344C65.051 65.1781 65.7945 67.7025 67.5247 69.4288C70.057 71.9531 74.0042 72.2446 77.5819 72.3881L82.3266 72.5764C84.184 72.7228 86.0524 72.646 87.8914 72.3477C89.7163 71.9756 91.4961 71.1057 92.6135 69.6171C93.3412 68.5649 93.8273 67.3663 94.0374 66.1063C95.3216 59.9052 93.2399 53.305 89.3287 48.3145C88.1924 46.7973 86.8041 45.4841 85.2239 44.4315C82.5924 42.7681 74.7612 40.2751 72.1883 43.0595C71.0213 44.3284 70.2778 46.8931 69.5434 48.4401C68.4305 50.7743 67.4439 53.1661 66.5875 55.6052V55.6052Z" fill="url(#paint0_linear_1038_5389)"/>
<path d="M72.2514 96.4796C71.8008 97.2598 71.3007 98.0086 70.8726 98.7932C70.2193 100.013 69.7687 101.452 70.2012 102.761C70.2617 102.989 70.385 103.196 70.5572 103.358C70.7873 103.519 71.0563 103.617 71.3367 103.64C72.2476 103.782 73.1678 103.857 74.0898 103.864C75.3515 103.864 76.7122 103.716 77.6495 102.874C79.5284 101.174 79.4023 96.9908 78.3254 94.9372C78.2211 94.6758 78.0413 94.4512 77.8087 94.2915C77.5761 94.1319 77.3012 94.0445 77.0186 94.0404C76.1671 93.8756 75.2967 93.8288 74.4323 93.9014C73.4635 94.009 73.2067 94.2422 72.8687 95.1614C72.6983 95.6163 72.4919 96.0571 72.2514 96.4796Z" fill="#7497F7"/>
<path d="M74.7251 96.6589C74.9513 96.699 75.1803 96.7215 75.41 96.7262C76.113 96.7576 76.9105 96.7531 77.4107 96.2554C77.9108 95.7577 77.9198 95.0268 77.9198 94.3497V91.7222C77.9198 89.987 76.2887 90.2246 75.009 90.4399C74.7116 90.4749 74.4272 90.5811 74.1799 90.7492C73.7293 91.1035 73.6798 91.7491 73.6618 92.3141L73.5716 95.0806C73.532 95.4119 73.5818 95.7478 73.7158 96.0536C73.8272 96.2238 73.9759 96.3666 74.1507 96.4715C74.3255 96.5763 74.5219 96.6404 74.7251 96.6589Z" fill="#FDBAAC"/>
<path d="M88.7385 96.4795C89.1891 97.2597 89.6892 98.0085 90.0903 98.7932C90.7481 100.013 91.1987 101.452 90.7616 102.761C90.7012 102.989 90.5779 103.196 90.4057 103.358C90.1763 103.52 89.9069 103.618 89.6262 103.64C88.7167 103.782 87.798 103.857 86.8776 103.864C85.6159 103.864 84.2506 103.716 83.3179 102.873C81.4344 101.174 81.5606 96.9907 82.6375 94.9371C82.728 94.7429 82.8532 94.5667 83.007 94.417C83.2785 94.2093 83.6033 94.0819 83.9442 94.0493C84.7973 93.8845 85.6692 93.8377 86.5351 93.9103C87.4994 94.0179 87.7562 94.2511 88.0942 95.1703C88.2719 95.6238 88.4874 96.0618 88.7385 96.4795Z" fill="#7497F7"/>
<path d="M86.2647 96.6589C86.0385 96.6988 85.8095 96.7213 85.5798 96.7262C84.8724 96.7576 84.0794 96.7531 83.5792 96.2554C83.0791 95.7577 83.0656 95.0268 83.0656 94.3497V91.7222C83.0656 89.987 84.7012 90.2246 85.9764 90.4399C86.2754 90.4741 86.5615 90.5802 86.8099 90.7492C87.2605 91.1035 87.3056 91.7491 87.3236 92.3141L87.4137 95.0806C87.4548 95.4115 87.4066 95.7473 87.2741 96.0536C87.1627 96.2238 87.014 96.3666 86.8392 96.4715C86.6644 96.5763 86.468 96.6404 86.2647 96.6589Z" fill="#FDBAAC"/>
<path d="M85.0211 28.5858C85.0211 28.5858 90.5183 30.9533 91.1626 31.4913C91.7394 31.9711 90.1758 64.8105 90.0541 66.4157C89.9325 68.0209 81.137 68.2765 77.334 67.5546C74.7966 67.0402 72.3135 66.2896 69.9173 65.3127C69.9173 65.3127 68.7142 31.3927 69.4667 30.7874C70.2192 30.1821 77.4872 27.9446 77.4872 27.9446L85.0211 28.5858Z" fill="#7497F7"/>
<path d="M66.9389 69.088C66.5289 70.5856 66.2811 72.2715 67.0651 73.6077C67.5875 74.426 68.3692 75.0477 69.2865 75.3743C70.1983 75.694 71.148 75.8945 72.1117 75.9707C78.016 76.641 83.9916 76.3181 89.7883 75.0156C90.597 74.9058 91.3562 74.5647 91.9737 74.0336C92.486 73.4109 92.7831 72.6405 92.8208 71.8366C93.1644 68.9873 92.5716 66.1039 91.1311 63.6178C91.031 63.4141 90.8747 63.243 90.6805 63.1246C90.4937 63.0423 90.2892 63.0084 90.0857 63.0259L75.0856 63.0752C73.9967 63.1022 72.9072 63.0618 71.8233 62.9542C70.9807 62.8555 70.021 62.322 69.4172 63.0394C68.133 64.537 67.4436 67.2227 66.9389 69.088Z" fill="#473F47"/>
<path d="M66.9389 69.088C66.5289 70.5856 66.2811 72.2715 67.0651 73.6077C67.5875 74.426 68.3692 75.0477 69.2865 75.3743C70.1983 75.694 71.148 75.8945 72.1117 75.9707C78.016 76.641 83.9916 76.3181 89.7883 75.0156C90.597 74.9058 91.3562 74.5647 91.9737 74.0336C92.486 73.4109 92.7831 72.6405 92.8208 71.8366C93.1644 68.9873 92.5716 66.1039 91.1311 63.6178C91.031 63.4141 90.8747 63.243 90.6805 63.1246C90.4937 63.0423 90.2892 63.0084 90.0857 63.0259L75.0856 63.0752C73.9967 63.1022 72.9072 63.0618 71.8233 62.9542C70.9807 62.8555 70.021 62.322 69.4172 63.0394C68.133 64.537 67.4436 67.2227 66.9389 69.088Z" fill="url(#paint1_linear_1038_5389)"/>
<path d="M84.8138 92.6998L85.6925 92.785C88.3509 93.0495 89.4233 90.7942 89.6892 88.1487C89.7523 87.5972 89.8829 87.0412 89.9776 86.4942L91.7304 76.3339L92.5414 71.6259C92.6225 71.1506 92.7081 70.6798 92.7847 70.2045C93.0191 68.8235 92.6 67.4918 92.3342 66.1063C92.1765 65.2678 91.9737 64.3666 91.3248 63.8106C90.676 63.2546 89.7793 63.2053 88.9412 63.1649C86.7153 63.0663 84.4579 62.9632 82.2905 63.4788C82.1572 63.4958 82.0342 63.5594 81.9436 63.6582C81.8828 63.7722 81.8622 63.9032 81.885 64.0303C82.0427 66.1377 82.3806 68.2272 82.3356 70.3345L81.9526 87.2654C81.6822 89.8974 82.1553 92.4352 84.8138 92.6998Z" fill="#473F47"/>
<path d="M76.5005 93.3723L75.5993 93.4575C72.9453 93.722 71.8684 91.4667 71.6026 88.8212L68.7413 72.2311C68.5115 70.9129 68.3178 69.644 68.2186 68.3033C68.1086 67.3969 68.139 66.479 68.3088 65.5817C68.3966 65.1336 68.5859 64.7113 68.8623 64.3469C69.1387 63.9825 69.4949 63.6856 69.9038 63.4788C70.336 63.3153 70.7933 63.2273 71.2556 63.2187C72.7774 63.1197 74.3055 63.1919 75.8111 63.4339C76.352 63.4796 76.8719 63.6633 77.3205 63.9675C77.7643 64.3968 78.0768 64.9425 78.2217 65.5413C78.6723 66.8326 79.2536 68.2585 79.1229 69.6395C79.0152 70.5217 78.9641 71.4098 78.9697 72.2984L79.1004 78.1722L79.3212 87.781C79.3167 87.8347 79.3167 87.8887 79.3212 87.9424C79.614 90.5565 79.1409 93.0943 76.5005 93.3723Z" fill="#473F47"/>
<path d="M122.74 58.7484V59.7169C122.741 59.9027 122.704 60.0869 122.633 60.2587C122.562 60.4306 122.458 60.5869 122.326 60.7185C122.194 60.8501 122.037 60.9545 121.865 61.0258C121.692 61.0971 121.507 61.1338 121.321 61.1338H38.1463C37.9595 61.1338 37.7746 61.0971 37.6021 61.0258C37.4296 60.9545 37.2729 60.8501 37.1411 60.7185C37.0092 60.5869 36.9047 60.4306 36.8337 60.2587C36.7626 60.0869 36.7263 59.9027 36.7269 59.7169V58.7484C36.7269 58.3738 36.8765 58.0145 37.1427 57.7496C37.4088 57.4848 37.7699 57.336 38.1463 57.336H121.321C121.697 57.336 122.058 57.4848 122.324 57.7496C122.59 58.0145 122.74 58.3738 122.74 58.7484V58.7484Z" fill="#473F47"/>
<path d="M96.8671 42.3242C96.8671 42.3242 100.436 49.7225 100.053 51.7402C99.7869 53.1615 97.0518 54.408 95.9704 55.0537C94.889 55.6994 93.8031 56.493 92.6811 56.9324C91.5592 57.3718 90.2795 57.2015 89.1395 57.1656L83.2818 56.9773C83.0025 56.9773 82.6285 56.8741 82.6285 56.5917C82.6285 56.4258 82.7727 56.2957 82.9124 56.2016C83.3505 55.8977 83.859 55.7094 84.3903 55.6545C85.6559 55.5748 86.9063 55.3368 88.1121 54.9461L94.853 50.3278L93.2263 47.3281L96.8671 42.3242Z" fill="#FDBAAC"/>
<path d="M69.7867 30.6259C68.6151 31.1326 67.8131 31.8321 67.5337 33.0292C67.0831 34.881 66.1594 36.4324 65.2808 38.1139C64.7564 39.1348 64.3047 40.1911 63.929 41.275C63.7831 41.6044 63.7302 41.9671 63.7758 42.3242C63.8537 42.5942 63.9855 42.8458 64.1633 43.064C65.2057 44.5108 66.2901 45.9262 67.4166 47.3102C68.0965 46.9971 68.7465 46.6234 69.3586 46.1937C69.5974 45.817 69.5028 44.9113 69.5388 44.4719C69.6049 43.5751 69.665 42.6679 69.7191 41.7502L69.7867 30.6259Z" fill="#7497F7"/>
<path d="M83.016 24.4696C83.0597 24.6826 83.0883 24.8983 83.1016 25.1153C83.1602 25.9852 83.0701 26.8774 83.3314 27.7069C83.4324 28.0058 83.5685 28.2918 83.7369 28.5589C84.3633 29.5453 83.5883 31.155 83.0385 32.0517C82.3401 33.1861 81.2362 34.2936 79.8348 34.4282C78.073 34.5851 77.307 32.6346 76.9826 31.2491C76.7934 30.451 76.6311 29.8771 76.933 29.088C77.2349 28.2988 77.7036 27.5455 77.9424 26.7115C78.1428 25.7505 78.2574 24.7737 78.2848 23.7926C78.2967 23.5313 78.3659 23.2757 78.4876 23.0438C78.5906 22.8921 78.7237 22.763 78.8787 22.6643C79.0336 22.5656 79.2072 22.4995 79.3888 22.4699C79.7443 22.4078 80.107 22.3972 80.4657 22.4385C81.0205 22.4372 81.567 22.5727 82.0562 22.833C82.3171 23.029 82.5363 23.2746 82.701 23.5556C82.8658 23.8365 82.9728 24.1472 83.016 24.4696V24.4696Z" fill="#FDBAAC"/>
<path d="M78.1271 25.9449C78.1271 25.9449 78.8435 30.4062 80.7495 29.6036C82.6555 28.801 83.1196 26.2408 83.1196 26.2408L78.1271 25.9449Z" fill="#DEA095"/>
<path d="M83.791 28.5275C83.791 28.5275 82.1058 33.6928 80.3305 34.3833C80.3305 34.3833 79.8573 34.6927 81.2542 35.3653C82.651 36.0378 86.0034 31.7468 85.2103 28.8951C85.1203 28.5304 84.9375 28.1948 84.6795 27.9208C84.4214 27.6467 84.0968 27.4434 83.7369 27.3303L83.791 28.5275Z" fill="white"/>
<path d="M77.1177 28.0253C77.1177 28.0253 76.8609 31.7379 78.5731 34.1278C78.5731 34.1278 78.0279 35.1232 77.4962 35.1725C76.9645 35.2218 75.3559 32.1728 75.6939 29.7516C75.8516 28.3571 76.8158 27.6756 77.1177 28.0253Z" fill="white"/>
<path d="M75.6353 15.9908C75.6353 15.9908 75.7254 22.8914 76.4239 24.6894C77.1223 26.4874 78.857 27.9312 80.4431 27.7877C82.0292 27.6442 84.3002 26.1107 85.1473 23.6446C85.9944 21.1785 85.9944 15.3272 85.6564 14.5604C85.3185 13.7937 83.4981 11.4442 79.2986 12.2064C76.4103 12.7311 75.5407 14.9371 75.6353 15.9908Z" fill="#FDBAAC"/>
<path d="M97.0023 38.7461C97.588 39.5711 98.0026 40.1674 98.1017 40.3064C98.2543 40.4952 98.369 40.7113 98.4397 40.9431C98.466 41.1556 98.4479 41.3712 98.3867 41.5764C98.3254 41.7817 98.2223 41.9721 98.0837 42.1358C97.4574 43.0326 96.5337 43.6424 95.7271 44.3777C94.8192 45.2719 94.0054 46.2559 93.2984 47.3146C92.7514 46.9259 92.2524 46.4744 91.8115 45.9695C91.3888 45.6507 91.058 45.2267 90.8524 44.7403C90.6467 44.2538 90.5734 43.7221 90.64 43.1985L90.5589 37.4144L90.5138 34.5223C90.5138 34.0246 89.8694 31.7738 90.1804 31.3837C90.9193 30.4645 94.9746 35.9302 97.0023 38.7461Z" fill="#7497F7"/>
<path d="M74.7567 18.5465C74.7053 18.531 74.6504 18.531 74.599 18.5465C74.549 18.5787 74.5085 18.6236 74.4818 18.6766C74.2988 19.0006 74.2366 19.3785 74.3061 19.7437C74.382 20.0443 74.4971 20.3338 74.6486 20.6046C74.8027 21.0446 75.0773 21.4328 75.4416 21.7256C75.5147 21.7778 75.6044 21.8017 75.6939 21.7928C75.759 21.7815 75.8189 21.7502 75.8651 21.7032C76.0989 21.4283 76.221 21.0765 76.2076 20.7167C76.305 20.2141 76.2119 19.6934 75.9462 19.255C75.8129 19.0568 75.637 18.8904 75.4314 18.7679C75.2257 18.6455 74.9953 18.5698 74.7567 18.5465V18.5465Z" fill="#FDBAAC"/>
<path d="M86.5756 18.4345C86.6276 18.4233 86.6813 18.4233 86.7333 18.4345C86.7824 18.4677 86.8226 18.5123 86.8505 18.5645C87.0313 18.8909 87.0934 19.2694 87.0262 19.6361C86.9447 19.9349 86.8298 20.2237 86.6838 20.497C86.5291 20.9354 86.2545 21.3221 85.8907 21.6135C85.8167 21.6676 85.7254 21.6931 85.6339 21.6852C85.5712 21.6709 85.5136 21.6399 85.4672 21.5955C85.2342 21.3203 85.1121 20.9688 85.1247 20.6091C85.0243 20.1065 85.1176 19.5847 85.3861 19.1474C85.5189 18.9483 85.6946 18.7811 85.9003 18.6578C86.106 18.5346 86.3367 18.4583 86.5756 18.4345V18.4345Z" fill="#FDBAAC"/>
<path d="M74.4458 15.3541C74.3016 14.4574 74.27 13.4216 74.8963 12.7625C75.027 12.6235 75.1847 12.5114 75.3199 12.3769C75.4551 12.2424 75.6623 11.9688 75.8381 11.7626C76.3621 11.1981 76.9996 10.7495 77.7091 10.446C78.4186 10.1424 79.1842 9.9906 79.9565 10.0005C81.497 10.0312 83.0209 10.3239 84.4624 10.8658C85.2734 11.1289 86.0785 11.4143 86.8775 11.7222C87.1881 11.8196 87.4749 11.9799 87.7201 12.193C87.8937 12.3842 88.0105 12.6196 88.0574 12.8729C88.1044 13.1263 88.0796 13.3877 87.986 13.6278C87.8508 14.009 87.5714 14.3318 87.4588 14.7174C87.3913 15.022 87.3641 15.334 87.3777 15.6456C87.3492 16.4745 87.1304 17.2859 86.7378 18.0175C86.5211 18.4831 86.1592 18.8668 85.706 19.1115C85.7417 17.9913 85.5894 16.8729 85.2554 15.8025C84.3003 16.5691 83.1385 17.0371 81.9165 17.1476C80.6996 17.2518 79.4741 17.113 78.3118 16.7396C78.0282 16.6179 77.7152 16.5805 77.4106 16.632C77.1177 16.7127 76.8834 17.0804 77.0502 17.3225C76.9929 17.2862 76.9289 17.2616 76.862 17.2501C76.7951 17.2386 76.7266 17.2404 76.6604 17.2554C76.5942 17.2704 76.5316 17.2984 76.4763 17.3376C76.421 17.3768 76.3741 17.4265 76.3382 17.4839C76.2066 17.7241 76.1428 17.9952 76.1535 18.2686L76.0769 19.9814C75.045 18.7753 74.6981 16.919 74.4458 15.3541Z" fill="#FF8B8B"/>
<path d="M63.7668 42.3242C63.0279 43.8532 62.3475 45.418 61.7437 47.0053C61.2909 48.1062 60.9322 49.2431 60.6713 50.404C60.5767 50.8524 60.3559 51.4667 60.5226 51.9195C60.7794 52.6145 61.8383 53.1571 62.4331 53.5158C64.3286 54.6714 66.3024 55.6947 68.3403 56.5782C69.1302 56.9546 69.9665 57.226 70.8276 57.3853C71.5032 57.4675 72.185 57.4871 72.8642 57.4436L76.7753 57.3091C77.1313 57.3091 77.5954 57.188 77.627 56.8338C77.627 56.5872 77.4152 56.3854 77.2034 56.2554C76.5058 55.816 75.7466 55.482 74.9505 55.2645C74.1709 55.0537 73.2067 55.1972 72.4722 54.9371C71.6431 54.6457 70.7194 53.722 69.985 53.2154L65.781 50.3278L67.4076 47.3281L63.7668 42.3242Z" fill="#FDBAAC"/>
<path d="M90.9644 55.7577H69.0432L67.1192 41.0598L92.5189 41.4095L90.9644 55.7577Z" fill="#7497F7"/>
<path d="M43.7877 57.336L43.1568 61.1338L35.8753 105.748C35.8444 106.033 35.7179 106.301 35.5161 106.506C35.3143 106.712 35.0488 106.844 34.7624 106.882C34.2487 106.882 33.9152 106.371 34.0189 105.748L41.3004 61.1338L41.9177 57.336H43.7877Z" fill="#473F47"/>
<path d="M116.346 57.336L116.963 61.1338L124.263 105.748C124.294 106.033 124.42 106.301 124.622 106.506C124.824 106.712 125.089 106.844 125.376 106.882C125.89 106.882 126.223 106.371 126.119 105.748L118.838 61.1338L118.221 57.336H116.346Z" fill="#473F47"/>
<path d="M90.9644 55.7532H68.9351V57.3539H90.9644V55.7532Z" fill="#7497F7"/>
<path d="M90.9644 55.7532H68.9351V57.3539H90.9644V55.7532Z" fill="url(#paint2_linear_1038_5389)"/>
<path d="M51.8848 57.3359H41.0031C41.3993 56.2148 42.1355 55.2437 43.1101 54.5567C44.0847 53.8697 45.2496 53.5008 46.4439 53.5008C47.6382 53.5008 48.8031 53.8697 49.7777 54.5567C50.7523 55.2437 51.4885 56.2148 51.8848 57.3359V57.3359Z" fill="#7497F7"/>
<path d="M40.5051 36.7734C40.3581 36.3445 39.8895 36.1154 39.4585 36.2617C39.0275 36.4079 38.7972 36.8742 38.9442 37.3031L44.7993 54.3888C44.9463 54.8177 45.4149 55.0468 45.8459 54.9006C46.2769 54.7543 46.5072 54.288 46.3602 53.8591L40.5051 36.7734Z" fill="#7497F7"/>
<path d="M39.4854 36.2375C39.0509 36.3733 38.8094 36.8339 38.9459 37.2662C39.0823 37.6986 39.5452 37.9389 39.9797 37.8031L57.2865 32.3929C57.721 32.2571 57.9625 31.7965 57.826 31.3641C57.6895 30.9318 57.2267 30.6914 56.7922 30.8272L39.4854 36.2375Z" fill="#7497F7"/>
<path d="M51.8848 57.3359H41.0031C41.3993 56.2148 42.1355 55.2437 43.1101 54.5567C44.0847 53.8697 45.2496 53.5008 46.4439 53.5008C47.6382 53.5008 48.8031 53.8697 49.7777 54.5567C50.7523 55.2437 51.4885 56.2148 51.8848 57.3359V57.3359Z" fill="url(#paint3_linear_1038_5389)"/>
<path d="M40.5051 36.7734C40.3581 36.3445 39.8895 36.1154 39.4585 36.2617C39.0275 36.4079 38.7972 36.8742 38.9442 37.3031L44.7993 54.3888C44.9463 54.8177 45.4149 55.0468 45.8459 54.9006C46.2769 54.7543 46.5072 54.288 46.3602 53.8591L40.5051 36.7734Z" fill="url(#paint4_linear_1038_5389)"/>
<path d="M39.4854 36.2375C39.0509 36.3733 38.8094 36.8339 38.9459 37.2662C39.0823 37.6986 39.5452 37.9389 39.9797 37.8031L57.2865 32.3929C57.721 32.2571 57.9625 31.7965 57.826 31.3641C57.6895 30.9318 57.2267 30.6914 56.7922 30.8272L39.4854 36.2375Z" fill="url(#paint5_linear_1038_5389)"/>
<path d="M64.1273 33.0113C62.7304 35.0021 61.0768 36.2755 60.3694 35.9302C60.3377 35.9135 60.3075 35.894 60.2792 35.872L60.1846 35.8137C58.1209 34.3744 56.2149 30.5676 57.6613 28.5095C59.1077 26.4515 63.3568 26.9223 65.4205 28.3616L65.5106 28.4288C65.5409 28.4472 65.5696 28.4682 65.5962 28.4916C66.1639 29.0342 65.5286 31.016 64.1273 33.0113Z" fill="#7497F7"/>
<path d="M64.1273 33.0113C62.7305 35.0021 61.0768 36.2755 60.3694 35.9302L60.3063 35.8944C60.2952 35.8898 60.2858 35.882 60.2793 35.872C59.653 35.3743 60.2793 33.361 61.7121 31.3299C63.145 29.2987 64.8257 28.0163 65.5106 28.4288H65.5422L65.5962 28.4737C66.164 29.0342 65.5286 31.016 64.1273 33.0113Z" fill="#7497F7"/>
<path d="M64.1273 33.0113C62.7305 35.0021 61.0768 36.2755 60.3694 35.9302L60.3063 35.8944C60.2952 35.8898 60.2858 35.882 60.2793 35.872C59.653 35.3743 60.2793 33.361 61.7121 31.3299C63.145 29.2987 64.8257 28.0163 65.5106 28.4288H65.5422L65.5962 28.4737C66.164 29.0342 65.5286 31.016 64.1273 33.0113Z" fill="#F0F4FE"/>
<path d="M110.615 42.3197H107.974C107.372 42.3197 106.884 42.8055 106.884 43.4048V56.3719C106.884 56.9712 107.372 57.457 107.974 57.457H110.615C111.217 57.457 111.705 56.9712 111.705 56.3719V43.4048C111.705 42.8055 111.217 42.3197 110.615 42.3197Z" fill="#7497F7"/>
<path d="M115.294 42.248L112.66 42.4286C112.059 42.4698 111.606 42.9878 111.647 43.5857L112.543 56.5222C112.584 57.12 113.105 57.5713 113.705 57.5301L116.34 57.3496C116.94 57.3084 117.394 56.7904 117.353 56.1925L116.457 43.256C116.416 42.6582 115.895 42.2069 115.294 42.248Z" fill="#7497F7"/>
<path d="M90.9869 55.7577H69.0657L67.1417 41.0598L92.5414 41.4095L90.9869 55.7577Z" fill="url(#paint6_linear_1038_5389)"/>
<path d="M68.1015 40.3334L67.1417 41.0598L92.5414 41.4095L91.6673 40.5576L68.1015 40.3334Z" fill="url(#paint7_linear_1038_5389)"/>
<defs>
<linearGradient id="paint0_linear_1038_5389" x1="80.6234" y1="81.7951" x2="77.6071" y2="15.5141" gradientUnits="userSpaceOnUse">
<stop offset="0.01"/>
<stop offset="0.08" stop-opacity="0.69"/>
<stop offset="0.21" stop-opacity="0.32"/>
<stop offset="1" stop-opacity="0"/>
</linearGradient>
<linearGradient id="paint1_linear_1038_5389" x1="80.1322" y1="78.3605" x2="78.2894" y2="42.673" gradientUnits="userSpaceOnUse">
<stop offset="0.01"/>
<stop offset="0.08" stop-opacity="0.69"/>
<stop offset="0.21" stop-opacity="0.32"/>
<stop offset="1" stop-opacity="0"/>
</linearGradient>
<linearGradient id="paint2_linear_1038_5389" x1="80.0556" y1="51.7043" x2="79.7433" y2="65.9718" gradientUnits="userSpaceOnUse">
<stop offset="0.01"/>
<stop offset="0.08" stop-opacity="0.69"/>
<stop offset="0.21" stop-opacity="0.32"/>
<stop offset="1" stop-opacity="0"/>
</linearGradient>
<linearGradient id="paint3_linear_1038_5389" x1="41.0031" y1="55.4169" x2="51.8848" y2="55.4169" gradientUnits="userSpaceOnUse">
<stop offset="0.01"/>
<stop offset="0.08" stop-opacity="0.69"/>
<stop offset="0.21" stop-opacity="0.32"/>
<stop offset="1" stop-opacity="0"/>
</linearGradient>
<linearGradient id="paint4_linear_1038_5389" x1="38.9033" y1="45.5818" x2="46.4101" y2="45.5818" gradientUnits="userSpaceOnUse">
<stop offset="0.01"/>
<stop offset="0.08" stop-opacity="0.69"/>
<stop offset="0.21" stop-opacity="0.32"/>
<stop offset="1" stop-opacity="0"/>
</linearGradient>
<linearGradient id="paint5_linear_1038_5389" x1="38.9086" y1="34.3094" x2="57.8649" y2="34.3094" gradientUnits="userSpaceOnUse">
<stop offset="0.01"/>
<stop offset="0.08" stop-opacity="0.69"/>
<stop offset="0.21" stop-opacity="0.32"/>
<stop offset="1" stop-opacity="0"/>
</linearGradient>
<linearGradient id="paint6_linear_1038_5389" x1="76.5726" y1="36.5894" x2="96.4446" y2="93.4603" gradientUnits="userSpaceOnUse">
<stop offset="0.01"/>
<stop offset="0.08" stop-opacity="0.69"/>
<stop offset="0.21" stop-opacity="0.32"/>
<stop offset="1" stop-opacity="0"/>
</linearGradient>
<linearGradient id="paint7_linear_1038_5389" x1="80.1052" y1="37.1544" x2="78.8469" y2="56.9736" gradientUnits="userSpaceOnUse">
<stop offset="0.01"/>
<stop offset="0.08" stop-opacity="0.69"/>
<stop offset="0.21" stop-opacity="0.32"/>
<stop offset="1" stop-opacity="0"/>
</linearGradient>
</defs>
</svg>
