<svg width="160" height="120" viewBox="0 0 160 120" fill="none" xmlns="http://www.w3.org/2000/svg">
<path d="M53.0737 97.1849C53.0757 97.4697 53.1836 97.7436 53.3766 97.9538C53.5785 98.0845 53.8167 98.1485 54.0573 98.1366C57.985 98.3624 61.916 98.402 65.8505 98.2552C66.2915 98.2779 66.7281 98.1592 67.0962 97.9165C67.3427 97.681 67.5234 97.3857 67.6204 97.0596C68.0185 96.0163 68.3215 94.9395 68.5257 93.8421C68.6176 93.3578 68.672 92.8058 68.3623 92.423C68.0526 92.0403 67.4604 91.9726 66.9465 91.9523C63.0528 91.8078 59.1581 91.7547 55.2622 91.7931C54.316 91.7931 52.798 91.8676 52.5393 92.9616C52.2807 94.0555 52.9341 96.0504 53.0737 97.1849Z" fill="#3E3E54"/>
<path d="M93.8819 96.6667C94.4629 97.0244 95.1232 97.2349 95.8049 97.2797C99.6446 97.8122 103.529 97.9495 107.397 97.6895C107.857 97.6591 108.367 97.5947 108.653 97.2357C108.994 96.8022 108.83 96.1689 108.629 95.6507C108.177 94.4788 107.533 93.2358 106.363 92.7752C105.781 92.5866 105.17 92.5051 104.559 92.5348C101.836 92.5009 98.7115 91.9488 96.0193 92.23C93.9159 92.4501 91.8534 94.936 93.8819 96.6667Z" fill="#3E3E54"/>
<path d="M93.4259 29.7766C93.6308 29.9255 93.8857 29.9899 94.1372 29.9561L99.8177 29.902C102.081 29.8782 104.365 29.8545 106.581 29.3905C106.992 29.3059 107.462 29.1467 107.585 28.747C107.635 28.4961 107.601 28.2357 107.489 28.0053C106.913 26.4622 106.067 25.0325 104.991 23.7819C104.884 23.6222 104.734 23.4957 104.559 23.4172C104.383 23.3387 104.188 23.3113 103.997 23.3383C101.206 23.3383 98.7388 24.8285 96.2134 25.8005C95.1651 26.2035 91.7445 28.1543 93.4259 29.7766Z" fill="#3E3E54"/>
<path d="M53.5024 29.7021C53.4258 29.9028 53.4258 30.1245 53.5024 30.3253C53.6454 30.5928 54.0062 30.664 54.3091 30.664C59.5618 31.0026 64.8203 31.1076 70.0844 30.9789C70.4084 31.0011 70.732 30.9306 71.017 30.7757C71.4254 30.5048 71.5207 29.9561 71.5445 29.4684C71.6327 27.7169 71.2818 25.9711 70.5235 24.3881C70.3482 23.9632 70.0768 23.5842 69.7304 23.2806C69.1484 22.8234 68.352 22.7794 67.61 22.7523L61.7049 22.5559C60.5409 22.5152 58.8834 22.1325 57.7364 22.478C54.9932 23.3213 54.5745 27.5515 53.5024 29.7021Z" fill="#3E3E54"/>
<path d="M54.5405 13.6891C53.9622 14.3125 53.5416 15.0642 53.3137 15.8818C53.0858 16.6994 53.0572 17.5593 53.2302 18.3901C53.4878 19.4399 53.9903 20.4145 54.6971 21.235C56.3989 23.2942 58.8834 24.6015 61.5042 25.157C64.1249 25.7124 66.8375 25.5499 69.4582 25.0317C70.9217 24.7404 72.3954 24.3238 73.6207 23.4737C74.2473 23.085 74.7262 22.5 74.9821 21.8108C75.217 21.0589 75.0298 20.2393 74.7711 19.4942C73.9372 17.0929 72.2661 14.8982 69.9381 13.8619C68.7774 13.3938 67.5537 13.0983 66.3065 12.9847C64.0772 12.7002 61.5824 12.9847 59.428 12.4021C57.6003 11.8975 55.9054 12.2463 54.5405 13.6891Z" fill="#7497F7"/>
<path d="M107.35 28.3846H53.6522C45.4811 28.3846 38.8571 34.9762 38.8571 43.1072V79.6276C38.8571 87.7586 45.4811 94.3502 53.6522 94.3502H107.35C115.521 94.3502 122.145 87.7586 122.145 79.6276V43.1072C122.145 34.9762 115.521 28.3846 107.35 28.3846Z" fill="#99B3F9"/>
<path d="M107.35 28.3846H53.6522C45.4811 28.3846 38.8571 34.9762 38.8571 43.1072V79.6276C38.8571 87.7586 45.4811 94.3502 53.6522 94.3502H107.35C115.521 94.3502 122.145 87.7586 122.145 79.6276V43.1072C122.145 34.9762 115.521 28.3846 107.35 28.3846Z" fill="url(#paint0_linear_1036_4271)"/>
<path d="M105.433 32.0729C104.994 31.9946 104.545 31.9854 104.103 32.0458C103.83 32.1222 103.566 32.2243 103.313 32.3506C101.88 32.967 100.25 32.9535 98.7047 32.9264C98.817 32.4353 99.3106 32.144 99.753 31.9103C101.002 31.2329 102.329 30.2812 102.544 28.8621C102.391 28.7391 102.215 28.6486 102.026 28.5961C101.837 28.5437 101.639 28.5305 101.445 28.5573H94.3278C94.111 28.5352 93.8927 28.5827 93.705 28.6928C93.5604 28.8178 93.4641 28.9891 93.4327 29.1771C93.305 29.9394 93.4431 30.7221 93.8241 31.3955C94.1644 32.0729 94.5865 32.7164 94.8451 33.4276C95.1038 34.1388 95.2025 34.8704 95.6177 35.4767C95.9921 36.0185 96.6082 36.4216 96.7749 37.0549C96.2984 37.5155 95.502 37.2344 94.9438 36.8788C93.6817 36.0599 92.6153 34.9756 91.8197 33.7023C91.024 32.429 90.5186 30.9977 90.3389 29.509C90.305 29.3813 90.3037 29.2471 90.3352 29.1188C90.3667 28.9904 90.43 28.8719 90.5193 28.7741C90.6381 28.6998 90.7739 28.6567 90.9141 28.6488C94.3067 28.1907 97.7249 27.9452 101.148 27.9138C103.7 27.8472 106.252 28.0275 108.769 28.4523C109.45 28.581 111.832 28.791 111.526 29.631C111.254 30.4201 109.671 31.1923 108.97 31.5005C107.859 31.988 106.642 32.185 105.433 32.0729V32.0729Z" fill="url(#paint1_linear_1036_4271)"/>
<path d="M95.131 93.1579C95.331 93.084 95.5442 93.0517 95.7572 93.0631C96.1588 93.0941 96.5612 93.0157 96.9213 92.8362C97.0833 92.6965 97.2703 92.5884 97.4726 92.5178C97.5855 92.5013 97.7001 92.5013 97.813 92.5178C98.2403 92.5609 98.671 92.4785 99.0519 92.2807C99.2322 92.1893 99.4194 92.0301 99.3922 91.8303C99.3804 91.7466 99.345 91.6679 99.2901 91.6034C98.9702 91.1902 98.3678 91.1428 97.8436 91.1326L95.8764 91.0886C95.3641 91.0468 94.8484 91.0926 94.3516 91.2241C93.8181 91.3974 93.3674 91.7601 93.0856 92.243C92.8037 92.7258 92.7104 93.2951 92.8234 93.8421C92.833 93.9254 92.8687 94.0036 92.9255 94.0656C92.988 94.1154 93.0637 94.146 93.1433 94.1537C93.4837 94.2248 94.1644 94.4924 94.4367 94.1706C94.709 93.8489 94.6681 93.3747 95.131 93.1579Z" fill="url(#paint2_linear_1036_4271)"/>
<path d="M103.191 89.2597C102.891 88.9547 102.518 88.7299 102.108 88.6061C101.65 88.5231 101.181 88.5231 100.723 88.6061C98.9622 88.7955 97.1828 88.7213 95.4441 88.3859C95.3159 88.3775 95.1951 88.3234 95.1038 88.2335C95.039 88.1232 95.0172 87.993 95.0425 87.8677C95.1344 86.8009 95.5156 85.5681 96.54 85.2362C96.8405 85.156 97.1517 85.1229 97.4624 85.1379C99.4603 85.1379 101.564 85.3039 103.248 86.3911C104.756 87.3699 105.719 88.9651 106.635 90.5061C107.39 91.7795 108.177 93.1851 107.962 94.6516C106.941 94.6008 105.559 94.7633 104.593 94.4416C104.729 93.4696 104.858 92.6025 104.593 91.6237C104.327 90.6449 103.616 90.1064 103.191 89.2597Z" fill="url(#paint3_linear_1036_4271)"/>
<path d="M65.8403 92.2604C65.585 92.108 65.2855 91.9658 65.1596 91.6915C64.9111 91.1021 65.6905 90.4857 65.5305 89.866C65.0661 89.6974 64.6116 89.5029 64.1691 89.2834C64.0474 89.2332 63.939 89.1555 63.8526 89.0565C63.6552 88.7991 63.7947 88.4401 63.9105 88.1387C64.0262 87.8372 64.0772 87.4274 63.8016 87.2581C63.6391 87.185 63.4562 87.1707 63.2842 87.2174L60.4082 87.6543C60.088 87.6823 59.7761 87.7708 59.4893 87.9151C59.3473 87.9897 59.2288 88.1019 59.1471 88.2395C59.0654 88.377 59.0236 88.5344 59.0264 88.6941L59.7241 89.4019C59.3463 90.0353 58.4274 90.12 57.9339 90.672C57.5391 91.1191 57.505 91.766 57.437 92.3654C57.3689 92.9649 57.1953 93.622 56.6644 93.8997C56.3838 94.022 56.0785 94.0776 55.7726 94.0622L52.866 94.1605C52.6403 94.1904 52.4109 94.1464 52.2125 94.0352C51.8245 93.754 52.0117 93.1444 52.2398 92.7211C52.5675 92.1682 52.8487 91.5894 53.0804 90.9904C53.8122 88.8939 53.8518 88.6941 54.8116 87.36C55.7726 86.5341 56.731 85.4499 57.437 84.9724C59.6102 84.0174 61.1301 83.6099 63.449 83.5399C64.4706 83.4845 65.311 83.4304 66.3282 83.5399C67.3935 83.6822 68.8115 84.4064 69.4038 85.2971C69.2924 84.9493 69.5953 85.6084 69.4038 85.2971L70.4044 88.0066L71.4833 90.943C71.7794 91.7423 72.0585 92.6838 71.5922 93.3984C71.1736 94.0419 70.3091 94.2214 69.5501 94.2282C68.9511 94.2282 67.6577 94.472 67.2868 94.1334C67.0757 93.9369 66.9464 93.3747 66.766 93.1173C66.5161 92.7748 66.2017 92.4838 65.8403 92.2604Z" fill="url(#paint4_linear_1036_4271)"/>
<path d="M69.7543 29.9155L71.6126 34.4064C72.0134 35.2605 72.294 36.1653 72.4465 37.0956C72.5588 38.0574 72.3955 39.0295 72.4635 39.9913C72.5758 41.5391 73.277 42.9751 73.9645 44.3671C75.6512 45.1919 75.1421 42.9718 75.2646 42.0539C75.5471 39.927 75.2885 37.7662 74.9685 35.646C74.8204 34.3034 74.4883 32.9872 73.9815 31.7342C73.664 31.0692 73.2917 30.4314 72.8685 29.8274C72.5808 29.3342 72.1853 28.9117 71.7113 28.5912C71.177 28.283 69.8632 28.0053 69.271 28.2525C68.5597 28.5844 69.5603 29.4515 69.7543 29.9155Z" fill="url(#paint5_linear_1036_4271)"/>
<path d="M55.6161 33.8611C55.6089 33.4879 55.5145 33.1215 55.3404 32.7909C55.1333 32.3007 54.9527 31.7999 54.7992 31.2905C54.7679 31.1998 54.7495 31.1052 54.7448 31.0094C54.7523 30.8734 54.7822 30.7395 54.8333 30.6131C54.9838 30.13 55.0026 29.6157 54.8877 29.1229C54.8712 28.9878 54.8224 28.8586 54.7454 28.7461C54.6684 28.6335 54.5655 28.5409 54.4453 28.476C54.3357 28.4393 54.2205 28.4221 54.1049 28.4252L52.7197 28.3812C52.6555 28.3732 52.5906 28.3875 52.5359 28.4219C52.4909 28.4719 52.4676 28.5377 52.4712 28.6047C52.3845 29.7336 52.413 30.8684 52.5563 31.9916C52.6891 33.0076 53.237 33.9221 53.8054 34.7857C54.4589 35.7984 55.548 34.7823 55.6161 33.8611Z" fill="url(#paint6_linear_1036_4271)"/>
<path d="M113.37 26.7488C113.132 27.5354 112.657 28.2303 112.009 28.7403C111.022 29.5583 109.93 30.2417 108.762 30.7724C107.646 31.3143 106.427 31.8189 105.205 31.6258C103.984 31.4328 102.823 30.2711 103.139 29.0586C103.419 27.9647 104.644 27.4533 105.672 26.9723C106.353 26.6542 107.008 26.2816 107.629 25.8581C107.914 25.699 108.15 25.4646 108.309 25.1807C108.531 24.6828 108.289 24.1071 108.02 23.6329C107.426 22.5749 106.687 21.6038 105.825 20.7473C105.325 21.5839 105.454 22.6643 105.045 23.5516C104.477 24.7878 103.003 25.3534 101.642 25.4381C100.934 25.4821 100.182 25.4381 99.5726 25.8039C99.3145 25.9798 99.07 26.1745 98.8408 26.3864C98.0734 26.9735 97.1191 27.2658 96.1528 27.2098C95.1865 27.1538 94.2727 26.7533 93.579 26.0816C92.8983 26.9757 92.1767 27.9748 92.2176 29.0993C92.2687 29.5916 92.4009 30.0722 92.609 30.5217C92.956 31.3727 93.355 32.2018 93.8036 33.0043C94.2034 33.621 94.515 34.2901 94.7294 34.9924C94.8296 35.3433 94.8388 35.7137 94.756 36.0691C94.6733 36.4245 94.5013 36.7532 94.2563 37.0245C94.134 37.1502 93.9781 37.2383 93.807 37.2785C93.436 37.3462 93.0889 37.0888 92.786 36.8484C91.6045 35.932 90.5189 34.8995 89.5458 33.7663C88.5702 32.6164 87.9675 31.1995 87.8168 29.7021C87.7555 28.7606 87.9393 27.819 87.9427 26.8775C87.9427 25.814 87.7283 24.7539 87.793 23.6939C87.8951 22.0004 88.7392 20.3951 89.8759 19.1216C90.8437 18.0854 91.9459 17.1822 93.1535 16.4359C93.2863 16.3512 93.6334 16.0972 94.1371 15.7585C93.7151 16.4731 93.8172 17.4519 94.1167 18.4273C94.264 18.9324 94.5144 19.4019 94.8523 19.8063C95.1903 20.2108 95.6084 20.5415 96.0806 20.7778C96.2757 20.851 96.4582 20.9538 96.6217 21.0826C96.7443 21.191 96.8327 21.34 96.9621 21.4484C97.3875 21.7871 98.1261 21.6177 98.4869 22.0377C98.6128 22.1799 98.6774 22.3764 98.8476 22.4746C99.0178 22.5728 99.2663 22.4746 99.4773 22.4746C99.8223 22.5138 100.158 22.6135 100.468 22.7693C100.872 22.8708 101.297 22.8615 101.697 22.7422C102.096 22.6229 102.456 22.3982 102.738 22.0919C103.293 21.4692 103.678 20.7144 103.854 19.9006C104.195 18.6339 104.29 17.2148 103.636 16.0769C103.161 15.2315 102.407 14.5749 101.502 14.2175C98.7183 13.1811 95.6892 14.7695 94.1406 15.7585C94.3011 15.4925 94.5242 15.2693 94.7906 15.1082C95.9827 14.4414 97.2364 13.8902 98.5345 13.4622C100.75 12.7002 102.779 13.3471 105.107 13.6248C105.76 13.6732 106.395 13.8541 106.975 14.1565C107.545 14.5354 108.034 15.0222 108.415 15.5891C110.341 18.1528 111.881 20.9824 112.986 23.9885C113.309 24.8793 113.599 25.8343 113.37 26.7488Z" fill="#7497F7"/>
<path d="M56.7562 108.616C58.1517 109.239 59.7479 109.161 61.2761 109.052C62.7226 108.951 64.2474 108.802 65.4318 107.965C67.188 106.726 67.685 104.328 67.5454 102.208C67.3934 99.6653 66.5031 97.2217 64.9826 95.1731C64.7462 94.8219 64.4347 94.527 64.0704 94.3095C63.5935 94.1096 63.0748 94.0283 62.5592 94.0724C60.8144 94.086 59.0706 94.1548 57.328 94.279C56.9452 94.2743 56.568 94.3713 56.2355 94.5601C55.9321 94.8094 55.7105 95.1431 55.599 95.5186C55.1176 96.7658 54.8863 98.0947 54.9183 99.4304C54.966 101.358 55.4357 103.156 54.8332 105.025C54.3499 106.529 55.3063 107.965 56.7562 108.616Z" fill="#7497F7"/>
<path d="M56.7562 108.616C58.1517 109.239 59.7479 109.161 61.2761 109.052C62.7226 108.951 64.2474 108.802 65.4318 107.965C67.188 106.726 67.685 104.328 67.5454 102.208C67.3934 99.6653 66.5031 97.2217 64.9826 95.1731C64.7462 94.8219 64.4347 94.527 64.0704 94.3095C63.5935 94.1096 63.0748 94.0283 62.5592 94.0724C60.8144 94.086 59.0706 94.1548 57.328 94.279C56.9452 94.2743 56.568 94.3713 56.2355 94.5601C55.9321 94.8094 55.7105 95.1431 55.599 95.5186C55.1176 96.7658 54.8863 98.0947 54.9183 99.4304C54.966 101.358 55.4357 103.156 54.8332 105.025C54.3499 106.529 55.3063 107.965 56.7562 108.616Z" fill="url(#paint7_linear_1036_4271)"/>
<path d="M62.3925 20.7846C63.2901 21.0509 64.2525 21.0005 65.1171 20.6419C65.9816 20.2834 66.6952 19.6386 67.137 18.8168C67.409 18.3103 67.5272 17.7361 67.4773 17.164C67.3892 16.6423 67.1612 16.1539 66.8173 15.7503C66.4735 15.3468 66.0266 15.043 65.5237 14.8711C64.5061 14.5459 63.4091 14.5637 62.4027 14.9219C61.6709 15.1556 60.5035 15.5417 59.9521 16.0972C59.5505 16.5036 59.6662 17.1945 59.7684 17.7229C59.9011 18.416 60.2128 19.0627 60.6729 19.5996C61.133 20.1364 61.7256 20.5448 62.3925 20.7846V20.7846Z" fill="url(#paint8_linear_1036_4271)"/>
<path d="M58.2062 15.1725C58.1738 15.6666 58.2373 16.1622 58.3934 16.6323C58.5765 17.0392 58.8459 17.402 59.183 17.6957C60.0305 18.4916 61.2489 19.0742 62.3551 18.7118C62.7197 18.5715 63.058 18.3711 63.3557 18.1191C63.4069 18.0667 63.4738 18.0323 63.5463 18.0209C63.6215 18.0239 63.694 18.05 63.7539 18.0954C64.3733 18.4515 65.0875 18.61 65.8002 18.5494C66.5129 18.4888 67.1898 18.2122 67.7394 17.7567C68.1208 17.417 68.4281 17.0031 68.6423 16.5406C68.8566 16.078 68.9732 15.5767 68.9851 15.0675C68.9995 14.0419 68.6621 13.042 68.0287 12.2327C67.6966 11.8114 67.3239 11.4235 66.9158 11.0744C66.4618 10.6555 65.9577 10.2938 65.4148 9.99743C64.7671 9.67375 64.0545 9.49928 63.3298 9.48697C62.6051 9.47466 61.8869 9.62481 61.2285 9.92631C60.2493 10.3901 59.4401 11.1468 58.9141 12.0905C58.6738 12.4649 58.4687 12.8606 58.3015 13.2725C58.1211 13.828 58.213 14.5798 58.2062 15.1725Z" fill="#3E3E54"/>
<path d="M62.2904 9.93989C62.4863 10.1235 62.7429 10.2295 63.0119 10.2379C63.4216 10.2893 63.8345 10.3119 64.2474 10.3057C64.3805 10.3094 64.5132 10.2887 64.6388 10.2447C64.8417 10.128 65.0033 9.95173 65.1017 9.74007C65.1506 9.66862 65.1842 9.58792 65.2004 9.50299C65.2079 9.41922 65.1927 9.33498 65.1561 9.25913C65.0735 9.10256 64.9543 8.96797 64.8086 8.86662C64.663 8.76527 64.495 8.70011 64.3189 8.6766C63.9673 8.63488 63.6114 8.64745 63.2638 8.71385C62.9813 8.75111 62.3244 8.64273 62.1406 8.86626C61.9568 9.08979 62.1406 9.76039 62.2904 9.93989Z" fill="#7497F7"/>
<path d="M62.1032 8.91709C62.4579 9.0051 62.824 9.03935 63.1889 9.0187H64.0671C64.2852 9.02843 64.5036 9.00327 64.7137 8.94419C64.9914 8.84128 65.2296 8.65408 65.3944 8.40907C65.6494 8.06311 65.809 7.65678 65.8573 7.23044C65.8825 7.0782 65.8636 6.92196 65.8029 6.78C65.7371 6.67337 65.6503 6.58118 65.5476 6.50905C65.2132 6.20036 64.8228 5.95783 64.3972 5.79442C63.8233 5.65541 63.22 5.69803 62.6716 5.91635C62.1479 6.05275 61.6801 6.34882 61.334 6.76306C61.2116 6.94809 61.134 7.15886 61.1072 7.37879C61.0805 7.59872 61.1054 7.82182 61.1799 8.03057C61.2544 8.23932 61.3766 8.42802 61.5368 8.58184C61.697 8.73567 61.8909 8.85042 62.1032 8.91709V8.91709Z" fill="#3E3E54"/>
<path d="M55.0442 22.1494C54.3635 23.0131 53.5705 23.8429 53.3152 24.9233C53.2023 25.524 53.1794 26.138 53.2472 26.7454L53.5058 30.8502C53.5497 31.116 53.5117 31.3887 53.3969 31.6326C53.1825 31.9713 52.7162 32.0593 52.3078 32.1C51.6912 32.2089 51.0577 32.1753 50.4563 32.0018C49.1902 31.531 48.7341 30.0103 48.4924 28.686C48.1521 26.742 47.8764 24.7133 48.421 22.8133C48.9179 21.0657 50.0479 19.5754 51.1438 18.1293C52.0389 16.9642 52.9715 15.7585 54.258 15.0472C54.4472 14.9295 54.6619 14.8587 54.8843 14.8406C55.1226 14.8552 55.3518 14.9375 55.5446 15.0777C58.5431 16.9642 56.6779 20.0733 55.0442 22.1494Z" fill="#7497F7"/>
<path d="M74.8425 23.4026L75.8364 30.2677C76.0304 31.6224 76.2244 32.9399 76.3741 34.2811C76.5057 35.5049 76.6033 36.7309 76.6668 37.9592C76.6941 38.4876 76.6838 39.0904 76.2856 39.4393C75.8228 39.8423 75.0536 39.656 74.6315 39.2123C74.2472 38.7302 73.9878 38.1615 73.8759 37.5562C73.0916 34.7572 72.0715 32.029 70.8264 29.4007C70.2274 28.134 69.5705 26.8741 69.2778 25.5058C68.8047 23.3179 69.533 21.1402 71.6262 20.0868C74.1312 18.8642 74.5703 21.4653 74.8425 23.4026Z" fill="#7497F7"/>
<path d="M76.9528 38.1861C76.7285 37.878 76.4095 37.6509 76.0441 37.5392C75.677 37.4872 75.3042 37.5809 75.006 37.8C74.6386 38.0452 74.3384 38.3777 74.1328 38.7674C73.9272 39.1572 73.8225 39.5918 73.8284 40.032C73.8284 40.5061 73.9849 40.9667 74.0394 41.4375C74.1108 42.037 74.0394 42.6534 74.2096 43.2359C74.3529 43.6972 74.6344 44.1039 75.0164 44.4017C75.3983 44.6995 75.8626 44.8741 76.347 44.9022C76.5443 44.9183 76.7425 44.8833 76.9222 44.8006C77.368 44.5703 77.4735 43.9912 77.4837 43.4899C77.5003 42.7733 77.4329 42.0573 77.2829 41.3562C77.6508 41.5732 78.0539 41.7245 78.4742 41.8033C78.515 40.4147 77.8411 39.2191 76.9528 38.1861Z" fill="url(#paint9_linear_1036_4271)"/>
<path d="M52.6823 34.9043C52.9862 35.16 53.3524 35.3317 53.7442 35.4022C53.9405 35.4343 54.142 35.4034 54.3195 35.3139C54.497 35.2244 54.6412 35.0809 54.7312 34.9043C54.7878 34.7307 54.8109 34.5479 54.7993 34.3658V32.8654C54.8487 32.328 54.7298 31.7885 54.4589 31.321C54.2965 31.1205 54.0881 30.9616 53.8512 30.8579C53.6143 30.7542 53.3558 30.7086 53.0975 30.7249C52.3113 30.7656 50.715 31.5174 50.6606 32.4183C50.6061 33.3192 52.0424 34.4437 52.6823 34.9043Z" fill="url(#paint10_linear_1036_4271)"/>
<path d="M97.7551 24.3238C98.6128 24.3035 99.4126 23.9106 100.175 23.5211C100.505 23.3741 100.809 23.1738 101.074 22.9284C101.274 22.6996 101.419 22.4276 101.496 22.1338C101.574 21.84 101.581 21.5324 101.519 21.235C101.387 20.6349 101.084 20.0856 100.645 19.6534C100.013 18.9714 99.1659 18.525 98.244 18.3883C97.3222 18.2515 96.381 18.4326 95.5769 18.9015C94.2155 19.6737 94.4469 21.9734 95.2603 23.0639C95.5479 23.4538 95.9235 23.7709 96.3568 23.9898C96.7902 24.2086 97.2692 24.3231 97.7551 24.3238V24.3238Z" fill="url(#paint11_linear_1036_4271)"/>
<path d="M103.858 19.9107C103.681 20.7245 103.297 21.4793 102.741 22.102C102.46 22.4083 102.1 22.6331 101.7 22.7523C101.3 22.8716 100.876 22.8809 100.471 22.7794C100.161 22.6237 99.8258 22.5239 99.4807 22.4847C99.2697 22.4847 99.0383 22.5829 98.8511 22.4847C98.6639 22.3865 98.6162 22.1901 98.4903 22.0478C98.1295 21.6279 97.391 21.8141 96.9655 21.4585C96.8396 21.3501 96.7511 21.2011 96.6252 21.0927C96.4617 20.964 96.2791 20.8611 96.084 20.7879C95.6118 20.5516 95.1937 20.2209 94.8558 19.8165C94.5179 19.412 94.2675 18.9426 94.1202 18.4374C93.8207 17.4485 93.7186 16.4832 94.1406 15.7686C95.6892 14.7797 98.7183 13.1912 101.502 14.2276C102.407 14.585 103.161 15.2416 103.636 16.087C104.293 17.225 104.198 18.644 103.858 19.9107Z" fill="#3E3E54"/>
<path d="M96.0669 36.7264C96.7 37.4038 97.3773 38.1658 97.316 39.0769C97.2709 39.326 97.2595 39.58 97.282 39.8322C97.3365 40.0794 97.5951 40.3097 97.83 40.2115C98.0648 40.1133 98.1329 39.7306 98.3949 39.6899C98.6026 39.6561 98.7659 39.8965 98.7353 40.1031C98.6891 40.3074 98.5782 40.4914 98.4188 40.6281C98.1669 40.8923 97.9048 41.1463 97.6292 41.3867C97.4881 41.533 97.309 41.6373 97.1118 41.6882C96.9022 41.7001 96.6935 41.6531 96.5094 41.5527C95.7164 41.214 94.8076 40.7568 94.6545 39.9135C94.6232 39.6584 94.6073 39.4016 94.6068 39.1446C94.5319 38.0913 92.626 36.2218 93.1807 35.2904C93.9704 33.9899 95.6109 36.2523 96.0669 36.7264Z" fill="url(#paint12_linear_1036_4271)"/>
<path d="M94.5116 37.2209C94.4883 37.3107 94.4873 37.4048 94.5086 37.495C94.53 37.5853 94.5731 37.669 94.6341 37.7391C94.7598 37.8748 94.907 37.9892 95.0698 38.0778L97.5101 39.6188C97.8709 39.8491 98.1227 39.4156 97.9287 39.1074C97.7892 38.8872 97.3808 38.8127 97.1629 38.6942C96.2746 38.2166 95.4067 37.6984 94.5116 37.2209Z" fill="#3E3E54"/>
<path d="M99.8926 29.1772C99.6679 29.1772 99.3991 29.1975 99.2833 29.3905C99.2445 29.4712 99.2328 29.5622 99.2499 29.6501C99.2671 29.7379 99.3122 29.8179 99.3786 29.8782C99.5136 29.997 99.6827 30.0705 99.8619 30.0882C99.9504 30.0882 100.053 30.1153 100.1 30.1898C100.118 30.2279 100.126 30.2698 100.124 30.3118C100.098 30.4686 100.022 30.6131 99.9075 30.724C99.793 30.8349 99.6459 30.9064 99.4876 30.9282C99.1778 30.9993 98.8511 30.962 98.538 31.0094C98.209 31.0766 97.8914 31.1907 97.5952 31.3481C97.2945 31.4521 97.0442 31.6649 96.8941 31.9442C96.8495 32.1212 96.8651 32.3079 96.9384 32.4751C97.0117 32.6424 97.1385 32.7808 97.2991 32.8688C97.6263 33.0354 97.9901 33.118 98.3576 33.1093C99.1539 33.1377 99.9512 33.0958 100.74 32.984C101.085 32.9471 101.423 32.8627 101.744 32.7333C101.982 32.627 102.21 32.4989 102.425 32.3506L103.691 31.531C104.869 30.769 104.11 29.7766 103.058 29.3296C102.139 28.957 100.846 29.1839 99.8926 29.1772Z" fill="url(#paint13_linear_1036_4271)"/>
<path d="M53.2404 110.201C52.4474 109.862 51.6339 109.472 51.0894 108.805C50.7454 108.332 50.4768 107.809 50.2929 107.254L47.9105 101.107C47.6166 100.397 47.3754 99.6671 47.1889 98.9224C47.0419 98.1626 46.9543 97.3926 46.9268 96.6193C46.8418 95.9262 46.8786 95.2237 47.0358 94.5432C47.2774 93.71 47.8594 93.0259 48.438 92.3824C49.1187 91.644 49.7994 90.926 50.4801 90.2148C50.9922 89.636 51.5847 89.1331 52.2398 88.7212C52.8397 88.378 53.5153 88.1872 54.207 88.1658C54.3645 88.1545 54.5226 88.1729 54.6733 88.2199C54.815 88.2812 54.946 88.3647 55.0613 88.4672C55.6193 88.9238 56.1532 89.4087 56.6609 89.9201C56.9434 90.2046 57.2395 90.5806 57.1306 90.9667C56.9911 91.4781 56.3206 91.5594 55.8203 91.7321C54.5371 92.1792 53.9892 93.6558 53.0294 94.6177C52.689 94.9564 52.2738 95.2578 52.0764 95.7015C51.879 96.1452 52.0526 96.7954 52.5325 96.8733C52.5992 96.4867 52.7541 96.1205 52.9854 95.8028C53.2167 95.4851 53.5182 95.2245 53.8666 95.041C54.2952 94.8384 54.7558 94.7112 55.228 94.6651C55.8146 94.5873 56.4064 94.5567 56.9979 94.5737C57.1026 94.5674 57.2068 94.5922 57.2974 94.6448C57.393 94.7267 57.4568 94.8393 57.4778 94.9631C58.005 96.6803 58.3416 98.4498 58.4818 100.24C58.5397 101.51 58.526 102.782 58.441 104.05L58.2334 108.131C58.1891 109.083 58.4716 110.99 57.2123 111.179C55.9053 111.399 54.4044 110.709 53.2404 110.201Z" fill="#7497F7"/>
<path d="M64.5128 102.702C64.5078 101.964 64.4464 101.226 64.3291 100.497C63.9376 98.411 62.6273 96.5956 62.0929 94.5432C62.0648 94.4806 62.0534 94.4118 62.06 94.3435C62.0665 94.2753 62.0908 94.2098 62.1304 94.1537C62.2131 94.0916 62.3168 94.0637 62.4197 94.0758C63.7561 94.0758 65.0937 94.1119 66.4324 94.1842C66.5588 94.1849 66.6842 94.2066 66.8034 94.2485C67.2323 94.4179 67.3071 94.9699 67.3854 95.4238C67.6108 96.4105 67.9934 97.3549 68.5188 98.2213C69.0259 97.4796 69.5398 96.6464 69.4377 95.7591C69.3402 95.2699 69.137 94.8076 68.8421 94.4043C68.0822 93.2162 67.2091 92.1036 66.235 91.0818C66.0988 90.9668 66.0034 90.8113 65.9627 90.6382C65.9676 90.5192 65.9984 90.4028 66.0531 90.2969C66.1078 90.1911 66.1849 90.0983 66.2793 90.0251C67.1228 89.1648 68.0148 88.3529 68.951 87.5934C68.9951 87.5477 69.048 87.5113 69.1064 87.4863C69.1649 87.4613 69.2278 87.4482 69.2914 87.4478C69.4078 87.4803 69.5067 87.5569 69.5671 87.6611C70.9285 89.4291 72.2298 91.2444 73.4709 93.1072C74.2776 94.3163 75.0774 95.6202 75.1386 97.0664C75.1302 97.9635 74.9715 98.8529 74.669 99.698C73.952 102.082 73.1465 104.436 72.2525 106.76C71.9501 107.698 71.4797 108.575 70.8638 109.347C69.6726 110.678 67.6985 111.129 65.973 110.891C64.0772 110.634 64.683 107.952 64.6388 106.539L64.5128 102.702Z" fill="#7497F7"/>
<path d="M59.6186 86.3606C59.7789 86.3972 59.9261 86.4768 60.044 86.5909C60.3129 86.8923 60.1257 87.3766 59.867 87.6882C59.5105 88.1205 59.0489 88.4551 58.5261 88.6603C58.1517 88.8059 57.7092 88.9177 57.5322 89.2767C57.8916 89.3712 58.2655 89.3988 58.635 89.358C58.6996 89.5408 58.5295 89.7237 58.3593 89.8219C58.0241 89.9942 57.6506 90.0796 57.2734 90.0701C56.8962 90.0607 56.5275 89.9567 56.2014 89.7678C55.7147 89.507 54.9762 88.9448 54.8877 88.3588C54.7992 87.7729 55.4663 87.2513 55.9087 86.9533C56.4455 86.5897 57.0562 86.348 57.6973 86.2456C58.3384 86.1432 58.9944 86.1824 59.6186 86.3606Z" fill="url(#paint14_linear_1036_4271)"/>
<path d="M66.4631 85.3209C66.091 84.83 65.6051 84.436 65.0468 84.1724C64.4885 83.9088 63.8745 83.7834 63.257 83.8069C62.7601 83.8306 62.1611 84.0711 62.1373 84.5656C62.1516 84.8059 62.2435 85.0351 62.3993 85.2193C62.7773 85.7685 63.1996 86.2861 63.662 86.767C63.9411 87.0583 64.2645 87.4444 64.1011 87.8237C63.9377 88.2031 63.3557 88.2877 63.24 88.684C63.2265 88.7235 63.2265 88.7664 63.24 88.8059C63.2545 88.8332 63.2748 88.857 63.2995 88.8757C63.3242 88.8944 63.3527 88.9076 63.383 88.9143C64.1011 89.1649 64.9179 88.8025 65.6429 89.0295C65.8709 89.1006 66.0786 89.2293 66.3236 89.3038C67.1166 89.5578 68.4508 88.8974 68.09 87.9321C67.9233 87.4918 67.5148 87.1023 67.2834 86.6858C67.0402 86.2135 66.7662 85.7575 66.4631 85.3209V85.3209Z" fill="url(#paint15_linear_1036_4271)"/>
<path d="M88.1844 98.7429C87.3948 96.7108 87.5037 94.4213 87.7998 92.2537C87.8296 91.8297 87.9453 91.4161 88.1402 91.0378C88.4834 90.5469 88.9762 90.1787 89.5458 89.9879C91.7717 89.0904 94.2699 89.2462 96.6592 89.4866C96.8017 89.4873 96.941 89.5285 97.0608 89.6052C97.1692 89.7121 97.2428 89.849 97.2718 89.9981C97.5169 90.8211 97.6836 91.8845 96.9791 92.3689C96.1759 92.9345 94.8655 92.2334 94.1542 92.9074C94.0031 93.0767 93.8938 93.2787 93.8347 93.4974C93.7756 93.716 93.7685 93.9454 93.8138 94.1673C93.8751 94.6109 94.0351 95.0411 94.0759 95.4881C94.0963 95.9685 94.0039 96.447 93.806 96.8856C93.6081 97.3241 93.3101 97.7108 92.9357 98.0147C92.1778 98.6152 91.2799 99.0159 90.3252 99.1798C89.6997 99.3504 89.0373 99.3316 88.4227 99.1256C87.827 98.8784 87.3573 98.2315 87.5105 97.6083" fill="#7497F7"/>
<path d="M100.338 89.8693C100.677 90.0007 100.971 90.225 101.186 90.5162C101.292 90.6645 101.35 90.8421 101.35 91.0243C101.35 91.2064 101.292 91.3841 101.186 91.5323C101.034 91.6977 100.836 91.8154 100.618 91.871C99.9818 92.0735 99.3115 92.1461 98.6469 92.0843C98.6979 92.3045 98.6775 92.633 98.4495 92.6432C98.383 92.6385 98.3187 92.6175 98.2623 92.5822C97.5816 92.2266 94.7941 91.1868 96.1487 90.0421C97.1766 89.1412 99.2085 89.3579 100.338 89.8693Z" fill="url(#paint16_linear_1036_4271)"/>
<path d="M106.312 93.6457C106.125 92.7677 105.823 91.9181 105.413 91.1191C104.709 89.8795 103.524 88.9955 102.581 87.9219C102.49 87.8411 102.418 87.7405 102.371 87.6278C102.325 87.5151 102.304 87.3932 102.312 87.2716C102.355 87.1437 102.427 87.0276 102.523 86.9329L103.272 86.0761C103.413 85.8721 103.619 85.7226 103.858 85.6527C104.021 85.6366 104.185 85.6599 104.338 85.7205C107.217 86.6315 109.552 88.9007 110.91 91.5865C112.268 94.2722 112.703 97.3441 112.574 100.358C112.576 101.095 112.439 101.826 112.169 102.512C112.031 102.853 111.814 103.157 111.536 103.399C111.258 103.642 110.927 103.816 110.569 103.908C110.463 103.936 110.352 103.942 110.243 103.926C110.135 103.911 110.03 103.873 109.936 103.816C109.801 103.701 109.698 103.553 109.637 103.386C108.229 100.248 107.116 96.9875 106.312 93.6457V93.6457Z" fill="#7497F7"/>
<path d="M108.912 105.567C109.446 104.906 109.813 104.127 109.982 103.296C110.152 102.465 110.12 101.605 109.889 100.789C109.558 99.7605 108.989 98.8243 108.228 98.0554C106.397 96.1215 103.803 94.9903 101.165 94.6177C98.5277 94.2452 95.8185 94.5974 93.2421 95.2951C91.799 95.6846 90.3593 96.2028 89.1953 97.1375C88.5979 97.5698 88.1611 98.1867 87.953 98.8919C87.7726 99.6607 88.0142 100.463 88.3274 101.188C89.328 103.525 91.1489 105.591 93.545 106.468C94.7365 106.854 95.9783 107.064 97.231 107.091C99.4739 107.22 101.941 106.753 104.13 107.193C105.985 107.566 107.653 107.098 108.912 105.567Z" fill="#7497F7"/>
<path d="M102.82 84.6367C101.846 84.2862 100.8 84.1837 99.7768 84.3386C99.4902 84.36 99.2128 84.4482 98.9668 84.596C98.847 84.6733 98.7515 84.7826 98.6913 84.9114C98.6311 85.0402 98.6086 85.1832 98.6264 85.3242C98.6679 85.4533 98.7363 85.5723 98.8273 85.6733C98.9182 85.7743 99.0295 85.855 99.154 85.9101C99.4007 86.0198 99.63 86.1647 99.8347 86.3402C99.9371 86.4302 100.004 86.5534 100.024 86.6879C100.044 86.8224 100.016 86.9596 99.9436 87.0752C99.8109 87.2411 99.5352 87.319 99.5181 87.5358C99.5011 87.7526 99.8177 87.8745 100.056 87.8745C100.873 87.8745 101.676 87.6577 102.493 87.6713C103.02 87.6713 103.548 87.7898 104.079 87.7627C104.239 87.7618 104.396 87.7235 104.538 87.651C105.127 87.3123 105.103 86.4317 104.739 85.9779C104.229 85.3705 103.567 84.9079 102.82 84.6367V84.6367Z" fill="url(#paint17_linear_1036_4271)"/>
<path d="M57.9236 104.104C58.3592 103.235 59.104 102.558 60.0134 102.204C60.7423 101.984 61.5205 101.984 62.2495 102.204C62.9714 102.43 63.6655 102.736 64.3188 103.115C64.5584 103.23 64.7779 103.382 64.9689 103.566C65.1187 103.743 65.2435 103.941 65.3399 104.152L65.8028 105.053C66.1064 105.583 66.3355 106.153 66.4835 106.746C66.5691 107.256 66.5817 107.776 66.5209 108.29C66.4717 109.195 66.2667 110.084 65.9151 110.919C65.5546 111.758 64.9037 112.44 64.0806 112.842C63.2672 113.15 62.3868 113.239 61.5279 113.1C60.9539 113.055 60.3896 112.926 59.8534 112.717C58.7746 112.219 57.9386 111.315 57.5288 110.204C57.1549 109.218 56.9967 108.164 57.0648 107.112C57.1329 106.06 57.4257 105.035 57.9236 104.104V104.104Z" fill="url(#paint18_linear_1036_4271)"/>
<path d="M57.6207 107.193C57.5493 107.332 57.5155 107.488 57.5226 107.644C57.5298 107.8 57.5777 107.952 57.6616 108.084C57.7522 108.192 57.8246 108.315 57.876 108.446C57.91 108.582 57.8215 108.761 57.6786 108.748C57.5356 108.734 57.5016 108.609 57.4063 108.544C57.3271 108.503 57.2357 108.492 57.1488 108.512C57.0619 108.533 56.9853 108.584 56.9332 108.656C56.8319 108.804 56.7763 108.978 56.7733 109.157C56.7237 109.984 56.889 110.808 57.2533 111.552C57.6176 112.296 58.1685 112.934 58.8528 113.405C59.5456 113.865 60.3255 114.18 61.1448 114.33C61.9641 114.48 62.8055 114.463 63.6177 114.278C64.3744 114.154 65.0768 113.808 65.636 113.286C66.572 112.324 66.6367 110.841 66.6367 109.503C66.6367 109.039 66.6196 108.531 66.2963 108.189C66.1363 108.039 65.9422 107.93 65.7306 107.871C65.519 107.812 65.2962 107.805 65.0813 107.85C64.6508 107.937 64.2285 108.059 63.8185 108.216C62.8801 108.466 61.9103 108.58 60.9392 108.555C60.4439 108.584 59.9469 108.539 59.4654 108.419C58.7167 108.179 58.3355 107.494 57.6207 107.193Z" fill="#3E3E54"/>
<path d="M100.58 99.0375C99.6664 98.834 98.7101 98.9507 97.8729 99.3679C97.0357 99.7851 96.3689 100.477 95.9853 101.327C95.7515 101.852 95.6759 102.433 95.7675 103C95.8916 103.515 96.1532 103.986 96.5247 104.365C96.8962 104.744 97.3637 105.015 97.8777 105.151C98.9147 105.407 100.008 105.312 100.985 104.883C101.7 104.599 102.837 104.135 103.347 103.528C103.722 103.092 103.555 102.414 103.415 101.893C103.231 101.213 102.874 100.593 102.377 100.092C101.88 99.592 101.261 99.2285 100.58 99.0375Z" fill="url(#paint19_linear_1036_4271)"/>
<path d="M95.747 107.559C97.2745 108.554 99.1105 108.97 100.92 108.731C101.817 108.6 102.669 108.258 103.407 107.734C104.144 107.209 104.746 106.518 105.161 105.716C105.482 104.978 105.71 104.204 105.842 103.41C106.043 102.657 106.109 101.876 106.039 101.1C105.999 100.714 105.86 100.344 105.635 100.026C105.409 99.7091 105.106 99.4548 104.753 99.2882C104.024 99.0071 103.051 99.4 102.898 100.162C102.745 100.924 103.347 101.818 102.816 102.363C102.435 102.756 101.795 102.601 101.254 102.496C100.323 102.33 99.3652 102.411 98.4761 102.731C97.5871 103.051 96.7984 103.598 96.1895 104.318C95.9729 103.943 95.7993 103.545 95.6721 103.132C95.6157 102.656 95.6764 102.174 95.8491 101.727C94.5694 101.446 92.8642 102.099 92.8744 103.586C92.8778 105.181 94.4945 106.77 95.747 107.559Z" fill="#3E3E54"/>
<path d="M54.1336 70.4184H48.0935V53.6857H54.1835C55.8974 53.6857 57.3727 54.0207 58.6096 54.6907C59.8465 55.3552 60.7977 56.3111 61.4632 57.5584C62.1344 58.8058 62.4699 60.2982 62.4699 62.0358C62.4699 63.7787 62.1344 65.2766 61.4632 66.5294C60.7977 67.7822 59.8409 68.7435 58.593 69.4135C57.3505 70.0835 55.8641 70.4184 54.1336 70.4184ZM51.6959 67.3873H53.9838C55.0488 67.3873 55.9445 67.2021 56.6711 66.8317C57.4032 66.4559 57.9523 65.8758 58.3184 65.0914C58.69 64.3016 58.8758 63.2831 58.8758 62.0358C58.8758 60.7993 58.69 59.7889 58.3184 59.0046C57.9523 58.2202 57.406 57.6429 56.6794 57.2725C55.9528 56.9021 55.0571 56.7169 53.9922 56.7169H51.6959V67.3873Z" fill="#5D7CD2"/>
<path d="M80.7961 62.0521C80.7961 63.8768 80.4439 65.4291 79.7395 66.7091C79.0407 67.9892 78.0867 68.9669 76.8775 69.6423C75.674 70.3122 74.3206 70.6472 72.8175 70.6472C71.3034 70.6472 69.9445 70.3095 68.7409 69.6341C67.5373 68.9587 66.5861 67.981 65.8872 66.701C65.1884 65.421 64.839 63.8713 64.839 62.0521C64.839 60.2274 65.1884 58.675 65.8872 57.395C66.5861 56.115 67.5373 55.14 68.7409 54.4701C69.9445 53.7947 71.3034 53.457 72.8175 53.457C74.3206 53.457 75.674 53.7947 76.8775 54.4701C78.0867 55.14 79.0407 56.115 79.7395 57.395C80.4439 58.675 80.7961 60.2274 80.7961 62.0521ZM77.1438 62.0521C77.1438 60.8701 76.9635 59.8734 76.603 59.0618C76.248 58.2502 75.7461 57.6347 75.0971 57.2153C74.4482 56.7959 73.6883 56.5862 72.8175 56.5862C71.9467 56.5862 71.1869 56.7959 70.5379 57.2153C69.889 57.6347 69.3843 58.2502 69.0238 59.0618C68.6688 59.8734 68.4913 60.8701 68.4913 62.0521C68.4913 63.2341 68.6688 64.2308 69.0238 65.0424C69.3843 65.854 69.889 66.4695 70.5379 66.8889C71.1869 67.3083 71.9467 67.518 72.8175 67.518C73.6883 67.518 74.4482 67.3083 75.0971 66.8889C75.7461 66.4695 76.248 65.854 76.603 65.0424C76.9635 64.2308 77.1438 63.2341 77.1438 62.0521Z" fill="#5D7CD2"/>
<path d="M83.4647 70.4184V53.6857H90.187C91.4737 53.6857 92.5719 53.9118 93.4816 54.3639C94.3967 54.8105 95.0928 55.4451 95.5698 56.2675C96.0523 57.0846 96.2936 58.0459 96.2936 59.1516C96.2936 60.2628 96.0496 61.2187 95.5615 62.0194C95.0734 62.8146 94.3662 63.4247 93.44 63.8496C92.5192 64.2744 91.4044 64.4868 90.0954 64.4868H85.5945V61.6436H89.5131C90.2008 61.6436 90.7721 61.551 91.2269 61.3658C91.6817 61.1806 92.0201 60.9028 92.2419 60.5324C92.4693 60.162 92.583 59.7018 92.583 59.1516C92.583 58.5961 92.4693 58.1276 92.2419 57.7464C92.0201 57.3651 91.679 57.0764 91.2186 56.8803C90.7638 56.6788 90.1897 56.578 89.4964 56.578H87.0671V70.4184H83.4647ZM92.6662 62.8038L96.901 70.4184H92.9241L88.7809 62.8038H92.6662Z" fill="#5D7CD2"/>
<path d="M101.776 70.4184H97.916L103.798 53.6857H108.44L114.314 70.4184H110.454L106.186 57.5094H106.053L101.776 70.4184ZM101.535 63.8414H110.653V66.6029H101.535V63.8414Z" fill="#5D7CD2"/>
<defs>
<linearGradient id="paint0_linear_1036_4271" x1="117.22" y1="66.3545" x2="-11.2638" y2="48.733" gradientUnits="userSpaceOnUse">
<stop offset="0.02" stop-color="white" stop-opacity="0"/>
<stop offset="0.32" stop-color="white" stop-opacity="0.39"/>
<stop offset="0.68" stop-color="white" stop-opacity="0.68"/>
<stop offset="1" stop-color="white"/>
</linearGradient>
<linearGradient id="paint1_linear_1036_4271" x1="101.247" y1="23.8767" x2="100.044" y2="45.9392" gradientUnits="userSpaceOnUse">
<stop stop-opacity="0"/>
<stop offset="0.99"/>
</linearGradient>
<linearGradient id="paint2_linear_1036_4271" x1="96.3801" y1="88.5925" x2="95.6218" y2="99.5257" gradientUnits="userSpaceOnUse">
<stop stop-opacity="0"/>
<stop offset="0.99"/>
</linearGradient>
<linearGradient id="paint3_linear_1036_4271" x1="96.8668" y1="87.0617" x2="120.591" y2="98.3419" gradientUnits="userSpaceOnUse">
<stop stop-opacity="0"/>
<stop offset="0.99"/>
</linearGradient>
<linearGradient id="paint4_linear_1036_4271" x1="61.9228" y1="83.0652" x2="61.9734" y2="113.103" gradientUnits="userSpaceOnUse">
<stop stop-opacity="0"/>
<stop offset="0.99"/>
</linearGradient>
<linearGradient id="paint5_linear_1036_4271" x1="68.1649" y1="37.6036" x2="80.9262" y2="32.7971" gradientUnits="userSpaceOnUse">
<stop stop-opacity="0"/>
<stop offset="0.99"/>
</linearGradient>
<linearGradient id="paint6_linear_1036_4271" x1="50.9124" y1="28.117" x2="61.5864" y2="39.8369" gradientUnits="userSpaceOnUse">
<stop stop-opacity="0"/>
<stop offset="0.99"/>
</linearGradient>
<linearGradient id="paint7_linear_1036_4271" x1="59.6867" y1="94.6617" x2="60.6373" y2="100.831" gradientUnits="userSpaceOnUse">
<stop offset="0.02" stop-color="white" stop-opacity="0"/>
<stop offset="0.32" stop-color="white" stop-opacity="0.39"/>
<stop offset="0.68" stop-color="white" stop-opacity="0.68"/>
<stop offset="1" stop-color="white"/>
</linearGradient>
<linearGradient id="paint8_linear_1036_4271" x1="59.6662" y1="17.8008" x2="67.4876" y2="17.8008" gradientUnits="userSpaceOnUse">
<stop stop-color="#E5C5D5"/>
<stop offset="0.42" stop-color="#EAD4D1"/>
<stop offset="1" stop-color="#F0E9CB"/>
</linearGradient>
<linearGradient id="paint9_linear_1036_4271" x1="73.8318" y1="41.2106" x2="78.4776" y2="41.2106" gradientUnits="userSpaceOnUse">
<stop stop-color="#E5C5D5"/>
<stop offset="0.42" stop-color="#EAD4D1"/>
<stop offset="1" stop-color="#F0E9CB"/>
</linearGradient>
<linearGradient id="paint10_linear_1036_4271" x1="50.6299" y1="33.0686" x2="54.7993" y2="33.0686" gradientUnits="userSpaceOnUse">
<stop stop-color="#E5C5D5"/>
<stop offset="0.42" stop-color="#EAD4D1"/>
<stop offset="1" stop-color="#F0E9CB"/>
</linearGradient>
<linearGradient id="paint11_linear_1036_4271" x1="94.6069" y1="21.3299" x2="101.557" y2="21.3299" gradientUnits="userSpaceOnUse">
<stop stop-color="#E5C5D5"/>
<stop offset="0.42" stop-color="#EAD4D1"/>
<stop offset="1" stop-color="#F0E9CB"/>
</linearGradient>
<linearGradient id="paint12_linear_1036_4271" x1="93.0854" y1="38.2945" x2="98.7455" y2="38.2945" gradientUnits="userSpaceOnUse">
<stop stop-color="#E5C5D5"/>
<stop offset="0.42" stop-color="#EAD4D1"/>
<stop offset="1" stop-color="#F0E9CB"/>
</linearGradient>
<linearGradient id="paint13_linear_1036_4271" x1="96.86" y1="31.1212" x2="104.266" y2="31.1212" gradientUnits="userSpaceOnUse">
<stop stop-color="#E5C5D5"/>
<stop offset="0.42" stop-color="#EAD4D1"/>
<stop offset="1" stop-color="#F0E9CB"/>
</linearGradient>
<linearGradient id="paint14_linear_1036_4271" x1="54.8775" y1="88.1285" x2="60.1768" y2="88.1285" gradientUnits="userSpaceOnUse">
<stop stop-color="#E5C5D5"/>
<stop offset="0.42" stop-color="#EAD4D1"/>
<stop offset="1" stop-color="#F0E9CB"/>
</linearGradient>
<linearGradient id="paint15_linear_1036_4271" x1="62.1373" y1="86.5808" x2="68.1309" y2="86.5808" gradientUnits="userSpaceOnUse">
<stop stop-color="#E5C5D5"/>
<stop offset="0.42" stop-color="#EAD4D1"/>
<stop offset="1" stop-color="#F0E9CB"/>
</linearGradient>
<linearGradient id="paint16_linear_1036_4271" x1="95.7743" y1="91.0175" x2="101.342" y2="91.0175" gradientUnits="userSpaceOnUse">
<stop stop-color="#E5C5D5"/>
<stop offset="0.42" stop-color="#EAD4D1"/>
<stop offset="1" stop-color="#F0E9CB"/>
</linearGradient>
<linearGradient id="paint17_linear_1036_4271" x1="98.6128" y1="86.0727" x2="105.005" y2="86.0727" gradientUnits="userSpaceOnUse">
<stop stop-color="#E5C5D5"/>
<stop offset="0.42" stop-color="#EAD4D1"/>
<stop offset="1" stop-color="#F0E9CB"/>
</linearGradient>
<linearGradient id="paint18_linear_1036_4271" x1="57.0455" y1="107.606" x2="66.5584" y2="107.606" gradientUnits="userSpaceOnUse">
<stop stop-color="#E5C5D5"/>
<stop offset="0.42" stop-color="#EAD4D1"/>
<stop offset="1" stop-color="#F0E9CB"/>
</linearGradient>
<linearGradient id="paint19_linear_1036_4271" x1="95.7267" y1="102.113" x2="103.575" y2="102.113" gradientUnits="userSpaceOnUse">
<stop stop-color="#E5C5D5"/>
<stop offset="0.42" stop-color="#EAD4D1"/>
<stop offset="1" stop-color="#F0E9CB"/>
</linearGradient>
</defs>
</svg>
