<svg width="160" height="120" viewBox="0 0 160 120" fill="none" xmlns="http://www.w3.org/2000/svg">
<path d="M114.288 15H55.8607C51.1204 15 47.2776 18.824 47.2776 23.5411V88.6577C47.2776 93.3748 51.1204 97.1987 55.8607 97.1987H114.288C119.028 97.1987 122.871 93.3748 122.871 88.6577V23.5411C122.871 18.824 119.028 15 114.288 15Z" fill="white"/>
<path d="M57.9612 97.1988L68.6981 87.4302C68.6981 87.4302 83.495 97.9442 97.6363 88.5833C111.778 79.2225 112.245 60.8642 105.792 53.8182C99.34 46.7722 99.4191 51.7853 99.4191 51.7853C99.4191 51.7853 109.483 79.4614 87.6298 82.2383C65.7766 85.0153 63.6589 78.8276 63.6589 78.8276L50.3672 97.1988H57.9612Z" fill="url(#paint0_linear_1036_4847)"/>
<path d="M47.2776 40.4358L59.6218 47.6764L80.4312 33.4871L103.442 48.7751L122.871 30.919V24.9803L103.137 41.9652L80.6167 29.2523L59.3285 40.7091L47.2776 36.563V40.4358Z" fill="url(#paint1_linear_1036_4847)"/>
<path d="M30.3874 46.9196L29 45.1827L44.0385 33.2868L59.3285 40.709L80.5635 26.6213L104.21 40.9608L128.11 17.8986L129.661 19.4909L104.523 43.7478L80.6167 29.2523L59.4996 43.2614L44.326 35.8949L30.3874 46.9196Z" fill="#7497F7"/>
<path d="M41.0537 98.5179C40.7142 98.8554 40.4449 99.2561 40.2611 99.6973C40.0774 100.138 39.9828 100.611 39.9828 101.089C39.9828 101.566 40.0774 102.039 40.2611 102.48C40.4449 102.921 40.7142 103.322 41.0537 103.66V103.66C41.3929 103.998 41.7956 104.266 42.2389 104.448C42.6822 104.631 43.1574 104.725 43.6373 104.725C44.1172 104.725 44.5924 104.631 45.0357 104.448C45.479 104.266 45.8817 103.998 46.2209 103.66L69.0891 81.8478C69.7741 81.1658 70.1588 80.2411 70.1588 79.2769C70.1588 78.3127 69.7741 77.388 69.0891 76.706C68.4038 76.0244 67.4745 75.6415 66.5055 75.6415C65.5366 75.6415 64.6073 76.0244 63.922 76.706L41.0537 98.5179Z" fill="#7497F7"/>
<path d="M57.2827 63.4837C57.2829 68.4479 58.7625 73.3005 61.5342 77.4279C64.306 81.5553 68.2454 84.7722 72.8543 86.6717C77.4633 88.5712 82.5348 89.068 87.4275 88.0994C92.3203 87.1308 96.8145 84.7402 100.342 81.2299C103.869 77.7196 106.271 73.2473 107.244 68.3785C108.218 63.5097 107.718 58.4631 105.809 53.8768C103.9 49.2905 100.667 45.3706 96.5189 42.6127C92.371 39.8548 87.4945 38.3828 82.5058 38.3828C79.1934 38.3828 75.9133 39.032 72.853 40.2935C69.7927 41.5549 67.0121 43.4039 64.6698 45.7347C62.3276 48.0656 60.4697 50.8327 59.2022 53.8781C57.9347 56.9235 57.2825 60.1875 57.2827 63.4837V63.4837ZM63.6546 63.4837C63.6554 59.7738 64.7618 56.1474 66.8337 53.063C68.9056 49.9787 71.8501 47.575 75.2948 46.1559C78.7395 44.7367 82.5297 44.3658 86.1862 45.0901C89.8427 45.8144 93.2013 47.6014 95.8372 50.225C98.4732 52.8487 100.268 56.1912 100.995 59.8299C101.722 63.4687 101.349 67.2402 99.9217 70.6677C98.4948 74.0952 96.0786 77.0247 92.9786 79.0857C89.8786 81.1468 86.2341 82.2469 82.5058 82.2469C80.0298 82.2471 77.5781 81.7618 75.2906 80.8189C73.0031 79.876 70.9246 78.4938 69.174 76.7514C67.4234 75.009 66.035 72.9405 65.0879 70.664C64.1409 68.3875 63.6538 65.9476 63.6546 63.4837V63.4837Z" fill="#7497F7"/>
<path d="M57.2827 63.4837C57.2829 68.4479 58.7625 73.3005 61.5342 77.4279C64.306 81.5553 68.2454 84.7722 72.8543 86.6717C77.4633 88.5712 82.5348 89.068 87.4275 88.0994C92.3203 87.1308 96.8145 84.7402 100.342 81.2299C103.869 77.7196 106.271 73.2473 107.244 68.3785C108.218 63.5097 107.718 58.4631 105.809 53.8768C103.9 49.2905 100.667 45.3706 96.5189 42.6127C92.371 39.8548 87.4945 38.3828 82.5058 38.3828C79.1934 38.3828 75.9133 39.032 72.853 40.2935C69.7927 41.5549 67.0121 43.4039 64.6698 45.7347C62.3276 48.0656 60.4697 50.8327 59.2022 53.8781C57.9347 56.9235 57.2825 60.1875 57.2827 63.4837V63.4837ZM63.6546 63.4837C63.6554 59.7738 64.7618 56.1474 66.8337 53.063C68.9056 49.9787 71.8501 47.575 75.2948 46.1559C78.7395 44.7367 82.5297 44.3658 86.1862 45.0901C89.8427 45.8144 93.2013 47.6014 95.8372 50.225C98.4732 52.8487 100.268 56.1912 100.995 59.8299C101.722 63.4687 101.349 67.2402 99.9217 70.6677C98.4948 74.0952 96.0786 77.0247 92.9786 79.0857C89.8786 81.1468 86.2341 82.2469 82.5058 82.2469C80.0298 82.2471 77.5781 81.7618 75.2906 80.8189C73.0031 79.876 70.9246 78.4938 69.174 76.7514C67.4234 75.009 66.035 72.9405 65.0879 70.664C64.1409 68.3875 63.6538 65.9476 63.6546 63.4837V63.4837Z" fill="url(#paint2_linear_1036_4847)"/>
<path d="M55.3446 61.6625C55.3443 66.6271 56.8235 71.4803 59.5951 75.6084C62.3667 79.7364 66.3063 82.9539 70.9155 84.8539C75.5248 86.7539 80.5967 87.2511 85.49 86.2827C90.3832 85.3142 94.8779 82.9235 98.4057 79.413C101.934 75.9025 104.336 71.4298 105.309 66.5605C106.283 61.6913 105.783 56.6442 103.873 52.0575C101.964 47.4709 98.7308 43.5506 94.5824 40.7926C90.434 38.0346 85.5569 36.5626 80.5678 36.5629C73.8782 36.5629 67.4626 39.2073 62.7323 43.9144C58.002 48.6215 55.3446 55.0057 55.3446 61.6625V61.6625ZM61.718 61.6625C61.7177 57.9522 62.8231 54.3252 64.8944 51.2401C66.9657 48.155 69.9098 45.7504 73.3545 44.3304C76.7992 42.9104 80.5897 42.5388 84.2466 43.2626C87.9035 43.9863 91.2626 45.773 93.8991 48.3965C96.5356 51.0201 98.331 54.3627 99.0583 58.0017C99.7857 61.6407 99.4122 65.4126 97.9853 68.8404C96.5583 72.2682 94.1418 75.1979 91.0415 77.2591C87.9412 79.3202 84.2963 80.4202 80.5678 80.4199C75.5685 80.4199 70.774 78.4437 67.239 74.926C63.7039 71.4083 61.718 66.6373 61.718 61.6625V61.6625Z" fill="#7497F7"/>
<path d="M129.703 30.919L127.479 30.7659L128.278 19.2447L115.402 21.3106L115.047 19.1203L130.695 16.6109L129.703 30.919Z" fill="#7497F7"/>
<path d="M74.3425 65.7828H70.1918V71.537H74.3425V65.7828Z" fill="#7497F7"/>
<path d="M79.4622 59.8141H75.3115V71.5369H79.4622V59.8141Z" fill="#7497F7"/>
<path d="M84.5819 64.3994H80.4312V71.5369H84.5819V64.3994Z" fill="#7497F7"/>
<path d="M89.7002 56.1001H85.5495V71.537H89.7002V56.1001Z" fill="#7497F7"/>
<path d="M79.4622 59.8141H75.3115V71.5369H79.4622V59.8141Z" fill="url(#paint3_linear_1036_4847)"/>
<path d="M89.7002 56.1001H85.5495V71.537H89.7002V56.1001Z" fill="url(#paint4_linear_1036_4847)"/>
<path d="M94.8198 51.7881H90.6691V71.537H94.8198V51.7881Z" fill="#7497F7"/>
<path d="M80.5692 31.4155C82.355 31.4155 83.8026 29.9749 83.8026 28.1979C83.8026 26.4209 82.355 24.9803 80.5692 24.9803C78.7835 24.9803 77.3358 26.4209 77.3358 28.1979C77.3358 29.9749 78.7835 31.4155 80.5692 31.4155Z" fill="#7497F7"/>
<path d="M80.5692 31.4155C82.355 31.4155 83.8026 29.9749 83.8026 28.1979C83.8026 26.4209 82.355 24.9803 80.5692 24.9803C78.7835 24.9803 77.3358 26.4209 77.3358 28.1979C77.3358 29.9749 78.7835 31.4155 80.5692 31.4155Z" fill="url(#paint5_linear_1036_4847)"/>
<path d="M104.046 44.7249C105.831 44.7249 107.279 43.2844 107.279 41.5074C107.279 39.7303 105.831 38.2898 104.046 38.2898C102.26 38.2898 100.812 39.7303 100.812 41.5074C100.812 43.2844 102.26 44.7249 104.046 44.7249Z" fill="#7497F7"/>
<path d="M104.046 44.7249C105.831 44.7249 107.279 43.2844 107.279 41.5074C107.279 39.7303 105.831 38.2898 104.046 38.2898C102.26 38.2898 100.812 39.7303 100.812 41.5074C100.812 43.2844 102.26 44.7249 104.046 44.7249Z" fill="url(#paint6_linear_1036_4847)"/>
<path d="M44.0442 38.0809C45.83 38.0809 47.2776 36.6403 47.2776 34.8633C47.2776 33.0863 45.83 31.6458 44.0442 31.6458C42.2584 31.6458 40.8108 33.0863 40.8108 34.8633C40.8108 36.6403 42.2584 38.0809 44.0442 38.0809Z" fill="#7497F7"/>
<path d="M44.0442 38.0809C45.83 38.0809 47.2776 36.6403 47.2776 34.8633C47.2776 33.0863 45.83 31.6458 44.0442 31.6458C42.2584 31.6458 40.8108 33.0863 40.8108 34.8633C40.8108 36.6403 42.2584 38.0809 44.0442 38.0809Z" fill="url(#paint7_linear_1036_4847)"/>
<path d="M59.3644 45.1827C61.1502 45.1827 62.5978 43.7422 62.5978 41.9652C62.5978 40.1882 61.1502 38.7476 59.3644 38.7476C57.5786 38.7476 56.131 40.1882 56.131 41.9652C56.131 43.7422 57.5786 45.1827 59.3644 45.1827Z" fill="#7497F7"/>
<path d="M59.3644 45.1827C61.1502 45.1827 62.5978 43.7422 62.5978 41.9652C62.5978 40.1882 61.1502 38.7476 59.3644 38.7476C57.5786 38.7476 56.131 40.1882 56.131 41.9652C56.131 43.7422 57.5786 45.1827 59.3644 45.1827Z" fill="url(#paint8_linear_1036_4847)"/>
<defs>
<linearGradient id="paint0_linear_1036_4847" x1="58.8483" y1="38.4028" x2="124.334" y2="164.535" gradientUnits="userSpaceOnUse">
<stop offset="0.01"/>
<stop offset="0.08" stop-opacity="0.69"/>
<stop offset="0.21" stop-opacity="0.32"/>
<stop offset="1" stop-opacity="0"/>
</linearGradient>
<linearGradient id="paint1_linear_1036_4847" x1="84.7429" y1="-12.3743" x2="85.7793" y2="129.914" gradientUnits="userSpaceOnUse">
<stop offset="0.01"/>
<stop offset="0.08" stop-opacity="0.69"/>
<stop offset="0.21" stop-opacity="0.32"/>
<stop offset="1" stop-opacity="0"/>
</linearGradient>
<linearGradient id="paint2_linear_1036_4847" x1="26.1404" y1="-1.80744" x2="273.783" y2="287.879" gradientUnits="userSpaceOnUse">
<stop offset="0.01"/>
<stop offset="0.08" stop-opacity="0.69"/>
<stop offset="0.21" stop-opacity="0.32"/>
<stop offset="1" stop-opacity="0"/>
</linearGradient>
<linearGradient id="paint3_linear_1036_4847" x1="67.604" y1="47.2486" x2="111.264" y2="130.297" gradientUnits="userSpaceOnUse">
<stop offset="0.01"/>
<stop offset="0.08" stop-opacity="0.69"/>
<stop offset="0.21" stop-opacity="0.32"/>
<stop offset="1" stop-opacity="0"/>
</linearGradient>
<linearGradient id="paint4_linear_1036_4847" x1="76.3798" y1="42.6361" x2="120.039" y2="125.683" gradientUnits="userSpaceOnUse">
<stop offset="0.01"/>
<stop offset="0.08" stop-opacity="0.69"/>
<stop offset="0.21" stop-opacity="0.32"/>
<stop offset="1" stop-opacity="0"/>
</linearGradient>
<linearGradient id="paint5_linear_1036_4847" x1="70.7252" y1="22.9073" x2="132.654" y2="56.5191" gradientUnits="userSpaceOnUse">
<stop offset="0.01"/>
<stop offset="0.08" stop-opacity="0.69"/>
<stop offset="0.21" stop-opacity="0.32"/>
<stop offset="1" stop-opacity="0"/>
</linearGradient>
<linearGradient id="paint6_linear_1036_4847" x1="94.203" y1="36.2168" x2="156.131" y2="69.8286" gradientUnits="userSpaceOnUse">
<stop offset="0.01"/>
<stop offset="0.08" stop-opacity="0.69"/>
<stop offset="0.21" stop-opacity="0.32"/>
<stop offset="1" stop-opacity="0"/>
</linearGradient>
<linearGradient id="paint7_linear_1036_4847" x1="34.2016" y1="29.5727" x2="96.1295" y2="63.1846" gradientUnits="userSpaceOnUse">
<stop offset="0.01"/>
<stop offset="0.08" stop-opacity="0.69"/>
<stop offset="0.21" stop-opacity="0.32"/>
<stop offset="1" stop-opacity="0"/>
</linearGradient>
<linearGradient id="paint8_linear_1036_4847" x1="49.5218" y1="36.6746" x2="111.45" y2="70.285" gradientUnits="userSpaceOnUse">
<stop offset="0.01"/>
<stop offset="0.08" stop-opacity="0.69"/>
<stop offset="0.21" stop-opacity="0.32"/>
<stop offset="1" stop-opacity="0"/>
</linearGradient>
</defs>
</svg>
