<svg width="160" height="120" viewBox="0 0 160 120" fill="none" xmlns="http://www.w3.org/2000/svg">
<path opacity="0.48" d="M28.2215 28.0432H115.722C116.949 28.0432 117.943 29.0293 117.943 30.2457V84.2251C117.943 85.4415 116.949 86.4275 115.722 86.4275H28.2215C26.9945 86.4275 25.9999 85.4415 25.9999 84.2251V30.2457C25.9999 29.0293 26.9945 28.0432 28.2215 28.0432Z" fill="#BDCEFB"/>
<path opacity="0.18" d="M26 30.2119V40.9765H118.007V30.2119C118.007 29.6274 117.773 29.0666 117.357 28.6522C116.94 28.2377 116.375 28.0032 115.784 28H28.2233C27.6325 28.0032 27.067 28.2377 26.6504 28.6522C26.2338 29.0666 26 29.6274 26 30.2119Z" fill="#7497F7"/>
<path opacity="0.51" d="M43.7495 71.4177H88.3042V73.9409H43.7495V71.4177Z" fill="white"/>
<path d="M56.7899 67.0922H88.3042V69.6154H56.7899V67.0922Z" fill="white"/>
<path d="M31.0712 67.0922H52.443V69.6154H31.0712V67.0922Z" fill="white"/>
<path d="M31.0713 51.5925H63.6723V53.7552H31.0713V51.5925Z" fill="white"/>
<path opacity="0.51" d="M35.7803 55.1971H70.5547V57.7203H35.7803V55.1971Z" fill="white"/>
<path d="M66.2079 51.5925H87.5797V53.7552H66.2079V51.5925Z" fill="white"/>
<path d="M31.0713 59.1621H78.1616V61.3249H31.0713V59.1621Z" fill="white"/>
<path opacity="0.51" d="M31.0713 63.1271H62.2233V65.2899H31.0713V63.1271Z" fill="white"/>
<path d="M66.2079 63.1271H87.5797V65.2899H66.2079V63.1271Z" fill="white"/>
<path d="M73.8148 55.1971H87.5797V57.3598H73.8148V55.1971Z" fill="white"/>
<path d="M43.025 44.0229H75.626V46.1856H43.025V44.0229Z" fill="white"/>
<path opacity="0.51" d="M47.734 47.9879H82.5084V50.1507H47.734V47.9879Z" fill="white"/>
<path d="M78.1616 44.0229H99.5334V46.1856H78.1616V44.0229Z" fill="white"/>
<path d="M43.3872 39.3369H75.9882V41.4997H43.3872V39.3369Z" fill="white"/>
<path d="M78.5239 35.3719H99.8956V37.5346H78.5239V35.3719Z" fill="white"/>
<path d="M78.5239 31.4068H99.8956V33.5695H78.5239V31.4068Z" fill="white"/>
<path d="M85.7685 47.9879H99.5334V50.1507H85.7685V47.9879Z" fill="white"/>
<path d="M99.6122 27.8724C99.5599 29.1804 99.7402 30.4768 99.7983 31.7934C99.8432 32.2804 99.7948 32.7713 99.6558 33.2403C99.3301 34.1431 98.4461 34.7074 97.6202 35.2051C97.0968 35.5206 96.5007 35.972 96.5734 36.5797C96.6237 36.8087 96.7472 37.0154 96.9254 37.1688C97.1037 37.3221 97.327 37.4139 97.5621 37.4304C98.0334 37.4513 98.503 37.3601 98.9317 37.1642C99.8092 36.8802 100.613 36.408 101.287 35.781C102.605 34.4181 102.648 32.3085 102.549 30.4189C102.465 28.8332 102.328 27.0911 101.52 25.679C100.217 23.4219 99.6587 26.741 99.6122 27.8724Z" fill="#7497F7"/>
<path d="M99.6122 27.8724C99.5599 29.1804 99.7402 30.4768 99.7983 31.7934C99.8432 32.2804 99.7948 32.7713 99.6558 33.2403C99.3301 34.1431 98.4461 34.7074 97.6202 35.2051C97.0968 35.5206 96.5007 35.972 96.5734 36.5797C96.6237 36.8087 96.7472 37.0154 96.9254 37.1688C97.1037 37.3221 97.327 37.4139 97.5621 37.4304C98.0334 37.4513 98.503 37.3601 98.9317 37.1642C99.8092 36.8802 100.613 36.408 101.287 35.781C102.605 34.4181 102.648 32.3085 102.549 30.4189C102.465 28.8332 102.328 27.0911 101.52 25.679C100.217 23.4219 99.6587 26.741 99.6122 27.8724Z" fill="url(#paint0_linear_1037_4954)"/>
<path d="M95.7271 35.7144C95.1252 35.5061 94.4854 35.2225 93.8835 35.425C93.826 35.4378 93.7724 35.4643 93.7274 35.502C93.6823 35.5398 93.6471 35.5879 93.6246 35.6421C93.612 35.7216 93.6231 35.8031 93.6566 35.8765L94.3545 37.9339C94.3861 38.0363 94.4321 38.1337 94.4912 38.2233C94.6299 38.3805 94.8171 38.4873 95.0234 38.5271C95.7811 38.7354 96.5858 38.6979 97.3207 38.42C98.0826 38.1307 98.1495 37.1989 97.7453 36.5449C97.341 35.8909 96.425 35.9546 95.7271 35.7144Z" fill="url(#paint1_linear_1037_4954)"/>
<path d="M99.5628 43.8748C99.5628 43.8748 93.7875 50.7387 97.6377 56.6216C101.488 62.5046 108.319 66.8799 110.918 71.3304C113.518 75.781 108.801 80.6077 107.164 81.5105C105.527 82.4134 90.612 93.3545 99.8507 104.591H131.033C131.033 104.591 141.138 94.4108 124.295 82.1153C124.295 82.1153 112.265 76.0067 123.525 67.3313C134.784 58.6559 136.805 50.3972 131.466 43.95L99.5628 43.8748Z" fill="#7497F7"/>
<path d="M99.5628 43.8748C99.5628 43.8748 93.7875 50.7387 97.6377 56.6216C101.488 62.5046 108.319 66.8799 110.918 71.3304C113.518 75.781 108.801 80.6077 107.164 81.5105C105.527 82.4134 90.612 93.3545 99.8507 104.591H131.033C131.033 104.591 141.138 94.4108 124.295 82.1153C124.295 82.1153 112.265 76.0067 123.525 67.3313C134.784 58.6559 136.805 50.3972 131.466 43.95L99.5628 43.8748Z" fill="url(#paint2_linear_1037_4954)"/>
<path d="M133.234 41.065H97.1404C96.3245 41.065 95.6631 41.7231 95.6631 42.535V42.5379C95.6631 43.3497 96.3245 44.0079 97.1404 44.0079H133.234C134.05 44.0079 134.711 43.3497 134.711 42.5379V42.535C134.711 41.7231 134.05 41.065 133.234 41.065Z" fill="#7497F7"/>
<path d="M133.234 104.707H97.1404C96.3245 104.707 95.6631 105.365 95.6631 106.177V106.18C95.6631 106.991 96.3245 107.65 97.1404 107.65H133.234C134.05 107.65 134.711 106.991 134.711 106.18V106.177C134.711 105.365 134.05 104.707 133.234 104.707Z" fill="#7497F7"/>
<path d="M133.234 41.065H97.1404C96.3245 41.065 95.6631 41.7231 95.6631 42.535V42.5379C95.6631 43.3497 96.3245 44.0079 97.1404 44.0079H133.234C134.05 44.0079 134.711 43.3497 134.711 42.5379V42.535C134.711 41.7231 134.05 41.065 133.234 41.065Z" fill="url(#paint3_linear_1037_4954)"/>
<path d="M133.234 104.707H97.1404C96.3245 104.707 95.6631 105.365 95.6631 106.177V106.18C95.6631 106.991 96.3245 107.65 97.1404 107.65H133.234C134.05 107.65 134.711 106.991 134.711 106.18V106.177C134.711 105.365 134.05 104.707 133.234 104.707Z" fill="url(#paint4_linear_1037_4954)"/>
<path d="M128.401 88.9619C123.117 86.155 105.635 85.6891 102.317 88.0938C105.414 84.0136 109.668 81.6118 109.668 81.6118C113.855 79.0075 118.619 81.2703 118.619 81.2703C118.619 81.2703 124.676 84.3551 128.401 88.9619Z" fill="url(#paint5_linear_1037_4954)"/>
<path d="M128.291 104.365H102.16L101.15 103.462C98.1669 98.3809 98.8997 93.8927 100.86 90.3219C101.289 89.5496 101.775 88.8098 102.314 88.1082C105.632 85.689 123.114 86.1549 128.398 88.9763C128.939 89.6405 129.425 90.3469 129.852 91.0887C130.135 91.579 130.381 92.0886 130.591 92.6137C133.196 99.1622 128.291 104.365 128.291 104.365Z" fill="#7497F7"/>
<path d="M129.861 91.0742C128.614 95.5942 116.173 88.6985 110.378 88.1805C106.551 87.842 102.509 90.1598 102.509 90.1598C102.509 90.1598 101.203 90.6315 100.854 90.3161C101.284 89.5439 101.77 88.804 102.308 88.1024C105.626 85.6832 123.109 86.1491 128.393 88.9705C128.938 89.6314 129.429 90.3349 129.861 91.0742V91.0742Z" fill="url(#paint6_linear_1037_4954)"/>
<path d="M102.256 60.3169C102.256 60.3169 111.206 67.3313 111.785 68.6884C112.364 70.0456 117.019 70.8385 118.473 69.6318C119.927 68.4251 123.62 66.1246 127.279 60.9188C130.937 55.713 118.907 59.1102 114.865 59.8655C110.822 60.6207 103.893 55.7159 102.256 60.3169Z" fill="#7497F7"/>
<path d="M102.256 60.3168C102.256 60.3168 105.722 62.5797 108.801 61.8997C111.881 61.2197 113.902 59.2606 118.136 59.6368C122.37 60.013 126.604 61.8245 127.953 59.8654C129.303 57.9064 127.857 56.3177 123.62 56.8473C119.384 57.3768 112.361 57.4492 108.993 57.2234C105.626 56.9977 99.4668 57.5273 102.256 60.3168Z" fill="#7497F7"/>
<path d="M102.256 60.3168C102.256 60.3168 105.722 62.5797 108.801 61.8997C111.881 61.2197 113.902 59.2606 118.136 59.6368C122.37 60.013 126.604 61.8245 127.953 59.8654C129.303 57.9064 127.857 56.3177 123.62 56.8473C119.384 57.3768 112.361 57.4492 108.993 57.2234C105.626 56.9977 99.4668 57.5273 102.256 60.3168Z" fill="url(#paint7_linear_1037_4954)"/>
<path d="M114.771 71.9844C114.525 72.1453 114.325 72.3665 114.19 72.6268C114.141 72.7067 114.11 72.7959 114.098 72.8886C114.086 72.9812 114.093 73.0754 114.12 73.165C114.161 73.2633 114.231 73.3469 114.321 73.4047C114.411 73.4626 114.516 73.492 114.623 73.4891C114.806 73.4718 114.979 73.4025 115.123 73.2894C115.414 73.1014 115.734 72.8612 115.69 72.5689C115.647 72.2766 115.193 72.0683 114.803 71.9525" fill="#7497F7"/>
<path d="M116.394 74.6611C116.296 74.686 116.204 74.7303 116.124 74.7913C116.083 74.826 116.06 74.8636 116.092 74.9013C116.158 74.9504 116.239 74.9741 116.321 74.9678C116.399 74.9632 116.476 74.9496 116.551 74.9273C116.685 74.8868 116.842 74.8376 116.81 74.7797C116.778 74.7219 116.583 74.6785 116.406 74.6553" fill="#7497F7"/>
<path d="M114.83 75.509C114.732 75.5339 114.64 75.5781 114.559 75.6392C114.518 75.6739 114.498 75.7144 114.527 75.7491C114.593 75.7983 114.675 75.8219 114.757 75.8157C114.835 75.8125 114.912 75.7989 114.987 75.7752C115.12 75.7376 115.277 75.6884 115.248 75.6276C115.219 75.5668 115.019 75.5263 114.841 75.5032" fill="#7497F7"/>
<path d="M117.316 79.4589C117.19 79.4054 117.055 79.3769 116.918 79.3749C116.842 79.3749 116.775 79.3923 116.758 79.4473C116.759 79.4927 116.772 79.5371 116.794 79.5768C116.816 79.6165 116.848 79.6505 116.886 79.6759C116.961 79.733 117.046 79.7779 117.136 79.809C117.301 79.8727 117.488 79.9363 117.543 79.8698C117.598 79.8032 117.461 79.6122 117.331 79.4589" fill="#7497F7"/>
<path d="M112.698 84.6039C112.573 84.5507 112.439 84.5222 112.303 84.52C112.224 84.52 112.157 84.5402 112.143 84.5923C112.128 84.6444 112.172 84.7428 112.268 84.8209C112.344 84.8788 112.43 84.9238 112.521 84.954C112.684 85.0177 112.873 85.0813 112.925 85.0148C112.977 84.9482 112.843 84.7572 112.716 84.6039" fill="#7497F7"/>
<path d="M100.252 26.0668C100.208 25.2973 100.411 24.534 100.833 23.8878C101.255 23.247 101.819 22.7114 102.482 22.3223C102.844 22.0624 103.284 21.9319 103.73 21.9519C104.099 21.9982 105.379 20.615 105.678 20.8349C106.521 21.4571 106.353 23.7576 107.068 24.5244C107.256 25.5531 107.372 26.5935 107.417 27.6381L107.845 35.5263C107.914 36.8314 107.949 38.2522 107.164 39.2882C105.187 38.5734 103.263 37.7205 101.406 36.7359C101.192 36.6598 101.012 36.5119 100.895 36.3175C100.779 36.1231 100.735 35.8945 100.77 35.671C100.691 33.7091 100.691 31.7414 100.77 29.7794C100.804 28.7261 100.339 27.1201 100.252 26.0668Z" fill="#7497F7"/>
<path d="M100.252 26.0668C100.208 25.2973 100.411 24.534 100.833 23.8878C101.255 23.247 101.819 22.7114 102.482 22.3223C102.844 22.0624 103.284 21.9319 103.73 21.9519C104.099 21.9982 105.379 20.615 105.678 20.8349C106.521 21.4571 106.353 23.7576 107.068 24.5244C107.256 25.5531 107.372 26.5935 107.417 27.6381L107.845 35.5263C107.914 36.8314 107.949 38.2522 107.164 39.2882C105.187 38.5734 103.263 37.7205 101.406 36.7359C101.192 36.6598 101.012 36.5119 100.895 36.3175C100.779 36.1231 100.735 35.8945 100.77 35.671C100.691 33.7091 100.691 31.7414 100.77 29.7794C100.804 28.7261 100.339 27.1201 100.252 26.0668Z" fill="url(#paint8_linear_1037_4954)"/>
<path d="M98.6641 20.1433V20.369C98.6564 20.6525 98.7344 20.9318 98.888 21.1706C99.1788 21.5294 99.7081 21.5439 100.159 21.4773C100.51 21.3886 100.875 21.3641 101.235 21.405C101.592 21.4831 101.988 22.9416 102.331 22.9994C102.956 23.1065 104.282 22.3426 104.713 21.9577C104.756 21.9201 104.256 20.8002 104.274 20.7394C104.288 20.6805 104.288 20.619 104.274 20.56L103.576 17.3306C103.511 16.871 103.343 16.4319 103.084 16.0458C102.878 15.7961 102.616 15.5979 102.319 15.4671C101.334 15.0185 99.8884 15.1777 99.1672 16.069C98.7863 16.5406 98.7921 17.3596 98.731 17.9383C98.6532 18.6706 98.6308 19.4077 98.6641 20.1433V20.1433Z" fill="url(#paint9_linear_1037_4954)"/>
<path d="M103.805 42.7289C101.88 43.9645 99.682 44.6937 97.5097 45.4084C96.9746 45.585 96.3465 45.7528 95.8725 45.4692C95.6046 45.2819 95.3925 45.0259 95.2589 44.7284C94.404 43.1137 92.2666 42.6334 93.3164 41.1373C93.7613 40.5007 96.2825 38.4143 96.9048 37.9542C98.1378 37.0427 99.429 36.1051 100.944 35.8534C101.656 35.7507 102.378 35.7507 103.09 35.8534C104.466 36.0183 107.935 36.545 107.644 38.3015C107.353 40.0579 105.198 41.826 103.805 42.7289Z" fill="#3E3E54"/>
<path d="M104.387 27.3747C104.387 28.5322 104.509 29.6897 104.125 30.7777C103.611 32.2246 102.267 33.2171 100.927 33.9984C100.098 34.4846 99.1992 34.9736 98.7543 35.8186C98.3093 36.6636 98.6234 37.9715 99.5685 38.1336C99.9356 38.171 100.306 38.1173 100.647 37.9773C102.477 37.3755 104.244 36.6002 105.925 35.6623C106.615 35.2746 107.312 34.8376 107.737 34.175C108.105 33.504 108.305 32.7545 108.319 31.9902C108.456 30.3502 108.408 28.7 108.173 27.0709C107.902 25.7877 107.398 24.5647 106.684 23.4624C104.387 20.3661 104.387 25.6674 104.387 27.3747Z" fill="#7497F7"/>
<path d="M104.387 27.3747C104.387 28.5322 104.509 29.6897 104.125 30.7777C103.611 32.2246 102.267 33.2171 100.927 33.9984C100.098 34.4846 99.1992 34.9736 98.7543 35.8186C98.3093 36.6636 98.6234 37.9715 99.5685 38.1336C99.9356 38.171 100.306 38.1173 100.647 37.9773C102.477 37.3755 104.244 36.6002 105.925 35.6623C106.615 35.2746 107.312 34.8376 107.737 34.175C108.105 33.504 108.305 32.7545 108.319 31.9902C108.456 30.3502 108.408 28.7 108.173 27.0709C107.902 25.7877 107.398 24.5647 106.684 23.4624C104.387 20.3661 104.387 25.6674 104.387 27.3747Z" fill="url(#paint10_linear_1037_4954)"/>
<path d="M91.7461 47.8246L91.2488 57.2958C92.412 57.2234 92.9413 55.8808 93.2205 54.7725C94.0114 51.628 94.8034 48.4834 95.5963 45.3389C95.8289 44.4071 96.0674 43.4377 95.8871 42.4944C95.7591 41.8259 95.1543 40.6656 94.3487 40.5932C93.4909 40.518 93.0402 41.6147 92.7435 42.2745C91.9671 44.0078 91.8421 45.9611 91.7461 47.8246Z" fill="url(#paint11_linear_1037_4954)"/>
<path d="M93.4763 48.4642L93.8137 57.9411C94.9507 57.7675 95.3723 56.3843 95.5584 55.2557C96.0702 52.0553 96.583 48.8539 97.0968 45.6515C97.248 44.7023 97.3876 43.7185 97.1375 42.7925C96.9514 42.1385 96.2476 41.036 95.4392 41.0331C94.5668 41.0331 94.2266 42.1616 93.9852 42.8474C93.3629 44.6329 93.4094 46.6122 93.4763 48.4642Z" fill="url(#paint12_linear_1037_4954)"/>
<path d="M92.9936 55.3715L91.9118 55.4496C91.7997 55.4431 91.6874 55.4596 91.5819 55.4979C91.4764 55.5362 91.3798 55.5956 91.2983 55.6725C91.2098 55.8082 91.1661 55.968 91.1732 56.1297C91.1441 56.7084 91.1383 57.2872 91.1732 57.8427C91.1674 57.8655 91.1674 57.8894 91.1732 57.9122C91.1897 57.9317 91.2109 57.9467 91.2348 57.9558C91.2587 57.9649 91.2845 57.9678 91.3099 57.9643C91.7236 57.9608 92.1297 57.8533 92.4905 57.6518C92.6439 57.5803 92.7761 57.4707 92.8744 57.3335C92.9635 57.1681 93.0086 56.9828 93.0052 56.7952C93.0343 56.312 93.046 55.8258 93.0285 55.3484L92.9936 55.3715Z" fill="#7497F7"/>
<path d="M92.9704 57.319C92.9681 57.2782 92.9562 57.2385 92.9355 57.2033C92.9081 57.1749 92.8717 57.1569 92.8325 57.1521C92.7933 57.1474 92.7537 57.1562 92.7203 57.1772C92.6557 57.2231 92.5988 57.2787 92.5516 57.3422C92.3647 57.5616 92.1025 57.704 91.8159 57.7415C91.5241 57.7347 91.2323 57.7521 90.9435 57.7936C90.7352 57.8745 90.546 57.9977 90.3881 58.1553L89.4459 58.9655C89.2249 59.1536 88.9835 59.3996 89.0359 59.6861C89.0769 59.8115 89.1538 59.9223 89.2571 60.005C89.3603 60.0878 89.4856 60.1388 89.6175 60.152C90.0938 60.2037 90.5757 60.1443 91.0249 59.9783C91.444 59.8667 91.8558 59.7294 92.2579 59.5674C92.4689 59.4925 92.6572 59.3649 92.8046 59.197C93.1274 58.7659 93.0198 57.8254 92.9704 57.319Z" fill="#3E3E54"/>
<path d="M95.5904 55.4988L94.4999 55.5827C94.3873 55.5765 94.2747 55.5931 94.1687 55.6313C94.0628 55.6696 93.9657 55.7289 93.8834 55.8055C93.7976 55.9423 93.755 56.1016 93.7613 56.2628C93.7293 56.8415 93.7264 57.4202 93.7467 57.9758C93.7471 58.0006 93.752 58.0252 93.7613 58.0482C93.7776 58.0669 93.7984 58.0812 93.8218 58.0898C93.8452 58.0984 93.8704 58.101 93.895 58.0974C94.3099 58.0957 94.7174 57.9881 95.0786 57.7849C95.2319 57.7147 95.3642 57.606 95.4624 57.4694C95.5482 57.303 95.5921 57.1183 95.5904 56.9312C95.6233 56.4451 95.6321 55.9628 95.6166 55.4843L95.5904 55.4988Z" fill="#7497F7"/>
<path d="M95.5672 57.4376C95.5669 57.396 95.5559 57.3552 95.5352 57.319C95.5073 57.2904 95.4702 57.2724 95.4303 57.2682C95.3905 57.264 95.3504 57.2738 95.3171 57.2958C95.2528 57.341 95.1967 57.3968 95.1513 57.4608C94.964 57.6792 94.7018 57.8205 94.4156 57.8572C94.1238 57.8527 93.8321 57.8711 93.5432 57.9122C93.3341 57.992 93.144 58.1142 92.9849 58.271L92.0427 59.0813C91.8246 59.2723 91.5832 59.5182 91.6327 59.8018C91.6741 59.927 91.751 60.0377 91.8542 60.1203C91.9574 60.203 92.0825 60.2542 92.2143 60.2677C92.6916 60.3211 93.1748 60.2616 93.6246 60.0941C94.044 59.9833 94.4558 59.846 94.8576 59.6832C95.068 59.6085 95.2553 59.4809 95.4014 59.3128C95.7242 58.8816 95.6166 57.9498 95.5672 57.4376Z" fill="#3E3E54"/>
<path d="M96.5151 36.6115C95.8812 36.6433 95.1804 36.6115 94.6977 37.0282C94.6497 37.0601 94.6101 37.1031 94.5822 37.1535C94.5544 37.2038 94.5391 37.2601 94.5377 37.3175C94.5553 37.3959 94.5958 37.4674 94.654 37.523L96.076 39.1695C96.1439 39.2579 96.2254 39.335 96.3174 39.3981C96.5047 39.4903 96.7172 39.5188 96.9223 39.4792C97.704 39.3921 98.437 39.0573 99.0131 38.5242C99.5947 37.9715 99.3243 37.0774 98.7019 36.6288C98.0796 36.1803 97.2538 36.5739 96.5151 36.6115Z" fill="url(#paint13_linear_1037_4954)"/>
<path d="M103.82 13.0132C105.815 13.1839 107.6 14.4398 108.81 16.0255C110.069 17.675 111.075 19.8655 113.111 20.2996C114.027 20.4963 114.984 20.2735 115.914 20.369C116.782 20.4759 117.595 20.8495 118.239 21.4377C118.883 22.0259 119.327 22.7994 119.509 23.6505C119.727 24.7762 119.459 25.9394 119.575 27.0796C119.805 29.328 121.509 31.4664 120.872 33.6338C120.366 35.3469 118.255 36.3858 116.572 35.7318C114.78 35.0344 114.004 33.0001 112.791 31.507C112.265 30.8559 111.494 30.2453 110.668 30.3987C110.258 30.4768 109.901 30.7343 109.505 30.8385C108.575 31.0787 107.606 30.4276 107.132 29.5942C106.658 28.7608 106.551 27.777 106.402 26.8336C106.187 25.5025 105.821 24.1366 104.948 23.1152C103.867 21.8651 102.107 21.2429 101.29 19.8076C100.807 18.9569 100.723 17.9528 100.284 17.0875C99.8943 16.3265 99.1469 15.93 99.4755 15.0301C100.025 13.5427 102.439 12.8974 103.82 13.0132Z" fill="#3E3E54"/>
<path d="M98.3472 14.9983C98.3001 15.2415 98.3122 15.4925 98.3825 15.7301C98.4528 15.9677 98.5793 16.1851 98.7514 16.3641C99.1009 16.7184 99.4914 17.0302 99.9146 17.293C100.337 17.5585 100.685 17.9245 100.93 18.3579C100.955 18.431 100.996 18.4974 101.052 18.5518C101.08 18.5766 101.117 18.5903 101.155 18.5903C101.193 18.5903 101.23 18.5766 101.258 18.5518C101.286 18.5131 101.301 18.4663 101.299 18.4187C101.357 17.6084 101.209 16.8011 101.209 15.9908C101.209 15.441 101.374 14.7407 101.043 14.2546C100.406 13.3141 98.6031 14.0694 98.3472 14.9983Z" fill="#3E3E54"/>
<defs>
<linearGradient id="paint0_linear_1037_4954" x1="104.806" y1="32.9799" x2="94.2304" y2="29.596" gradientUnits="userSpaceOnUse">
<stop offset="0.01"/>
<stop offset="0.13" stop-opacity="0.69"/>
<stop offset="1" stop-opacity="0"/>
</linearGradient>
<linearGradient id="paint1_linear_1037_4954" x1="93.3904" y1="36.2338" x2="97.8391" y2="38.0382" gradientUnits="userSpaceOnUse">
<stop stop-color="#E5C5D5"/>
<stop offset="0.42" stop-color="#EAD4D1"/>
<stop offset="1" stop-color="#F0E9CB"/>
</linearGradient>
<linearGradient id="paint2_linear_1037_4954" x1="96.3146" y1="74.2328" x2="134.287" y2="74.2328" gradientUnits="userSpaceOnUse">
<stop offset="0.02" stop-color="white" stop-opacity="0"/>
<stop offset="0.32" stop-color="white" stop-opacity="0.39"/>
<stop offset="0.68" stop-color="white" stop-opacity="0.68"/>
<stop offset="1" stop-color="white"/>
</linearGradient>
<linearGradient id="paint3_linear_1037_4954" x1="115.033" y1="45.5416" x2="115.321" y2="39.8726" gradientUnits="userSpaceOnUse">
<stop offset="0.01"/>
<stop offset="0.13" stop-opacity="0.69"/>
<stop offset="1" stop-opacity="0"/>
</linearGradient>
<linearGradient id="paint4_linear_1037_4954" x1="115.187" y1="99.2751" x2="115.187" y2="112.852" gradientUnits="userSpaceOnUse">
<stop offset="0.01"/>
<stop offset="0.13" stop-opacity="0.69"/>
<stop offset="1" stop-opacity="0"/>
</linearGradient>
<linearGradient id="paint5_linear_1037_4954" x1="116.938" y1="80.7032" x2="114.953" y2="90.6353" gradientUnits="userSpaceOnUse">
<stop offset="0.02" stop-color="white" stop-opacity="0"/>
<stop offset="0.32" stop-color="white" stop-opacity="0.39"/>
<stop offset="0.68" stop-color="white" stop-opacity="0.68"/>
<stop offset="1" stop-color="white"/>
</linearGradient>
<linearGradient id="paint6_linear_1037_4954" x1="117.165" y1="81.7709" x2="112.783" y2="103.693" gradientUnits="userSpaceOnUse">
<stop offset="0.01"/>
<stop offset="0.13" stop-opacity="0.69"/>
<stop offset="1" stop-opacity="0"/>
</linearGradient>
<linearGradient id="paint7_linear_1037_4954" x1="115.126" y1="62.7736" x2="114.789" y2="52.4082" gradientUnits="userSpaceOnUse">
<stop offset="0.01"/>
<stop offset="0.13" stop-opacity="0.69"/>
<stop offset="1" stop-opacity="0"/>
</linearGradient>
<linearGradient id="paint8_linear_1037_4954" x1="109.601" y1="29.9299" x2="96.7538" y2="30.415" gradientUnits="userSpaceOnUse">
<stop offset="0.01"/>
<stop offset="0.13" stop-opacity="0.69"/>
<stop offset="1" stop-opacity="0"/>
</linearGradient>
<linearGradient id="paint9_linear_1037_4954" x1="98.6496" y1="19.1218" x2="104.724" y2="19.1218" gradientUnits="userSpaceOnUse">
<stop stop-color="#E5C5D5"/>
<stop offset="0.42" stop-color="#EAD4D1"/>
<stop offset="1" stop-color="#F0E9CB"/>
</linearGradient>
<linearGradient id="paint10_linear_1037_4954" x1="113.823" y1="30.9022" x2="96.6929" y2="30.0313" gradientUnits="userSpaceOnUse">
<stop offset="0.01"/>
<stop offset="0.13" stop-opacity="0.69"/>
<stop offset="1" stop-opacity="0"/>
</linearGradient>
<linearGradient id="paint11_linear_1037_4954" x1="91.6147" y1="48.8436" x2="95.4354" y2="49.1802" gradientUnits="userSpaceOnUse">
<stop stop-color="#E5C5D5"/>
<stop offset="0.42" stop-color="#EAD4D1"/>
<stop offset="1" stop-color="#F0E9CB"/>
</linearGradient>
<linearGradient id="paint12_linear_1037_4954" x1="93.4385" y1="49.4885" x2="97.2771" y2="49.4885" gradientUnits="userSpaceOnUse">
<stop stop-color="#E5C5D5"/>
<stop offset="0.42" stop-color="#EAD4D1"/>
<stop offset="1" stop-color="#F0E9CB"/>
</linearGradient>
<linearGradient id="paint13_linear_1037_4954" x1="94.5348" y1="37.96" x2="99.3417" y2="37.96" gradientUnits="userSpaceOnUse">
<stop stop-color="#E5C5D5"/>
<stop offset="0.42" stop-color="#EAD4D1"/>
<stop offset="1" stop-color="#F0E9CB"/>
</linearGradient>
</defs>
</svg>
