<svg width="160" height="120" viewBox="0 0 160 120" fill="none" xmlns="http://www.w3.org/2000/svg">
<path d="M64.1835 95.2699H97.4595L91.5709 74.2108H69.15L64.1835 95.2699Z" fill="#7497F7"/>
<path d="M64.1835 95.2699H97.4595L91.5709 74.2108H69.15L64.1835 95.2699Z" fill="url(#paint0_linear_1037_5232)"/>
<path d="M130.663 17.9427V72.2411C130.663 73.0217 130.509 73.7947 130.209 74.5159C129.909 75.2371 129.469 75.8924 128.914 76.4444C128.359 76.9964 127.701 77.4342 126.976 77.7329C126.251 78.0315 125.474 78.1852 124.69 78.185H38.4636C37.6791 78.1852 36.9023 78.0315 36.1776 77.7329C35.4528 77.4342 34.7943 76.9964 34.2396 76.4444C33.6849 75.8924 33.2449 75.2371 32.9448 74.5159C32.6447 73.7947 32.4903 73.0217 32.4904 72.2411V17.9427C32.4911 16.3666 33.1206 14.8552 34.2407 13.7409C35.3608 12.6265 36.8797 12.0003 38.4636 12H124.69C126.274 12.0003 127.793 12.6265 128.913 13.7409C130.033 14.8552 130.662 16.3666 130.663 17.9427V17.9427Z" fill="#7497F7"/>
<path d="M45.4095 68.2885C45.4567 68.4857 45.3105 68.6877 45.1268 68.7695C44.9343 68.8425 44.7278 68.8717 44.5226 68.8549L43.6537 68.8465C43.5637 68.8359 43.4726 68.8545 43.3939 68.8994C43.29 68.9751 43.2731 69.1218 43.2731 69.2505L43.1849 72.9542C43.1643 73.7959 43.151 74.6798 43.528 75.4349C43.7153 75.8101 43.9909 76.136 44.189 76.5063C44.3872 76.8767 44.5056 77.3252 44.3486 77.7088C42.8727 77.7697 41.3968 77.7718 39.9209 77.7148C39.6466 77.704 39.3445 77.68 39.1548 77.4827C39.0582 77.3674 38.9874 77.233 38.947 77.0883C38.5122 75.8634 38.1542 74.6128 37.8751 73.3438C37.6092 72.1329 37.4147 70.8979 37.463 69.6594C37.5114 68.4208 37.8135 67.1738 38.4781 66.1264C38.6315 65.8605 38.837 65.6279 39.0823 65.4422C39.342 65.2803 39.6283 65.1651 39.9282 65.1019C41.3916 64.7219 42.9118 64.6209 44.4199 64.5175C44.925 64.4838 45.4724 64.4598 45.8941 64.7376C46.3436 65.0322 46.5358 65.6094 46.508 66.1445C46.4802 66.6796 46.2663 67.1834 46.0573 67.6752" fill="url(#paint1_linear_1037_5232)"/>
<path d="M118.172 74.2769C117.243 71.2154 116.183 68.1971 114.991 65.2222C114.955 65.09 114.875 64.9739 114.764 64.8927C114.638 64.8379 114.496 64.8264 114.363 64.8602L111.771 65.227C111.819 66.6796 112.483 68.0288 113.049 69.3671C114.054 71.741 114.79 74.219 115.243 76.7552C115.269 77.0094 115.349 77.2552 115.477 77.4767C115.719 77.8218 116.157 77.9577 116.565 78.0407C117.833 78.3053 118.661 78.6901 118.875 77.4058C119.031 76.4895 118.441 75.1403 118.172 74.2769Z" fill="url(#paint2_linear_1037_5232)"/>
<path d="M106.032 75.0729L103.253 75.0417C103.059 75.0417 102.847 75.0417 102.704 75.1727C102.561 75.3038 102.538 75.4758 102.436 75.6165C102.211 75.9255 101.755 75.9255 101.374 75.8846C100.038 75.7423 98.717 75.4905 97.4233 75.1319L97.9199 71.7517C100.284 72.2778 102.704 72.516 105.126 72.4611L105.254 68.3919L101.579 68.3594C101.423 68.3745 101.266 68.3395 101.131 68.2596C100.959 68.131 100.934 67.8881 100.929 67.674C100.92 67.1768 100.948 66.6796 101.013 66.1865C101.014 66.0695 101.062 65.9575 101.145 65.8751C101.25 65.8161 101.373 65.8001 101.49 65.8306C104.289 66.1989 107.117 66.3016 109.935 66.1372C110.092 70.2916 110.853 74.4015 112.194 78.3389C110.698 78.1778 108.931 78.4315 107.481 78.108C106.795 77.9541 106.827 77.8795 106.606 77.146C106.552 76.9572 106.124 75.0741 106.032 75.0729Z" fill="url(#paint3_linear_1037_5232)"/>
<path d="M130.663 17.9427V65.5613H32.4904V17.9427C32.4911 16.3666 33.1206 14.8552 34.2407 13.7409C35.3608 12.6265 36.8797 12.0003 38.4636 12H124.69C126.274 12.0003 127.793 12.6265 128.913 13.7409C130.033 14.8552 130.662 16.3666 130.663 17.9427V17.9427Z" fill="#4C66AD"/>
<path d="M41.9269 62.9062C43.0701 63.6878 44.2592 64.4899 45.6247 64.7352C45.7926 64.7652 45.9872 64.8013 46.073 64.9468C46.1303 65.0751 46.1372 65.2201 46.0923 65.3532C45.8893 66.3207 45.5993 67.2681 45.2259 68.1839C43.2351 67.9263 41.321 67.2548 39.608 66.213C39.3361 66.0471 39.0606 65.8631 38.895 65.5925C38.7295 65.322 38.6872 64.9588 38.6618 64.6233C38.5905 63.707 38.454 62.3963 39.005 61.5834C39.4352 60.9485 39.6745 61.3658 40.2472 61.7578L41.9269 62.9062Z" fill="#7497F7"/>
<path d="M41.2309 62.7535C42.374 63.5351 43.5631 64.3372 44.9286 64.5825C45.0966 64.6125 45.2912 64.6474 45.377 64.7941C45.4342 64.9224 45.4411 65.0674 45.3963 65.2005C45.1937 66.1676 44.9041 67.1145 44.5311 68.03C42.5397 67.7729 40.6252 67.1014 38.9119 66.0591C38.6401 65.8944 38.3657 65.7104 38.199 65.4398C38.0322 65.1693 37.9911 64.8049 37.9658 64.4706C37.8945 63.5531 37.7579 62.2436 38.3089 61.4307C38.7391 60.7958 38.9784 61.2131 39.5524 61.6051L41.2309 62.7535Z" fill="url(#paint4_linear_1037_5232)"/>
<path d="M129.185 19.0826V63.974H33.9731V19.0826C33.9731 15.9345 36.5676 13.3804 39.7663 13.3804H123.396C126.591 13.3756 129.185 15.9297 129.185 19.0826Z" fill="white"/>
<path opacity="0.18" d="M129.185 19.0826V63.974H33.9731V19.0826C33.9731 15.9345 36.5676 13.3804 39.7663 13.3804H123.396C126.591 13.3756 129.185 15.9297 129.185 19.0826Z" fill="#7497F7"/>
<path d="M100.419 34.0693C100.416 32.99 100.65 31.9231 101.104 30.9428L96.4191 28.4044C95.5704 30.1158 95.1171 31.9945 95.0923 33.9028C95.0675 35.8111 95.4718 37.7008 96.2757 39.4335C97.0796 41.1663 98.2626 42.6982 99.7382 43.9173C101.214 45.1363 102.945 46.0115 104.804 46.479L105.753 41.2445C104.209 40.7735 102.858 39.8225 101.898 38.531C100.938 37.2395 100.42 35.6757 100.419 34.0693Z" fill="#7497F7"/>
<path opacity="0.5" d="M119.002 40.6493C117.579 43.0102 115.43 44.8523 112.873 45.9027C110.316 46.9531 107.486 47.156 104.804 46.4814L105.753 41.2445C106.47 41.4657 107.216 41.5772 107.967 41.5752C109.233 41.5755 110.479 41.2582 111.59 40.6527C112.701 40.0472 113.64 39.173 114.322 38.1108L119.002 40.6493Z" fill="#7497F7"/>
<path d="M120.831 34.0693C120.836 36.3876 120.203 38.6629 119.002 40.6493L114.316 38.1109C114.873 37.2434 115.245 36.271 115.409 35.2542C115.572 34.2375 115.524 33.1981 115.267 32.2008C115.009 31.2035 114.548 30.2695 113.913 29.4571C113.277 28.6446 112.48 27.9711 111.571 27.4783C110.663 26.9855 109.662 26.684 108.631 26.5926C107.601 26.5013 106.562 26.6219 105.58 26.9471C104.598 27.2723 103.694 27.7951 102.924 28.4829C102.154 29.1707 101.535 30.0089 101.104 30.9452L96.4191 28.4068C97.7045 25.8152 99.8331 23.7325 102.459 22.4973C105.084 21.262 108.053 20.9468 110.881 21.603C113.71 22.2591 116.232 23.848 118.038 26.1113C119.844 28.3746 120.828 31.1792 120.829 34.0693H120.831Z" fill="white"/>
<path opacity="0.18" d="M73.562 19.2582H42.2037V47.9256H73.562V19.2582Z" fill="#7497F7"/>
<path d="M106.563 103.6C104.841 103.699 102.996 103.77 101.525 102.878C101.42 102.823 101.33 102.743 101.265 102.645C101.227 102.567 101.212 102.48 101.22 102.393C101.228 102.307 101.259 102.224 101.311 102.154C101.415 102.015 101.552 101.903 101.71 101.828C102.246 101.539 102.859 101.43 103.461 101.326C104.202 101.197 104.944 101.067 105.695 100.993C106.178 100.946 106.993 100.752 107.387 101.138C107.695 101.444 107.628 101.98 107.578 102.372C107.477 103.064 107.342 103.554 106.563 103.6Z" fill="#B8B8BF"/>
<path d="M117.971 101.666C116.613 102.724 115.137 103.83 113.417 103.928C113.299 103.942 113.18 103.927 113.07 103.883C112.994 103.84 112.932 103.777 112.89 103.702C112.847 103.626 112.826 103.541 112.828 103.454C112.834 103.28 112.882 103.111 112.968 102.96C113.244 102.419 113.686 101.981 114.12 101.554C114.656 101.029 115.193 100.501 115.766 100.015C116.128 99.7047 116.696 99.0819 117.235 99.1732C117.663 99.2502 117.919 99.7336 118.098 100.08C118.417 100.709 118.585 101.187 117.971 101.666Z" fill="#B8B8BF"/>
<path d="M104.514 99.7204C104.522 100.29 104.53 100.859 104.541 101.426C105.579 101.554 106.626 101.583 107.669 101.512C107.718 101.521 107.767 101.519 107.814 101.505C107.861 101.491 107.905 101.466 107.94 101.432C107.975 101.399 108.002 101.357 108.018 101.311C108.034 101.265 108.039 101.215 108.032 101.167C108.254 98.3459 107.891 95.496 108.222 92.6846C108.272 92.0961 108.408 91.518 108.626 90.9687C108.868 90.4179 109.231 89.9345 109.593 89.4487C110.682 87.9538 111.652 86.3765 112.493 84.7313C113.365 83.0358 113.593 81.2826 113.569 79.3622C113.545 77.5116 112.594 76.7095 110.779 77.1905C110.518 77.2232 110.271 77.3229 110.061 77.4798C109.851 77.6367 109.686 77.8454 109.582 78.0852C108.526 79.8793 107.466 81.6806 106.674 83.6046C104.588 88.6551 104.447 94.2382 104.514 99.7204Z" fill="#473F47"/>
<path d="M104.514 99.7204C104.522 100.29 104.53 100.859 104.541 101.426C105.579 101.554 106.626 101.583 107.669 101.512C107.718 101.521 107.767 101.519 107.814 101.505C107.861 101.491 107.905 101.466 107.94 101.432C107.975 101.399 108.002 101.357 108.018 101.311C108.034 101.265 108.039 101.215 108.032 101.167C108.254 98.3459 107.891 95.496 108.222 92.6846C108.272 92.0961 108.408 91.518 108.626 90.9687C108.868 90.4179 109.231 89.9345 109.593 89.4487C110.682 87.9538 111.652 86.3765 112.493 84.7313C113.365 83.0358 113.593 81.2826 113.569 79.3622C113.545 77.5116 112.594 76.7095 110.779 77.1905C110.518 77.2232 110.271 77.3229 110.061 77.4798C109.851 77.6367 109.686 77.8454 109.582 78.0852C108.526 79.8793 107.466 81.6806 106.674 83.6046C104.588 88.6551 104.447 94.2382 104.514 99.7204Z" fill="url(#paint5_linear_1037_5232)"/>
<path d="M103.525 67.1149C99.8284 66.0865 96.6527 63.7191 94.6222 60.4783C94.3031 59.9636 94.0071 59.336 94.2379 58.7756C94.26 58.7051 94.3079 58.6455 94.372 58.6084C94.4759 58.5615 94.5932 58.6265 94.6898 58.6878L99.4884 61.8143C100.818 62.6789 102.178 63.5579 103.718 63.9403C103.885 64.4838 104.182 64.8409 104.201 65.4097C104.221 65.9785 103.906 66.6916 103.525 67.1149Z" fill="#FFBBAB"/>
<path d="M45.5075 75.0549H101.764V29.9448L45.5075 29.9448L45.5075 75.0549Z" fill="white"/>
<path opacity="0.16" d="M93.8331 74.1567C94.0747 74.3515 94.395 74.4236 94.7019 74.4849C96.7619 74.8928 98.867 75.0282 100.963 74.8878C101.167 74.8746 101.384 74.8529 101.542 74.723C101.731 74.5679 101.783 74.3022 101.801 74.0581C101.858 73.4187 101.814 72.7746 101.672 72.1485C101.654 72.0679 96.5846 72.0752 96.1025 72.1485C95.3822 72.2567 92.6367 73.1947 93.8331 74.1567Z" fill="#7497F7"/>
<path opacity="0.16" d="M50.1912 56.3346C50.2697 56.7379 50.2771 57.1517 50.213 57.5575C50.0922 58.1371 49.7212 58.6265 49.3744 59.1075C47.8288 61.249 46.618 63.611 45.783 66.1132C45.4083 64.758 45.4204 63.3319 45.4289 61.9262C45.4156 61.4305 45.4541 60.9348 45.5437 60.4471C45.6911 59.7689 46.0271 59.1508 46.3219 58.5231C46.7752 57.54 47.1165 56.5095 47.3394 55.4508C47.4965 54.704 47.7635 52.8113 48.9454 52.9388C49.9399 53.0434 50.0825 55.5854 50.1912 56.3346Z" fill="#7497F7"/>
<path d="M117.104 80.8906C116.672 82.6763 115.988 84.3863 115.195 86.0421C114.526 87.4394 112.978 89.2371 112.985 90.8208C112.997 93.6659 116.006 97.4742 117.85 99.427C116.873 100.069 115.829 100.605 114.736 101.025C114.495 101.119 114.225 101.208 113.974 101.133C113.674 101.044 113.49 100.752 113.334 100.483L111.32 96.9956C110.197 95.0559 109.043 93.0165 108.95 90.7799C108.917 89.9706 109.024 89.1637 109.116 88.3605C109.331 86.6481 109.135 84.7073 109.549 83.0431C109.927 81.5255 110.422 80.02 110.777 78.4736C110.956 77.7004 111.177 76.8599 111.822 76.3921C112.097 76.2072 112.404 76.0732 112.728 75.9965C114.299 75.5576 115.998 75.4999 116.858 77.1208C117.453 78.2452 117.394 79.6881 117.104 80.8906Z" fill="#473F47"/>
<path d="M103.059 64.0846C102.204 64.3936 103.004 66.3814 103.233 66.9706C103.274 67.115 103.361 67.2419 103.482 67.3313C103.616 67.3922 103.766 67.4099 103.91 67.3818C105.199 67.2624 106.481 67.1105 107.755 66.9261C108.04 66.9038 108.317 66.8219 108.568 66.6856C108.719 66.5793 108.847 66.4442 108.944 66.288C109.041 66.1319 109.106 65.958 109.134 65.7765C109.255 65.1753 109.31 63.7515 108.791 63.2958C108.414 62.9663 107.663 63.1996 107.17 63.2501C105.777 63.398 104.38 63.606 103.059 64.0846Z" fill="#7497F7"/>
<path d="M103.059 64.0846C102.204 64.3936 103.004 66.3814 103.233 66.9706C103.274 67.115 103.361 67.2419 103.482 67.3313C103.616 67.3922 103.766 67.4099 103.91 67.3818C105.199 67.2624 106.481 67.1105 107.755 66.9261C108.04 66.9038 108.317 66.8219 108.568 66.6856C108.719 66.5793 108.847 66.4442 108.944 66.288C109.041 66.1319 109.106 65.958 109.134 65.7765C109.255 65.1753 109.31 63.7515 108.791 63.2958C108.414 62.9663 107.663 63.1996 107.17 63.2501C105.777 63.398 104.38 63.606 103.059 64.0846Z" fill="url(#paint6_linear_1037_5232)"/>
<path d="M105.551 56.747C105.399 56.9995 105.091 57.1475 104.99 57.424C104.87 57.7583 105.104 58.1034 105.224 58.4377C105.39 58.9043 105.344 59.4262 105.502 59.8939C105.53 59.9957 105.588 60.087 105.667 60.1573C105.742 60.2076 105.827 60.2409 105.916 60.2547C106.265 60.3273 106.622 60.348 106.977 60.316C107.047 60.3018 107.12 60.3115 107.184 60.3437C107.235 60.3906 107.267 60.4541 107.275 60.5228C107.478 61.4083 107.464 62.3293 107.233 63.208C107.157 63.4978 107.072 63.8501 107.288 64.0594C107.365 64.1281 107.46 64.1753 107.562 64.1964C108.234 64.3588 108.881 63.8646 109.336 63.3451C109.741 62.88 110.091 62.369 110.376 61.8227C110.464 61.6717 110.525 61.5064 110.555 61.3345C110.567 61.1101 110.536 60.8855 110.462 60.6732C110.271 59.9424 110.154 59.1942 110.114 58.4401C110.063 57.4781 110.133 56.4692 109.762 55.5746C109.653 55.2668 109.447 55.0026 109.174 54.8218C108.866 54.6415 108.486 54.6415 108.129 54.6547C107.422 54.6824 106.647 54.7749 106.167 55.292C106.028 55.4411 105.738 56.4332 105.551 56.747Z" fill="#FFBBAB"/>
<path d="M105.844 54.4527C105.556 54.3997 105.34 54.7833 105.452 55.0539C105.564 55.3245 105.868 55.4603 106.157 55.5096C106.445 55.5589 106.745 55.5469 107.023 55.6359C107.301 55.7249 107.568 55.9594 107.561 56.2504C107.872 56.165 108.194 56.4271 108.286 56.7314C108.378 57.0356 108.317 57.3699 108.252 57.6849C108.34 57.7799 108.506 57.715 108.59 57.6164C108.675 57.5178 108.728 57.3855 108.842 57.3218C109.083 57.1823 109.385 57.495 109.352 57.7727C109.318 58.0505 109.093 58.2621 108.89 58.4557C108.839 58.4974 108.797 58.55 108.769 58.6097C108.685 58.8429 108.997 59.0101 109.24 59.063C109.224 59.2442 109.245 59.4267 109.303 59.5993C109.334 59.6852 109.389 59.7599 109.463 59.8138C109.537 59.8676 109.625 59.8981 109.716 59.9011C109.88 59.8927 110.01 59.7701 110.16 59.7063C110.31 59.6426 110.541 59.6835 110.554 59.8458C110.806 59.3215 110.538 58.8333 110.647 58.3355C110.746 57.8797 111.15 58.0493 111.426 57.7427C111.58 57.5719 111.567 57.3158 111.638 57.0993C111.729 56.8216 111.961 56.6003 112.023 56.3153C112.13 55.8343 111.727 55.4002 111.36 55.0671C111.399 54.978 111.408 54.8788 111.386 54.784C111.365 54.6893 111.313 54.6039 111.239 54.5404C111.088 54.4158 110.905 54.3366 110.711 54.312C110.659 54.3067 110.61 54.2871 110.568 54.2554C110.506 54.1953 110.519 54.0943 110.526 54.0077C110.647 52.5467 108.247 52.952 107.364 53.0265C106.997 53.0578 106.644 53.1771 106.334 53.374C106.247 53.4438 105.517 54.3937 105.844 54.4527Z" fill="#473F47"/>
<path d="M110.5 61.4103L110.439 61.4235C109.157 61.7422 107.285 62.9074 106.865 64.2013C106.338 65.827 105.992 68.0131 106.373 69.693C106.637 70.8606 107.349 71.8791 107.648 73.0179C107.98 74.2793 108.036 75.5143 108.552 76.7456C108.779 77.2879 109.072 77.8423 109.58 78.1405C110.002 78.387 110.509 78.4231 110.997 78.4495C112.435 78.5253 114.455 79.0099 115.647 78.0263C116.567 77.2759 116.929 76.0097 116.867 74.8289C116.804 73.648 116.372 72.5201 115.947 71.415L113.946 66.2202C113.464 64.972 112.293 61.0579 110.5 61.4103Z" fill="#7497F7"/>
<path d="M111.553 74.1855C111.442 74.3363 111.37 74.5123 111.344 74.6976C111.318 74.8829 111.338 75.0718 111.403 75.2473C111.609 76.0919 111.697 76.9606 111.664 77.829C111.677 77.9842 111.628 78.1381 111.529 78.2583C111.416 78.3408 111.278 78.3832 111.138 78.3786C110.636 78.4171 110.106 78.4507 109.654 78.2307C109.118 77.9685 108.808 77.4058 108.566 76.8622C107.878 75.3074 107.493 73.6396 107.116 71.9837C107.035 71.7163 107.009 71.4354 107.039 71.1576C107.114 70.7404 107.435 70.4061 107.788 70.1668C108.141 69.9275 108.535 69.7519 108.875 69.4934C109.538 68.9871 110.027 68.0708 110.93 67.9554C111.61 67.8676 112.107 68.3438 112.328 68.9451C112.897 70.5263 112.278 72.7557 111.553 74.1855Z" fill="url(#paint7_linear_1037_5232)"/>
<path d="M109.378 65.2005C109.378 65.2005 107.545 70.1367 107.184 70.4975C106.822 70.8582 110.707 73.042 110.707 73.042C110.707 73.042 113.245 68.2416 113.124 66.1613C113.003 64.081 110.806 63.2405 109.378 65.2005Z" fill="#7497F7"/>
<path d="M110.707 72.3722C110.707 72.3722 110.573 73.9619 108.613 73.9354L105.301 73.8885C103.775 73.8681 102.246 73.8164 100.72 73.8272C100.31 73.8272 100.026 74.0172 99.6322 74.1086C98.9277 74.2652 98.1955 74.2484 97.4989 74.0599C96.8023 73.8713 96.1625 73.5165 95.6348 73.0263C95.2215 72.6283 94.8747 72.0235 95.1176 71.504C95.1469 71.4303 95.2006 71.3688 95.2699 71.3296C95.3308 71.3071 95.3961 71.2989 95.4608 71.3056C96.384 71.3344 97.3399 71.5689 98.2099 71.2599C98.1367 71.1439 98.0978 71.0097 98.0976 70.8727C98.1108 70.738 98.2365 70.6033 98.3694 70.6322C98.4394 70.658 98.5009 70.7025 98.5471 70.7608C98.771 71.0078 99.0492 71.1999 99.3601 71.3222C99.671 71.4444 100.006 71.4935 100.339 71.4655C102.851 71.3453 105.33 70.815 107.842 70.7019C108.431 70.6767 109.037 70.6755 109.587 70.8847C110.137 71.0939 110.632 71.7914 110.707 72.3722Z" fill="#FFBBAB"/>
<path d="M50.8788 104.512C51.0753 104.529 51.2676 104.578 51.448 104.658C51.5376 104.699 51.6136 104.765 51.6671 104.847C51.7206 104.93 51.7494 105.026 51.7501 105.124C51.7331 105.219 51.6926 105.308 51.6323 105.383C51.5719 105.458 51.4936 105.517 51.4045 105.554C51.2317 105.64 51.042 105.684 50.8704 105.773C50.7231 105.872 50.5674 105.958 50.4051 106.031C50.1308 106.118 49.8384 106.011 49.5689 105.911C48.3482 105.481 47.0608 105.269 45.766 105.284C45.6402 105.293 45.5138 105.284 45.3902 105.259C45.0277 105.164 44.8078 104.778 44.7038 104.417C44.4803 103.632 44.583 102.793 44.728 101.989C44.7371 101.899 44.7687 101.813 44.8199 101.738C44.8758 101.679 44.9461 101.635 45.0241 101.611C46.3002 101.137 46.8367 102.395 47.6717 103.067C48.5954 103.819 49.7012 104.318 50.8788 104.512V104.512Z" fill="#FFBBAB"/>
<path d="M46.6615 104.55C46.7449 104.563 46.8294 104.572 46.9128 104.581C47.4818 104.642 48.0549 104.658 48.6264 104.627C48.7355 104.63 48.8437 104.605 48.9393 104.552C49.0004 104.502 49.0491 104.439 49.0818 104.368C49.1145 104.296 49.1302 104.218 49.1278 104.14C49.1225 103.983 49.133 103.826 49.1593 103.672C49.1606 103.656 49.1651 103.641 49.1725 103.627C49.18 103.614 49.1902 103.602 49.2026 103.592C49.215 103.582 49.2292 103.575 49.2444 103.572C49.2597 103.568 49.2755 103.567 49.291 103.57C49.7296 103.555 50.1514 103.728 50.5465 103.918C51.3102 104.286 52.0667 104.76 52.4921 105.491C52.5339 105.551 52.5578 105.621 52.561 105.693C52.5553 105.757 52.5323 105.817 52.4945 105.869C51.9797 106.666 50.6964 106.47 49.9109 106.304C49.0348 106.12 48.1925 105.791 47.308 105.652C46.3412 105.5 45.2827 105.567 44.4428 105.057C44.305 104.982 44.1882 104.874 44.1033 104.743C43.8713 104.337 44.1564 103.689 44.4477 103.375C44.4787 103.336 44.5209 103.308 44.5685 103.294C44.6318 103.286 44.6956 103.304 44.7461 103.342C45.1498 103.59 45.412 104.022 45.8144 104.272C46.0749 104.421 46.3631 104.515 46.6615 104.55V104.55Z" fill="#7497F7"/>
<path d="M37.9609 72.1882C37.9609 72.1882 33.9949 74.4464 35.1066 78.5806C36.0734 82.1881 38.8624 84.4343 40.6448 87.5187C41.6321 89.2286 41.452 92.0196 41.8701 94.0121C42.3827 96.4521 43.089 98.8478 43.9824 101.177C44.1613 101.646 44.4549 102.19 44.9588 102.206C45.2005 102.214 45.4229 102.093 45.6621 102.086C45.9014 102.078 46.1153 102.158 46.3364 102.109C46.9128 101.977 46.9092 101.165 46.7787 100.59C46.1502 97.8206 45.7709 95.0013 45.6452 92.1651C45.5485 89.9814 46.1443 87.6618 45.5244 85.5442C45.0277 83.8607 42.0828 74.8781 42.0828 74.8781L37.9609 72.1882Z" fill="#473F47"/>
<path d="M42.5299 106.692C42.7156 106.759 42.8894 106.854 43.0447 106.975C43.1212 107.037 43.1783 107.12 43.2096 107.213C43.2408 107.306 43.2448 107.406 43.2211 107.502C43.1813 107.589 43.1199 107.665 43.0426 107.723C42.9652 107.781 42.8745 107.818 42.7789 107.831C42.5903 107.873 42.3946 107.867 42.2061 107.912C42.0387 107.972 41.8665 108.017 41.6913 108.048C41.4049 108.063 41.1487 107.886 40.9107 107.728C39.8357 107.01 38.6421 106.487 37.3845 106.181C37.2587 106.158 37.1367 106.118 37.022 106.061C36.6897 105.878 36.5761 105.46 36.5664 105.077C36.5459 104.261 36.8528 103.473 37.196 102.733C37.2268 102.647 37.2792 102.571 37.3482 102.511C37.4169 102.467 37.4961 102.442 37.5778 102.438C38.9313 102.294 39.1403 103.641 39.7784 104.504C40.4876 105.46 41.4363 106.215 42.5299 106.692V106.692Z" fill="#FFBBAB"/>
<path d="M38.4539 74.9756C37.3362 75.1115 36.5205 75.6093 35.6746 76.3284C34.0118 77.7305 34.1302 80.5972 34.6909 82.6919C34.9858 83.7958 36.7452 87.2614 37.0038 88.2378C37.4945 90.1017 36.5144 92.4105 36.4286 94.2936C36.3159 96.7839 36.4012 99.2792 36.6836 101.756C36.7416 102.255 36.889 102.854 37.3724 102.995C37.602 103.062 37.8558 102.995 38.0866 103.046C38.3174 103.098 38.5071 103.229 38.7331 103.235C39.3252 103.251 39.5246 102.463 39.5415 101.874C39.6239 99.036 39.9607 96.211 40.5481 93.4326C41.0001 91.2934 42.1565 89.1938 42.0828 86.9896C42.0224 85.1859 41.9692 83.3942 41.9136 81.5965C41.852 79.5979 42.1311 77.5742 41.5197 75.6514C41.4484 75.4265 41.3578 75.1884 41.1644 75.0501C40.9897 74.9473 40.7898 74.8944 40.5868 74.8974C39.9893 74.8643 39.3901 74.8776 38.7947 74.9371C38.686 74.9491 38.5651 74.9611 38.4539 74.9756Z" fill="#473F47"/>
<path d="M41.2962 54.7617C41.4472 55.0155 41.7566 55.1622 41.8557 55.4399C41.9765 55.7742 41.7433 56.1181 41.6224 56.4524C41.4557 56.919 41.5088 57.4409 41.3457 57.9087C41.3169 58.011 41.259 58.1029 41.1789 58.1732C41.104 58.2229 41.019 58.2557 40.93 58.2694C40.5818 58.3424 40.2247 58.3635 39.8702 58.3319C39.8002 58.3163 39.727 58.3262 39.6636 58.3596C39.6119 58.4056 39.5792 58.469 39.5718 58.5375C39.3677 59.4228 39.3818 60.344 39.6128 61.2227C39.6902 61.5125 39.7736 61.8648 39.5585 62.0741C39.4815 62.1434 39.3871 62.1908 39.2854 62.2112C38.6123 62.3747 37.9646 61.8793 37.5114 61.3598C37.1057 60.8952 36.7565 60.3846 36.471 59.8386C36.3831 59.6875 36.3222 59.5223 36.2909 59.3504C36.2799 59.1257 36.3114 58.9009 36.384 58.6879C36.5758 57.9572 36.6924 57.209 36.732 56.4548C36.7827 55.4928 36.7127 54.484 37.0848 53.5893C37.1938 53.2819 37.3998 53.0178 37.6721 52.8366C37.9815 52.6562 38.3597 52.6562 38.7186 52.6694C39.4243 52.6971 40.1989 52.7897 40.6787 53.3079C40.8176 53.4558 41.1089 54.4491 41.2962 54.7617Z" fill="#FFBBAB"/>
<path d="M36.3416 59.5969C36.6075 59.5777 36.8758 59.5765 37.1416 59.5753C37.6273 59.5582 38.1134 59.5929 38.5917 59.6787C39.0722 59.7667 39.5129 60.0022 39.8521 60.3521C40.0575 60.5805 40.1989 60.8583 40.3934 61.0964C40.588 61.3345 40.8635 61.5401 41.1717 61.5317C41.3831 61.5317 41.5777 61.4199 41.7843 61.373C42.0792 61.3056 42.3885 61.3574 42.6822 61.2948C42.9758 61.2323 43.1655 61.0146 43.3988 60.8331C43.9071 60.4322 44.3973 60.0086 44.8694 59.562C45.1038 59.342 47.5521 56.735 47.4554 56.6664C47.8336 56.9388 48.1664 57.2687 48.4415 57.6441C48.5403 57.7605 48.6043 57.9021 48.6264 58.0529C48.6239 58.1948 48.5865 58.3339 48.5176 58.4582C47.7279 60.1906 46.7301 61.8214 45.5461 63.315C44.9293 64.1153 44.2126 64.8342 43.4133 65.4542C42.89 65.8499 42.2689 66.1938 41.9463 66.7902C41.2212 68.1274 41.9378 70.1656 41.9463 71.5905C41.9463 72.0787 41.7432 72.4768 41.7445 72.9734C41.7445 73.8392 42.4997 74.6076 42.2278 75.4986C42.0018 76.2357 41.1499 76.552 40.4055 76.7661L37.4824 77.6078C36.8347 77.7942 36.106 77.9685 35.5151 77.6511C34.7792 77.2495 34.6172 76.2863 34.5484 75.4541C34.3743 73.3053 34.4408 70.7283 33.5466 68.7202C32.9714 67.4251 32.8542 66.5112 33.0221 65.0586C33.143 63.9764 33.3073 62.8821 33.6819 61.8528C33.8439 61.4067 34.0565 60.9726 34.2608 60.5457C34.442 60.1645 34.8903 59.954 35.2698 59.8085C35.6144 59.685 35.9757 59.6137 36.3416 59.5969Z" fill="#7497F7"/>
<path d="M40.362 53.2081C40.3057 53.6842 40.0772 54.1236 39.7191 54.4442C39.3772 54.7653 38.9494 54.9842 38.5953 55.286C38.2412 55.5878 37.9512 56.0448 38.0322 56.5053C37.7518 56.4115 37.3881 56.4873 37.2624 56.7458C37.2248 56.833 37.2126 56.9289 37.2271 57.0227C37.2416 57.1164 37.2823 57.2042 37.3446 57.2761C37.4083 57.3463 37.4869 57.4014 37.5747 57.4376C37.6625 57.4738 37.7572 57.4901 37.8521 57.4853C37.4843 57.6338 37.1689 57.8874 36.9458 58.214C36.6328 58.6722 36.5773 59.1339 36.39 59.6354C36.2691 59.9564 36.0021 60.2006 35.8293 60.4964C35.5247 61.0158 35.5284 61.6508 35.4546 62.2472C35.3338 63.1875 34.9967 64.1231 34.3489 64.8169C33.7012 65.5107 32.7224 65.9328 31.7835 65.7789C30.8446 65.625 30.012 64.8169 29.9588 63.8754C29.5515 63.8104 29.2337 63.4605 29.102 63.0733C28.9703 62.6861 28.9884 62.2628 29.0331 61.8552C29.0815 61.4151 29.1636 60.9653 29.3957 60.5902C29.8174 59.924 30.6234 59.6282 31.3291 59.2674C31.6457 59.1053 31.9502 58.9209 32.2403 58.7155C32.3734 58.634 32.4866 58.5239 32.5714 58.3932C32.7309 58.1106 32.6233 57.7619 32.5532 57.4444C32.4397 56.9334 32.4505 56.3622 32.7538 55.9329C33.0294 55.5421 33.4958 55.3401 33.9393 55.1573L35.0764 54.6859C35.1732 54.6546 35.2611 54.6005 35.3326 54.5284C35.3828 54.4587 35.4174 54.3792 35.4341 54.2951C35.5815 53.7456 35.6504 53.1708 35.8812 52.6513C36.3646 51.5571 37.5259 51.2083 38.6304 51.4007C39.5645 51.5787 40.4563 52.1595 40.362 53.2081Z" fill="#FF8B8B"/>
<path d="M36.4407 61.29C36.4407 61.29 41.6611 62.1318 42.1541 61.9959C42.6471 61.86 42.6375 66.3068 42.6375 66.3068C42.6375 66.3068 37.1887 66.1433 35.4281 65.0153C33.6674 63.8874 34.0215 61.5666 36.4407 61.29Z" fill="#7497F7"/>
<path d="M38.3017 105.996C38.3766 106.019 38.4527 106.038 38.5276 106.058C39.0436 106.184 39.5689 106.27 40.0986 106.314C40.1986 106.329 40.301 106.319 40.3958 106.284C40.4588 106.245 40.5119 106.192 40.551 106.129C40.5902 106.067 40.6144 105.996 40.6218 105.923C40.6361 105.778 40.6653 105.636 40.7088 105.497C40.7178 105.469 40.7361 105.445 40.7608 105.429C40.7867 105.418 40.8152 105.414 40.8429 105.419C41.2478 105.461 41.6139 105.674 41.9523 105.9C42.6072 106.333 43.2416 106.862 43.5413 107.583C43.5714 107.644 43.5843 107.711 43.5788 107.778C43.5651 107.836 43.5359 107.889 43.4942 107.932C42.9226 108.6 41.7674 108.259 41.0665 108.008C40.2859 107.729 39.5536 107.321 38.7584 107.083C37.8848 106.822 36.9084 106.753 36.2014 106.179C36.0842 106.093 35.9907 105.98 35.9295 105.848C35.7676 105.445 36.1108 104.886 36.4129 104.634C36.4304 104.614 36.452 104.599 36.4761 104.589C36.5003 104.578 36.5264 104.573 36.5526 104.574C36.5789 104.575 36.6046 104.581 36.6281 104.593C36.6516 104.605 36.6721 104.622 36.6884 104.642C37.028 104.919 37.2141 105.349 37.5524 105.628C37.7738 105.801 38.029 105.927 38.3017 105.996Z" fill="#7497F7"/>
<path d="M48.7509 36.0089H97.6396V69.8686H48.7509V36.0089ZM97.2082 36.443H49.1871V69.4333H97.2022L97.2082 36.443Z" fill="#7497F7"/>
<path d="M47.5593 55.0227C47.5593 54.4755 47.5714 53.8827 47.9086 53.451L48.1575 54.4707C48.4583 53.5086 48.9239 52.6055 49.5339 51.8012C49.6112 52.3676 49.43 52.9352 49.2499 53.4847C49.513 52.9576 49.8105 52.4483 50.1405 51.9599C50.3484 52.5419 49.8191 53.1215 49.7514 53.736C49.9571 53.4248 50.2179 53.1535 50.5212 52.9352C50.613 53.1071 50.5212 53.3175 50.4342 53.4919L49.8819 54.5681C50.0383 54.406 50.215 54.2646 50.4076 54.1473C50.578 54.5633 50.2348 54.989 50.0366 55.3954C49.8904 55.6949 49.8203 56.0255 49.6741 56.3274C49.5409 56.6051 49.3504 56.8517 49.1149 57.051C48.8793 57.2504 48.6042 57.398 48.3073 57.4842C48.0947 57.1126 47.6379 57.0825 47.5678 56.6725C47.4796 56.1554 47.5618 55.5494 47.5593 55.0227Z" fill="#FFBBAB"/>
<path d="M55.9868 46.8746H52.5634V69.4333H55.9868V46.8746Z" fill="#7497F7"/>
<path d="M63.6107 41.853H60.1873V69.4333H63.6107V41.853Z" fill="#7497F7"/>
<path d="M71.4811 51.3647H68.0576V69.4321H71.4811V51.3647Z" fill="#7497F7"/>
<path d="M79.3503 41.853H75.9268V69.4333H79.3503V41.853Z" fill="#7497F7"/>
<path d="M87.2207 46.0786H83.7972V69.4333H87.2207V46.0786Z" fill="#7497F7"/>
<path d="M95.0898 38.7819H91.6664V69.4333H95.0898V38.7819Z" fill="#7497F7"/>
<defs>
<linearGradient id="paint0_linear_1037_5232" x1="82.7386" y1="69.5643" x2="79.1965" y2="117.539" gradientUnits="userSpaceOnUse">
<stop offset="0.01"/>
<stop offset="0.08" stop-opacity="0.69"/>
<stop offset="0.21" stop-opacity="0.32"/>
<stop offset="1" stop-opacity="0"/>
</linearGradient>
<linearGradient id="paint1_linear_1037_5232" x1="28.7395" y1="66.5173" x2="70.178" y2="80.5073" gradientUnits="userSpaceOnUse">
<stop offset="0.01"/>
<stop offset="0.08" stop-opacity="0.69"/>
<stop offset="0.21" stop-opacity="0.32"/>
<stop offset="1" stop-opacity="0"/>
</linearGradient>
<linearGradient id="paint2_linear_1037_5232" x1="105.851" y1="72.9121" x2="129.702" y2="69.8232" gradientUnits="userSpaceOnUse">
<stop offset="0.01"/>
<stop offset="0.08" stop-opacity="0.69"/>
<stop offset="0.21" stop-opacity="0.32"/>
<stop offset="1" stop-opacity="0"/>
</linearGradient>
<linearGradient id="paint3_linear_1037_5232" x1="128.116" y1="75.4746" x2="71.4044" y2="65.5913" gradientUnits="userSpaceOnUse">
<stop offset="0.01"/>
<stop offset="0.08" stop-opacity="0.69"/>
<stop offset="0.21" stop-opacity="0.32"/>
<stop offset="1" stop-opacity="0"/>
</linearGradient>
<linearGradient id="paint4_linear_1037_5232" x1="36.5108" y1="66.0567" x2="57.726" y2="59.8003" gradientUnits="userSpaceOnUse">
<stop offset="0.01"/>
<stop offset="0.08" stop-opacity="0.69"/>
<stop offset="0.21" stop-opacity="0.32"/>
<stop offset="1" stop-opacity="0"/>
</linearGradient>
<linearGradient id="paint5_linear_1037_5232" x1="113.325" y1="90.2532" x2="93.4129" y2="86.2388" gradientUnits="userSpaceOnUse">
<stop offset="0.01"/>
<stop offset="0.08" stop-opacity="0.69"/>
<stop offset="0.21" stop-opacity="0.32"/>
<stop offset="1" stop-opacity="0"/>
</linearGradient>
<linearGradient id="paint6_linear_1037_5232" x1="109.41" y1="68.7022" x2="99.2564" y2="58.1293" gradientUnits="userSpaceOnUse">
<stop offset="0.01"/>
<stop offset="0.08" stop-opacity="0.69"/>
<stop offset="0.21" stop-opacity="0.32"/>
<stop offset="1" stop-opacity="0"/>
</linearGradient>
<linearGradient id="paint7_linear_1037_5232" x1="117.987" y1="74.0208" x2="95.4264" y2="71.3641" gradientUnits="userSpaceOnUse">
<stop offset="0.01"/>
<stop offset="0.08" stop-opacity="0.69"/>
<stop offset="0.21" stop-opacity="0.32"/>
<stop offset="1" stop-opacity="0"/>
</linearGradient>
</defs>
</svg>
