<svg width="160" height="120" viewBox="0 0 160 120" fill="none" xmlns="http://www.w3.org/2000/svg">
<path fill-rule="evenodd" clip-rule="evenodd" d="M80.1189 35.7C74.1984 35.6939 68.4692 37.7965 63.9581 41.6309C59.4469 45.4653 56.4488 50.7809 55.5008 56.6252C54.5528 62.4693 55.7171 68.4601 58.7849 73.5237C61.8527 78.5875 66.6235 82.3932 72.2424 84.2591C73.4965 84.4884 73.94 83.7084 73.94 83.0508C73.94 82.3931 73.94 80.8944 73.94 78.8143C66.9812 80.3284 65.513 75.4648 65.513 75.4648C65.0513 73.9574 64.0706 72.6624 62.7447 71.8095C60.4965 70.2801 62.9282 70.2801 62.9282 70.2801C63.7163 70.3914 64.4689 70.6806 65.1287 71.1258C65.7883 71.5709 66.3383 72.1605 66.7366 72.8495C67.075 73.4631 67.5312 74.0038 68.0791 74.4407C68.6269 74.8776 69.2557 75.2019 69.9292 75.3951C70.6028 75.5884 71.3079 75.6468 72.0041 75.5669C72.7002 75.487 73.3737 75.2704 73.986 74.9296C74.082 73.6713 74.6243 72.4889 75.5154 71.5954C69.9789 70.9683 64.167 68.8272 64.167 59.36C64.129 56.887 65.0436 54.494 66.7212 52.6765C65.9741 50.5262 66.0614 48.1737 66.966 46.0847C66.966 46.0847 69.0612 45.4117 73.8178 48.6388C77.9022 47.5175 82.2133 47.5175 86.2978 48.6388C91.0543 45.4117 93.1342 46.0847 93.1342 46.0847C94.0515 48.1516 94.1605 50.4872 93.4402 52.6306C95.1178 54.448 96.0324 56.841 95.9943 59.3142C95.9943 68.8884 90.1672 70.9837 84.6155 71.5495C85.2108 72.1479 85.6704 72.8674 85.9633 73.6591C86.2562 74.4506 86.3754 75.2961 86.3131 76.1377C86.3131 79.4719 86.3131 82.1637 86.3131 82.9743C86.3131 83.7849 86.7566 84.412 88.026 84.1672C93.5809 82.2523 98.2803 78.4357 101.294 73.3917C104.308 68.3476 105.441 62.4009 104.495 56.6017C103.549 50.8027 100.584 45.5246 96.1237 41.6999C91.6631 37.8752 85.9944 35.7501 80.1189 35.7Z" fill="#191717"/>
</svg>
