<svg width="160" height="120" viewBox="0 0 160 120" fill="none" xmlns="http://www.w3.org/2000/svg">
<path d="M102.622 55.303L102.556 55.1348L96.1866 38.5106C96.0567 38.1848 95.8273 37.9085 95.531 37.721C95.2343 37.5369 94.8884 37.4482 94.5398 37.4669C94.1912 37.4857 93.8567 37.6109 93.5815 37.8258C93.3097 38.0462 93.1125 38.3448 93.0161 38.6811L88.7151 51.8401H71.2988L66.9978 38.6811C66.9046 38.342 66.7068 38.0409 66.4324 37.8209C66.1573 37.6061 65.8227 37.4808 65.4741 37.4621C65.1255 37.4433 64.7796 37.532 64.483 37.7161C64.1878 37.905 63.9587 38.1809 63.8275 38.5057L57.4453 55.125L57.3819 55.2932C56.4645 57.6891 56.3511 60.3184 57.0588 62.7843C57.7665 65.2503 59.2569 67.4192 61.3053 68.964L61.3272 68.981L61.3857 69.0225L71.0893 76.2892L75.8899 79.9226L78.8141 82.1304C79.1561 82.3902 79.5739 82.5307 80.0033 82.5307C80.4328 82.5307 80.8504 82.3902 81.1924 82.1304L84.1168 79.9226L88.9173 76.2892L98.6794 68.9787L98.7038 68.9591C100.747 67.4142 102.234 65.2474 102.941 62.7847C103.648 60.322 103.536 57.6966 102.622 55.303Z" fill="#E24329"/>
<path d="M102.622 55.303L102.557 55.1348C99.4528 55.7723 96.5282 57.087 93.991 58.985L79.9937 69.5634C84.7577 73.1676 88.9052 76.2989 88.9052 76.2989L98.6673 68.9883L98.6918 68.9688C100.739 67.4246 102.23 65.2568 102.939 62.7921C103.648 60.3274 103.537 57.6991 102.622 55.303Z" fill="#FC6D26"/>
<path d="M71.0892 76.299L75.8899 79.9322L78.8141 82.14C79.1561 82.3998 79.5739 82.5403 80.0033 82.5403C80.4328 82.5403 80.8504 82.3998 81.1924 82.14L84.1168 79.9322L88.9173 76.299C88.9173 76.299 84.7747 73.1577 80.0008 69.5634C75.2367 73.1577 71.0892 76.299 71.0892 76.299Z" fill="#FCA326"/>
<path d="M66.0084 58.9851C63.4729 57.0837 60.549 55.7657 57.4453 55.125L57.3819 55.2932C56.4645 57.6891 56.3511 60.3184 57.0588 62.7842C57.7665 65.2502 59.2569 67.4191 61.3053 68.964L61.3272 68.981L61.3857 69.0224L71.0893 76.2893L79.9935 69.5537L66.0084 58.9851Z" fill="#FC6D26"/>
</svg>
