<svg width="160" height="120" viewBox="0 0 160 120" fill="none" xmlns="http://www.w3.org/2000/svg">
<path fill-rule="evenodd" clip-rule="evenodd" d="M100.204 58.9586C100.204 70.3702 91.1531 79.6225 80.0001 79.6225C68.8472 79.6225 59.7981 70.3702 59.7981 58.9586C59.7981 47.547 68.8436 38.293 80.0001 38.293C91.1568 38.293 100.204 47.5452 100.204 58.9586Z" fill="#D33833"/>
<path d="M60.6217 64.0788C60.6217 64.0788 59.1588 42.5264 79.0154 41.9133L77.6301 39.6044L66.8558 43.2192L63.7766 46.7583L61.0835 51.9154L59.5394 57.9186L60.0011 61.9213" fill="#EF3D3A"/>
<path d="M66.1632 44.8688C62.4702 48.6575 60.4103 53.7435 60.4261 59.0344C60.4084 64.3278 62.4683 69.4168 66.1632 73.2073C67.9598 75.0612 70.1103 76.5353 72.487 77.5427C74.8639 78.5501 77.4186 79.0701 80 79.072C82.5815 79.0701 85.1364 78.5501 87.5132 77.5427C89.89 76.5353 92.0403 75.0612 93.8369 73.2073C97.5325 69.4171 99.5933 64.328 99.576 59.0344C99.5912 53.7433 97.5307 48.6572 93.8369 44.8688C92.0402 43.0154 89.8897 41.5413 87.513 40.534C85.1362 39.5266 82.5815 39.0064 80 39.0041C77.4187 39.0064 74.864 39.5266 72.4873 40.534C70.1106 41.5413 67.9601 43.0154 66.1632 44.8688ZM65.2655 74.0847C61.342 70.0593 59.1535 64.6557 59.17 59.0344C59.1535 53.4131 61.342 48.0095 65.2655 43.9839C67.1793 42.0111 69.4695 40.4421 72.0004 39.37C74.5312 38.298 77.2515 37.7446 80 37.7426C82.7487 37.7446 85.4689 38.298 87.9998 39.37C90.5308 40.4421 92.8208 42.0111 94.7346 43.9839C98.6599 48.0085 100.849 53.4128 100.83 59.0344C100.849 64.656 98.6599 70.0603 94.7346 74.0847C92.8215 76.0589 90.5316 77.6293 88.0007 78.7026C85.4697 79.776 82.7492 80.3305 80 80.3336C77.2509 80.3305 74.5304 79.776 71.9994 78.7026C69.4686 77.6293 67.1787 76.0589 65.2655 74.0847Z" fill="#231F20"/>
<path fill-rule="evenodd" clip-rule="evenodd" d="M88.5044 59.073L85.4269 59.5348L81.271 59.9966L78.576 60.0724L75.9605 59.9966L73.9582 59.3796L72.1887 57.4568L70.807 53.5316L70.4986 52.6839L68.6514 52.0687L67.5745 50.2992L66.8005 47.7594L67.6484 45.5262L69.6489 44.8336L71.2651 45.6074L72.0354 47.3013L72.9588 47.1461L73.2656 46.7619L72.9588 44.9924L72.8814 42.7593L73.3432 39.6818L73.3246 37.9234L74.7285 35.6792L77.1907 33.9096L81.5019 32.0625L86.2729 32.7515L90.4291 35.7531L92.3538 38.8304L93.584 41.0635L93.8924 46.6049L92.9688 51.3761L91.2751 55.6097L89.6588 57.8409" fill="#F0D6B7"/>
<path fill-rule="evenodd" clip-rule="evenodd" d="M85.8888 72.3909L74.8817 72.8527V74.6998L75.8053 81.1647L75.3435 81.7041L67.6483 79.083L67.109 78.1596L66.3387 69.4633L64.5691 64.2284L64.1849 62.9982L70.3415 58.7646L72.2662 57.9944L73.9581 60.0724L75.4247 61.3821L77.1186 61.9195L77.887 62.1505L78.8106 66.1531L79.5032 66.9991L81.2746 66.3841L80.0425 68.7706L86.7384 71.9255L85.8924 72.3872" fill="#335061"/>
<path fill-rule="evenodd" clip-rule="evenodd" d="M67.6484 45.5262L69.6489 44.8336L71.265 45.6076L72.0352 47.3013L72.9588 47.1462L73.1897 46.2226L72.728 44.4532L73.1897 40.2196L72.8038 37.9106L74.189 36.2944L77.1906 33.906L76.3483 32.7516L72.111 34.8296L70.3415 36.215L69.3403 38.3687L67.8016 40.4468L67.34 42.9108L67.6484 45.5262Z" fill="#6D6B6D"/>
<path fill-rule="evenodd" clip-rule="evenodd" d="M70.8069 38.293C70.8069 38.293 71.9578 35.4484 76.5755 34.0594C81.1933 32.6703 76.8064 33.0582 76.8064 33.0582L71.8044 34.9829L69.8834 36.9076L69.0337 38.4464L70.8069 38.293Z" fill="#DCD9D8"/>
<path fill-rule="evenodd" clip-rule="evenodd" d="M68.4944 44.9887C68.4944 44.9887 66.8782 39.6007 73.0346 38.8304L72.8038 37.9069L68.5719 38.908L67.34 42.9107L67.6484 45.5263L68.4944 44.9887Z" fill="#DCD9D8"/>
<path fill-rule="evenodd" clip-rule="evenodd" d="M70.9564 52.1464L71.965 51.1693C72.1065 51.1949 72.2356 51.2669 72.3319 51.3739C72.4281 51.4809 72.4861 51.6169 72.4969 51.7603C72.5727 52.2997 72.8037 57.1483 76.1136 59.7658C76.4147 60.004 73.6514 59.3798 73.6514 59.3798L71.1874 55.5322" fill="#F7E4CD"/>
<path fill-rule="evenodd" clip-rule="evenodd" d="M85.1186 50.6835C85.1186 50.6835 85.3033 48.3506 85.9257 48.5297C86.103 48.5797 86.2598 48.6848 86.3731 48.8301C86.4863 48.9752 86.5504 49.1528 86.5556 49.337C86.5556 49.337 85.0299 50.3251 85.1186 50.6835Z" fill="#F7E4CD"/>
<path d="M91.5059 42.1405C91.5059 42.1405 90.2369 42.4083 90.1204 43.5258C90.0041 44.6434 91.5059 43.7568 91.7367 43.6791" fill="#F7E4CD"/>
<path d="M82.1945 42.218C82.1945 42.218 80.5007 42.449 80.5007 43.5258C80.5007 44.6027 82.4254 44.5269 82.9628 44.0653" fill="#F7E4CD"/>
<path fill-rule="evenodd" clip-rule="evenodd" d="M71.7303 47.2202C71.7303 47.2202 68.8045 45.4506 68.4978 47.1426C68.1912 48.8346 67.4967 50.0685 68.9596 51.838L67.9585 51.5295L67.0349 49.1449L66.7246 46.836L68.4942 44.9889L70.4947 45.1421L71.6491 46.0657L71.7303 47.2202Z" fill="#F7E4CD"/>
<path fill-rule="evenodd" clip-rule="evenodd" d="M73.1122 42.3713C73.1122 42.3713 74.42 35.598 81.0401 34.2902C86.489 33.2133 89.3522 34.5211 90.429 35.7531C90.429 35.7531 85.584 29.9808 80.9662 31.7541C76.3484 33.5273 72.9589 36.7524 73.0347 38.8304C73.1657 42.3695 73.1122 42.3713 73.1122 42.3713Z" fill="#F7E4CD"/>
<path fill-rule="evenodd" clip-rule="evenodd" d="M90.9682 36.5215C90.9682 36.5215 88.735 36.4458 88.6593 38.4462C88.6659 38.6599 88.7182 38.8695 88.8127 39.0614C88.8127 39.0614 90.5821 37.0609 91.661 38.1377" fill="#F7E4CD"/>
<path fill-rule="evenodd" clip-rule="evenodd" d="M81.1951 39.2701C81.1951 39.2701 80.8109 36.1983 78.1915 37.9771C76.4978 39.1315 76.6529 40.7478 76.9596 41.0562C77.2662 41.3647 77.185 41.9799 77.4177 41.5587C77.6504 41.1375 77.5746 39.7467 78.4225 39.3624C79.2704 38.9782 80.6575 38.5479 81.1932 39.2627" fill="#F7E4CD"/>
<path fill-rule="evenodd" clip-rule="evenodd" d="M73.9581 60.0724L66.7248 63.3049C66.7248 63.3049 69.7263 75.2354 68.1858 78.9296L67.1127 78.5436L67.0351 74.0034L65.0309 65.3828L64.1849 62.9982L71.7305 57.9186L73.9618 60.0724" fill="#49728B"/>
<path fill-rule="evenodd" clip-rule="evenodd" d="M74.7025 66.6649L75.7296 67.9171V72.5351H74.5012C74.5012 72.5351 74.348 69.3026 74.348 68.9184C74.348 68.5342 74.5012 67.1488 74.5012 67.1488" fill="#49728B"/>
<path fill-rule="evenodd" clip-rule="evenodd" d="M74.7285 73.2332L71.2651 73.3882L72.2662 74.081L74.7285 74.4652" fill="#49728B"/>
<path fill-rule="evenodd" clip-rule="evenodd" d="M86.5817 72.4647L89.428 72.3872L90.1208 79.4673L87.1967 79.8533L86.5817 72.4647Z" fill="#335061"/>
<path fill-rule="evenodd" clip-rule="evenodd" d="M87.3497 72.4648L91.6609 72.234C91.6609 72.234 93.4304 67.7694 93.4304 67.5386C93.4304 67.3076 94.9692 61.0736 94.9692 61.0736L91.5057 57.457L90.8131 56.84L88.966 58.6872V65.8447L87.3497 72.4648Z" fill="#335061"/>
<path fill-rule="evenodd" clip-rule="evenodd" d="M89.2784 71.9254L86.5817 72.4648L86.9659 74.6185C87.9651 75.0803 89.6589 73.8501 89.6589 73.8501" fill="#49728B"/>
<path fill-rule="evenodd" clip-rule="evenodd" d="M89.3519 58.4562L94.7381 62.459L94.8933 60.6119L90.813 56.84L89.3519 58.4562Z" fill="#49728B"/>
<path fill-rule="evenodd" clip-rule="evenodd" d="M77.3993 87.626L75.8052 81.1611L75.0128 76.39L74.8817 72.849L82.0947 72.4648H86.5813L86.1732 80.5461L86.8658 86.7802L86.7882 87.9346L80.9402 88.3963L77.3993 87.626Z" fill="white"/>
<path fill-rule="evenodd" clip-rule="evenodd" d="M85.5837 72.3909C85.5837 72.3909 85.1995 80.3946 86.354 86.091C84.6017 87.0903 82.6627 87.719 80.6573 87.9381L87.1224 87.7073L87.8926 87.2455L86.969 74.6222L86.7382 71.9291" fill="#DCD9D8"/>
<path fill-rule="evenodd" clip-rule="evenodd" d="M90.2517 78.8559L93.2532 78.0099L98.948 77.7013L99.7959 75.0858L98.2553 70.5438L96.482 70.3092L94.0199 71.0795L91.6574 72.2339L90.4013 72.0029L89.4279 72.3909" fill="white"/>
<path fill-rule="evenodd" clip-rule="evenodd" d="M90.2017 77.3134C90.2017 77.3134 92.2021 76.39 92.5106 76.4657L91.6646 72.234L92.6638 71.8479C92.6638 71.8479 93.3566 75.8505 93.3566 76.3123C93.3566 76.3123 97.6659 76.5432 98.052 76.5432C98.052 76.5432 98.9754 74.7737 98.7446 72.9266L99.5906 75.3887L99.6681 76.7741L98.4362 78.6212L97.0507 78.9297L94.7418 78.8522L93.9735 77.851L91.2785 78.237L90.4325 78.5436" fill="#DCD9D8"/>
<path d="M87.1723 71.8496L85.4803 67.5384L83.709 65.0022C83.709 65.0022 84.095 63.9254 84.6325 63.9254H86.4039L88.0959 64.5406L87.9426 67.3888L87.1723 71.8533" fill="white"/>
<path fill-rule="evenodd" clip-rule="evenodd" d="M87.5051 70.3867C87.5051 70.3867 85.3494 66.2307 85.3494 65.6137C85.3494 65.6137 85.7336 64.6902 86.273 64.9211C86.8125 65.152 87.9669 65.7689 87.9669 65.7689V64.306L85.3494 63.7666L83.58 63.9976L86.5815 71.0794L87.1967 71.1551" fill="#DCD9D8"/>
<path d="M78.0918 60.2275L75.9603 59.9967L73.958 59.3798V60.0724L74.9369 61.1511L78.0143 62.5365" fill="white"/>
<path fill-rule="evenodd" clip-rule="evenodd" d="M74.6509 60.4585C74.6509 60.4585 77.0374 61.4596 77.8076 61.2288L77.8834 62.1522L75.7297 61.6923L74.42 60.7688L74.6509 60.4602" fill="#DCD9D8"/>
<path fill-rule="evenodd" clip-rule="evenodd" d="M90.244 64.1841C89.0589 64.1651 87.8804 64.0019 86.7344 63.6982C86.8047 63.2753 86.6735 62.8597 86.7788 62.5549C87.0669 62.348 87.549 62.3498 87.9849 62.3019C87.5667 62.1053 87.0954 62.052 86.644 62.1504C86.6348 61.8566 86.5036 61.6739 86.4224 61.4448C87.1612 61.1824 88.8901 59.4646 89.8654 60.0336C90.3308 60.3033 90.5267 61.8493 90.5635 62.6011C90.5932 63.2253 90.5063 63.8535 90.2532 64.1841" fill="#D33833"/>
<path d="M90.244 64.1841C89.0589 64.1651 87.8804 64.0019 86.7344 63.6982C86.8047 63.2753 86.6735 62.8597 86.7788 62.5549C87.0669 62.348 87.549 62.3498 87.9849 62.3019C87.5667 62.1053 87.0954 62.052 86.644 62.1504C86.6348 61.8566 86.5036 61.6739 86.4224 61.4448C87.1612 61.1824 88.8901 59.4646 89.8654 60.0336C90.3308 60.3033 90.5267 61.8493 90.5635 62.6011C90.5838 63.2253 90.4971 63.8535 90.244 64.1841Z" stroke="#D33833" stroke-width="2.5" stroke-miterlimit="5"/>
<path fill-rule="evenodd" clip-rule="evenodd" d="M83.9991 62.0469L83.988 62.3445C83.5797 62.6121 82.9222 62.6104 82.4734 62.8358C83.041 62.8532 83.5982 62.9937 84.1062 63.2476C84.0951 63.497 84.0859 63.7463 84.0767 63.9957C83.3378 64.5073 82.6471 65.2684 81.7659 65.7486C81.3503 65.9758 79.891 66.5595 79.4478 66.4561C79.1965 66.397 79.1743 66.0867 79.0783 65.7948C78.864 65.1669 78.3746 64.1675 78.3394 63.2236C78.2859 62.0304 78.1659 60.0318 79.4478 60.2683C80.5102 60.4923 81.5357 60.8654 82.4937 61.3765C82.9832 61.6462 83.2677 61.9768 84.012 62.0341" fill="#D33833"/>
<path d="M83.9991 62.0469L83.988 62.3445C83.5797 62.6121 82.9222 62.6104 82.4734 62.8358C83.041 62.8532 83.5982 62.9937 84.1062 63.2476C84.0951 63.497 84.0859 63.7463 84.0767 63.9957C83.3378 64.5073 82.6471 65.2684 81.7659 65.7486C81.3503 65.9758 79.891 66.5595 79.4478 66.4561C79.1965 66.397 79.1743 66.0867 79.0783 65.7948C78.864 65.1669 78.3746 64.1675 78.3394 63.2236C78.2859 62.0304 78.1659 60.0318 79.4478 60.2683C80.5102 60.4923 81.5357 60.8654 82.4937 61.3765C82.9702 61.6609 83.2547 61.9917 83.9991 62.0469Z" stroke="#D33833" stroke-width="2.5" stroke-miterlimit="5"/>
<path fill-rule="evenodd" clip-rule="evenodd" d="M84.7415 63.4731C84.627 62.8227 84.4958 62.6363 84.5457 62.0711C86.2783 60.9147 86.6034 64.0548 84.7415 63.4731Z" fill="#D33833"/>
<path d="M84.7415 63.4731C84.627 62.8227 84.4958 62.6363 84.5457 62.0711C86.2783 60.9147 86.6034 64.0548 84.7415 63.4731Z" stroke="#D33833" stroke-width="2.5" stroke-miterlimit="5"/>
<path fill-rule="evenodd" clip-rule="evenodd" d="M87.2465 63.9995C87.2465 63.9995 86.7071 63.2292 87.0932 62.9983C87.4792 62.7674 87.8616 62.9983 88.0924 62.6141C88.3234 62.2299 88.0924 61.9972 88.17 61.5354C88.2476 61.0736 88.6318 60.9978 89.016 60.9204C89.4002 60.8427 90.4789 60.6894 90.6323 61.0736L90.1705 59.6883L89.2468 59.3817L86.3229 61.0736L86.1696 61.9214V63.6134" fill="#EF3D3A"/>
<path fill-rule="evenodd" clip-rule="evenodd" d="M79.1689 66.5391C79.0764 65.3372 78.9766 64.1366 78.8695 62.9371C78.707 61.1455 79.2999 61.4595 80.8534 61.4595C81.0898 61.4595 82.3144 61.7421 82.4012 61.9212C82.8206 62.7783 81.6994 62.5881 82.8852 63.2346C83.8863 63.7795 85.6559 62.9021 85.2495 61.6904C85.0223 61.4207 84.071 61.6054 83.7293 61.4282L81.9247 60.4934C81.1599 60.0963 79.3923 59.5181 78.5759 60.0722C76.5089 61.478 78.707 64.9893 79.444 66.4559" fill="#EF3D3A"/>
<path fill-rule="evenodd" clip-rule="evenodd" d="M81.195 39.27C79.0968 38.7825 78.0549 40.1474 77.4177 41.5661C76.8507 41.4276 77.076 40.6555 77.22 40.2621C77.5895 39.2294 79.1079 37.8607 80.3454 38.0455C80.8773 38.1249 81.5978 38.6125 81.195 39.2738" fill="#231F20"/>
<path fill-rule="evenodd" clip-rule="evenodd" d="M91.4151 41.6584H91.5149C91.9878 42.6448 92.3997 43.6902 92.9927 44.5565C92.5918 45.4801 89.9596 46.3151 90.0003 44.6396C90.5691 44.3904 91.5518 44.5898 92.058 44.2703C91.7661 43.4705 91.345 42.7925 91.4115 41.6548" fill="#231F20"/>
<path fill-rule="evenodd" clip-rule="evenodd" d="M82.2686 41.6843C82.7174 42.5099 82.8652 43.3762 83.5044 43.9987C83.7925 44.2795 84.3521 44.6212 84.0751 45.4007C84.0104 45.5854 83.5358 45.9954 83.2623 46.0768C82.2631 46.3704 79.9375 46.1377 80.7226 44.8909C81.5482 44.9297 82.6601 45.4283 83.2772 44.8281C82.8024 44.069 81.9564 42.5691 82.2686 41.6879" fill="#231F20"/>
<path fill-rule="evenodd" clip-rule="evenodd" d="M91.0402 50.0646C89.5348 51.0307 87.8558 52.0816 85.3898 51.8378C85.1038 51.5638 84.9251 51.1966 84.8858 50.8023C84.8465 50.4082 84.9493 50.0129 85.1756 49.6877C85.4416 50.1458 85.2734 50.9807 86.016 51.1156C87.4161 51.3538 89.0435 50.2586 90.0502 49.8762C90.6744 48.8252 89.9966 48.4372 89.435 47.7594C88.2843 46.3721 86.7401 44.6525 86.7955 42.5763C87.2609 42.2383 87.3017 43.0917 87.368 43.2469C87.9684 44.6525 89.4812 46.4516 90.5859 47.6559C90.8554 47.9515 91.3025 48.2359 91.3524 48.4318C91.4946 49.0024 90.9829 49.6859 91.0402 50.0646Z" fill="#231F20"/>
<path fill-rule="evenodd" clip-rule="evenodd" d="M71.2003 49.0469C70.7274 48.7772 70.6221 47.5914 70.068 47.5581C69.2756 47.51 69.4196 49.0967 69.4233 50.024C68.8728 49.529 68.775 48.0088 69.1777 47.2256C68.7215 47.0002 68.5183 47.4713 68.2651 47.6374C68.5903 45.275 71.7193 46.5422 71.2003 49.0469Z" fill="#231F20"/>
<path fill-rule="evenodd" clip-rule="evenodd" d="M91.9972 51.0474C91.2973 52.3809 90.3071 53.8495 88.2514 53.8919C88.2089 53.4615 88.1774 52.8076 88.2514 52.5473C89.8233 52.3958 90.793 51.596 91.9954 51.0474" fill="#231F20"/>
<path fill-rule="evenodd" clip-rule="evenodd" d="M82.1503 51.9119C83.4617 52.6026 85.8704 52.6765 87.6528 52.6248C87.7339 53.0695 87.7661 53.5216 87.7488 53.9732C85.4584 54.0877 82.7505 53.5206 82.1503 51.9119Z" fill="#231F20"/>
<path fill-rule="evenodd" clip-rule="evenodd" d="M81.9006 53.1974C82.8077 55.4749 85.9237 55.2127 88.5504 55.1497C88.4305 55.4834 88.1881 55.7587 87.8724 55.92C87.0302 56.2636 84.7083 56.5241 83.5391 55.9016C82.8002 55.5082 82.3218 54.6178 81.9155 54.0951C81.7196 53.844 80.7426 53.1993 81.9006 53.1974Z" fill="#231F20"/>
<path fill-rule="evenodd" clip-rule="evenodd" d="M90.9296 65.7541C89.8657 67.5773 88.8479 69.4484 87.5863 71.0555C88.1146 69.5001 88.3417 66.8957 88.4212 64.91C89.5294 64.3929 90.4771 65.0263 90.9296 65.7541Z" fill="#81B0C4"/>
<path fill-rule="evenodd" clip-rule="evenodd" d="M96.6555 72.304C95.4642 72.5423 94.6236 73.7005 93.4656 73.6266C94.1046 72.7252 95.224 72.3464 96.6555 72.304Z" fill="#231F20"/>
<path fill-rule="evenodd" clip-rule="evenodd" d="M97.1819 74.1677C96.2104 74.2713 95.0706 74.4282 94.0844 74.3525C94.5516 73.6396 96.347 73.8852 97.1819 74.1677Z" fill="#231F20"/>
<path fill-rule="evenodd" clip-rule="evenodd" d="M97.5182 75.7748C96.4266 75.7989 95.0708 75.7748 94.0327 75.6899C94.6459 75.0305 96.8034 75.4461 97.5182 75.7748Z" fill="#231F20"/>
<path fill-rule="evenodd" clip-rule="evenodd" d="M88.8775 80.1728C89.0346 81.5434 89.5776 82.9325 89.5092 84.4342C88.9053 84.6374 88.5598 84.8147 87.7508 84.8128C87.6935 83.5383 87.5236 81.5878 87.5661 80.3798C87.9651 80.4055 88.5506 80.0952 88.8701 80.1802" fill="#DCD9D8"/>
<path fill-rule="evenodd" clip-rule="evenodd" d="M87.1188 59.9764C86.5647 60.3347 86.1029 60.7818 85.5783 61.1642C84.4109 61.2213 83.7737 61.0828 82.9166 60.4123C82.9296 60.3588 83.0164 60.3828 83.02 60.3163C84.2686 60.8704 85.8572 60.089 87.1188 59.9764Z" fill="#F0D6B7"/>
<path fill-rule="evenodd" clip-rule="evenodd" d="M80.5614 68.4915C80.9031 67.0138 82.2478 66.2343 83.4706 65.4161C84.7303 67.0157 85.5025 69.0716 86.341 71.0572C84.3462 70.4569 82.3088 69.4815 80.5614 68.4915Z" fill="#81B0C4"/>
<path fill-rule="evenodd" clip-rule="evenodd" d="M87.5732 80.3722C87.5234 81.5877 87.6933 83.5382 87.758 84.8054C88.567 84.8054 88.9124 84.6299 89.5165 84.4267C89.5848 82.925 89.0418 81.5359 88.8848 80.1654C88.5578 80.0878 87.9723 80.3981 87.5732 80.3722ZM74.9869 73.4566C75.5207 78.3571 76.2929 82.4762 77.7078 86.8169C80.8479 87.7699 84.6401 87.8532 87.4182 86.9923C86.9083 84.543 87.13 81.5618 86.8327 78.948C86.6073 76.9846 86.7218 75.0082 86.4152 73.004C83.0478 72.3022 78.2914 72.8397 74.9869 73.4566ZM87.2094 73.0337C87.1817 75.1394 87.3035 77.2137 87.4642 79.3138C88.2734 79.192 88.8219 79.1125 89.5718 78.9444C89.328 76.9126 89.3594 74.6332 88.8626 72.8378C88.2881 72.8544 87.782 72.8416 87.2094 73.0337ZM91.31 72.6956C90.9259 72.607 90.4789 72.6956 90.1131 72.6956C90.2849 74.4097 90.7024 76.3031 90.852 78.1039C91.4283 78.1225 91.7367 77.8509 92.2115 77.7586C92.2354 76.1775 92.0728 73.9996 91.3119 72.692L91.31 72.6956ZM97.5163 78.3663C98.7188 78.0744 99.4743 76.6023 99.1382 75.0913C98.9128 74.0754 98.5101 72.1618 98.0817 71.5116C97.7638 71.0314 96.9013 70.4034 96.2141 70.8429C95.0948 71.5596 93.1239 71.7665 92.3075 72.6347C92.7175 73.996 92.8449 75.8672 93.0131 77.5942C94.4114 77.681 96.131 77.2081 97.2928 77.7086C96.482 77.9729 95.4292 77.9748 94.7272 78.3571C95.2999 78.6341 96.6427 78.5787 97.5163 78.3571V78.3663ZM86.3412 71.0571C85.4971 69.0715 84.7305 67.0156 83.4708 65.4161C82.248 66.2343 80.9033 67.0045 80.5616 68.4915C82.309 69.4816 84.3464 70.4569 86.3412 71.0571ZM88.4211 64.9099C88.3416 66.8957 88.1145 69.5001 87.5862 71.0554C88.8478 69.4484 89.8656 67.5772 90.9295 65.754C90.477 65.0263 89.5293 64.3928 88.4211 64.9099ZM86.0624 64.0788C85.5858 64.0271 85.1794 64.6329 84.5569 64.3688C84.4148 64.5257 84.2854 64.6975 84.1394 64.8509C85.5138 66.5132 86.1381 68.8536 87.1983 70.7987C87.7672 68.9311 87.7026 66.8846 87.8264 64.8453C87.0451 64.8877 86.6109 64.1304 86.0624 64.0788ZM84.5458 62.0783C84.496 62.6435 84.6272 62.8301 84.7416 63.4803C86.6054 64.0547 86.2784 60.9146 84.5458 62.071V62.0783ZM82.4808 61.3986C81.5228 60.8876 80.4972 60.5145 79.4348 60.2903C78.1418 60.0446 78.2693 62.0432 78.3266 63.2457C78.3709 64.1896 78.8604 65.1888 79.0654 65.817C79.1652 66.1087 79.1874 66.419 79.4348 66.4782C79.8782 66.5816 81.3373 65.998 81.7531 65.7708C82.6341 65.2905 83.3156 64.5295 84.0637 64.0178C84.073 63.7684 84.0823 63.519 84.0933 63.2698C83.5862 63.017 83.0305 62.8772 82.4641 62.8596C82.913 62.6343 83.5724 62.6362 83.9787 62.3683L83.9898 62.071C83.2547 61.9915 82.9703 61.6608 82.4808 61.3911V61.3986ZM74.8115 60.0059C74.1447 60.6819 76.6808 61.6054 77.4879 61.6554C77.4879 61.2268 77.7319 60.8223 77.6727 60.5156C76.7177 60.3402 75.4636 60.451 74.8115 59.9985V60.0059ZM83.0201 60.3235C83.0201 60.39 82.9314 60.366 82.9167 60.4196C83.7738 61.0902 84.411 61.2287 85.5784 61.1714C86.103 60.7891 86.5703 60.3421 87.1189 59.9837C85.8573 60.0889 84.2687 60.874 83.0201 60.3162V60.3235ZM90.5545 62.601C90.5176 61.8493 90.3218 60.3032 89.8564 60.0335C88.8811 59.4647 87.1484 61.1825 86.4133 61.4447C86.4945 61.6738 86.6257 61.8567 86.6349 62.1503C87.0864 62.0521 87.5577 62.1054 87.976 62.3018C87.54 62.3499 87.0524 62.348 86.7697 62.5549C86.6645 62.8596 86.7956 63.2752 86.7255 63.6983C87.8713 64.0019 89.0498 64.165 90.2349 64.184C90.4973 63.8534 90.5841 63.2254 90.5545 62.601ZM73.6904 60.6523C73.4797 60.5045 72.0649 58.6631 71.8709 58.7387C69.3089 59.7491 66.915 61.4928 64.7742 63.1551C66.8154 67.5329 67.639 72.8988 67.7832 78.0689C70.1216 79.1623 72.1756 80.738 75.3472 80.9024C74.9777 78.3054 74.6452 75.989 74.4366 73.5434C73.6385 73.2072 72.4952 73.5583 71.7508 73.4382C71.7508 72.5405 72.8887 73.0448 72.9848 72.4407C73.0568 71.9845 72.3548 71.9494 72.582 71.2289C73.1658 71.4415 73.4723 71.9088 74.0949 72.086C74.6619 70.8429 74.0949 68.643 74.1687 67.603C74.1834 67.4184 74.2648 66.5226 74.7025 66.6795C75.0886 66.8181 74.6804 69.0364 74.7228 70.0192C74.7616 70.9242 74.6138 71.8016 74.9796 72.3706C78.1283 71.9358 81.2983 71.6732 84.4757 71.5836C83.746 71.2697 82.8797 70.9741 81.9303 70.4384C81.4149 70.1484 79.7913 69.5444 79.6417 69.055C79.4053 68.2755 80.2642 67.8598 80.412 67.1912C78.8641 68.0353 78.5649 66.3822 78.1954 65.211C77.9268 64.4078 77.7254 63.5835 77.5933 62.747C76.2596 62.1116 74.8354 61.4688 73.6885 60.6523H73.6904ZM89.2062 58.9623C91.3396 57.9259 91.7256 62.8283 90.8888 64.4075C91.0182 64.8785 91.4633 65.0595 91.6444 65.4826C90.453 67.616 89.1305 69.6072 87.915 71.7167C88.8183 71.1625 90.1094 71.615 91.1734 71.1939C91.5631 71.0406 91.8439 70.1502 92.1393 69.4392C92.9485 67.4793 93.8018 65.006 94.1712 63.1404C94.2561 62.7138 94.489 61.7864 94.4372 61.406C94.3448 60.728 93.4231 60.2239 92.9596 59.8045C92.0969 59.0287 91.5538 58.3471 90.6524 57.6231C90.283 58.1606 89.5054 58.5227 89.2062 58.9623ZM68.8083 40.0365C67.7924 41.1449 68.0048 43.2506 68.1286 44.743C69.9757 43.5867 72.4066 44.8336 72.3769 46.8008C73.2543 46.7767 72.7058 45.7054 72.547 45.0146C72.0279 42.7574 73.4206 40.3043 72.6098 38.2393C71.1548 38.3184 69.7884 38.9634 68.8029 40.0365H68.8083ZM76.0842 33.5421C73.7827 34.1941 70.8328 35.8676 69.8834 37.9345C70.6221 37.8293 71.1247 37.4598 71.8469 37.4136C72.1202 37.3952 72.4767 37.5282 72.7908 37.4506C73.4206 37.2954 73.9471 35.8916 74.4199 35.3707C74.8928 34.8498 75.4322 34.643 75.8108 34.1793C76.0545 34.0611 76.413 34.0704 76.4278 33.7046C76.3224 33.6012 76.2117 33.5051 76.0842 33.5421ZM88.0683 34.1553C85.6799 32.8069 81.6348 31.7929 79.0931 33.06C77.0428 34.0833 74.2702 35.7753 73.3246 37.9198C74.2075 39.9886 73.0622 41.8837 72.9902 43.9838C72.9515 45.1014 73.5167 46.0785 73.5592 47.294C73.2581 47.7926 72.3345 47.8481 71.6954 47.8204C71.4811 46.7435 71.1043 45.5336 69.996 45.4191C68.426 45.2381 67.2808 46.5311 67.2088 47.896C67.1238 49.4901 68.4333 52.1445 70.2898 51.9597C71.0065 51.8896 71.1837 51.171 71.9651 51.1784C72.388 52.0226 71.3112 52.2867 71.2003 52.8925C71.2154 53.2482 71.2686 53.6012 71.3593 53.9455C71.6954 55.3381 72.4472 57.141 73.1879 58.1938C74.1262 59.5386 75.9715 59.7418 77.9553 59.8728C78.31 59.11 79.6177 59.1728 80.4656 59.3723C79.4459 58.9678 78.4984 57.9888 77.7133 57.1225C76.8101 56.1361 75.8957 55.061 75.8496 53.7607C77.5563 56.1269 78.9638 58.1938 82.0651 59.2337C84.411 60.0207 87.1522 58.8644 88.9549 57.6064C89.703 57.0801 90.15 56.2452 90.6802 55.4822C92.6714 52.6192 93.5986 48.5352 93.3955 44.575C93.3105 42.9421 93.3141 41.3148 92.7675 40.2158C92.1948 39.0687 90.2571 38.0398 89.123 39.0798C88.9143 37.9715 90.0669 37.2714 91.4208 37.6741C90.4548 36.4273 89.4408 34.9293 88.0683 34.1646V34.1553ZM92.5218 70.9981C94.3873 70.0745 97.8785 68.499 99.0476 70.9981C99.5323 72.1068 99.9211 73.255 100.21 74.4301C100.525 75.7747 99.8678 78.5971 98.4861 79.0478C97.267 79.445 95.8448 79.4173 94.3762 79.1255C94.1695 78.9404 93.9997 78.7179 93.8757 78.4697C92.8265 78.4291 91.8439 78.527 91.0163 78.9574C91.0958 79.7331 90.5712 79.857 90.0799 80.0175C89.7104 81.462 90.8076 83.3517 90.5471 84.6687C90.3624 85.6089 89.2043 85.7529 88.3546 85.9285C88.3405 86.3972 88.3727 86.8662 88.4506 87.3286C88.2567 88.0434 87.3849 88.4516 86.5592 88.5513C83.8458 88.8764 79.7248 89.0242 77.1112 88.084C76.3816 86.2978 75.8182 84.1237 75.2012 82.0826C72.654 82.3653 70.5945 80.9874 68.6514 80.0878C67.979 79.7775 67.0499 79.6057 66.8043 79.07C66.5586 78.5343 66.6601 77.559 66.5992 76.6207C66.4459 74.2195 66.3147 71.9142 65.6756 69.4595C65.3912 68.3512 64.8961 67.3889 64.5507 66.3194C64.2311 65.3366 63.6733 64.1212 63.5293 63.1423C63.3131 61.6886 64.6819 61.6073 65.5611 60.9774C66.9131 60.004 67.9753 59.4664 69.4401 58.5873C69.8741 58.3268 71.1819 57.6637 71.3315 57.3645C71.6271 56.7641 70.8236 55.9145 70.6093 55.4435C70.2875 54.781 70.0951 54.0631 70.0423 53.3284C69.4932 53.2379 68.9683 53.036 68.5002 52.7351C68.0319 52.4343 67.6301 52.0411 67.3195 51.5793C66.396 50.2143 65.744 47.6911 66.5493 45.77C66.6122 45.6185 66.9188 45.3212 66.9742 45.0885C67.0646 44.6323 66.8005 44.0227 66.7894 43.5369C66.7045 41.0413 67.2106 38.8914 68.8914 38.1377C69.5637 35.428 72.0057 34.5247 74.3054 33.1745C75.1662 32.6776 76.1137 32.347 77.0872 31.9868C80.5967 30.6938 85.9848 30.9376 88.8995 33.1413C90.1353 34.0759 92.1117 36.0505 92.8173 37.4783C94.6828 41.2501 94.5499 47.5543 93.2458 52.1426C93.0455 52.9167 92.783 53.6735 92.4608 54.4054C92.2132 54.9208 91.443 55.9551 91.5373 56.4113C91.6315 56.8675 93.2938 58.1439 93.6485 58.4856C94.2894 59.1044 95.5066 59.9246 95.6064 60.7022C95.7117 61.5334 95.2371 62.6676 95.0006 63.4729C94.2026 66.1457 93.4231 68.6172 92.5162 71" fill="#231F20"/>
<path fill-rule="evenodd" clip-rule="evenodd" d="M80.0628 52.4955C80.1645 52.3607 80.7223 52.1556 81.5018 52.5306C81.5018 52.5306 80.5782 52.684 80.6539 54.2245L80.2697 54.1469C80.2697 54.1469 79.8726 52.7503 80.0628 52.4955Z" fill="#F7E4CD"/>
<path fill-rule="evenodd" clip-rule="evenodd" d="M86.8122 65.7301C86.8125 65.8142 86.7879 65.8965 86.7415 65.9666C86.695 66.0368 86.6288 66.0915 86.5511 66.1239C86.4737 66.1563 86.3881 66.1651 86.3056 66.1488C86.2231 66.1327 86.1472 66.0924 86.0876 66.033C86.028 65.9737 85.9874 65.898 85.9708 65.8154C85.9543 65.7331 85.9626 65.6475 85.9947 65.5698C86.0268 65.492 86.0813 65.4256 86.1511 65.3788C86.2211 65.332 86.3032 65.3071 86.3873 65.3071C86.4997 65.3071 86.6074 65.3516 86.6871 65.4308C86.7667 65.5102 86.8116 65.6177 86.8122 65.7301Z" fill="#1D1919"/>
<path fill-rule="evenodd" clip-rule="evenodd" d="M87.2351 67.6917C87.2354 67.776 87.2108 67.8583 87.1643 67.9285C87.1177 67.9986 87.0514 68.0535 86.9736 68.0857C86.896 68.1181 86.8104 68.1268 86.7278 68.1103C86.6453 68.0941 86.5694 68.0536 86.5098 67.994C86.4503 67.9345 86.4098 67.8586 86.3934 67.7761C86.3772 67.6935 86.3856 67.6079 86.418 67.5302C86.4504 67.4525 86.5052 67.3862 86.5753 67.3397C86.6456 67.2931 86.7279 67.2684 86.812 67.2688C86.9242 67.2688 87.0319 67.3133 87.1111 67.3926C87.1905 67.472 87.2351 67.5796 87.2351 67.6917Z" fill="#1D1919"/>
</svg>
