<svg width="160" height="120" viewBox="0 0 160 120" fill="none" xmlns="http://www.w3.org/2000/svg">
<path d="M103.922 58.246L81.8023 36.0507L79.659 33.9L63.008 50.6081L55.3938 58.246C55.0135 58.6296 54.8 59.1486 54.8 59.6897C54.8 60.2309 55.0135 60.7498 55.3938 61.1335L70.606 76.3977L79.659 85.4794L96.3077 68.7714L96.567 68.5135L103.922 61.145C104.112 60.9552 104.264 60.7292 104.367 60.4806C104.47 60.2317 104.523 59.9649 104.523 59.6955C104.523 59.426 104.47 59.1592 104.367 58.9104C104.264 58.6615 104.112 58.4358 103.922 58.246ZM79.659 67.3161L72.0585 59.6897L79.659 52.0633L87.257 59.6897L79.659 67.3161Z" fill="#2684FF"/>
<path d="M79.6589 52.0634C77.2686 49.6655 75.9211 46.4158 75.9108 43.0242C75.9005 39.6327 77.2282 36.3748 79.6037 33.9623L62.9734 50.6426L72.0241 59.7243L79.6589 52.0634Z" fill="url(#paint0_linear_1038_5520)"/>
<path d="M87.2773 59.6688L79.6586 67.3159C82.058 69.7242 83.4059 72.99 83.4059 76.3953C83.4059 79.8006 82.058 83.0664 79.6586 85.4746L96.3348 68.7505L87.2773 59.6688Z" fill="url(#paint1_linear_1038_5520)"/>
<defs>
<linearGradient id="paint0_linear_1038_5520" x1="78.2981" y1="44.3473" x2="67.6484" y2="54.9582" gradientUnits="userSpaceOnUse">
<stop offset="0.18" stop-color="#0052CC"/>
<stop offset="1" stop-color="#2684FF"/>
</linearGradient>
<linearGradient id="paint1_linear_1038_5520" x1="81.1089" y1="74.94" x2="91.7379" y2="64.3497" gradientUnits="userSpaceOnUse">
<stop offset="0.18" stop-color="#0052CC"/>
<stop offset="1" stop-color="#2684FF"/>
</linearGradient>
</defs>
</svg>
