<svg width="160" height="120" viewBox="0 0 160 120" fill="none" xmlns="http://www.w3.org/2000/svg">
<path d="M47.4349 51.3936C47.1006 51.6588 46.863 52.0267 46.7587 52.4405C46.6545 52.8543 46.6895 53.2909 46.8583 53.6828L54.328 72.5984C54.6039 72.8326 54.9267 73.0051 55.2747 73.1045C55.6227 73.2039 55.9878 73.228 56.3458 73.175C57.7194 73.0817 66.1979 70.8773 66.1979 70.8773C66.1979 70.8773 67.1899 70.4534 67.351 69.7327C67.5121 69.012 65.9097 47.9513 65.9097 47.9513C65.9097 47.9513 65.9097 46.6795 65.0618 46.8067C64.2139 46.9338 47.4349 51.3936 47.4349 51.3936Z" fill="#E84441"/>
<path d="M82.0106 53.3266C82.0106 53.3266 79.094 52.7247 78.5428 53.3266C77.8601 54.1329 77.4557 55.1379 77.3898 56.1924C77.3304 57.3455 75.499 67.2145 76.8132 68.5117C77.5509 69.2239 86.5805 72.7934 88.6832 73.0986C90.7859 73.4038 91.2776 72.8103 91.2776 72.8103L98.4929 57.0487C98.4929 57.0487 98.9338 55.565 98.2046 55.6158C97.4755 55.6667 82.0106 53.3266 82.0106 53.3266Z" fill="#9680B9"/>
<path d="M69.4962 51.614C68.6466 51.5047 67.7847 51.6807 67.0459 52.1142C66.5244 52.7106 66.1395 53.4138 65.9183 54.1745C65.1891 56.7181 63.6121 62.4835 63.6121 62.4835C63.6121 62.4835 63.1458 64.0521 64.1887 64.7727C65.2315 65.4934 79.1957 68.215 79.1957 68.215C79.4202 68.3244 79.6666 68.3813 79.9164 68.3813C80.1661 68.3813 80.4126 68.3244 80.6371 68.215C81.2051 67.8081 80.264 55.6328 80.0859 54.0304C80.0533 53.4488 79.9273 52.8763 79.7129 52.3347C79.4585 51.8175 78.2291 51.5971 78.0596 51.6055L69.4962 51.614Z" fill="#379139"/>
<path d="M96.5001 49.6045C96.3645 49.5113 94.4907 49.2569 94.194 49.8928C93.8972 50.5287 94.4822 70.5381 94.4822 70.5381C94.4822 70.5381 94.974 71.9795 95.6353 72.2338C96.2966 72.4882 106.31 73.0817 106.31 73.0817C106.31 73.0817 107.158 73.3869 107.471 72.7934C107.785 72.1999 113.237 52.4449 113.237 52.4449C113.237 52.4449 113.644 50.7491 112.389 50.7491C111.134 50.7491 96.6443 49.6978 96.5001 49.6045Z" fill="#F1931D"/>
<path d="M64.5614 49.8167L48.3928 54.429L49.2407 58.6683L54.862 56.8793L57.9821 70.0974L63.1455 68.8425L60.0254 55.5482L65.4262 54.1153L64.5614 49.8167ZM106.106 54.1153L105.725 57.4219L105.242 57.2693C105.242 57.2693 101.808 56.4978 100.341 56.9726C99.3757 57.318 98.5065 57.888 97.8048 58.6353C97.1031 59.3827 96.5891 60.2861 96.3051 61.2712C95.5505 63.9928 96.1101 67.3164 99.1878 67.8675C100.881 68.2245 102.646 67.9212 104.122 67.0196L103.631 68.6221H107.683L110.439 54.429L106.115 54.1407L106.106 54.1153ZM104.258 63.2552C104 63.7724 103.587 64.1956 103.076 64.4649C102.564 64.7342 101.981 64.836 101.409 64.7559C100.409 64.5778 100.027 62.6956 100.824 61.3644C101.621 60.0333 103.622 59.4652 104.436 60.0333C105.25 60.6014 104.97 62.0003 104.258 63.2552ZM89.6664 55.2768C87.9127 55.1009 86.1416 55.2973 84.4691 55.8534C83.5834 56.0676 82.7159 56.3511 81.8746 56.7012L83.0277 70.1737L86.7752 69.8854L86.1987 64.4422C87.0786 64.957 88.0713 65.2481 89.0899 65.29C90.5736 65.29 92.4813 64.4422 92.8374 63.0008C93.2523 61.5956 93.3507 60.116 93.1257 58.6683C92.8459 57.6508 91.4978 55.3531 89.6664 55.2768ZM88.0809 62.7295C87.2331 62.8906 85.8935 61.6103 85.8256 60.3301C85.7578 59.0498 86.1139 58.4224 86.9702 58.185C88.1996 57.8543 89.1831 58.8378 89.429 60.1096C89.6749 61.3814 88.9542 62.5599 88.0809 62.7125V62.7295ZM77.2708 54.3442C75.6514 53.3607 76.4229 53.7083 74.0828 53.5472C72.3519 53.4449 70.6164 53.4449 68.8855 53.5472L68.0376 56.0908C68.0376 56.0908 72.845 55.7686 73.235 56.0908C73.625 56.413 73.9726 56.4978 73.8115 56.9386C73.7532 57.1475 73.6553 57.3432 73.5233 57.5152C73.5233 57.5152 71.3697 57.7611 69.479 58.0832C67.5883 58.4054 66.0876 59.3211 65.7315 60.6692C65.3754 62.0173 65.6891 63.9589 67.1728 64.3913C68.5968 64.6653 70.0492 64.7621 71.4969 64.6796L72.2769 62.933C72.2769 62.933 70.0216 63.0008 70.0555 62.0851C70.0555 61.6018 70.1573 61.0338 71.7512 60.6522C73.3452 60.2707 73.7098 60.4148 73.7098 60.4148L72.8026 65.0017L76.9401 65.5189L78.3815 57.4982C78.3815 57.4982 78.9156 55.3362 77.2708 54.3442Z" fill="white"/>
</svg>
