<svg width="160" height="120" viewBox="0 0 160 120" fill="none" xmlns="http://www.w3.org/2000/svg">
<path d="M104.661 83.0669C102.034 82.4814 102.559 86.167 101.871 87.5367C101.441 88.2357 100.895 88.8577 100.258 89.3769C99.6171 89.9032 99.1972 90.6492 99.0813 91.4681C99.0705 91.6221 99.1032 91.776 99.1759 91.9124C99.3083 92.0745 99.4947 92.1839 99.7012 92.2209C101.191 92.6553 102.792 92.4979 104.167 91.7817C104.819 91.4754 105.358 90.9747 105.711 90.3493C105.995 89.6893 106.131 88.9758 106.111 88.2582C106.163 86.7316 106.846 83.5531 104.661 83.0669Z" fill="#F99885"/>
<path d="M102.36 90.6525C102.36 90.6525 94.931 90.9714 98.0727 93.2664C101.214 95.5615 105.922 92.6966 106.379 92.1686C106.836 91.6406 106.463 90.7309 106.463 90.7309L102.36 90.6525Z" fill="#7497F7"/>
<path d="M106.053 91.6719C105.391 92.477 101.903 93.5539 100.358 93.4442C98.8134 93.3344 97.4265 92.6182 97.5788 91.6249C97.7312 90.6316 100.458 88.3156 100.967 88.3261C101.477 88.3365 101.892 89.5128 102.922 89.7585C103.383 89.8333 103.857 89.7899 104.297 89.6327C104.737 89.4754 105.13 89.2092 105.438 88.8593C105.531 88.7302 105.667 88.6378 105.822 88.5986C105.977 88.5594 106.14 88.5758 106.284 88.645C106.494 89.1305 106.583 89.6596 106.543 90.1868C106.503 90.714 106.335 91.2236 106.053 91.6719V91.6719Z" fill="#70727F"/>
<path d="M113.623 84.5255C110.997 83.9191 111.522 87.6047 110.839 88.9692C110.409 89.67 109.864 90.2938 109.226 90.8146C108.584 91.339 108.165 92.0863 108.055 92.9057C108.039 93.0578 108.07 93.2109 108.144 93.3449C108.273 93.5111 108.461 93.623 108.669 93.6585C110.161 94.0873 111.761 93.9301 113.14 93.2194C113.784 92.9126 114.319 92.4186 114.674 91.8027C114.959 91.1431 115.093 90.429 115.068 89.7115C115.115 88.1588 115.804 84.9855 113.623 84.5255Z" fill="#F99885"/>
<path d="M111.317 92.0745C111.317 92.0745 103.883 92.3829 107.03 94.6884C110.177 96.9939 114.879 94.129 115.336 93.5958C115.793 93.0625 115.42 92.1581 115.42 92.1581L111.317 92.0745Z" fill="#7497F7"/>
<path d="M115.01 93.0783C114.348 93.8886 110.86 94.9655 109.315 94.8557C107.771 94.7459 106.384 94.0297 106.531 93.0364C106.678 92.0431 109.415 89.7272 109.925 89.7324C110.434 89.7377 110.849 90.9191 111.879 91.1649C112.34 91.2392 112.812 91.1956 113.251 91.0383C113.691 90.881 114.083 90.6151 114.39 90.2657C114.485 90.1389 114.621 90.0485 114.775 90.0095C114.929 89.9705 115.092 89.9852 115.236 90.0513C115.448 90.5362 115.539 91.0652 115.499 91.5926C115.46 92.12 115.292 92.6299 115.01 93.0783V93.0783Z" fill="#70727F"/>
<path d="M106.893 50.9888L110.382 87.5419L115.415 86.925C117.406 78.0063 116.917 51.3181 116.917 51.3181L106.893 50.9888Z" fill="#473F47"/>
<path d="M110.382 50.0007L106.893 86.5539L101.85 85.937C98.971 62.8037 101.325 48.4062 101.325 48.4062L110.382 50.0007Z" fill="#473F47"/>
<path d="M119.539 39.639C119.539 40.0102 119.497 40.3814 119.465 40.7473C119.25 43.5495 119.019 46.4509 118.22 49.1537C117.968 50.0007 117.695 50.8528 116.912 51.3076C115.852 51.8299 114.663 52.0402 113.487 51.914C112.341 51.8565 111.18 51.6527 110.214 51.5167C107.555 51.1403 104.824 50.743 102.465 49.4622C101.978 49.2586 101.58 48.8875 101.346 48.4166C101.136 47.8415 101.388 47.2194 101.566 46.6339C102.365 44.02 101.745 41.2754 101.745 38.6092C101.745 38.1282 101.808 37.6316 101.808 37.1506V36.7899C101.745 36.1207 101.566 35.4568 101.493 34.7719C101.34 33.5159 101.351 32.2455 101.524 30.9922V30.9608C101.532 30.8483 101.548 30.7365 101.572 30.6262C101.805 29.1631 102.247 27.7406 102.885 26.4021C103.463 25.2415 104.514 24.7501 105.69 24.1698C106.675 23.6485 107.741 23.2951 108.843 23.1242C109.626 23.0509 110.415 23.0932 111.186 23.2497C113.555 23.6993 116.681 24.9174 118.299 26.7785C118.831 27.4158 119.202 28.1704 119.381 28.9794C119.601 29.9823 119.708 31.0062 119.702 32.0325C119.751 34.5628 119.697 37.0983 119.539 39.639Z" fill="#BDCEFB"/>
<path opacity="0.1" d="M119.539 39.6391C119.539 40.0102 119.497 40.3814 119.465 40.7474C119.25 43.5495 119.019 46.451 118.22 49.1538C117.968 50.0007 117.695 50.8528 116.912 51.3076C115.852 51.8299 114.663 52.0403 113.487 51.9141C112.389 50.8162 111.858 49.1799 111.611 47.6168C111.317 45.7557 111.301 43.8213 110.618 42.0648C108.864 37.5479 103.263 35.4568 101.509 30.9661V30.9295L109.914 32.6285C111.138 32.8742 114.947 34.1969 115.882 33.1983C116.366 32.6756 116.408 31.5777 116.891 30.9556C117.52 30.1996 118.278 29.5591 119.129 29.0631C119.203 29.0161 119.276 28.969 119.355 28.9272C119.574 29.93 119.682 30.9539 119.676 31.9803C119.742 34.5454 119.697 37.0983 119.539 39.6391Z" fill="#020202"/>
<path d="M87.8491 16.7672C87.8725 17.2751 87.9626 17.7777 88.117 18.2623C88.6568 19.6676 89.453 20.9614 90.4654 22.0787C92.3114 24.3319 94.2828 26.4805 96.3704 28.5142C97.3686 29.4866 100.615 33.5329 102.302 32.6076C102.859 32.3044 102.927 31.562 102.99 30.9242C103.154 29.5755 103.604 28.2767 104.309 27.1131C104.655 26.4962 105.044 25.9002 105.428 25.299C105.711 24.8494 106.447 24.3005 106.52 23.7934C106.368 24.839 98.1409 20.3378 97.5525 19.9928C94.4841 18.1678 91.528 16.162 88.7002 13.986C88.0849 14.7786 87.7822 15.7678 87.8491 16.7672Z" fill="#BDCEFB"/>
<path d="M106.904 19.423C106.907 18.724 106.951 18.0258 107.035 17.3318C107.098 16.7254 107.198 16.1137 107.319 15.5125C107.324 15.3336 107.368 15.1579 107.449 14.9979C107.53 14.838 107.645 14.6978 107.787 14.5872C108.733 14.0056 109.827 13.7079 110.939 13.7298C111.6 13.6274 112.276 13.79 112.817 14.1819C113.359 14.5737 113.722 15.1631 113.828 15.821C113.849 15.9471 113.86 16.0748 113.86 16.2026C114.028 17.7396 113.623 19.2714 113.403 20.7979C113.224 21.981 113.161 23.1785 113.214 24.3737C112.633 24.7552 111.967 24.9903 111.275 25.0586C110.95 25.0545 110.627 24.9998 110.319 24.8965C110.233 24.8808 110.151 24.8482 110.078 24.8007C110.005 24.7531 109.942 24.6915 109.893 24.6195C109.846 24.4924 109.835 24.3549 109.862 24.2221C109.862 24.0967 109.893 23.9764 109.893 23.8457C109.945 23.1489 109.931 22.4488 109.851 21.7546C109.853 21.7255 109.848 21.6964 109.837 21.6694C109.826 21.6423 109.809 21.6179 109.788 21.5978C109.742 21.5822 109.692 21.5822 109.646 21.5978H109.452C109.102 21.6239 108.751 21.6239 108.401 21.5978C107.986 21.5596 107.598 21.374 107.308 21.075C106.964 20.5973 106.819 20.005 106.904 19.423Z" fill="#F99885"/>
<path d="M108.338 14.9218C108.094 15.0208 107.821 15.0208 107.576 14.9218C107.322 14.7827 107.111 14.5765 106.967 14.3258C106.856 14.1537 106.769 13.9672 106.71 13.7716C106.62 13.3783 106.647 12.9678 106.787 12.5893C106.927 12.2109 107.174 11.8808 107.498 11.6387C107.827 11.4008 108.201 11.2318 108.597 11.142C108.993 11.0521 109.404 11.0432 109.804 11.1159C110.011 10.9795 110.246 10.8902 110.492 10.8545C111.437 10.5689 112.435 10.508 113.408 10.6767C113.962 10.8346 114.48 11.0954 114.937 11.4452C115.383 11.7341 115.762 12.1136 116.051 12.5588C116.331 13.1262 116.509 13.7386 116.576 14.3676C116.725 15.0446 116.805 15.7345 116.818 16.4274C116.817 16.7297 116.76 17.0293 116.649 17.3109C116.511 17.6228 116.313 17.905 116.066 18.1421C115.707 18.5084 115.296 18.8217 114.847 19.0727C114.532 19.2452 114.17 19.4229 114.065 19.7627C114.033 19.9229 114.017 20.0857 114.017 20.2489C114 20.4874 113.904 20.7135 113.744 20.892C113.639 21.007 113.45 21.2945 113.292 21.3206C113.135 21.3468 112.998 21.169 112.951 21.0122C112.756 20.3196 112.806 19.5813 113.093 18.9211C113.286 18.6035 113.403 18.2456 113.434 17.8755C113.397 17.5043 112.909 17.2116 112.646 17.4311C112.383 17.6507 112.357 18.1839 112.058 18.0794C112.399 17.0338 111.953 15.6746 110.923 15.2511C110.372 15.0842 109.797 15.0048 109.221 15.0159C108.947 14.9627 108.669 14.933 108.391 14.927L108.338 14.9218Z" fill="#473F47"/>
<path d="M109.436 21.5716C110.251 21.4196 111.049 21.1849 111.816 20.8711C111.884 23.3386 109.867 23.8457 109.867 23.8457C109.919 23.1489 109.905 22.4488 109.825 21.7546C109.826 21.7255 109.821 21.6964 109.81 21.6694C109.8 21.6423 109.783 21.6179 109.762 21.5978C109.716 21.5822 109.666 21.5822 109.62 21.5978H109.436V21.5716Z" fill="#DE9F93"/>
<path d="M54.8249 62.0038L55.1401 60.7962L55.9649 57.6595C55.9871 57.5118 56.055 57.3747 56.1593 57.2674C56.2802 57.1576 56.6847 58.3391 56.8318 58.313C57.7313 58.2596 58.634 58.3247 59.5164 58.5064C59.7528 58.5534 58.7914 71.9368 58.7021 73.2489C58.5077 76.255 58.6706 82.2095 59.1119 82.1729C58.2292 82.2461 56.422 82.3402 56.0385 81.9481C55.3503 81.2633 56.5271 76.8562 55.2452 71.6806C54.9314 70.4099 54.7553 69.1095 54.7198 67.8015C54.6726 65.9352 54.3521 63.8545 54.8249 62.0038Z" fill="#A67C52"/>
<path d="M58.6706 80.798C58.8477 80.7075 59.0345 80.6373 59.2275 80.5888C59.3817 80.5947 59.5327 80.6342 59.6698 80.7047C59.8069 80.7752 59.9268 80.8749 60.0208 80.9966L63.8769 84.6091C63.9978 84.7189 64.1239 84.8652 64.0661 85.0168C64.0083 85.1685 63.8874 85.1841 63.7719 85.2207C61.4445 85.8847 56.5429 86.0101 54.8407 83.8929C54.6571 83.6876 54.5159 83.4484 54.4252 83.1889C54.3345 82.9293 54.2961 82.6545 54.3122 82.3802C54.3283 82.1059 54.3986 81.8374 54.519 81.5902C54.6395 81.3429 54.8077 81.1217 55.0141 80.9391L55.1717 80.8136C56.6637 79.606 57.2574 81.258 58.6706 80.798Z" fill="#473F47"/>
<path d="M61.145 76.8928C61.2464 76.7134 61.3291 76.5242 61.3919 76.3281C61.602 75.659 61.4444 74.9584 61.4917 74.2841C61.518 73.9273 61.518 73.5691 61.4917 73.2123C61.4234 72.2975 61.3026 71.3774 61.187 70.4677C60.8998 68.9128 60.7121 67.3413 60.6248 65.7626C60.6248 64.5655 61.602 60.7962 61.602 60.7962L60.6248 55.8925H65.558C65.558 55.8925 66.1884 60.0016 66.0151 60.4564C65.6591 61.3882 65.4465 62.3681 65.3846 63.3631C65.3846 65.1301 65.1482 66.918 65.0116 68.6746C64.861 70.5984 64.7052 72.5153 64.544 74.4252L64.3707 76.5163C64.3229 77.5309 64.5024 78.5434 64.896 79.4805C65.0589 79.9092 65.227 80.432 64.9328 80.7771C64.6386 81.1221 63.9819 81.0018 63.5406 80.7771C62.9332 80.3737 62.2915 80.0239 61.623 79.7315C61.3572 79.6734 61.1032 79.5709 60.8718 79.4283C60.6741 79.2235 60.5443 78.9633 60.5002 78.6828C60.456 78.4022 60.4995 78.115 60.6248 77.8599C60.7825 77.5306 60.9558 77.2064 61.145 76.8928Z" fill="#EFAC88"/>
<path d="M63.0941 5.62145C64.6965 6.27493 65.0852 8.62746 64.9697 10.1174C64.8278 11.9837 63.257 13.8501 63.7981 15.7217C64.1484 16.6826 64.3141 17.7006 64.2867 18.7225C64.1816 19.7367 63.5512 20.777 62.5583 21.0175C62.3203 21.0494 62.0874 21.1109 61.8648 21.2005C61.5754 21.3991 61.3551 21.6822 61.2344 22.0108C60.3102 23.876 58.6793 25.2995 56.7005 25.9683C55.7132 26.2802 54.6589 26.3169 53.6522 26.0745C52.6454 25.8321 51.7246 25.3198 50.9898 24.5933C49.5871 23.0825 49.3717 20.5261 50.7009 18.9577C51.0844 18.5081 51.594 18.0899 51.6308 17.5044C51.6192 17.2359 51.5787 16.9695 51.5099 16.7097C51.4341 16.2035 51.5207 15.6864 51.7575 15.2321C51.9943 14.7778 52.3691 14.4094 52.8286 14.1794C53.5693 13.8292 54.515 13.8449 55.0876 13.2541C55.6603 12.6634 55.571 11.5446 55.5184 10.6402C55.24 5.84102 58.8755 3.89103 63.0941 5.62145Z" fill="#473F47"/>
<path d="M52.6762 45.6459C52.2927 49.389 52.9652 53.2106 53.6377 56.938C53.7953 57.8163 53.9896 58.7573 54.6411 59.369C55.1557 59.7816 55.7696 60.0537 56.4221 60.1584C60.6929 61.144 65.1724 60.6784 69.1463 58.8358L68.1376 49.5354C67.8697 47.0626 67.5807 44.5323 66.6876 42.1903C66.5248 41.7563 63.9505 37.4538 64.5546 37.0826C63.3358 37.8302 61.9278 37.7204 60.5251 38.0446C58.8709 38.4316 57.2793 39.0475 55.7969 39.8743C55.0381 40.2089 54.3799 40.7344 53.887 41.399C53.3942 42.0635 53.0838 42.8443 52.9862 43.6645C52.8488 44.3192 52.7454 44.9806 52.6762 45.6459V45.6459Z" fill="#7497F7"/>
<path d="M52.6762 45.6459C52.2927 49.389 52.9652 53.2106 53.6377 56.938C53.7953 57.8163 53.9896 58.7573 54.6411 59.369C55.1557 59.7816 55.7696 60.0537 56.4221 60.1584C60.6929 61.144 65.1724 60.6784 69.1463 58.8358L68.1376 49.5354C67.8697 47.0626 67.5807 44.5323 66.6876 42.1903C66.5248 41.7563 63.9505 37.4538 64.5546 37.0826C63.3358 37.8302 61.9278 37.7204 60.5251 38.0446C58.8709 38.4316 57.2793 39.0475 55.7969 39.8743C55.0381 40.2089 54.3799 40.7344 53.887 41.399C53.3942 42.0635 53.0838 42.8443 52.9862 43.6645C52.8488 44.3192 52.7454 44.9806 52.6762 45.6459V45.6459Z" fill="url(#paint0_linear_1036_4223)"/>
<path d="M63.0153 15.4968C63.0153 15.4968 61.7755 17.0652 61.7702 18.0219C61.7565 18.659 61.6684 19.2923 61.5075 19.9091C61.5075 19.9091 61.3131 21.0645 60.6722 20.6149C60.0313 20.1653 57.7775 17.1593 57.7775 17.1593L60.2362 13.871L63.0153 15.4968Z" fill="#A67C52"/>
<path d="M65.5843 43.1992C65.5843 43.1992 64.9328 40.9356 64.0975 38.238C64.129 39.9737 63.9241 42.5771 63.5721 42.9431C63.299 43.2202 59.5374 44.0932 57.4727 44.0148C56.879 44.0148 56.3064 43.9677 55.8073 43.9364C54.8196 43.8841 54.1262 43.837 54.1262 43.837C54.1262 43.837 53.48 40.8938 53.6008 39.4875C53.7216 38.0812 55.3975 34.8817 55.5919 34.0505C55.76 33.3238 55.0666 30.6262 54.8984 29.9728L54.8564 29.8264C54.8345 29.2242 54.7784 28.6238 54.6883 28.028C54.4251 27.0531 54.232 26.0608 54.1104 25.0586C54.094 24.3867 54.0378 23.7164 53.9423 23.0511C53.8477 22.5283 53.6691 22.0055 53.5535 21.4827C53.4117 21.0139 53.4117 20.5139 53.5535 20.0451C53.8433 19.4937 54.2914 19.0406 54.8406 18.7433C55.4868 18.3042 56.1225 17.8441 56.7477 17.3736C57.2731 16.9659 58.0086 16.6522 58.3553 16.0405C58.576 16.2392 58.4919 16.647 58.5287 16.9293C58.682 18.1005 59.2259 19.1866 60.0732 20.0137C60.2221 20.2017 60.4218 20.3435 60.649 20.4222C60.8761 20.5009 61.1211 20.5134 61.3551 20.4581C61.5706 20.3443 61.7397 20.1595 61.8332 19.9353C62.1852 19.1877 61.9435 18.3094 61.6861 17.5305L64.1343 18.4401C64.3423 18.4909 64.5298 18.6037 64.6716 18.7635C64.8134 18.9233 64.9027 19.1224 64.9276 19.3341C65.3846 21.0018 65.7892 22.6904 66.1307 24.3842C66.3552 25.2364 66.4211 26.1223 66.325 26.9981C65.9993 28.9533 65.3899 30.8458 65.206 32.8272C65.0643 33.6662 65.1273 34.5269 65.3899 35.3365C66.3198 37.5793 66.8241 43.1783 66.8241 43.1783L65.5843 43.1992Z" fill="#7497F7"/>
<path opacity="0.1" d="M56.4325 38.1701C56.3442 38.4778 56.3281 38.8015 56.3853 39.1163L55.8599 40.1253C56.2692 40.8674 56.4858 41.6994 56.4903 42.5458C56.4679 42.8138 56.3922 43.0747 56.2678 43.3134C56.1434 43.5521 55.9726 43.7638 55.7653 43.9364C54.7777 43.8842 54.0842 43.8371 54.0842 43.8371C54.0842 43.8371 53.438 40.8938 53.5588 39.4875C53.6797 38.0812 55.3556 34.8818 55.5499 34.0506C55.7181 33.3239 55.0246 30.6263 54.8565 29.9728C55.0141 29.4187 55.1822 28.8593 55.345 28.3051L56.3958 24.8286C56.985 26.0584 57.3987 27.364 57.6251 28.7077C57.7518 29.1577 57.8501 29.6152 57.9193 30.0774C57.9508 30.5374 58.1347 31.8705 58.1557 32.3306C58.1203 32.9636 57.9406 33.5804 57.6304 34.1342C57.0981 35.4368 56.6969 36.7887 56.4325 38.1701V38.1701Z" fill="#020202"/>
<path d="M72.9236 18.0899C75.9182 16.9397 78.545 15.042 81.2926 13.3848C81.9073 13.0188 82.6586 12.6581 83.2995 12.9666C83.5836 13.1476 83.8047 13.4114 83.9325 13.722C84.0604 14.0326 84.0888 14.3749 84.014 14.7022C83.7513 16.4379 82.0176 17.4887 80.6044 18.5499C78.235 20.3222 76.4015 22.6852 74.153 24.6299C71.9044 26.5747 69.0622 28.1326 66.1202 27.7666C65.7271 27.7438 65.3493 27.6075 65.0327 27.3745C64.8038 27.1653 64.6244 26.9082 64.5073 26.6217C63.8296 25.1475 62.5583 19.7785 64.5073 18.8584C65.453 18.4088 67.1709 19.0779 68.1849 19.0622C69.8092 19.0147 71.4128 18.6856 72.9236 18.0899Z" fill="#7497F7"/>
<path d="M63.6458 7.17932C63.7012 7.21093 63.7496 7.25365 63.7876 7.30479C64.0237 7.71525 64.1822 8.16532 64.2552 8.63266C64.9014 10.9068 65.784 13.0816 64.5231 15.3452C64.4432 15.5287 64.318 15.6892 64.1591 15.8117C64.0002 15.9341 63.8128 16.0147 63.6142 16.0458C62.6866 16.2369 61.7208 16.0845 60.8981 15.6171C60.425 15.3948 59.9654 15.1452 59.5217 14.8695C59.3166 14.7396 59.1484 14.5596 59.0331 14.3467C58.9333 14.1324 58.7704 13.9233 58.8387 13.6723C58.9106 13.5013 58.9737 13.3268 59.0278 13.1495C59.0638 12.8708 59.0125 12.5878 58.8807 12.3392C58.8187 12.2296 58.8017 12.1003 58.8335 11.9785C58.9175 11.7851 59.196 11.8007 59.4008 11.7485C59.5722 11.6839 59.7277 11.5839 59.8572 11.455C59.9868 11.3262 60.0873 11.1713 60.1521 11.0009C60.3568 10.5926 60.5154 10.1631 60.6249 9.72005C60.6835 9.33616 60.793 8.96171 60.9507 8.60652C61.258 8.11494 61.7038 7.72408 62.2325 7.48253C62.5688 7.30478 63.2517 6.93361 63.6458 7.17932Z" fill="#A67C52"/>
<path d="M64.6701 10.4947L64.875 10.316C64.875 10.316 64.9328 10.4421 65.0063 10.4316C65.0719 10.414 65.1353 10.3894 65.1955 10.3581C65.1955 10.3581 65.0799 10.5209 65.0011 10.5367C64.8928 10.5472 64.7837 10.5472 64.6754 10.5367L64.6701 10.4947Z" fill="#8A3C1F"/>
<path d="M64.8488 10.3328L64.9329 10.1752C64.9329 10.1752 65.0064 10.2382 65.0485 10.2119C65.0841 10.185 65.1175 10.1551 65.1483 10.1226C65.1483 10.1226 65.1167 10.2487 65.0695 10.2802C65.0029 10.3115 64.9321 10.3327 64.8593 10.3433L64.8488 10.3328Z" fill="#8A3C1F"/>
<path opacity="0.1" d="M83.8564 44.8669C83.331 45.3479 82.8057 45.8184 82.2803 46.2523C81.3138 46.9304 80.4117 47.6951 79.5852 48.5369C78.8804 49.4459 78.2663 50.4212 77.7517 51.4488C77.2263 52.3741 76.2492 53.0956 75.8026 53.9843C74.808 56.0049 74.3831 58.2562 74.5733 60.4982C74.7571 62.8351 75.582 65.2503 74.7676 67.4565C74.6064 67.9241 74.3385 68.3482 73.9849 68.6955C73.6394 68.9926 73.2424 69.2247 72.8133 69.3803C71.8947 69.7475 70.9542 70.0583 69.9974 70.3109C69.5348 70.4526 69.0451 70.4831 68.5684 70.3998C68.2952 70.3475 67.6017 69.877 67.4126 69.877C68.1114 69.7777 68.7682 69.4856 69.3087 69.0337C69.8491 68.5819 70.2515 67.9884 70.4702 67.3206C70.8012 66.275 70.6383 65.1353 70.6436 64.0322C70.6862 62.7524 70.8427 61.4788 71.1111 60.2264L72.0883 54.8887C72.4508 52.9178 73.0392 51.3233 74.4945 49.9275C76.2702 48.2284 77.6834 46.1948 79.664 44.663C81.1876 43.4815 82.9055 42.5719 84.5183 41.5263C86.7932 40.0207 88.5846 38.123 90.87 36.769C92.2044 35.9743 93.0712 34.6099 93.8855 33.2977L98.2303 26.3185C98.4975 26.3179 98.7549 26.4187 98.9501 26.6003C99.1453 26.7819 99.2636 27.0307 99.281 27.2961C99.3012 27.8226 99.1777 28.3447 98.9237 28.8069C97.915 31.0863 96.7908 33.3238 95.6192 35.5195C94.6473 37.344 93.0712 37.7727 91.2692 38.6876C88.343 40.12 86.2258 42.6555 83.8564 44.8669Z" fill="#020202"/>
<path d="M53.2015 20.709C53.0856 21.1875 53.0014 21.673 52.9494 22.1624C52.7994 23.3333 52.5426 24.4882 52.1823 25.6128L48.8988 23.8353C48.1055 23.4118 45.9148 22.6172 45.2948 23.783C44.6749 24.9488 46.9602 27.0818 47.6747 27.8032C48.9841 29.0704 50.3664 30.2609 51.8146 31.3686C52.0932 31.6216 52.4309 31.8013 52.797 31.8914C53.1191 31.905 53.4403 31.8474 53.7374 31.7227C54.0344 31.5979 54.3 31.4091 54.5149 31.17C55.5509 30.358 56.3342 29.2704 56.774 28.0333C57.1575 26.7106 56.9053 25.2991 56.6321 23.9503C56.2696 22.1519 55.7075 20.1392 54.0736 19.3027C53.6261 19.6552 53.3174 20.153 53.2015 20.709Z" fill="#7497F7"/>
<path d="M45.2476 21.8121C44.3305 21.3556 43.3205 21.1141 42.2951 21.1063C42.1786 21.0849 42.0582 21.1034 41.9536 21.1586C41.8729 21.2219 41.8126 21.3073 41.7802 21.4043C41.5312 21.9881 41.4174 22.6202 41.4475 23.2537C41.4775 23.8873 41.6505 24.5059 41.9536 25.0638C42.1637 25.4402 42.4317 25.7853 42.6418 26.1617C42.7854 26.4671 42.9615 26.7563 43.1672 27.0243C43.5031 27.3699 43.9608 27.5724 44.4438 27.5889C44.9232 27.5983 45.3976 27.4906 45.8255 27.2752C46.0255 27.2051 46.2065 27.0898 46.3542 26.9383C46.5019 26.7868 46.6122 26.6033 46.6766 26.4021C46.7711 25.8794 46.4717 25.4245 46.5768 24.907C46.7064 24.5842 46.7879 24.2443 46.8184 23.898C46.7348 23.4538 46.5496 23.0346 46.2772 22.6729C46.0049 22.3112 45.6526 22.0167 45.2476 21.8121V21.8121Z" fill="#A67C52"/>
<path d="M60.6775 113.179L60.709 113.284C60.9192 113.807 61.5759 113.99 62.1433 114.058C62.6665 114.116 63.193 114.14 63.7194 114.131C63.9705 114.138 64.2209 114.103 64.4601 114.026C64.6879 113.933 64.9003 113.806 65.0905 113.65L66.6193 112.521C67.049 112.22 67.4407 111.869 67.7856 111.475C68.1357 111.08 68.3233 110.569 68.311 110.043C68.293 109.783 68.195 109.536 68.0305 109.334C67.866 109.131 67.6429 108.985 67.3916 108.913C67.0725 108.872 66.7493 108.872 66.4302 108.913C65.7788 108.945 64.8541 108.673 64.6125 108.014C64.5478 107.73 64.3931 107.473 64.1712 107.282C63.9507 107.177 63.7011 107.147 63.4619 107.199C62.924 107.218 62.3923 107.32 61.8858 107.502C61.6353 107.594 61.4083 107.74 61.2212 107.93C61.0341 108.12 60.8915 108.349 60.8036 108.6C60.7512 108.833 60.73 109.072 60.7406 109.311C60.7668 109.805 60.7668 110.301 60.7406 110.795C60.6661 111.416 60.6311 112.042 60.6355 112.667C60.6258 112.839 60.6399 113.011 60.6775 113.179V113.179Z" fill="#262836"/>
<path d="M75.5241 113.352C74.5016 113.822 73.4485 114.224 72.3719 114.554C71.9411 114.736 71.4603 114.764 71.0112 114.633C70.8316 114.545 70.6735 114.419 70.5482 114.263C70.4229 114.108 70.3335 113.927 70.2863 113.733C70.1882 113.349 70.1475 112.953 70.1654 112.557C70.2375 111.946 70.3659 111.342 70.5489 110.754C70.6435 110.231 70.717 109.661 70.7958 109.112C70.9062 108.328 71.0113 107.544 71.1058 106.754L73.8587 107.34C74.1477 107.403 74.4208 108.506 74.5942 108.741C74.7236 108.913 74.8897 109.054 75.0804 109.154C75.2712 109.254 75.4819 109.312 75.6975 109.321C76.1693 109.254 76.6447 109.216 77.1212 109.206C77.4258 109.28 77.6975 109.451 77.8942 109.694C78.0908 109.937 78.2013 110.238 78.2087 110.55C78.2059 110.86 78.1387 111.167 78.0112 111.45C77.8837 111.733 77.6988 111.988 77.4679 112.196C77.0011 112.612 76.4686 112.947 75.8919 113.19L75.5241 113.352Z" fill="#262836"/>
<path d="M75.5714 110.314C74.8466 110.721 74.0954 111.079 73.3229 111.386L73.2493 111.412C71.9727 111.909 70.5437 109.922 70.5437 109.922C70.5437 109.922 68.747 98.8497 68.8258 94.2649C68.8836 91.1282 68.1376 86.627 67.008 78.482C66.7191 86.8048 65.3059 90.4538 65.6684 93.4389C66.22 97.9715 65.5633 109.238 65.5633 109.238C65.5633 109.238 64.3602 111.428 63.0363 111.135H62.9575C62.1623 110.951 61.3811 110.712 60.6196 110.419C60.6196 110.419 59.0803 94.9132 59.0803 90.8145C59.0803 86.7159 59.2537 83.0669 59.2537 83.0669L58.4289 70.0965L61.8648 65.1353L62.1432 65.0203L62.4111 64.7589L66.2147 61.9829C66.2147 61.9829 66.2147 62.6312 66.1412 63.7395L69.0937 65.3078L69.3827 65.5222L69.6664 65.5901L74.6153 66.4684C74.6153 66.4684 75.9129 86.3343 76.3332 90.4015C76.7535 94.4688 75.5714 110.314 75.5714 110.314Z" fill="#7497F7"/>
<path d="M75.5714 110.314C74.8466 110.721 74.0954 111.079 73.3229 111.386L73.2493 111.412C71.9727 111.909 70.5437 109.922 70.5437 109.922C70.5437 109.922 68.747 98.8497 68.8258 94.2649C68.8836 91.1282 68.1376 86.627 67.008 78.482C66.7191 86.8048 65.3059 90.4538 65.6684 93.4389C66.22 97.9715 65.5633 109.238 65.5633 109.238C65.5633 109.238 64.3602 111.428 63.0363 111.135H62.9575C62.1623 110.951 61.3811 110.712 60.6196 110.419C60.6196 110.419 59.0803 94.9132 59.0803 90.8145C59.0803 86.7159 59.2537 83.0669 59.2537 83.0669L58.4289 70.0965L61.8648 65.1353L62.1432 65.0203L62.4111 64.7589L66.2147 61.9829C66.2147 61.9829 66.2147 62.6312 66.1412 63.7395L69.0937 65.3078L69.3827 65.5222L69.6664 65.5901L74.6153 66.4684C74.6153 66.4684 75.9129 86.3343 76.3332 90.4015C76.7535 94.4688 75.5714 110.314 75.5714 110.314Z" fill="url(#paint1_linear_1036_4223)"/>
<path d="M71.4631 31.9071C71.7731 32.2208 72.2459 32.5345 72.1146 32.9527C72.041 33.1723 71.8099 33.2977 71.6312 33.4755C71.4159 33.701 71.2478 33.9669 71.1369 34.2577C71.0259 34.5485 70.9743 34.8584 70.985 35.1693C71.0007 35.7912 70.912 36.4114 70.7224 37.0043C70.6163 37.3008 70.4101 37.5515 70.1389 37.7136C69.8678 37.8757 69.5485 37.9391 69.2356 37.893C68.8731 37.7937 68.5159 37.48 68.1849 37.6264C67.8539 37.7728 67.8329 38.0655 67.6963 38.3112C67.4995 38.6035 67.2245 38.8353 66.9024 38.9803C66.5803 39.1253 66.2238 39.1779 65.8733 39.132C65.1724 39.0326 64.4968 38.802 63.8822 38.4524C63.618 38.3459 63.3913 38.164 63.2307 37.9296C63.1243 37.7101 63.0983 37.4604 63.1572 37.2238C63.3736 36.5123 63.7308 35.8511 64.2079 35.2791C64.9637 34.1244 65.4171 32.7998 65.5266 31.4261C65.6001 30.4694 65.5266 29.4134 66.1465 28.6763C66.9818 27.6725 69.0044 27.6778 70.0499 28.4149C71.1847 29.1834 70.5122 30.919 71.4631 31.9071Z" fill="#FDB9A9"/>
<path d="M70.2233 27.5732C70.1038 27.8101 69.9223 28.0106 69.6979 28.1535C69.2408 28.4201 68.8468 28.739 68.4003 29.0318C67.9796 29.3116 67.6841 29.7424 67.5755 30.2342C67.3916 31.1229 67.8802 32.1005 67.6017 32.9788C67.4914 33.1565 67.1972 33.0468 67.0764 32.8742C66.9555 32.7017 66.8977 32.4821 66.7191 32.3776C66.4197 32.2051 66.0466 32.4978 65.9153 32.8167C65.786 33.1939 65.8058 33.6059 65.9707 33.9691C66.1356 34.3322 66.4332 34.6193 66.8032 34.7719C66.7611 35.049 66.3934 35.164 66.1097 35.1222C65.8294 35.044 65.5391 35.007 65.2481 35.0124C64.5914 35.1327 64.3445 36.058 63.672 36.1573C63.446 36.1414 63.2265 36.0748 63.03 35.9626C62.8335 35.8503 62.665 35.6953 62.5372 35.5091L61.7439 34.6047C61.6167 34.4336 61.4762 34.2728 61.3237 34.1237C61.145 33.9878 60.8456 33.9773 60.6985 33.81C60.5514 33.6427 60.6985 33.2506 60.5409 33.0468C60.4618 32.9736 60.3689 32.9168 60.2677 32.8795C60.0382 32.7644 59.8556 32.5743 59.7503 32.3411C59.6451 32.1079 59.6237 31.8457 59.6898 31.5986C59.7056 31.5369 59.7056 31.4722 59.6898 31.4104C59.6635 31.3216 59.5637 31.285 59.4796 31.2431C59.2379 31.0882 59.06 30.8521 58.9781 30.5779C58.8962 30.3036 58.9157 30.0092 59.0331 29.748C59.1553 29.4489 59.3336 29.1757 59.5584 28.9429C59.6444 28.8151 59.7652 28.7143 59.9066 28.6523C60.048 28.5903 60.2042 28.5696 60.357 28.5926L60.4778 27.4529C60.4889 27.221 60.546 26.9936 60.6459 26.7838C60.8117 26.5779 61.0233 26.4131 61.264 26.3024C61.5047 26.1918 61.7679 26.1382 62.0329 26.146L61.7702 25.1997C61.7443 25.1413 61.7309 25.0781 61.7309 25.0142C61.7309 24.9502 61.7443 24.887 61.7702 24.8286C61.8386 24.7418 61.9387 24.6854 62.0487 24.6717C62.356 24.5878 62.671 24.5353 62.989 24.5149C62.8684 24.2524 62.7785 23.977 62.7211 23.6941C62.7003 23.6421 62.7003 23.5841 62.7211 23.5321C62.7462 23.4801 62.7871 23.4375 62.8381 23.4102C62.8891 23.383 62.9475 23.3726 63.0048 23.3805C63.1212 23.4013 63.2404 23.4013 63.3568 23.3805C63.3568 23.3805 63.1834 22.5858 63.1729 22.5126C63.1464 22.3885 63.1448 22.2604 63.1683 22.1357C63.1917 22.011 63.2397 21.8921 63.3095 21.786C63.4022 21.6756 63.5222 21.5912 63.6575 21.5408C63.7929 21.4904 63.9391 21.4758 64.0818 21.4984C64.3671 21.5463 64.6413 21.6455 64.8909 21.7912C64.8909 21.4827 65.2586 21.3259 65.5738 21.305C66.163 21.2714 66.7511 21.3872 67.2831 21.6413C67.8151 21.8955 68.2736 22.2798 68.6157 22.7583C68.6702 22.8431 68.7355 22.9204 68.81 22.9884C68.9483 23.0829 69.1034 23.1503 69.2671 23.187C69.5146 23.2975 69.7345 23.4612 69.9107 23.6664C70.0869 23.8717 70.2152 24.1132 70.2863 24.3737C70.4173 24.8858 70.4705 25.4144 70.4439 25.9421C70.457 26.3511 70.42 26.7601 70.3336 27.1602C70.3073 27.3004 70.2705 27.4385 70.2233 27.5732Z" fill="#FF8B8B"/>
<path d="M65.8732 37.4381C66.5951 37.7424 67.297 38.0916 67.9747 38.4837C68.1831 38.5947 68.3629 38.7522 68.5 38.9438C68.5747 39.0481 68.6207 39.17 68.6336 39.2974C68.6465 39.4248 68.6258 39.5534 68.5736 39.6704C68.3845 39.9998 67.9484 39.8796 67.6174 39.7645C66.077 39.2438 64.4508 39.0202 62.8261 39.1058C62.717 39.121 62.6058 39.1066 62.5041 39.0643C62.4024 39.022 62.3141 38.9533 62.2482 38.8654C62.2089 38.7596 62.1942 38.6463 62.2051 38.534C62.216 38.4218 62.2523 38.3134 62.3113 38.2171C63.1571 36.5599 64.5231 36.8265 65.8732 37.4381Z" fill="white"/>
<path d="M89.6217 39.6335C87.8092 40.6791 85.9915 41.6776 84.594 43.1989C83.5433 44.3334 82.8025 45.7031 81.7518 46.8218C80.7011 47.9406 79.3877 48.7927 78.2424 49.8174C76.0096 51.8197 74.8013 55.6046 74.5386 58.5375C74.4808 59.2333 74.4808 59.9327 74.5386 60.6286C74.7225 62.9655 75.5473 65.3807 74.733 67.5869C74.5717 68.0545 74.3038 68.4786 73.9502 68.8259C73.6047 69.123 73.2077 69.3551 72.7786 69.5107C72.0266 69.818 71.2425 70.0407 70.4408 70.1747C69.9807 70.2564 69.5155 70.3071 69.0486 70.3263C67.3359 70.389 65.6337 70.0544 63.9263 70.1433C62.471 70.2165 61.0316 70.5877 59.5763 70.5406C59.3074 70.5606 59.0373 70.5219 58.785 70.427C58.5327 70.3322 58.3043 70.1836 58.1158 69.9917C57.9531 69.7397 57.8523 69.4532 57.8216 69.1552C57.2486 66.0507 56.955 62.9015 56.9443 59.7451C56.9479 57.6863 56.8198 55.6293 56.5607 53.5867C56.1772 50.7846 54.2912 48.4634 52.8832 46.0795C52.0531 44.6941 51.2231 43.3035 50.3089 41.9652C49.3948 40.6268 48.4649 39.4401 47.6401 38.1175C46.6519 36.4331 45.7745 34.6869 45.0133 32.8896C44.4354 31.6245 43.8628 30.3541 43.4057 29.0367L45.3968 27.3951C47.43 29.0262 48.549 31.4938 50.2196 33.5065C51.647 35.1466 53.2926 36.5853 55.1107 37.7829C55.9659 38.4455 56.9315 38.9534 57.9634 39.2833C59.3927 39.6023 60.8838 39.5079 62.2609 39.0114C65.8649 37.7829 69.8839 40.2295 73.5824 39.8374C75.7364 39.6126 77.7013 38.4782 79.7029 37.7463C81.9882 36.8837 84.3103 36.1047 86.6534 35.4199C87.1637 35.2987 87.6525 35.1013 88.1034 34.8344C88.4649 34.5635 88.7913 34.2492 89.0753 33.8986C91.3756 31.2524 93.8094 28.7241 96.3673 26.3234C96.4947 26.1775 96.6661 26.0767 96.8559 26.0359C97.0469 26.0404 97.2312 26.1064 97.3813 26.2241L99.115 27.2697C98.8106 28.8263 98.1688 30.2982 97.2342 31.5826C96.6609 32.2831 96.1244 33.0125 95.6266 33.7679C94.9594 34.9285 94.6914 36.2563 93.6302 37.1242C92.3674 38.0715 91.0265 38.9109 89.6217 39.6335V39.6335Z" fill="#E6ECFE"/>
<path d="M41.3126 26.742C41.1381 26.5384 41.03 26.2868 41.0027 26.0205C40.9891 25.8866 41.0279 25.7526 41.1111 25.6465C41.1943 25.5403 41.3154 25.4702 41.4492 25.4507C41.1236 24.4112 41.0445 23.3107 41.2181 22.2356C41.254 21.8824 41.3907 21.5468 41.6121 21.2684C41.7813 21.1196 41.9785 21.0056 42.1921 20.933C42.4058 20.8603 42.6318 20.8304 42.8572 20.845C43.0985 20.8149 43.342 20.8806 43.5349 21.0279C43.6286 21.129 43.7001 21.2482 43.745 21.3782C44.4134 22.9465 44.9939 24.5504 45.484 26.1826C45.6834 26.693 45.7415 27.2472 45.6521 27.7876C44.9849 30.3492 42.19 27.9078 41.3126 26.742Z" fill="#FDB9A9"/>
<path d="M111.679 37.6211C110.997 37.4189 110.357 37.0928 109.793 36.6592C107.037 34.7702 104.326 32.815 101.661 30.7935C100.936 30.2394 100.143 29.5598 100.111 28.6501C100.08 27.6516 101.036 26.8465 102.029 26.6844C103.03 26.5985 104.038 26.7545 104.965 27.1393L111.002 29.0997C111.273 29.2141 111.572 29.2503 111.863 29.2043C112.195 29.0783 112.475 28.8443 112.657 28.5403C113.524 27.4372 114.653 26.3551 116.061 26.2871C119.476 26.1251 120.311 30.8824 119.071 33.2611C117.984 35.3418 114.028 38.1596 111.679 37.6211Z" fill="#BDCEFB"/>
<path d="M84.1085 8.54903C84.1954 8.39528 84.3261 8.27055 84.4841 8.19055C84.6421 8.11055 84.8203 8.07884 84.9964 8.09943C85.4639 8.19876 85.6636 8.74246 85.7581 9.20774C86.0419 10.6702 86.0419 12.1732 85.7581 13.6357C85.7261 13.8542 85.6587 14.0661 85.5585 14.2631C85.4107 14.4877 85.213 14.6755 84.9806 14.812C83.6514 15.6746 81.986 14.7859 82.5272 13.1861C82.7583 12.5117 83.1786 11.921 83.3993 11.2361C83.6935 10.3997 83.6462 9.31752 84.1085 8.54903Z" fill="#A67C52"/>
<path d="M87.4446 11.5133C87.2135 10.5147 87.0138 9.42211 86.3046 8.70067C86.2439 8.62768 86.1664 8.57031 86.0787 8.53338C85.9613 8.50775 85.8385 8.52612 85.7338 8.58495C85.6291 8.64379 85.5499 8.73897 85.5113 8.85228C85.44 9.08048 85.422 9.32187 85.4588 9.55804C85.5283 10.5111 85.4575 11.4693 85.2486 12.402C85.0559 12.9917 84.9845 13.614 85.0385 14.2317C85.2641 14.9864 85.7215 15.6519 86.3466 16.1347C86.7144 16.4797 87.203 16.8561 87.6705 16.6575C87.7952 16.6012 87.9076 16.5213 88.0015 16.4222C88.5269 15.8994 89.089 14.765 88.7213 14.0279C88.5269 13.641 88.1013 13.3482 87.9017 12.9248C87.6976 12.4724 87.5443 11.9991 87.4446 11.5133V11.5133Z" fill="#F99885"/>
<path d="M103.61 25.8271C103.802 26.7475 103.696 27.705 103.305 28.5612C103.102 28.912 102.815 29.2072 102.47 29.4207C102.124 29.6342 101.731 29.7592 101.325 29.7845C100.921 29.8009 100.519 29.7133 100.16 29.5301C99.7997 29.3469 99.4935 29.0744 99.2705 28.739C98.8916 28.0803 98.7771 27.3034 98.95 26.5642C99.1235 25.8378 99.3864 25.1354 99.7328 24.473C100.148 23.5895 100.783 21.467 102.139 22.1728C103.085 22.6537 103.61 24.8547 103.61 25.8271Z" fill="#F99885"/>
<path d="M99.6277 21.9114C100.011 21.3886 100.678 20.939 101.277 21.1534C101.876 21.3677 102.123 22.246 102.128 22.9518C102.137 24.5096 101.836 26.0538 101.241 27.4948C101.15 27.7388 101.021 27.9666 100.857 28.1692C100.484 28.5822 99.1181 29.0579 98.6085 28.692C98.204 28.3887 98.0831 27.1236 98.0831 26.627C98.1464 24.9426 98.6813 23.3093 99.6277 21.9114V21.9114Z" fill="#FDB9A9"/>
<defs>
<linearGradient id="paint0_linear_1036_4223" x1="45.4525" y1="50.1209" x2="68.9297" y2="48.4368" gradientUnits="userSpaceOnUse">
<stop offset="0.01"/>
<stop offset="0.08" stop-opacity="0.69"/>
<stop offset="0.21" stop-opacity="0.32"/>
<stop offset="1" stop-opacity="0"/>
</linearGradient>
<linearGradient id="paint1_linear_1036_4223" x1="48.9987" y1="62.5057" x2="92.5656" y2="123.801" gradientUnits="userSpaceOnUse">
<stop offset="0.01"/>
<stop offset="0.08" stop-opacity="0.69"/>
<stop offset="0.21" stop-opacity="0.32"/>
<stop offset="1" stop-opacity="0"/>
</linearGradient>
</defs>
</svg>
