<svg width="160" height="120" viewBox="0 0 160 120" fill="none" xmlns="http://www.w3.org/2000/svg">
<path d="M86.231 90.0192H59.4451V100.418H86.231V90.0192Z" fill="#99B3F9"/>
<path d="M86.231 90.0192H59.4451V100.418H86.231V90.0192Z" fill="url(#paint0_linear_1037_4900)"/>
<path d="M122.509 26.3925V84.3436C122.508 86.0372 121.832 87.6613 120.628 88.8587C119.425 90.0561 117.793 90.7287 116.091 90.7287H31.4165C30.5734 90.7287 29.7385 90.5634 28.9596 90.2421C28.1808 89.9209 27.4731 89.45 26.8772 88.8565C26.2813 88.2629 25.8088 87.5583 25.4867 86.783C25.1646 86.0076 24.9992 85.1767 25 84.3377V26.3866C25 24.693 25.676 23.0688 26.8793 21.8711C28.0826 20.6734 29.7146 20.0004 31.4165 20H116.091C116.934 20.0002 117.769 20.1657 118.548 20.4871C119.327 20.8085 120.035 21.2795 120.631 21.8731C121.227 22.4668 121.699 23.1715 122.022 23.9469C122.344 24.7224 122.509 25.5534 122.509 26.3925V26.3925Z" fill="#99B3F9"/>
<path d="M122.509 26.3925V84.3436C122.508 86.0372 121.832 87.6613 120.628 88.8587C119.425 90.0561 117.793 90.7287 116.091 90.7287H31.4165C30.5734 90.7287 29.7385 90.5634 28.9596 90.2421C28.1808 89.9209 27.4731 89.45 26.8772 88.8565C26.2813 88.2629 25.8088 87.5583 25.4867 86.783C25.1646 86.0076 24.9992 85.1767 25 84.3377V26.3866C25 24.693 25.676 23.0688 26.8793 21.8711C28.0826 20.6734 29.7146 20.0004 31.4165 20H116.091C116.934 20.0002 117.769 20.1657 118.548 20.4871C119.327 20.8085 120.035 21.2795 120.631 21.8731C121.227 22.4668 121.699 23.1715 122.022 23.9469C122.344 24.7224 122.509 25.5534 122.509 26.3925V26.3925Z" fill="url(#paint1_linear_1037_4900)"/>
<path d="M122.509 75.5837V84.3376C122.509 85.1763 122.343 86.0068 122.021 86.7817C121.698 87.5565 121.225 88.2606 120.629 88.8535C120.033 89.4465 119.326 89.9168 118.547 90.2375C117.768 90.5582 116.934 90.7231 116.091 90.7227H31.4165C29.7148 90.7227 28.0827 90.05 26.8794 88.8526C25.676 87.6551 25 86.0311 25 84.3376V75.5837H122.509Z" fill="#99B3F9"/>
<path d="M122.509 75.5837V84.3376C122.509 85.1763 122.343 86.0068 122.021 86.7817C121.698 87.5565 121.225 88.2606 120.629 88.8535C120.033 89.4465 119.326 89.9168 118.547 90.2375C117.768 90.5582 116.934 90.7231 116.091 90.7227H31.4165C29.7148 90.7227 28.0827 90.05 26.8794 88.8526C25.676 87.6551 25 86.0311 25 84.3376V75.5837H122.509Z" fill="url(#paint2_linear_1037_4900)"/>
<path opacity="0.19" d="M122.509 83.8477V84.3376C122.509 85.4162 122.235 86.4774 121.712 87.4219C121.188 88.3664 120.433 89.1634 119.516 89.7384C118.848 90.0261 118.162 90.2701 117.463 90.4688C115.722 86.7119 113.983 82.9556 112.245 79.1997C111.676 77.975 111.091 76.7233 110.366 75.5837C109.771 74.6119 109.025 73.7403 108.155 73.0013L108.02 75.5837C107.98 76.3499 107.938 77.1191 107.899 77.8853C107.875 78.3334 107.842 78.8069 107.58 79.1713C107.09 79.8524 105.988 79.8076 105.32 79.2968C104.652 78.786 104.31 77.966 104.01 77.1848C103.804 76.6531 103.603 76.1194 103.409 75.5837C102.694 73.648 102.032 71.6929 101.424 69.7184C98.9064 69.339 96.9792 66.6909 97.3935 64.2011C97.4895 63.6261 97.6937 63.0735 97.7957 62.5044C97.9368 61.7576 97.9143 60.9824 97.8948 60.2177L97.5556 48.2078C96.3728 48.1717 95.1955 48.0317 94.0374 47.7896C93.9835 48.1957 93.8079 48.5763 93.5333 48.8815C93.2588 49.1868 92.8982 49.4027 92.4985 49.5009C92.0989 49.5991 91.6787 49.5751 91.293 49.4321C90.9072 49.2891 90.5737 49.0337 90.3361 48.6992C89.9803 48.1988 89.8708 47.5686 89.7867 46.9592C89.6711 46.1048 88.9432 42.9564 89.6441 42.3141C90.2715 41.7391 92.5469 42.4291 93.4835 42.2021C94.7203 41.9034 95.8685 41.3269 97.0633 40.8892C98.9981 40.1829 101.049 39.8429 103.109 39.887C104.598 39.9199 106.138 40.1738 107.366 41.0162C108.594 41.8586 109.422 43.3955 109.072 44.8368C108.362 45.0743 107.818 44.1199 107.087 43.966C106.722 43.8899 106.351 44.0228 106.003 44.1527C104.624 44.6715 103.245 45.1898 101.865 45.7075C101.604 45.8046 101.324 45.9166 101.179 46.1556C101.033 46.3946 101.062 46.6993 101.107 46.9771C101.41 48.8714 102.152 50.6696 103.273 52.23C104.274 53.622 105.563 54.805 106.452 56.2717C107.34 57.7384 107.772 59.6591 106.914 61.1423C106.845 61.238 106.799 61.3476 106.777 61.4634C106.753 61.7113 106.972 61.904 107.169 62.0608C111.83 65.6454 115.267 70.4428 118.195 75.5837C119.737 78.2841 121.138 81.0801 122.509 83.8477Z" fill="url(#paint3_linear_1037_4900)"/>
<path d="M132.601 92.7495L132.585 92.7615C132.157 93.0927 131.705 93.3922 131.234 93.6576V93.6576C130.477 94.0921 129.671 94.4356 128.832 94.6807C128.832 94.6807 116.017 75.6077 114.467 74.1813C113.273 73.0895 111.133 72.4383 110.025 72.0096C109.793 71.935 109.573 71.8273 109.371 71.69C108.913 71.2778 107.076 64.6597 105.806 62.7001C104.422 60.5628 104.4 59.5053 104.906 59.0154C105.191 58.7775 105.55 58.6455 105.922 58.642C106.848 58.5778 107.921 58.9183 107.921 58.9183C108.169 58.4374 108.1 57.9296 107.861 57.3575C107.495 56.4614 106.72 55.4159 106.099 54.0717C105.083 51.8597 106.774 50.8141 106.774 50.8141C106.774 50.8141 111.52 55.8595 114.192 57.9639C116.864 60.0684 116.921 66.5252 121.006 70.2756C125.092 74.026 135.591 83.3011 135.591 83.3011C136.792 88.1612 134.75 91.0857 132.601 92.7495Z" fill="url(#paint4_linear_1037_4900)"/>
<path opacity="0.19" d="M111.556 69.3704C111.932 70.0395 112.091 72.5891 110.022 72.0066C109.374 71.8244 108.682 71.8736 108.031 71.7079C107.815 71.6624 107.611 71.574 107.43 71.448C107.043 71.1493 106.98 70.6056 106.891 70.1247C106.53 68.056 105.345 66.2055 104.94 64.1503C104.759 63.2422 104.718 62.2669 104.223 61.4843C103.923 61.0093 103.445 60.494 103.663 59.9772C103.763 59.7398 103.99 59.5829 104.206 59.4396C104.431 59.2828 104.666 59.1431 104.912 59.0213C104.954 59.0019 104.997 58.981 105.041 58.9646C105.252 58.8824 105.475 58.8302 105.686 58.748C105.769 58.7167 105.85 58.6838 105.928 58.6479C106.854 58.5837 107.927 58.9243 107.927 58.9243C108.175 58.4433 108.106 57.9355 107.867 57.3635C108.6 57.9609 111.007 61.1691 110.288 64.2414C110.164 64.7209 109.164 65.1032 111.556 69.3704Z" fill="url(#paint5_linear_1037_4900)"/>
<path d="M94.0779 98.9479H52.044V100.655H94.0779V98.9479Z" fill="#99B3F9"/>
<path d="M94.0779 98.9479H52.044V100.655H94.0779V98.9479Z" fill="url(#paint6_linear_1037_4900)"/>
<path d="M89.3124 41.4912L91.6433 40.6802L91.9886 41.3299C91.9886 41.3299 104.173 36.2159 108.837 36.1024C113.5 35.9889 115.228 40.1664 115.803 42.8564C115.803 42.8564 111.75 38.6743 106.097 40.3949C100.445 42.1155 93.1383 44.6128 93.1383 44.6128L93.3679 45.6583L91.1255 46.5171L89.3124 41.4912Z" fill="#99B3F9"/>
<path d="M96.1087 39.5674L97.8858 44.1692C97.9803 44.4142 98.1621 44.616 98.3966 44.7361C98.6311 44.8563 98.9018 44.8862 99.1571 44.8204L102.609 43.9332C102.856 43.8701 103.072 43.7219 103.218 43.5151C103.365 43.3083 103.433 43.0563 103.411 42.804L102.948 37.5974C102.934 37.4382 102.884 37.2842 102.802 37.1468C102.72 37.0093 102.608 36.8919 102.475 36.8031C102.341 36.7143 102.189 36.6563 102.03 36.6336C101.871 36.6108 101.709 36.6237 101.556 36.6714L96.7886 38.165C96.6489 38.2089 96.5196 38.2808 96.4088 38.3762C96.298 38.4717 96.208 38.5887 96.1443 38.7201C96.0806 38.8514 96.0446 38.9944 96.0385 39.1401C96.0324 39.2858 96.0563 39.4313 96.1087 39.5674V39.5674Z" fill="#99B3F9"/>
<path d="M97.491 43.1476C94.9619 43.987 93.1383 44.6113 93.1383 44.6113L93.3679 45.6568L91.1255 46.5156L89.3124 41.4882L91.6433 40.6772L91.9886 41.3269C91.9886 41.3269 93.7312 40.595 96.1522 39.684L97.491 43.1476Z" fill="url(#paint7_linear_1037_4900)"/>
<path d="M115.803 42.8548C115.803 42.8548 111.75 38.6728 106.097 40.3934C105.186 40.6697 104.233 40.9669 103.274 41.2701L102.948 37.5974C102.941 37.5144 102.923 37.4326 102.896 37.354C105.209 36.6565 107.387 36.1367 108.837 36.1008C113.5 35.9873 115.228 40.1649 115.803 42.8548Z" fill="url(#paint8_linear_1037_4900)"/>
<path d="M102.609 43.9332L99.1571 44.8204C98.9018 44.8863 98.6311 44.8563 98.3966 44.7362C98.1621 44.6161 97.9803 44.4142 97.8858 44.1692L97.491 43.1476L96.1522 39.681L96.1087 39.5675C96.056 39.4312 96.0319 39.2856 96.0379 39.1397C96.0439 38.9938 96.0798 38.8507 96.1435 38.7192C96.2073 38.5876 96.2973 38.4705 96.4083 38.3749C96.5192 38.2793 96.6487 38.2074 96.7886 38.1635L101.556 36.6699C101.824 36.5859 102.115 36.6103 102.366 36.738C102.617 36.8657 102.807 37.0864 102.896 37.3525C102.923 37.4312 102.941 37.5129 102.948 37.5959L103.274 41.2687L103.411 42.8026C103.434 43.055 103.366 43.3074 103.219 43.5145C103.072 43.7217 102.856 43.8701 102.609 43.9332Z" fill="url(#paint9_linear_1037_4900)"/>
<path d="M99.1571 44.8204L106.437 78.771C106.437 78.771 108.088 81.5655 110.533 80.8128C112.978 80.06 110.285 71.0029 107.493 62.6583C104.702 54.3136 102.633 45.9301 102.609 43.9391L99.1571 44.8204Z" fill="#3F3D56"/>
<path d="M102.154 58.8019C102.154 58.8019 99.1135 59.6368 99.6584 61.1483C100.203 62.6598 105.404 63.9189 108.158 63.4036C110.912 62.8883 110.245 61.6994 109.341 61.1483C108.437 60.5972 102.378 59.8474 102.378 59.8474L102.154 58.8019Z" fill="url(#paint10_linear_1037_4900)"/>
<path d="M100.745 62.1654C100.745 62.1654 98.7458 63.7098 99.4798 65.1227C100.214 66.5356 107.643 67.0718 109.018 66.6686C110.393 66.2653 109.812 64.8613 109.416 64.5775C108.977 64.2104 108.557 63.8205 108.158 63.4096C108.158 63.4096 104.323 63.9607 100.745 62.1654Z" fill="url(#paint11_linear_1037_4900)"/>
<path d="M101.038 68.8387C101.038 68.8387 99.5938 66.7985 101.811 66.2055C101.811 66.2055 107.586 67.1285 109.015 66.6685C109.015 66.6685 110.692 67.3242 110.53 68.5116C110.324 70.0395 101.919 70.286 101.038 68.8387Z" fill="url(#paint12_linear_1037_4900)"/>
<path d="M104.31 72.2904C104.31 72.2904 109.413 72.7086 110.234 71.4973C111.055 70.286 109.413 69.3705 109.413 69.3705C109.413 69.3705 104.571 70.0112 103.099 69.6513C101.626 69.2913 101.263 71.5616 104.31 72.2904Z" fill="url(#paint13_linear_1037_4900)"/>
<path opacity="0.47" d="M70.0545 41.0583C70.044 41.0342 70.0356 41.0062 70.0271 40.9801C69.7937 40.2059 69.4686 39.4593 69.0583 38.7548C68.3928 37.6302 67.3735 36.4494 65.8993 36.2188C65.7373 36.1852 65.595 36.0936 65.5019 35.963C65.4089 35.8325 65.372 35.6728 65.3991 35.5171C65.4261 35.3614 65.5149 35.2215 65.6472 35.1264C65.7795 35.0313 65.9451 34.9881 66.1099 35.0059C69.7428 35.5793 71.1265 40.1461 71.2655 40.6393C72.697 40.2567 74.2104 40.2491 75.6461 40.6172C75.8145 40.0319 77.2045 35.5733 80.7953 35.0039C80.9601 34.9861 81.1257 35.0292 81.258 35.1244C81.3903 35.2195 81.4791 35.3594 81.5062 35.5151C81.5332 35.6708 81.4964 35.8304 81.4033 35.961C81.3102 36.0916 81.1679 36.1832 81.0059 36.2168C79.5422 36.4473 78.5124 37.6201 77.8469 38.7528C77.4363 39.4565 77.1112 40.2024 76.8781 40.9761L76.8655 41.0242C79.0536 41.9364 80.8669 43.7186 82 46H65C66.1099 43.7487 67.8979 41.9785 70.0545 41.0583Z" fill="url(#paint14_linear_1037_4900)"/>
<path opacity="0.47" d="M82.8899 52.0669C82.8529 52.9327 82.7352 53.7929 82.5384 54.636H85.3813C85.5687 54.6354 85.7521 54.6915 85.9082 54.7972C86.0643 54.9029 86.1859 55.0534 86.2577 55.2296C86.3295 55.4059 86.3483 55.5998 86.3115 55.7869C86.2748 55.974 86.1843 56.1457 86.0514 56.2803C85.8727 56.4595 85.6321 56.5601 85.3813 56.5607H82.4295C82.2704 56.562 82.1138 56.5209 81.9752 56.4414C81.7307 57.0636 81.4357 57.664 81.0933 58.2364H82.9598C83.2106 58.2364 83.4511 58.3378 83.6284 58.5183C83.8058 58.6987 83.9054 58.9435 83.9054 59.1987C83.9054 59.454 83.8058 59.6988 83.6284 59.8792C83.4511 60.0597 83.2106 60.1611 82.9598 60.1611H80.008C79.9009 60.1614 79.7945 60.143 79.6935 60.1067C78.0182 61.9059 75.8125 63 73.3993 63C70.986 63 68.768 61.9017 67.0907 60.0941C66.9802 60.139 66.8622 60.1617 66.7433 60.1611H63.7894C63.6651 60.1614 63.5421 60.1367 63.4272 60.0884C63.3124 60.0401 63.208 59.9693 63.1202 59.8798C63.0323 59.7904 62.9627 59.6842 62.9153 59.5673C62.8678 59.4505 62.8436 59.3252 62.8438 59.1987C62.8436 59.0723 62.8678 58.947 62.9153 58.8301C62.9627 58.7133 63.0323 58.6071 63.1202 58.5177C63.208 58.4282 63.3124 58.3574 63.4272 58.3091C63.5421 58.2608 63.6651 58.2361 63.7894 58.2364H65.7011C65.3564 57.656 65.0587 57.048 64.811 56.4184C64.6638 56.5121 64.4934 56.5615 64.3197 56.5607H61.3659C61.1151 56.5607 60.8746 56.4593 60.6972 56.2788C60.5199 56.0983 60.4203 55.8536 60.4203 55.5983C60.4203 55.3431 60.5199 55.0983 60.6972 54.9178C60.8746 54.7374 61.1151 54.636 61.3659 54.636H64.2581C64.061 53.798 63.944 52.9425 63.9086 52.0816H60.9917C60.8637 52.0877 60.7358 52.0672 60.6158 52.0216C60.4957 51.9759 60.386 51.9059 60.2933 51.8159C60.2006 51.7258 60.1268 51.6175 60.0764 51.4976C60.026 51.3777 60 51.2486 60 51.1182C60 50.9878 60.026 50.8587 60.0764 50.7388C60.1268 50.6189 60.2006 50.5106 60.2933 50.4205C60.386 50.3305 60.4957 50.2605 60.6158 50.2148C60.7358 50.1692 60.8637 50.1487 60.9917 50.1548H63.9641C64.0321 49.4272 64.1586 48.7065 64.3424 48H82.4706C82.656 48.7141 82.7832 49.4425 82.8509 50.1778C82.9184 50.1627 82.9873 50.155 83.0564 50.1548H86.0082C86.1363 50.1487 86.2642 50.1692 86.3842 50.2148C86.5043 50.2605 86.614 50.3305 86.7067 50.4205C86.7994 50.5106 86.8732 50.6189 86.9236 50.7388C86.974 50.8587 87 50.9878 87 51.1182C87 51.2486 86.974 51.3777 86.9236 51.4976C86.8732 51.6175 86.7994 51.7258 86.7067 51.8159C86.614 51.9059 86.5043 51.9759 86.3842 52.0216C86.2642 52.0672 86.1363 52.0877 86.0082 52.0816H83.0482C82.9951 52.082 82.9421 52.0771 82.8899 52.0669Z" fill="url(#paint15_linear_1037_4900)"/>
<path opacity="0.19" d="M132.601 92.7495L132.585 92.7615C132.478 92.8362 131.909 93.2394 131.234 93.6576C130.369 94.1879 129.325 94.7405 128.832 94.6808C128.832 94.6808 116.035 75.6062 114.485 74.1798C114.485 74.1798 116.266 74.2007 118.216 75.5853C120.166 76.9698 132.601 92.7495 132.601 92.7495Z" fill="url(#paint16_linear_1037_4900)"/>
<defs>
<linearGradient id="paint0_linear_1037_4900" x1="72.5514" y1="87.6698" x2="73.0225" y2="100.204" gradientUnits="userSpaceOnUse">
<stop/>
<stop offset="0.98" stop-opacity="0"/>
</linearGradient>
<linearGradient id="paint1_linear_1037_4900" x1="73.7551" y1="27.3708" x2="73.7551" y2="103.287" gradientUnits="userSpaceOnUse">
<stop stop-color="white" stop-opacity="0"/>
<stop offset="0.01" stop-color="white" stop-opacity="0.01"/>
<stop offset="0.38" stop-color="white" stop-opacity="0.43"/>
<stop offset="0.67" stop-color="white" stop-opacity="0.74"/>
<stop offset="0.88" stop-color="white" stop-opacity="0.93"/>
<stop offset="0.98" stop-color="white"/>
</linearGradient>
<linearGradient id="paint2_linear_1037_4900" x1="72.2587" y1="57.0767" x2="74.3767" y2="89.9519" gradientUnits="userSpaceOnUse">
<stop/>
<stop offset="0.98" stop-opacity="0"/>
</linearGradient>
<linearGradient id="paint3_linear_1037_4900" x1="89.3484" y1="65.1764" x2="122.509" y2="65.1764" gradientUnits="userSpaceOnUse">
<stop stop-color="#183866"/>
<stop offset="1" stop-color="#1A7FC1"/>
</linearGradient>
<linearGradient id="paint4_linear_1037_4900" x1="104.601" y1="72.7445" x2="135.947" y2="72.7445" gradientUnits="userSpaceOnUse">
<stop stop-color="#ECC4D7"/>
<stop offset="0.42" stop-color="#EFD4D1"/>
<stop offset="1" stop-color="#F2EAC9"/>
</linearGradient>
<linearGradient id="paint5_linear_1037_4900" x1="113.838" y1="64.1055" x2="86.1609" y2="67.8892" gradientUnits="userSpaceOnUse">
<stop stop-color="#183866"/>
<stop offset="1" stop-color="#1A7FC1"/>
</linearGradient>
<linearGradient id="paint6_linear_1037_4900" x1="73.0617" y1="95.3827" x2="73.0617" y2="102.416" gradientUnits="userSpaceOnUse">
<stop/>
<stop offset="0.98" stop-opacity="0"/>
</linearGradient>
<linearGradient id="paint7_linear_1037_4900" x1="91.3041" y1="43.0998" x2="99.4828" y2="43.0998" gradientUnits="userSpaceOnUse">
<stop/>
<stop offset="0.98" stop-opacity="0"/>
</linearGradient>
<linearGradient id="paint8_linear_1037_4900" x1="100.949" y1="39.4763" x2="113.856" y2="39.4763" gradientUnits="userSpaceOnUse">
<stop/>
<stop offset="0.98" stop-opacity="0"/>
</linearGradient>
<linearGradient id="paint9_linear_1037_4900" x1="96.1132" y1="36.9686" x2="106.857" y2="46.5501" gradientUnits="userSpaceOnUse">
<stop/>
<stop offset="0.98" stop-opacity="0"/>
</linearGradient>
<linearGradient id="paint10_linear_1037_4900" x1="99.5938" y1="61.1603" x2="110.127" y2="61.1603" gradientUnits="userSpaceOnUse">
<stop stop-color="#ECC4D7"/>
<stop offset="0.42" stop-color="#EFD4D1"/>
<stop offset="1" stop-color="#F2EAC9"/>
</linearGradient>
<linearGradient id="paint11_linear_1037_4900" x1="104.672" y1="62.7972" x2="104.544" y2="66.8762" gradientUnits="userSpaceOnUse">
<stop stop-color="#ECC4D7"/>
<stop offset="0.42" stop-color="#EFD4D1"/>
<stop offset="1" stop-color="#F2EAC9"/>
</linearGradient>
<linearGradient id="paint12_linear_1037_4900" x1="105.56" y1="66.8373" x2="105.56" y2="69.1987" gradientUnits="userSpaceOnUse">
<stop stop-color="#ECC4D7"/>
<stop offset="0.42" stop-color="#EFD4D1"/>
<stop offset="1" stop-color="#F2EAC9"/>
</linearGradient>
<linearGradient id="paint13_linear_1037_4900" x1="106.145" y1="68.3997" x2="106.273" y2="71.8768" gradientUnits="userSpaceOnUse">
<stop stop-color="#ECC4D7"/>
<stop offset="0.42" stop-color="#EFD4D1"/>
<stop offset="1" stop-color="#F2EAC9"/>
</linearGradient>
<linearGradient id="paint14_linear_1037_4900" x1="77.1729" y1="26.3855" x2="64.5829" y2="83.6129" gradientUnits="userSpaceOnUse">
<stop/>
<stop offset="0.98" stop-opacity="0"/>
</linearGradient>
<linearGradient id="paint15_linear_1037_4900" x1="79.4098" y1="25.9414" x2="65.453" y2="85.2668" gradientUnits="userSpaceOnUse">
<stop/>
<stop offset="0.98" stop-opacity="0"/>
</linearGradient>
<linearGradient id="paint16_linear_1037_4900" x1="114.464" y1="84.4333" x2="132.601" y2="84.4333" gradientUnits="userSpaceOnUse">
<stop stop-color="#183866"/>
<stop offset="1" stop-color="#1A7FC1"/>
</linearGradient>
</defs>
</svg>
