<!--
Licensed to the Apache Software Foundation (ASF) under one or more
contributor license agreements.  See the NOTICE file distributed with
this work for additional information regarding copyright ownership.
The ASF licenses this file to You under the Apache License, Version 2.0
(the "License"); you may not use this file except in compliance with
the License.  You may obtain a copy of the License at

    http://www.apache.org/licenses/LICENSE-2.0

Unless required by applicable law or agreed to in writing, software
distributed under the License is distributed on an "AS IS" BASIS,
WITHOUT WARRANTIES OR CONDITIONS OF ANY KIND, either express or implied.
See the License for the specific language governing permissions and
limitations under the License.
-->
<svg width="36" height="36" viewBox="0 0 36 36" fill="#7497F7" xmlns="http://www.w3.org/2000/svg">
  <path
    d="M18.797.602c.633.05 1.265.144 1.887.27 2.441.558 4.539 1.76 6.37 3.437 1.692 1.543 2.79 3.449 3.4 5.644.128.465.312.817.85.906.298.051.348.356.348.625.004.942 0 1.883 0 2.825v1.757c-.004.516-.172.696-.675.688-.309-.004-.43.176-.504.426-.211.71-.48 1.406-.801 2.074-1.192 2.445-3.031 4.27-5.363 5.625q-.17.098-.34.191c-.367.2-.375.211-.227.606.168.433.524.77.969.906.39.14.8.195 1.2.309.12.02.241.066.347.132-.098.122-.23.102-.34.122-.523.105-1.035.265-1.578.246a1.8 1.8 0 0 1-.637-.094c-.168-.063-.223-.008-.258.16q-.116.663-.12 1.34c-.02.894-.102 1.785-.165 2.68-.058.867-.023.949.813 1.226.41.133.82.27 1.222.414.102.035.22.055.282.168-.059.082-.141.055-.211.055-.72 0-1.434.004-2.149 0-.765-.008-1.176-.41-1.23-1.168-.082-1.11-.176-2.215-.266-3.324a1.4 1.4 0 0 0-.035-.176c-.117.664-.098 1.277-.121 1.89-.04.766-.016 1.536-.012 2.301 0 .395.121.567.485.703.523.196 1.035.43 1.62.38.208-.016.403.09.587.187.046.027.105.05.101.105-.008.067-.074.07-.125.07-.957-.03-1.914.09-2.867-.042-.469-.067-.774-.344-.918-.801-.137-.442-.164-.899-.2-1.356-.066-.91-.113-1.82-.167-2.734a.3.3 0 0 0-.09-.246.4.4 0 0 0-.043.277q-.005 2.086-.004 4.172c0 .563.18.836.719 1.027.699.25 1.418.434 2.137.618.16.039.328.066.355.277h-2.695a4 4 0 0 0-.227-.043c-1.02-.145-1.453-.543-1.66-1.516-.035-.16-.063-.32-.098-.48l-.328-1.606a1.8 1.8 0 0 0-.21.563c-.122.582-.22 1.168-.352 1.742-.164.719-.649 1.113-1.356 1.25l-.48.09h-2.692c.082-.25.313-.27.516-.324.691-.184 1.394-.32 2.062-.59a.87.87 0 0 0 .575-.762c.086-.629.004-1.254-.02-1.883a2 2 0 0 0-.113-.457.6.6 0 0 0-.102.301c-.039.43-.07.86-.11 1.29-.054.628-.394 1.038-.987 1.175a2.3 2.3 0 0 1-.536.066c-.812.004-1.62 0-2.433-.007-.07 0-.16.027-.215-.094.258-.153.547-.246.848-.274a8.5 8.5 0 0 0 1.363-.277c.61-.168.758-.363.742-1-.031-1.355-.129-2.707-.098-4.059.008-.27 0-.535 0-.8q-.057.275-.074.558a57 57 0 0 1-.27 3.817c-.073.746-.429 1.086-1.167 1.168-.649.074-1.293.004-1.938-.032-.156-.004-.34.02-.492-.09.063-.097.152-.101.234-.124.524-.168 1.055-.329 1.579-.5.355-.122.507-.344.515-.72a3 3 0 0 0-.004-.335 64 64 0 0 1-.152-3.125 8 8 0 0 0-.05-.695c-.036-.274-.192-.418-.43-.375-.735.132-1.442-.008-2.141-.204-.086-.023-.195-.011-.262-.125q.199-.098.414-.132a9 9 0 0 0 1.098-.301 1.77 1.77 0 0 0 1.012-.95c.125-.296.078-.46-.164-.578-2.063-.992-3.657-2.515-4.93-4.386a11.9 11.9 0 0 1-1.637-3.559c-.098-.36-.226-.437-.555-.379-.445.078-.582.008-.777-.398v-5.074c.207-.442.297-.496.774-.477.343.012.359-.008.453-.355.574-2.192 1.57-4.16 3.156-5.797 1.906-1.973 4.266-3.121 6.906-3.742.664-.157 1.344-.22 2.02-.293ZM30.39 13.613a10 10 0 0 0-.07-1.367 11 11 0 0 0-.145-.945c-.867-4.309-3.406-7.297-7.344-9.113-2.258-1.04-4.668-1.215-7.094-.743-4.722.922-7.847 3.754-9.508 8.22-.632 1.706-.718 3.5-.539 5.308.13 1.359.497 2.683 1.082 3.918.852 1.761 2.102 3.207 3.606 4.445a7.5 7.5 0 0 0 1.629 1.047c.34.16.36.152.355-.211a7 7 0 0 0-.011-.7c-.184-1.484-.211-2.976-.247-4.464a.57.57 0 0 0-.27-.512c-.558-.39-1.034-.863-1.339-1.484-.687-1.407-.539-3.434 1.184-4.672.199-.145.316-.277.289-.543a2.6 2.6 0 0 1 .047-.645c.254-1.726 1.082-3.109 2.5-4.129.992-.714 2.097-1.12 3.324-1.136.703-.012 1.387.16 2.058.355 2.34.68 4.137 3.008 4.137 5.375a.92.92 0 0 0 .39.82c.673.54 1.192 1.208 1.372 2.075.316 1.566-.121 2.883-1.426 3.832-.387.281-.504.59-.484 1.011q.004.105-.004.211-.043 1.043-.09 2.09c-.035.852-.195 1.696-.168 2.551.012.324.008.328.293.188a11 11 0 0 0 3.48-2.77c1.918-2.293 3.016-4.902 2.993-8.012M13.758 18.2a2.82 2.82 0 0 0 2.465-1.387 2.82 2.82 0 0 0 .011-2.832 2.82 2.82 0 0 0-2.453-1.41c-1.59-.004-2.84 1.196-2.847 2.735-.004 1.672 1.183 2.886 2.824 2.894m8.426 0c1.601.004 2.812-1.199 2.812-2.789 0-1.586-1.226-2.832-2.789-2.828-1.55 0-2.824 1.258-2.828 2.781-.004 1.606 1.207 2.832 2.805 2.836m-2.141 2.817c-.305.187-.59.402-.914.558-.781.375-1.547.375-2.3-.07-.227-.137-.446-.293-.673-.434-.07-.043-.136-.148-.218-.09-.067.043-.016.145 0 .22.05.26.093.527.117.792.039.82.425 1.442 1.082 1.903.324.253.742.351 1.148.27.82-.173 1.488-.892 1.633-1.77.062-.387.008-.79.16-1.168a.19.19 0 0 0-.035-.211m0 0"
  />
  <path
    d="M7.273 13.86c-.015-1.602.211-2.989.79-4.305.917-2.098 2.386-3.715 4.328-4.907a.56.56 0 0 1 .672.098c.085.086.05.172.011.258a1.6 1.6 0 0 1-.695.742c-1.57.93-2.66 2.285-3.426 3.91a9.15 9.15 0 0 0-.902 4.34c.082 1.902.64 3.66 1.765 5.219.13.152.215.336.25.531.016.117.086.242-.043.332a.46.46 0 0 1-.421.059.77.77 0 0 1-.34-.27c-1.047-1.422-1.735-2.988-1.934-4.762-.055-.472-.008-.945-.055-1.246M13.5 4.004a.55.55 0 0 1 .55-.559c.31.004.595.332.606.692.004.199-.449.566-.695.558-.274-.008-.461-.289-.461-.691m-.676 10.879a.887.887 0 0 1 .852-.922c.554 0 .976.394.98.922.008.515-.39.906-.926.902-.554 0-.906-.351-.906-.902m9.45.902c-.56-.004-.91-.37-.907-.937a.927.927 0 0 1 .867-.895c.528-.008.961.41.973.938 0 .511-.402.898-.937.894Zm0 0"
  />
</svg>