<!--
Licensed to the Apache Software Foundation (ASF) under one or more
contributor license agreements.  See the NOTICE file distributed with
this work for additional information regarding copyright ownership.
The ASF licenses this file to You under the Apache License, Version 2.0
(the "License"); you may not use this file except in compliance with
the License.  You may obtain a copy of the License at

    http://www.apache.org/licenses/LICENSE-2.0

Unless required by applicable law or agreed to in writing, software
distributed under the License is distributed on an "AS IS" BASIS,
WITHOUT WARRANTIES OR CONDITIONS OF ANY KIND, either express or implied.
See the License for the specific language governing permissions and
limitations under the License.
-->

<svg width="54" height="54" viewBox="0 0 54 54" fill="currentColor" xmlns="http://www.w3.org/2000/svg">
  <path fill-rule="evenodd" clip-rule="evenodd" d="M27 4C14.317 4 4 14.317 4 27s10.317 23 23 23 23-10.317 23-23S39.683 4 27 4zm0 4c10.493 0 19 8.507 19 19s-8.507 19-19 19-19-8.507-19-19 8.507-19 19-19zm-4 8v6h4v-6h-4zm0 10v10h4V26h-4zm10-10v6h4v-6h-4zm0 10v10h4V26h-4z"/>
</svg>
