<svg width="100" height="100" viewBox="0 0 60 60" fill="none" xmlns="http://www.w3.org/2000/svg">
<path fill-rule="evenodd" clip-rule="evenodd" d="M30 4C44.3597 4 56 15.6403 56 30C56 44.3597 44.3597 56 30 56C15.6403 56 4 44.3597 4 30C4 15.6403 15.6403 4 30 4ZM43.1616 15.5556C43.1614 15.5556 43.1611 15.5556 43.1608 15.5564H25.1856C19.8673 15.5564 15.5557 19.8677 15.5557 25.1863V43.1615C15.5557 43.8706 16.1305 44.4454 16.8396 44.4454H35.7781C40.5645 44.4454 44.4447 40.5653 44.4447 35.7789V28.3962C44.4447 27.6871 43.8698 27.1123 43.1607 27.1123H28.3949C27.6859 27.1126 27.1112 27.6873 27.1106 28.3962L27.1098 31.606C27.1093 32.2734 27.6183 32.8221 28.2694 32.8845L28.3931 32.8903C28.3929 32.8907 28.3932 32.8903 28.3931 32.8903L37.3827 32.8899C38.0501 32.8899 38.5985 33.3991 38.6607 34.0502L38.6666 34.1739V34.8158C38.6666 36.9431 36.942 38.6677 34.8147 38.6677H22.6164C21.9074 38.6677 21.3326 38.0929 21.3325 37.3839L21.3322 25.1864C21.332 23.1236 22.9537 21.4394 24.9916 21.3391L25.184 21.3345H43.1573C43.8661 21.3337 44.4409 20.7593 44.4421 20.0505L44.444 16.8407C44.4453 16.1316 43.8707 15.556 43.1616 15.5556Z" fill="#7497F7"/>
</svg>
