<!--
Licensed to the Apache Software Foundation (ASF) under one or more
contributor license agreements.  See the NOTICE file distributed with
this work for additional information regarding copyright ownership.
The ASF licenses this file to You under the Apache License, Version 2.0
(the "License"); you may not use this file except in compliance with
the License.  You may obtain a copy of the License at

    http://www.apache.org/licenses/LICENSE-2.0

Unless required by applicable law or agreed to in writing, software
distributed under the License is distributed on an "AS IS" BASIS,
WITHOUT WARRANTIES OR CONDITIONS OF ANY KIND, either express or implied.
See the License for the specific language governing permissions and
limitations under the License.
-->
<svg width="100" height="100" viewBox="0 0 36 36" fill="none" xmlns="http://www.w3.org/2000/svg">
<path d="M18 3C9.7125 3 3 9.7125 3 18C2.9983 21.1489 3.98822 24.2184 5.82933 26.773C7.67043 29.3276 10.2692 31.2376 13.257 32.232C14.007 32.3625 14.2875 31.9125 14.2875 31.518C14.2875 31.1625 14.268 29.982 14.268 28.725C10.5 29.4195 9.525 27.807 9.225 26.9625C9.0555 26.5305 8.325 25.2 7.6875 24.843C7.1625 24.5625 6.4125 23.868 7.668 23.85C8.85 23.8305 9.693 24.9375 9.975 25.3875C11.325 27.6555 13.482 27.018 14.343 26.625C14.475 25.65 14.868 24.9945 15.3 24.6195C11.9625 24.2445 8.475 22.95 8.475 17.2125C8.475 15.5805 9.0555 14.232 10.0125 13.1805C9.8625 12.8055 9.3375 11.268 10.1625 9.2055C10.1625 9.2055 11.418 8.8125 14.2875 10.7445C15.5086 10.4056 16.7703 10.235 18.0375 10.2375C19.3125 10.2375 20.5875 10.4055 21.7875 10.743C24.6555 8.793 25.9125 9.207 25.9125 9.207C26.7375 11.2695 26.2125 12.807 26.0625 13.182C27.018 14.232 27.6 15.5625 27.6 17.2125C27.6 22.9695 24.0945 24.2445 20.757 24.6195C21.3 25.0875 21.7695 25.9875 21.7695 27.3945C21.7695 29.4 21.75 31.0125 21.75 31.5195C21.75 31.9125 22.032 32.3805 22.782 32.2305C25.7595 31.2252 28.3469 29.3115 30.1799 26.7587C32.0128 24.206 32.9992 21.1427 33 18C33 9.7125 26.2875 3 18 3Z" fill="#7497F7"/>
</svg>
