<?xml version="1.0"?><svg fill="#000000" xmlns="http://www.w3.org/2000/svg"  viewBox="0 0 64 64" width="100" height="100">    <path d="M 32 4 C 23.296 4 15.285 7.9443125 10 14.695312 L 10 11 C 10 10.448 9.552 10 9 10 L 3 10 C 2.448 10 2 10.448 2 11 L 2 27 C 2 27.552 2.448 28 3 28 L 19 28 C 19.552 28 20 27.552 20 27 L 20 21 C 20 20.448 19.552 20 19 20 L 16.023438 20 C 19.792438 14.959 25.64 12 32 12 C 37.089 12 41.803906 13.969031 45.378906 17.207031 L 43.285156 19.300781 C 42.180156 18.317781 40.960625 17.473594 39.640625 16.808594 C 39.148625 16.559594 38.544875 16.759953 38.296875 17.251953 C 38.047875 17.744953 38.247234 18.347703 38.740234 18.595703 C 39.870234 19.164703 40.916141 19.882797 41.869141 20.716797 L 17.208984 45.376953 C 14.610984 42.509953 12.807516 38.894422 12.228516 34.857422 C 12.158516 34.366422 11.735281 34 11.238281 34 L 5.1699219 34 C 4.8859219 34 4.6157813 34.120031 4.4257812 34.332031 C 4.2367812 34.544031 4.1447812 34.826375 4.1757812 35.109375 C 4.8607813 41.300375 7.5240938 46.826844 11.496094 51.089844 L 4.2929688 58.292969 C 3.9019687 58.683969 3.9019687 59.316031 4.2929688 59.707031 C 4.4879688 59.902031 4.744 60 5 60 C 5.256 60 5.5120312 59.902031 5.7070312 59.707031 L 12.914062 52.5 C 17.934063 57.171 24.657 60 32 60 C 40.704 60 48.715 56.055688 54 49.304688 L 54 53 C 54 53.552 54.448 54 55 54 L 61 54 C 61.552 54 62 53.552 62 53 L 62 37 C 62 36.448 61.552 36 61 36 L 45 36 C 44.448 36 44 36.448 44 37 L 44 43 C 44 43.552 44.448 44 45 44 L 47.976562 44 C 44.207563 49.041 38.36 52 32 52 C 26.911 52 22.196094 50.030969 18.621094 46.792969 L 46.791016 18.623047 C 49.389016 21.490047 51.192484 25.105578 51.771484 29.142578 C 51.841484 29.634578 52.263719 30 52.761719 30 L 58.830078 30 C 59.114078 30 59.386172 29.879969 59.576172 29.667969 C 59.765172 29.455969 59.855219 29.173625 59.824219 28.890625 C 59.139219 22.699625 56.477859 17.173156 52.505859 12.910156 L 59.707031 5.7070312 C 60.098031 5.3160312 60.098031 4.6839688 59.707031 4.2929688 C 59.316031 3.9019687 58.685922 3.9019687 58.294922 4.2929688 L 51.085938 11.5 C 46.065938 6.829 39.343 4 32 4 z M 32 6 C 38.793 6 45.003203 8.6197344 49.658203 12.927734 L 46.789062 15.796875 C 42.847062 12.195875 37.633 10 32 10 C 24.324 10 17.326203 13.915609 13.283203 20.474609 C 13.093203 20.783609 13.084719 21.170328 13.261719 21.486328 C 13.438719 21.802328 13.772766 22 14.134766 22 L 18 22 L 18 26 L 4 26 L 4 12 L 8 12 L 8 17.882812 C 8 18.329812 8.2975156 18.723703 8.7285156 18.845703 C 9.1585156 18.966703 9.6165625 18.78725 9.8515625 18.40625 C 14.626563 10.63825 22.907 6 32 6 z M 51.074219 14.339844 C 54.497219 18.034844 56.879453 22.727 57.689453 28 L 53.609375 28 C 52.847375 23.868 50.912125 20.172937 48.203125 17.210938 L 51.074219 14.339844 z M 31.417969 15.023438 C 28.751768 15.120537 26.103359 15.829219 23.771484 17.121094 C 23.288484 17.389094 23.112859 17.997469 23.380859 18.480469 C 23.563859 18.809469 23.905812 18.996094 24.257812 18.996094 C 24.421813 18.996094 24.586234 18.956094 24.740234 18.871094 C 28.031234 17.048094 32.044641 16.537078 35.681641 17.455078 C 36.219641 17.590078 36.762484 17.265469 36.896484 16.730469 C 37.031484 16.194469 36.707875 15.652578 36.171875 15.517578 C 34.624625 15.127578 33.017689 14.965178 31.417969 15.023438 z M 6.3105469 36 L 10.390625 36 C 11.152625 40.132 13.087875 43.827063 15.796875 46.789062 L 12.925781 49.660156 C 9.5027812 45.965156 7.1205469 41.273 6.3105469 36 z M 46 38 L 60 38 L 60 52 L 56 52 L 56 46.117188 C 56 45.670187 55.702484 45.276297 55.271484 45.154297 C 54.838484 45.032297 54.382438 45.21175 54.148438 45.59375 C 49.373438 53.36175 41.093 58 32 58 C 25.207 58 18.996797 55.380266 14.341797 51.072266 L 17.210938 48.203125 C 21.152938 51.804125 26.367 54 32 54 C 39.676 54 46.673797 50.084391 50.716797 43.525391 C 50.906797 43.216391 50.915281 42.829672 50.738281 42.513672 C 50.561281 42.197672 50.227234 42 49.865234 42 L 46 42 L 46 38 z M 26.642578 43.992188 C 26.252906 43.99875 25.885719 44.233187 25.730469 44.617188 L 24.863281 46.761719 C 24.656281 47.273719 24.905969 47.857453 25.417969 48.064453 C 25.540969 48.113453 25.667016 48.136719 25.791016 48.136719 C 26.187016 48.136719 26.56175 47.900719 26.71875 47.511719 L 27.585938 45.367188 C 27.792938 44.855187 27.54325 44.271453 27.03125 44.064453 C 26.90325 44.012953 26.772469 43.99 26.642578 43.992188 z M 37.3125 44.042969 C 37.182578 44.043047 37.050828 44.069297 36.923828 44.123047 C 36.415828 44.339047 36.176578 44.925594 36.392578 45.433594 L 37.234375 47.419922 C 37.396375 47.800922 37.76725 48.029297 38.15625 48.029297 C 38.28625 48.029297 38.419875 48.003219 38.546875 47.949219 C 39.054875 47.733219 39.292172 47.146672 39.076172 46.638672 L 38.234375 44.652344 C 38.073125 44.271344 37.702266 44.042734 37.3125 44.042969 z M 31.84375 45 C 31.29175 45 30.84375 45.448 30.84375 46 L 30.84375 48.3125 C 30.84375 48.8645 31.29175 49.3125 31.84375 49.3125 C 32.39575 49.3125 32.84375 48.8645 32.84375 48.3125 L 32.84375 46 C 32.84375 45.448 32.39575 45 31.84375 45 z"/></svg>