<svg version="1.1" xmlns="http://www.w3.org/2000/svg" height="1024" width="1024" viewBox="0 0 1024 1024">
    <path d="M438.857143 932.571429c-193.828571 0-347.428571-157.257143-347.428572-347.428572 0-10.971429 7.314286-18.285714 18.285715-18.285714h329.142857c10.971429 0 18.285714 7.314286 18.285714 18.285714v329.142857c0 10.971429-7.314286 18.285714-18.285714 18.285715z m-307.2-329.142858c10.971429 153.6 135.314286 277.942857 288.914286 288.914286v-288.914286h-288.914286zM512 932.571429c-10.971429 0-18.285714-7.314286-18.285714-18.285715v-329.142857c0-10.971429 7.314286-18.285714 18.285714-18.285714h329.142857c10.971429 0 18.285714 7.314286 18.285714 18.285714 0 193.828571-153.6 347.428571-347.428571 347.428572z m18.285714-329.142858v288.914286c153.6-10.971429 277.942857-135.314286 288.914286-288.914286h-288.914286zM438.857143 530.285714h-329.142857c-10.971429 0-18.285714-7.314286-18.285715-18.285714 0-193.828571 157.257143-347.428571 347.428572-347.428571 10.971429 0 18.285714 7.314286 18.285714 18.285714v329.142857c0 10.971429-7.314286 18.285714-18.285714 18.285714z m-307.2-36.571428h288.914286v-288.914286c-157.257143 7.314286-281.6 131.657143-288.914286 288.914286zM914.285714 493.714286h-365.714285c-32.914286 0-54.857143-25.6-54.857143-54.857143v-256c0-32.914286 25.6-54.857143 54.857143-54.857143h365.714285c32.914286 0 54.857143 25.6 54.857143 54.857143v256c0 32.914286-21.942857 54.857143-54.857143 54.857143z m-365.714285-329.142857c-7.314286 0-18.285714 7.314286-18.285715 18.285714v256c0 7.314286 7.314286 18.285714 18.285715 18.285714h365.714285c7.314286 0 18.285714-7.314286 18.285715-18.285714v-256c0-7.314286-7.314286-18.285714-18.285715-18.285714h-365.714285z"/>
    <path d="M727.771429 365.714286c-3.657143 0-7.314286 0-10.971429-3.657143l-219.428571-175.542857 21.942857-29.257143 208.457143 168.228571 215.771428-168.228571 21.942857 29.257143-226.742857 175.542857c-3.657143 3.657143-7.314286 3.657143-10.971428 3.657143z"/>
</svg>