<svg width="100" height="100" viewBox="0 0 100 13" fill="none" xmlns="http://www.w3.org/2000/svg">
<path fill-rule="evenodd" clip-rule="evenodd" d="M1.85853 9.7561H0L2.06835 2.20723C2.4255 0.903737 3.61017 0 4.96171 0H6.00651C7.15817 0 8.07188 0.970163 8.00292 2.11976L7.54484 9.7561H5.74167L6.01464 6.38223H2.77185L1.85853 9.7561ZM6.35354 2.19474L6.14328 4.7937H3.20176L3.88088 2.28505C3.9989 1.84909 4.39449 1.54636 4.84614 1.54636H5.7555C6.10594 1.54636 6.3818 1.84543 6.35354 2.19474ZM37.9166 3.81498L36.9686 9.90796H35.3434L36.2102 4.35017C36.2643 3.95221 36.1831 3.93848 35.8445 3.93848H33.2443L32.3234 9.90796H30.6982L32.2673 0H33.8925L33.5016 2.36035H36.6571C37.6728 2.36035 38.1062 2.59364 37.9166 3.81498ZM15.0191 8.45333C14.8295 9.67467 14.3284 9.90796 13.3127 9.90796H10.1572L9.75516 12.1951H8.13001L9.48007 3.81498C9.66967 2.59364 10.1843 2.36035 11.2 2.36035H14.4909C15.5066 2.36035 15.94 2.59364 15.7504 3.81498L15.0191 8.45333ZM13.0012 8.32983C13.3398 8.32983 13.421 8.3161 13.4752 7.91814L14.044 4.35017C14.0982 3.95221 14.0169 3.93848 13.6784 3.93848H11.498C11.1594 3.93848 11.0781 3.95221 11.024 4.35017L10.401 8.32983H13.0012ZM22.6338 8.45333C22.4442 9.67467 21.9431 9.90796 20.9274 9.90796H17.6365C16.6208 9.90796 16.1738 9.67467 16.3634 8.45333L16.6478 6.6419C16.8374 5.42056 17.3521 5.18727 18.3678 5.18727H21.5233L21.6587 4.35017C21.7129 3.95221 21.6316 3.93848 21.293 3.93848H17.2166L17.474 2.36035H22.1056C23.1213 2.36035 23.5547 2.59364 23.3651 3.81498L22.6338 8.45333ZM20.6159 8.32983C20.9545 8.32983 21.0357 8.3161 21.0899 7.91814L21.2795 6.76541H18.6793C18.3407 6.76541 18.2594 6.77913 18.1917 7.1771L18.0698 7.91814C18.0157 8.3161 18.0969 8.32983 18.4355 8.32983H20.6159ZM29.4394 9.90796L29.6831 8.32983H26.162C25.8234 8.32983 25.7422 8.3161 25.7963 7.91814L26.3651 4.35017C26.4193 3.95221 26.5006 3.93848 26.8391 3.93848H30.3603L30.6176 2.36035H26.5412C25.5255 2.36035 25.0109 2.59364 24.8213 3.81498L24.0899 8.45333C23.9003 9.67467 24.3473 9.90796 25.363 9.90796H29.4394ZM44.4201 9.90796L44.6639 8.32983H40.7364C40.3979 8.32983 40.3166 8.3161 40.3708 7.91814L40.5198 6.98498H43.6752C44.691 6.98498 45.2056 6.75169 45.3952 5.53035L45.666 3.81498C45.8556 2.59364 45.4223 2.36035 44.4066 2.36035H41.1156C40.0999 2.36035 39.5853 2.59364 39.3957 3.81498L38.6644 8.45333C38.4748 9.67467 38.9217 9.90796 39.9374 9.90796H44.4201ZM43.8513 4.99515C43.7971 5.39312 43.7023 5.40684 43.3638 5.40684H40.7635L40.9396 4.35017C40.9938 3.95221 41.075 3.93848 41.4136 3.93848H43.594C43.9326 3.93848 44.0138 3.95221 43.9596 4.35017L43.8513 4.99515ZM55.9318 8.45333C55.7422 9.67467 55.2412 9.90796 54.2254 9.90796H48.7406L50.2845 0H55.7693C56.785 0 57.2184 0.23329 57.0288 1.45463L55.9318 8.45333ZM53.914 8.32983C54.2932 8.32983 54.3338 8.3161 54.388 7.93186L55.3224 1.98983C55.3766 1.59186 55.3089 1.57814 54.9703 1.57814H51.6658L50.6095 8.32983H53.914ZM63.2664 9.90796L63.5101 8.32983H59.5827C59.2441 8.32983 59.1629 8.3161 59.217 7.91814L59.366 6.98498H62.5215C63.5372 6.98498 64.0518 6.75169 64.2414 5.53035L64.5123 3.81498C64.7019 2.59364 64.2685 2.36035 63.2528 2.36035H59.9619C58.9462 2.36035 58.4316 2.59364 58.242 3.81498L57.5107 8.45333C57.321 9.67467 57.768 9.90796 58.7837 9.90796H63.2664ZM62.6976 4.99515C62.6434 5.39312 62.5486 5.40684 62.21 5.40684H59.6098L59.7858 4.35017C59.84 3.95221 59.9213 3.93848 60.2598 3.93848H62.4403C62.7788 3.93848 62.8601 3.95221 62.8059 4.35017L62.6976 4.99515ZM71.9554 2.36035L68.5156 9.90796H66.4841L65.3871 2.36035H67.1071L67.7843 8.05537L70.2626 2.36035H71.9554ZM77.5631 9.90796L77.8069 8.32983H73.6086L74.9087 0H73.2836L71.7397 9.90796H77.5631ZM84.7934 8.45333C84.6038 9.67467 84.1028 9.90796 83.087 9.90796H79.7961C78.7804 9.90796 78.3335 9.67467 78.5231 8.45333L78.8075 6.6419C78.9971 5.42056 79.5117 5.18727 80.5274 5.18727H83.6829L83.8184 4.35017C83.8725 3.95221 83.7913 3.93848 83.4527 3.93848H79.3763L79.6336 2.36035H84.2653C85.281 2.36035 85.7144 2.59364 85.5248 3.81498L84.7934 8.45333ZM82.7756 8.32983C83.1141 8.32983 83.1954 8.3161 83.2496 7.91814L83.4392 6.76541H80.8389C80.5004 6.76541 80.4191 6.77913 80.3514 7.1771L80.2295 7.91814C80.1753 8.3161 80.2566 8.32983 80.5952 8.32983H82.7756ZM91.9105 9.90796L90.2177 6.1616L93.1429 2.36035H91.3824L89.0395 5.37939H88.3894L89.2208 0H87.5956L86.06 9.90796H87.6852L88.1456 6.95753H88.8228L90.15 9.90796H91.9105ZM98.9544 8.32983L98.7106 9.90796H94.228C93.2122 9.90796 92.7653 9.67467 92.9549 8.45333L93.6862 3.81498C93.8758 2.59364 94.3905 2.36035 95.4062 2.36035H98.6971C99.7128 2.36035 100.146 2.59364 99.9566 3.81498L99.6857 5.53035C99.4961 6.75169 98.9815 6.98498 97.9658 6.98498H94.8103L94.6613 7.91814C94.6071 8.3161 94.6884 8.32983 95.027 8.32983H98.9544ZM97.6543 5.40684C97.9929 5.40684 98.0877 5.39312 98.1418 4.99515L98.2502 4.35017C98.3044 3.95221 98.2231 3.93848 97.8845 3.93848H95.7041C95.3656 3.93848 95.2843 3.95221 95.2301 4.35017L95.0541 5.40684H97.6543Z" fill="#7497F7"/>
</svg>
