<svg width="100" height="100" viewBox="0 0 48 48" fill="none" xmlns="http://www.w3.org/2000/svg">
<circle cx="24" cy="24" r="24" fill="#7497F7"/>
<path d="M36.3565 28.2413C34.8541 28.2762 33.4745 28.1777 32.198 27.9751C33.6367 26.6784 34.4828 24.8944 34.3781 22.9664C34.2789 21.1452 33.3483 19.5357 31.9202 18.3944C33.8344 17.5795 36.0517 16.3076 37.1975 14.4932C38.527 12.3879 37.7124 10.6129 37.0612 9.69778C36.801 9.33198 36.1886 9.29821 35.8106 9.63081L27.782 16.6965C27.3573 16.6453 26.9218 16.625 26.479 16.6363C27.8254 15.0447 29.1492 12.9501 29.5075 10.596C29.9739 7.53166 28.3696 6.0403 27.3037 5.40211C26.8779 5.14717 26.2317 5.45501 25.9844 6.03411L19.6413 20.4958C19.1011 21.4722 18.8239 22.573 18.887 23.725C19.0892 27.4275 22.721 30.2588 26.9984 30.0495C27.7443 30.0129 28.4603 29.8863 29.134 29.6825C28.0654 30.0962 26.8976 30.3241 25.674 30.3241C20.573 30.3241 16.4376 26.3672 16.4376 21.4863C16.4376 20.744 16.534 20.023 16.7142 19.3342C14.4029 17.8012 12.0279 16.8878 8.9408 17.5603C1.78817 19.1181 4.49329 24.7723 8.24339 22.5471C9.67651 21.6967 12.4092 21.0754 13.0148 23.2804C13.804 26.1534 10.3204 25.5202 7.36291 31.09C13.159 28.9791 17.9259 29.0292 23.5604 30.6871C35.3267 34.1493 42.5717 32.448 42.5588 30.023C42.5464 27.791 39.5444 28.1681 36.3576 28.2424L36.3565 28.2413Z" fill="white"/>
<path d="M23.4341 21.6448C23.4341 22.6578 24.256 23.4783 25.2694 23.4783C26.2834 23.4783 27.1048 22.6578 27.1048 21.6448C27.1048 20.6318 26.2834 19.8113 25.2694 19.8113C24.2554 19.8113 23.4341 20.6318 23.4341 21.6448Z" fill="#FF8B8B"/>
<path fill-rule="evenodd" clip-rule="evenodd" d="M5.81165 39.6587C4.55094 38.1957 3.46375 36.5788 2.58203 34.8402C6.00017 33.819 10.6322 32.8665 15.667 32.8665C19.4684 32.8665 22.3446 33.5767 25.0905 34.2558L25.134 34.2666C27.8411 34.9361 30.4856 35.5902 34.1912 35.7548C38.5009 35.9463 42.5512 34.949 45.8368 33.972C44.6821 36.4964 43.1025 38.7859 41.1895 40.7489C38.9327 41.1367 36.4783 41.368 33.9468 41.2555C29.6929 41.0665 26.6085 40.3034 23.8871 39.6302L23.7685 39.6008C21.0418 38.9265 18.7375 38.3725 15.667 38.3725C11.9727 38.3725 8.53756 38.964 5.81165 39.6587Z" fill="white"/>
</svg>
