<svg xmlns="http://www.w3.org/2000/svg" viewBox="0 0 80 47.66"><g data-name="Layer 2"><path fill="#e8471c" d="M79.78 45.16L67 23 54.23.86A1.59 1.59 0 0054 .49a1.69 1.69 0 00-2.2-.15 1.74 1.74 0 00-.47.58L40 20.49 28.68.86a2 2 0 00-.28-.37 1.68 1.68 0 00-2.19-.15 1.66 1.66 0 00-.48.58L13 23l-.05.1L.22 45.16a1.69 1.69 0 000 1.66 1.67 1.67 0 001.45.84h25.55a1.67 1.67 0 001.45-.84L40 27.17l11.34 19.65a1.64 1.64 0 001.44.84h25.55a1.67 1.67 0 001.45-.84 1.69 1.69 0 000-1.66zM52.78 5l10.85 18.83-10.85 18.82-10.86-18.82L52.78 5zM27.22 5l10.86 18.83-10.86 18.82-10.85-18.82L27.22 5zM4.55 44.32l9.89-17.15 9.9 17.15zm51.12 0l9.89-17.15 9.89 17.15z" data-name="Layer 1"/></g></svg>
