<!--
Licensed to the Apache Software Foundation (ASF) under one or more
contributor license agreements.  See the NOTICE file distributed with
this work for additional information regarding copyright ownership.
The ASF licenses this file to You under the Apache License, Version 2.0
(the "License"); you may not use this file except in compliance with
the License.  You may obtain a copy of the License at

    http://www.apache.org/licenses/LICENSE-2.0

Unless required by applicable law or agreed to in writing, software
distributed under the License is distributed on an "AS IS" BASIS,
WITHOUT WARRANTIES OR CONDITIONS OF ANY KIND, either express or implied.
See the License for the specific language governing permissions and
limitations under the License.
-->
<svg width="187" height="36" viewBox="0 0 187 36" fill="none" xmlns="http://www.w3.org/2000/svg">
  <circle cx="18" cy="18" r="18" fill="#7497F7" />
  <path
    d="M27.2666 21.181C26.1398 21.2072 25.1051 21.1333 24.1477 20.9814C25.2268 20.0089 25.8614 18.6709 25.7828 17.2248C25.7085 15.859 25.0105 14.6518 23.9395 13.7958C25.3751 13.1847 27.0381 12.2308 27.8974 10.87C28.8945 9.29095 28.2836 7.9597 27.7952 7.2734C27.6 6.99904 27.1407 6.97372 26.8572 7.22317L20.8358 12.5224C20.5172 12.484 20.1906 12.4688 19.8585 12.4773C20.8683 11.2836 21.8612 9.71261 22.1299 7.94704C22.4797 5.6488 21.2764 4.53028 20.4771 4.05164C20.1577 3.86044 19.6731 4.09132 19.4876 4.52564L14.7302 15.3719C14.3251 16.1042 14.1172 16.9298 14.1645 17.7938C14.3162 20.5707 17.04 22.6942 20.2481 22.5372C20.8075 22.5097 21.3445 22.4148 21.8498 22.262C21.0483 22.5722 20.1725 22.7431 19.2548 22.7431C15.4291 22.7431 12.3275 19.7755 12.3275 16.1148C12.3275 15.558 12.3997 15.0173 12.5349 14.5007C10.8014 13.351 9.02016 12.6659 6.70487 13.1703C1.3404 14.3386 3.36924 18.5793 6.18181 16.9104C7.25665 16.2726 9.30619 15.8066 9.76038 17.4604C10.3523 19.6151 7.73957 19.1402 5.52145 23.3176C9.86854 21.7344 13.4437 21.7719 17.6696 23.0154C26.4943 25.612 31.9281 24.3361 31.9183 22.5173C31.9091 20.8433 29.6576 21.1261 27.2675 21.1819L27.2666 21.181Z"
    fill="white" />
  <path
    d="M17.5752 16.2335C17.5752 16.9933 18.1916 17.6087 18.9517 17.6087C19.7122 17.6087 20.3282 16.9933 20.3282 16.2335C20.3282 15.4738 19.7122 14.8584 18.9517 14.8584C18.1912 14.8584 17.5752 15.4738 17.5752 16.2335Z"
    fill="#FF8B8B" />
  <path fill-rule="evenodd" clip-rule="evenodd"
    d="M4.87944 30.3233C3.55275 28.9114 2.4514 27.2852 1.63281 25.5023C4.26934 24.7055 7.85283 23.9614 11.7492 23.9614C14.6874 23.9614 16.9138 24.5121 18.9732 25.0214L18.9821 25.0236L19.0035 25.0289C21.0338 25.531 22.9621 26.0079 25.6729 26.1284C29.0401 26.278 32.1903 25.4279 34.7304 24.6526C33.6961 27.2516 32.0737 29.5527 30.0276 31.3917C28.5696 31.5943 27.0189 31.6997 25.4285 31.629C22.1695 31.4842 19.8012 30.8983 17.757 30.3926L17.6601 30.3686C15.6174 29.8634 13.9607 29.4675 11.7492 29.4675C9.19503 29.4675 6.8114 29.8543 4.87944 30.3233Z"
    fill="white" />
  <path fill-rule="evenodd" clip-rule="evenodd"
    d="M43.7135 26.2439H41L44.298 14.2072C44.6551 12.9037 45.8398 12 47.1914 12H50.7464C51.898 12 52.8117 12.9702 52.7428 14.1198L52.0155 26.2439H49.3829L49.7814 21.3181H45.0469L43.7135 26.2439ZM50.3003 14.9061L49.9692 18.9988H45.6746L46.7581 14.9964C46.8761 14.5604 47.2717 14.2577 47.7233 14.2577H49.7023C50.0527 14.2577 50.3286 14.5568 50.3003 14.9061ZM96.3583 17.5699L94.9742 26.4657H92.6015L93.8669 18.3513C93.946 17.7702 93.8274 17.7502 93.3331 17.7502H89.5367L88.1922 26.4657H85.8195L88.1104 12H90.4831L89.9124 15.4461H94.5194C96.0024 15.4461 96.6351 15.7867 96.3583 17.5699ZM62.9279 24.3419C62.6511 26.1251 61.9195 26.4657 60.4365 26.4657H55.8295L55.2425 29.8049H52.8698L54.8409 17.5699C55.1177 15.7867 55.8691 15.4461 57.352 15.4461H62.1568C63.6397 15.4461 64.2724 15.7867 63.9956 17.5699L62.9279 24.3419ZM59.9818 24.1616C60.4761 24.1616 60.5947 24.1415 60.6738 23.5605L61.5043 18.3513C61.5834 17.7702 61.4647 17.7502 60.9704 17.7502H57.787C57.2927 17.7502 57.1741 17.7702 57.095 18.3513L56.1854 24.1616H59.9818ZM74.0453 24.3419C73.7685 26.1251 73.0369 26.4657 71.554 26.4657H66.7493C65.2663 26.4657 64.6138 26.1251 64.8906 24.3419L65.3059 21.6972C65.5827 19.914 66.334 19.5734 67.817 19.5734H72.424L72.6217 18.3513C72.7008 17.7702 72.5822 17.7502 72.0879 17.7502H66.1363L66.512 15.4461H73.2742C74.7572 15.4461 75.3899 15.7867 75.1131 17.5699L74.0453 24.3419ZM71.0992 24.1616C71.5935 24.1616 71.7122 24.1415 71.7913 23.5605L72.0681 21.8775H68.2717C67.7774 21.8775 67.6588 21.8976 67.5599 22.4786L67.382 23.5605C67.3029 24.1415 67.4215 24.1616 67.9158 24.1616H71.0992ZM83.9815 26.4657L84.3374 24.1616H79.1966C78.7022 24.1616 78.5836 24.1415 78.6627 23.5605L79.4931 18.3513C79.5722 17.7702 79.6909 17.7502 80.1852 17.7502H85.3261L85.7017 15.4461H79.7502C78.2672 15.4461 77.5159 15.7867 77.2391 17.5699L76.1713 24.3419C75.8945 26.1251 76.547 26.4657 78.03 26.4657H83.9815ZM105.853 26.4657L106.209 24.1616H100.475C99.981 24.1616 99.8623 24.1415 99.9414 23.5605L100.159 22.1981H104.766C106.249 22.1981 107 21.8575 107.277 20.0743L107.673 17.5699C107.949 15.7867 107.317 15.4461 105.834 15.4461H101.029C99.546 15.4461 98.7946 15.7867 98.5178 17.5699L97.4501 24.3419C97.1733 26.1251 97.8258 26.4657 99.3087 26.4657H105.853ZM105.023 19.2929C104.944 19.874 104.806 19.894 104.311 19.894H100.515L100.772 18.3513C100.851 17.7702 100.97 17.7502 101.464 17.7502H104.647C105.142 17.7502 105.26 17.7702 105.181 18.3513L105.023 19.2929ZM122.661 24.3419C122.384 26.1251 121.652 26.4657 120.169 26.4657H112.161L114.415 12H122.423C123.906 12 124.539 12.3406 124.262 14.1238L122.661 24.3419ZM119.715 24.1616C120.268 24.1616 120.327 24.1415 120.407 23.5805L121.771 14.9052C121.85 14.3241 121.751 14.3041 121.257 14.3041H116.432L114.89 24.1616H119.715ZM133.369 26.4657L133.725 24.1616H127.991C127.497 24.1616 127.378 24.1415 127.457 23.5605L127.675 22.1981H132.282C133.764 22.1981 134.516 21.8575 134.793 20.0743L135.188 17.5699C135.465 15.7867 134.832 15.4461 133.349 15.4461H128.545C127.062 15.4461 126.31 15.7867 126.033 17.5699L124.966 24.3419C124.689 26.1251 125.341 26.4657 126.824 26.4657H133.369ZM132.539 19.2929C132.459 19.874 132.321 19.894 131.827 19.894H128.03L128.287 18.3513C128.367 17.7702 128.485 17.7502 128.98 17.7502H132.163C132.657 17.7502 132.776 17.7702 132.697 18.3513L132.539 19.2929ZM146.055 15.4461L141.033 26.4657H138.067L136.465 15.4461H138.977L139.965 23.7609L143.584 15.4461H146.055ZM154.242 26.4657L154.598 24.1616H148.469L150.367 12H147.994L145.74 26.4657H154.242ZM164.799 24.3419C164.522 26.1251 163.79 26.4657 162.307 26.4657H157.503C156.02 26.4657 155.367 26.1251 155.644 24.3419L156.059 21.6972C156.336 19.914 157.087 19.5734 158.57 19.5734H163.177L163.375 18.3513C163.454 17.7702 163.335 17.7502 162.841 17.7502H156.89L157.265 15.4461H164.028C165.51 15.4461 166.143 15.7867 165.866 17.5699L164.799 24.3419ZM161.853 24.1616C162.347 24.1616 162.465 24.1415 162.545 23.5605L162.821 21.8775H159.025C158.531 21.8775 158.412 21.8976 158.313 22.4786L158.135 23.5605C158.056 24.1415 158.175 24.1616 158.669 24.1616H161.853ZM175.19 26.4657L172.718 20.996L176.989 15.4461H174.418L170.998 19.8539H170.049L171.263 12H168.89L166.648 26.4657H169.021L169.693 22.158H170.681L172.619 26.4657H175.19ZM185.474 24.1616L185.118 26.4657H178.573C177.09 26.4657 176.438 26.1251 176.714 24.3419L177.782 17.5699C178.059 15.7867 178.81 15.4461 180.293 15.4461H185.098C186.581 15.4461 187.214 15.7867 186.937 17.5699L186.541 20.0743C186.265 21.8575 185.513 22.1981 184.03 22.1981H179.423L179.206 23.5605C179.127 24.1415 179.245 24.1616 179.74 24.1616H185.474ZM183.576 19.894C184.07 19.894 184.208 19.874 184.287 19.2929L184.446 18.3513C184.525 17.7702 184.406 17.7502 183.912 17.7502H180.728C180.234 17.7502 180.115 17.7702 180.036 18.3513L179.779 19.894H183.576Z"
    fill="#7497F7" />
</svg>
  