<svg width="100" height="69" viewBox="0 0 100 69" fill="none" xmlns="http://www.w3.org/2000/svg">
<circle cx="50" cy="24" r="24" fill="#7497F7"/>
<path d="M62.3564 28.2413C60.854 28.2762 59.4744 28.1777 58.1978 27.9751C59.6366 26.6784 60.4827 24.8944 60.3779 22.9664C60.2788 21.1452 59.3482 19.5357 57.9201 18.3944C59.8343 17.5795 62.0516 16.3076 63.1974 14.4932C64.5269 12.3879 63.7123 10.6129 63.0611 9.69778C62.8008 9.33198 62.1885 9.29821 61.8105 9.63081L53.7819 16.6965C53.3571 16.6453 52.9217 16.625 52.4789 16.6363C53.8253 15.0447 55.1491 12.9501 55.5074 10.596C55.9738 7.53166 54.3694 6.0403 53.3036 5.40211C52.8777 5.14717 52.2316 5.45501 51.9843 6.03411L45.6412 20.4958C45.1009 21.4722 44.8238 22.573 44.8869 23.725C45.0891 27.4275 48.7209 30.2588 52.9983 30.0495C53.7441 30.0129 54.4601 29.8863 55.1339 29.6825C54.0652 30.0962 52.8975 30.3241 51.6739 30.3241C46.5729 30.3241 42.4375 26.3672 42.4375 21.4863C42.4375 20.744 42.5338 20.023 42.7141 19.3342C40.4027 17.8012 38.0277 16.8878 34.9407 17.5603C27.788 19.1181 30.4932 24.7723 34.2433 22.5471C35.6764 21.6967 38.4091 21.0754 39.0147 23.2804C39.8039 26.1534 36.3203 25.5202 33.3628 31.09C39.1589 28.9791 43.9258 29.0292 49.5603 30.6871C61.3266 34.1493 68.5716 32.448 68.5587 30.023C68.5463 27.791 65.5443 28.1681 62.3575 28.2424L62.3564 28.2413Z" fill="white"/>
<path d="M49.4341 21.6449C49.4341 22.6579 50.256 23.4785 51.2694 23.4785C52.2834 23.4785 53.1048 22.6579 53.1048 21.6449C53.1048 20.6319 52.2834 19.8114 51.2694 19.8114C50.2554 19.8114 49.4341 20.6319 49.4341 21.6449Z" fill="#FF8B8B"/>
<path fill-rule="evenodd" clip-rule="evenodd" d="M31.8115 39.6587C30.5508 38.1957 29.4636 36.5788 28.5818 34.8402C32 33.819 36.632 32.8665 41.6668 32.8665C45.4683 32.8665 48.3444 33.5767 51.0903 34.2558L51.1339 34.2666C53.8409 34.9361 56.4854 35.5902 60.191 35.7548C64.5007 35.9463 68.551 34.949 71.8366 33.972C70.6819 36.4964 69.1023 38.7859 67.1894 40.7489C64.9325 41.1367 62.4782 41.368 59.9466 41.2555C55.6927 41.0665 52.6083 40.3034 49.887 39.6302L49.7684 39.6008C47.0416 38.9265 44.7373 38.3725 41.6668 38.3725C37.9725 38.3725 34.5374 38.964 31.8115 39.6587Z" fill="white"/>
<path fill-rule="evenodd" clip-rule="evenodd" d="M1.85853 65.7561H0L2.06835 58.2072C2.4255 56.9037 3.61017 56 4.96171 56H6.00651C7.15817 56 8.07188 56.9702 8.00292 58.1198L7.54484 65.7561H5.74167L6.01464 62.3822H2.77185L1.85853 65.7561ZM6.35354 58.1947L6.14328 60.7937H3.20176L3.88088 58.285C3.9989 57.8491 4.39449 57.5464 4.84614 57.5464H5.7555C6.10594 57.5464 6.3818 57.8454 6.35354 58.1947ZM37.9166 59.815L36.9686 65.908H35.3434L36.2102 60.3502C36.2643 59.9522 36.1831 59.9385 35.8445 59.9385H33.2443L32.3234 65.908H30.6982L32.2673 56H33.8925L33.5016 58.3603H36.6571C37.6728 58.3603 38.1062 58.5936 37.9166 59.815ZM15.0191 64.4533C14.8295 65.6747 14.3284 65.908 13.3127 65.908H10.1572L9.75516 68.1951H8.13001L9.48007 59.815C9.66967 58.5936 10.1843 58.3603 11.2 58.3603H14.4909C15.5066 58.3603 15.94 58.5936 15.7504 59.815L15.0191 64.4533ZM13.0012 64.3298C13.3398 64.3298 13.421 64.3161 13.4752 63.9181L14.044 60.3502C14.0982 59.9522 14.0169 59.9385 13.6784 59.9385H11.498C11.1594 59.9385 11.0781 59.9522 11.024 60.3502L10.401 64.3298H13.0012ZM22.6338 64.4533C22.4442 65.6747 21.9431 65.908 20.9274 65.908H17.6365C16.6208 65.908 16.1738 65.6747 16.3634 64.4533L16.6478 62.6419C16.8374 61.4206 17.3521 61.1873 18.3678 61.1873H21.5233L21.6587 60.3502C21.7129 59.9522 21.6316 59.9385 21.293 59.9385H17.2166L17.474 58.3603H22.1056C23.1213 58.3603 23.5547 58.5936 23.3651 59.815L22.6338 64.4533ZM20.6159 64.3298C20.9545 64.3298 21.0357 64.3161 21.0899 63.9181L21.2795 62.7654H18.6793C18.3407 62.7654 18.2594 62.7791 18.1917 63.1771L18.0698 63.9181C18.0157 64.3161 18.0969 64.3298 18.4355 64.3298H20.6159ZM29.4394 65.908L29.6831 64.3298H26.162C25.8234 64.3298 25.7422 64.3161 25.7963 63.9181L26.3651 60.3502C26.4193 59.9522 26.5006 59.9385 26.8391 59.9385H30.3603L30.6176 58.3603H26.5412C25.5255 58.3603 25.0109 58.5936 24.8213 59.815L24.0899 64.4533C23.9003 65.6747 24.3473 65.908 25.363 65.908H29.4394ZM44.4201 65.908L44.6639 64.3298H40.7364C40.3979 64.3298 40.3166 64.3161 40.3708 63.9181L40.5198 62.985H43.6752C44.691 62.985 45.2056 62.7517 45.3952 61.5303L45.666 59.815C45.8556 58.5936 45.4223 58.3603 44.4066 58.3603H41.1156C40.0999 58.3603 39.5853 58.5936 39.3957 59.815L38.6644 64.4533C38.4748 65.6747 38.9217 65.908 39.9374 65.908H44.4201ZM43.8513 60.9952C43.7971 61.3931 43.7023 61.4068 43.3638 61.4068H40.7635L40.9396 60.3502C40.9938 59.9522 41.075 59.9385 41.4136 59.9385H43.594C43.9326 59.9385 44.0138 59.9522 43.9596 60.3502L43.8513 60.9952ZM55.9318 64.4533C55.7422 65.6747 55.2412 65.908 54.2254 65.908H48.7406L50.2845 56H55.7693C56.785 56 57.2184 56.2333 57.0288 57.4546L55.9318 64.4533ZM53.914 64.3298C54.2932 64.3298 54.3338 64.3161 54.388 63.9319L55.3224 57.9898C55.3766 57.5919 55.3089 57.5781 54.9703 57.5781H51.6658L50.6095 64.3298H53.914ZM63.2664 65.908L63.5101 64.3298H59.5827C59.2441 64.3298 59.1629 64.3161 59.217 63.9181L59.366 62.985H62.5215C63.5372 62.985 64.0518 62.7517 64.2414 61.5303L64.5123 59.815C64.7019 58.5936 64.2685 58.3603 63.2528 58.3603H59.9619C58.9462 58.3603 58.4316 58.5936 58.242 59.815L57.5107 64.4533C57.321 65.6747 57.768 65.908 58.7837 65.908H63.2664ZM62.6976 60.9952C62.6434 61.3931 62.5486 61.4068 62.21 61.4068H59.6098L59.7858 60.3502C59.84 59.9522 59.9213 59.9385 60.2598 59.9385H62.4403C62.7788 59.9385 62.8601 59.9522 62.8059 60.3502L62.6976 60.9952ZM71.9554 58.3603L68.5156 65.908H66.4841L65.3871 58.3603H67.1071L67.7843 64.0554L70.2626 58.3603H71.9554ZM77.5631 65.908L77.8069 64.3298H73.6086L74.9087 56H73.2836L71.7397 65.908H77.5631ZM84.7934 64.4533C84.6038 65.6747 84.1028 65.908 83.087 65.908H79.7961C78.7804 65.908 78.3335 65.6747 78.5231 64.4533L78.8075 62.6419C78.9971 61.4206 79.5117 61.1873 80.5274 61.1873H83.6829L83.8184 60.3502C83.8725 59.9522 83.7913 59.9385 83.4527 59.9385H79.3763L79.6336 58.3603H84.2653C85.281 58.3603 85.7144 58.5936 85.5248 59.815L84.7934 64.4533ZM82.7756 64.3298C83.1141 64.3298 83.1954 64.3161 83.2496 63.9181L83.4392 62.7654H80.8389C80.5004 62.7654 80.4191 62.7791 80.3514 63.1771L80.2295 63.9181C80.1753 64.3161 80.2566 64.3298 80.5952 64.3298H82.7756ZM91.9105 65.908L90.2177 62.1616L93.1429 58.3603H91.3824L89.0395 61.3794H88.3894L89.2208 56H87.5956L86.06 65.908H87.6852L88.1456 62.9575H88.8228L90.15 65.908H91.9105ZM98.9544 64.3298L98.7106 65.908H94.228C93.2122 65.908 92.7653 65.6747 92.9549 64.4533L93.6862 59.815C93.8758 58.5936 94.3905 58.3603 95.4062 58.3603H98.6971C99.7128 58.3603 100.146 58.5936 99.9566 59.815L99.6857 61.5303C99.4961 62.7517 98.9815 62.985 97.9658 62.985H94.8103L94.6613 63.9181C94.6071 64.3161 94.6884 64.3298 95.027 64.3298H98.9544ZM97.6543 61.4068C97.9929 61.4068 98.0877 61.3931 98.1418 60.9952L98.2502 60.3502C98.3044 59.9522 98.2231 59.9385 97.8845 59.9385H95.7041C95.3656 59.9385 95.2843 59.9522 95.2301 60.3502L95.0541 61.4068H97.6543Z" fill="#7497F7"/>
</svg>
