<svg width="100" height="100" viewBox="0 0 120 120" fill="none" xmlns="http://www.w3.org/2000/svg">
<path fill-rule="evenodd" clip-rule="evenodd" d="M42.1688 52.1064H27.1313C25.4062 52.1064 24.0188 53.4939 24.0188 55.2189C24.0188 56.9439 25.4062 58.3314 27.1313 58.3314H42.1688C43.8937 58.3314 45.2812 56.9439 45.2812 55.2189C45.2812 53.5127 43.8937 52.1064 42.1688 52.1064ZM34.7625 68.2877H27.8062C28.3875 67.7252 28.7625 66.9377 28.7625 66.0564C28.7625 64.3314 27.375 62.9439 25.65 62.9439H10.6125C8.8875 62.9439 7.5 64.3314 7.5 66.0564C7.5 67.7814 8.8875 69.1689 10.6125 69.1689H17.5687C16.9875 69.7314 16.6125 70.5189 16.6125 71.4002C16.6125 73.1252 18 74.5127 19.725 74.5127H34.7625C36.4875 74.5127 37.875 73.1252 37.875 71.4002C37.875 69.6939 36.4875 68.2877 34.7625 68.2877ZM95.5125 69.0939H110.138C111.863 69.0939 113.25 70.4814 113.269 72.2064C113.269 73.9314 111.881 75.3189 110.156 75.3189H101.737C102.3 75.8814 102.638 76.6502 102.638 77.5127C102.638 79.2377 101.25 80.6252 99.525 80.6252H95.5125V69.0939Z" fill="#99B3F9"/>
<path d="M34.4813 60.525H30.9563V65.6625H34.4813V60.525Z" fill="#70727F"/>
<path d="M87.8812 28.125H38.7938C34.4625 28.125 30.9375 31.65 30.9375 35.9813V49.1625H34.4625V43.9688H92.2125V89.4H34.4625V77.0062H30.9375V92.9062H95.7188V35.9813C95.7375 31.65 92.2125 28.125 87.8812 28.125ZM73.9875 38.8687C72.7687 38.8687 71.7938 37.875 71.7938 36.675C71.7938 35.475 72.7875 34.4813 73.9875 34.4813C75.2062 34.4813 76.1813 35.475 76.1813 36.675C76.1813 37.875 75.2062 38.8687 73.9875 38.8687ZM81.0375 38.8687C79.8188 38.8687 78.8438 37.875 78.8438 36.675C78.8438 35.475 79.8375 34.4813 81.0375 34.4813C82.2563 34.4813 83.2312 35.475 83.2312 36.675C83.2312 37.875 82.2563 38.8687 81.0375 38.8687ZM88.0688 38.8687C86.85 38.8687 85.875 37.875 85.875 36.675C85.875 35.475 86.8688 34.4813 88.0688 34.4813C89.2875 34.4813 90.2625 35.475 90.2625 36.675C90.2625 37.875 89.2875 38.8687 88.0688 38.8687Z" fill="#70727F"/>
<path d="M56 76V57H63.1138C64.4923 57 65.6337 57.2227 66.5379 57.668C67.4422 58.1071 68.1188 58.7039 68.5677 59.4585C69.0167 60.2069 69.2412 61.0511 69.2412 61.9912C69.2412 62.7829 69.0926 63.4508 68.7954 63.9951C68.4982 64.5332 68.0998 64.9661 67.6003 65.2939C67.107 65.6156 66.5632 65.8506 65.9688 65.999V66.1846C66.6138 66.2155 67.243 66.4196 67.8564 66.7969C68.4761 67.168 68.9883 67.6968 69.393 68.3833C69.7977 69.0698 70 69.9048 70 70.8882C70 71.8592 69.766 72.7313 69.2981 73.5044C68.8365 74.2713 68.122 74.8805 67.1545 75.332C66.187 75.7773 64.9508 76 63.4458 76H56ZM58.9309 73.5415H63.1612C64.565 73.5415 65.5705 73.2756 66.1775 72.7437C66.7846 72.2118 67.0881 71.5469 67.0881 70.749C67.0881 70.1491 66.9332 69.5986 66.6233 69.0977C66.3135 68.5967 65.8708 68.1978 65.2954 67.9009C64.7263 67.604 64.0497 67.4556 63.2656 67.4556H58.9309V73.5415ZM58.9309 65.2197H62.8577C63.5154 65.2197 64.1066 65.096 64.6314 64.8486C65.1626 64.6012 65.5831 64.2549 65.893 63.8096C66.2091 63.3581 66.3672 62.8262 66.3672 62.2139C66.3672 61.4284 66.0858 60.7697 65.523 60.2378C64.9603 59.7059 64.0971 59.4399 62.9336 59.4399H58.9309V65.2197Z" fill="#99B3F9"/>
</svg>
