<!--
  Licensed to the Apache Software Foundation (ASF) under one or more
  contributor license agreements.  See the NOTICE file distributed with
  this work for additional information regarding copyright ownership.
  The ASF licenses this file to You under the Apache License, Version 2.0
  (the "License"); you may not use this file except in compliance with
  the License.  You may obtain a copy of the License at

      http://www.apache.org/licenses/LICENSE-2.0

  Unless required by applicable law or agreed to in writing, software
  distributed under the License is distributed on an "AS IS" BASIS,
  WITHOUT WARRANTIES OR CONDITIONS OF ANY KIND, either express or implied.
  See the License for the specific language governing permissions and
  limitations under the License.
-->
<svg width="120" height="120" viewBox="0 0 120 120" fill="none" xmlns="http://www.w3.org/2000/svg">
  <path fill-rule="evenodd" clip-rule="evenodd" d="M42.1688 52.1064H27.1313C25.4062 52.1064 24.0188 53.4939 24.0188 55.2189C24.0188 56.9439 25.4062 58.3314 27.1313 58.3314H42.1688C43.8937 58.3314 45.2812 56.9439 45.2812 55.2189C45.2812 53.5127 43.8937 52.1064 42.1688 52.1064ZM34.7625 68.2877H27.8062C28.3875 67.7252 28.7625 66.9377 28.7625 66.0564C28.7625 64.3314 27.375 62.9439 25.65 62.9439H10.6125C8.8875 62.9439 7.5 64.3314 7.5 66.0564C7.5 67.7814 8.8875 69.1689 10.6125 69.1689H17.5687C16.9875 69.7314 16.6125 70.5189 16.6125 71.4002C16.6125 73.1252 18 74.5127 19.725 74.5127H34.7625C36.4875 74.5127 37.875 73.1252 37.875 71.4002C37.875 69.6939 36.4875 68.2877 34.7625 68.2877ZM95.5125 69.0939H110.138C111.863 69.0939 113.25 70.4814 113.269 72.2064C113.269 73.9314 111.881 75.3189 110.156 75.3189H101.737C102.3 75.8814 102.638 76.6502 102.638 77.5127C102.638 79.2377 101.25 80.6252 99.525 80.6252H95.5125V69.0939Z" fill="#99B3F9" />
  <path d="M34.4813 60.525H30.9563V65.6625H34.4813V60.525Z" fill="#70727F" />
  <path d="M87.8812 28.125H38.7938C34.4625 28.125 30.9375 31.65 30.9375 35.9813V49.1625H34.4625V43.9688H92.2125V89.4H34.4625V77.0062H30.9375V92.9062H95.7188V35.9813C95.7375 31.65 92.2125 28.125 87.8812 28.125ZM73.9875 38.8687C72.7687 38.8687 71.7938 37.875 71.7938 36.675C71.7938 35.475 72.7875 34.4813 73.9875 34.4813C75.2062 34.4813 76.1813 35.475 76.1813 36.675C76.1813 37.875 75.2062 38.8687 73.9875 38.8687ZM81.0375 38.8687C79.8188 38.8687 78.8438 37.875 78.8438 36.675C78.8438 35.475 79.8375 34.4813 81.0375 34.4813C82.2563 34.4813 83.2312 35.475 83.2312 36.675C83.2312 37.875 82.2563 38.8687 81.0375 38.8687ZM88.0688 38.8687C86.85 38.8687 85.875 37.875 85.875 36.675C85.875 35.475 86.8688 34.4813 88.0688 34.4813C89.2875 34.4813 90.2625 35.475 90.2625 36.675C90.2625 37.875 89.2875 38.8687 88.0688 38.8687Z" fill="#70727F" />
</svg>
  