<svg xmlns="http://www.w3.org/2000/svg"  viewBox="0 0 128 128"><path fill="#fff" d="M64 16A48 48 0 1 0 64 112A48 48 0 1 0 64 16Z"/><path fill="#f48884" d="M64 25A39 39 0 1 0 64 103A39 39 0 1 0 64 25Z"/><path fill="none" stroke="#fff" stroke-linecap="round" stroke-miterlimit="10" stroke-width="6" d="M47.735,47 c4.169-3.885,9.952-6,16.01-6C76.588,41,86.07,50.6,87,65"/><path fill="none" stroke="#fff" stroke-linecap="round" stroke-linejoin="round" stroke-miterlimit="10" stroke-width="6" d="M93 55L87 65 77 59"/><path fill="none" stroke="#fff" stroke-linecap="round" stroke-miterlimit="10" stroke-width="6" d="M80,80.28 C75.897,84.623,69.936,87,63.674,87C51.152,87,41.907,77.4,41,63"/><path fill="none" stroke="#fff" stroke-linecap="round" stroke-linejoin="round" stroke-miterlimit="10" stroke-width="6" d="M35 73L41 63 51 69"/><path fill="#454b54" d="M105.882 110.125L8.875 13.118c-1.167-1.167-1.167-3.076 0-4.243l0 0c1.167-1.167 3.076-1.167 4.243 0l97.007 97.007c1.167 1.167 1.167 3.076 0 4.243l0 0C108.958 111.292 107.049 111.292 105.882 110.125zM114.004 117.004L114.004 117.004c0 1.65 1.35 3 3 3h0c1.65 0 3-1.35 3-3v0c0-1.65-1.35-3-3-3h0C115.354 114.004 114.004 115.354 114.004 117.004z"/><g><path fill="none" stroke="#444b54" stroke-linecap="round" stroke-linejoin="round" stroke-miterlimit="10" stroke-width="6" d="M22.654 39.624C18.432 46.77 16 55.099 16 64c0 26.51 21.49 48 48 48 8.901 0 17.23-2.432 24.376-6.654M105.346 88.376C109.568 81.23 112 72.901 112 64c0-26.51-21.49-48-48-48-8.901 0-17.23 2.432-24.376 6.654"/></g></svg>