<!--
  Licensed to the Apache Software Foundation (ASF) under one or more
  contributor license agreements.  See the NOTICE file distributed with
  this work for additional information regarding copyright ownership.
  The ASF licenses this file to You under the Apache License, Version 2.0
  (the "License"); you may not use this file except in compliance with
  the License.  You may obtain a copy of the License at

      http://www.apache.org/licenses/LICENSE-2.0

  Unless required by applicable law or agreed to in writing, software
  distributed under the License is distributed on an "AS IS" BASIS,
  WITHOUT WARRANTIES OR CONDITIONS OF ANY KIND, either express or implied.
  See the License for the specific language governing permissions and
  limitations under the License.
-->
<svg width="120" height="120" viewBox="0 0 120 120" fill="none" xmlns="http://www.w3.org/2000/svg">
  <path fill-rule="evenodd" clip-rule="evenodd" d="M96.0375 30.5939V34.9997H91.6312C89.9062 34.9997 88.5187 36.3872 88.5187 38.1122C88.5187 39.8372 89.9062 41.2247 91.6312 41.2247H96.0375V45.6314C96.0375 47.3564 97.425 48.7439 99.15 48.7439C100.875 48.7439 102.262 47.3564 102.262 45.6314V41.2247H106.669C108.394 41.2247 109.781 39.8372 109.781 38.1122C109.781 36.406 108.394 34.9997 106.669 34.9997H102.262V30.5939C102.262 28.8689 100.875 27.4814 99.15 27.4814C97.4437 27.4814 96.0375 28.8689 96.0375 30.5939ZM35.3062 52.3438H42.2625C43.9875 52.3438 45.375 53.75 45.375 55.4563C45.375 57.1813 43.9875 58.5688 42.2625 58.5688H27.225C25.5 58.5688 24.1125 57.1813 24.1125 55.4563C24.1125 54.575 24.4875 53.7875 25.0687 53.225H18.1125C16.3875 53.225 15 51.8375 15 50.1125C15 48.3875 16.3875 47 18.1125 47H33.15C34.875 47 36.2625 48.3875 36.2625 50.1125C36.2625 50.9937 35.8875 51.7813 35.3062 52.3438ZM93 77H107.625C109.35 77 110.738 78.3875 110.756 80.1125C110.756 81.8375 109.369 83.225 107.644 83.225H99.225C99.7875 83.7875 100.125 84.5562 100.125 85.4188C100.125 87.1437 98.7375 88.5312 97.0125 88.5312H93V77Z" fill="#99B3F9" />
  <path d="M61.2799 55.2372C58.334 60.0876 55.5104 64.786 52.6285 69.4482C51.8892 70.6437 51.5224 71.6187 52.1143 73.1411C53.7464 77.3434 51.4428 81.4336 47.1152 82.5454C43.0398 83.5927 39.0577 80.9641 38.2484 76.6858C37.5304 72.8979 40.5325 69.184 44.7961 68.5929C45.1532 68.5416 45.518 68.5359 46.1177 68.4922L52.6053 57.8487C48.5299 53.8764 46.0964 49.2312 46.6339 43.4761C47.022 39.4088 48.6483 35.8926 51.633 33.0113C54.3784 30.3359 57.9754 28.6605 61.827 28.2633C65.6786 27.8661 69.5531 28.7709 72.8073 30.8275C79.2735 34.8948 82.2272 42.8185 79.7043 49.6019L73.7776 48.0262C74.5694 44.2554 73.9833 40.8685 71.3868 37.9681C69.6712 36.0523 67.4686 35.0488 64.9652 34.68C59.9525 33.9369 55.0252 37.0995 53.5639 41.9195C51.9047 47.3933 54.4159 51.8655 61.2799 55.2372Z" fill="#70727F" />
  <path d="M69.6945 49.4992C71.7691 53.0857 73.8785 56.7216 75.9667 60.3328C86.5257 57.1341 94.4862 62.8568 97.3409 68.9864C100.791 76.3893 98.4335 85.1569 91.6587 89.7241C84.7054 94.413 75.9104 93.6109 69.7489 87.5897L74.583 83.6269C80.6688 87.4871 85.9901 87.3046 89.9412 82.7355C91.5721 80.8336 92.4519 78.4217 92.4206 75.9382C92.3892 73.4548 91.4489 71.0648 89.7704 69.203C85.7708 64.7993 80.4107 64.6643 73.9329 68.8932C71.2451 64.2234 68.5107 59.5916 65.9083 54.8894C65.0312 53.3043 64.0628 52.3844 62.0853 52.0385C58.7862 51.4683 56.6515 48.701 56.5215 45.5877C56.4416 44.101 56.8455 42.6279 57.675 41.3803C58.5046 40.1328 59.717 39.1753 61.1377 38.6457C62.5584 38.1161 64.114 38.0418 65.5806 38.4334C67.0471 38.825 68.349 39.6623 69.2986 40.8248C70.8744 42.7748 71.3751 44.97 70.5465 47.3743C70.3155 48.0567 70.0167 48.7048 69.6945 49.4992Z" fill="#70727F" />
  <path d="M74.6587 78.8183H61.9456C60.7268 83.7257 58.0953 87.6885 53.562 90.2088C50.1259 92.1513 46.1032 92.8527 42.1937 92.1911C34.7494 91.0146 28.6655 84.4518 28.126 77.0602C27.5206 68.688 33.3949 61.247 41.2273 59.5745C41.7687 61.4979 42.314 63.4403 42.8555 65.3581C35.6751 68.9484 33.1833 73.4719 35.1938 79.13C36.9637 84.1078 41.9861 86.8371 47.4529 85.7822C53.0303 84.7046 55.8403 80.1659 55.4987 72.8808C60.785 72.8808 66.0752 72.8275 71.3615 72.9074C73.4264 72.9397 75.0196 72.7306 76.576 70.9478C79.1357 68.0152 83.8495 68.2869 86.6072 71.0486C87.9294 72.4012 88.6488 74.213 88.6072 76.0852C88.5655 77.9573 87.7662 79.7366 86.385 81.0316C85.0038 82.3266 83.154 83.0312 81.2424 82.9903C79.3308 82.9495 77.514 82.1667 76.1918 80.814C75.6387 80.2229 75.2021 79.533 74.6587 78.8183Z" fill="#70727F" />
</svg>
  
  