<?xml version="1.0" encoding="utf-8"?>
<!--
Licensed to the Apache Software Foundation (ASF) under one or more
contributor license agreements.  See the NOTICE file distributed with
this work for additional information regarding copyright ownership.
The ASF licenses this file to You under the Apache License, Version 2.0
(the "License"); you may not use this file except in compliance with
the License.  You may obtain a copy of the License at

    http://www.apache.org/licenses/LICENSE-2.0

Unless required by applicable law or agreed to in writing, software
distributed under the License is distributed on an "AS IS" BASIS,
WITHOUT WARRANTIES OR CONDITIONS OF ANY KIND, either express or implied.
See the License for the specific language governing permissions and
limitations under the License.
-->
<!-- Generator: Adobe Illustrator 23.0.1, SVG Export Plug-In . SVG Version: 6.00 Build 0)  -->
<svg version="1.1" id="Layer_1" xmlns="http://www.w3.org/2000/svg" xmlns:xlink="http://www.w3.org/1999/xlink" x="0px" y="0px"
	 viewBox="0 0 270 270" style="enable-background:new 0 0 270 270;" xml:space="preserve">
<g>
	<g>
		<path d="M99.4,151.2c0,7.1-5.8,12.9-12.9,12.9s-12.9-5.8-12.9-12.9c0-7.1,5.8-12.9,12.9-12.9h12.9V151.2z"/>
		<path d="M105.9,151.2c0-7.1,5.8-12.9,12.9-12.9s12.9,5.8,12.9,12.9v32.3c0,7.1-5.8,12.9-12.9,12.9s-12.9-5.8-12.9-12.9
			C105.9,183.5,105.9,151.2,105.9,151.2z"/>
	</g>
	<g>
		<path d="M118.8,99.4c-7.1,0-12.9-5.8-12.9-12.9s5.8-12.9,12.9-12.9s12.9,5.8,12.9,12.9v12.9H118.8z"/>
		<path d="M118.8,105.9c7.1,0,12.9,5.8,12.9,12.9s-5.8,12.9-12.9,12.9H86.5c-7.1,0-12.9-5.8-12.9-12.9s5.8-12.9,12.9-12.9
			C86.5,105.9,118.8,105.9,118.8,105.9z"/>
	</g>
	<g>
		<path d="M170.6,118.8c0-7.1,5.8-12.9,12.9-12.9c7.1,0,12.9,5.8,12.9,12.9s-5.8,12.9-12.9,12.9h-12.9V118.8z"/>
		<path d="M164.1,118.8c0,7.1-5.8,12.9-12.9,12.9c-7.1,0-12.9-5.8-12.9-12.9V86.5c0-7.1,5.8-12.9,12.9-12.9
			c7.1,0,12.9,5.8,12.9,12.9V118.8z"/>
	</g>
	<g>
		<path d="M151.2,170.6c7.1,0,12.9,5.8,12.9,12.9c0,7.1-5.8,12.9-12.9,12.9c-7.1,0-12.9-5.8-12.9-12.9v-12.9H151.2z"/>
		<path d="M151.2,164.1c-7.1,0-12.9-5.8-12.9-12.9c0-7.1,5.8-12.9,12.9-12.9h32.3c7.1,0,12.9,5.8,12.9,12.9
			c0,7.1-5.8,12.9-12.9,12.9H151.2z"/>
	</g>
</g>
</svg>
