<svg xmlns="http://www.w3.org/2000/svg"  viewBox="0 0 128 128"><path fill="#fff" d="M64 16A48 48 0 1 0 64 112A48 48 0 1 0 64 16Z"/><path fill="#8ccfb9" d="M64 25A39 39 0 1 0 64 103A39 39 0 1 0 64 25Z"/><path fill="none" stroke="#444b54" stroke-miterlimit="10" stroke-width="6" d="M64 16A48 48 0 1 0 64 112A48 48 0 1 0 64 16Z"/><path fill="none" stroke="#fff" stroke-linecap="round" stroke-miterlimit="10" stroke-width="6" d="M47,47.72 C51.208,43.377,57.322,41,63.744,41C76.588,41,86.07,50.6,87,65"/><path fill="none" stroke="#fff" stroke-linecap="round" stroke-linejoin="round" stroke-miterlimit="10" stroke-width="6" d="M93 55L87 65 77 59"/><path fill="none" stroke="#fff" stroke-linecap="round" stroke-miterlimit="10" stroke-width="6" d="M80,80.28 C75.897,84.623,69.936,87,63.674,87C51.152,87,41.907,77.4,41,63"/><path fill="none" stroke="#fff" stroke-linecap="round" stroke-linejoin="round" stroke-miterlimit="10" stroke-width="6" d="M35 73L41 63 51 69"/></svg>