<!--
This icon is from Feather Icons with the MIT license: https://feathericons.com/

The MIT License (MIT)

Copyright (c) 2013-2017 Cole Bemis

Permission is hereby granted, free of charge, to any person obtaining a copy
of this software and associated documentation files (the "Software"), to deal
in the Software without restriction, including without limitation the rights
to use, copy, modify, merge, publish, distribute, sublicense, and/or sell
copies of the Software, and to permit persons to whom the Software is
furnished to do so, subject to the following conditions:

The above copyright notice and this permission notice shall be included in all
copies or substantial portions of the Software.

THE SOFTWARE IS PROVIDED "AS IS", WITHOUT WARRANTY OF ANY KIND, EXPRESS OR
IMPLIED, INCLUDING BUT NOT LIMITED TO THE WARRANTIES OF MERCHANTABILITY,
FITNESS FOR A PARTICULAR PURPOSE AND NONINFRINGEMENT. IN NO EVENT SHALL THE
AUTHORS OR COPYRIGHT HOLDERS BE LIABLE FOR ANY CLAIM, DAMAGES OR OTHER
LIABILITY, WHETHER IN AN ACTION OF CONTRACT, TORT OR OTHERWISE, ARISING FROM,
OUT OF OR IN CONNECTION WITH THE SOFTWARE OR THE USE OR OTHER DEALINGS IN THE
SOFTWARE.
-->
<svg width="20" height="20" viewBox="0 0 20 20" fill="none" xmlns="http://www.w3.org/2000/svg">
  <g clip-path="url(#clip0_5084_38297)">
    <path fill-rule="evenodd" clip-rule="evenodd"
      d="M18.9226 2.25609C19.248 1.93065 19.248 1.40301 18.9226 1.07757C18.5972 0.752137 18.0695 0.752137 17.7441 1.07757L15.9642 2.85751C14.9624 2.17567 13.8602 2.05942 12.9132 2.20291C11.8016 2.37132 10.8226 2.90638 10.3365 3.39248L8.94761 4.78135C8.62217 5.10679 8.62217 5.63443 8.94761 5.95986L14.0402 11.0525C14.1965 11.2087 14.4084 11.2965 14.6295 11.2965C14.8505 11.2965 15.0624 11.2087 15.2187 11.0525L16.6076 9.66354C17.0937 9.17746 17.6287 8.19843 17.7971 7.08686C17.9406 6.13987 17.8244 5.03778 17.1426 4.03604L18.9226 2.25609ZM11.515 4.57096C11.7234 4.36258 12.3647 3.9717 13.1629 3.85077C13.9173 3.73645 14.7304 3.87223 15.4291 4.57098C16.1278 5.26971 16.2636 6.08272 16.1493 6.83719C16.0283 7.6353 15.6375 8.27664 15.4291 8.48507L14.6295 9.28469L10.7154 5.37061L11.515 4.57096Z"
      fill="#7497F7" />
    <path fill-rule="evenodd" clip-rule="evenodd"
      d="M5.37024 8.70381C5.59125 8.70381 5.80322 8.79161 5.9595 8.94789L6.29626 9.28466L7.5589 8.02202C7.88434 7.69658 8.41197 7.69658 8.73741 8.02202C9.06285 8.34746 9.06285 8.87509 8.73741 9.20053L7.47477 10.4632L9.53691 12.5253L10.7995 11.2627C11.1249 10.9373 11.6525 10.9373 11.978 11.2627C12.3034 11.5882 12.3034 12.1158 11.978 12.4413L10.7154 13.7038L11.0521 14.0405C11.3775 14.3659 11.3775 14.8936 11.0521 15.219L9.66322 16.6079C9.17713 17.094 8.19807 17.629 7.08651 17.7974C6.1395 17.9409 5.0374 17.8247 4.03566 17.1429L2.25584 18.9227C1.9304 19.2482 1.40277 19.2482 1.07733 18.9227C0.751893 18.5973 0.751893 18.0697 1.07733 17.7442L2.85714 15.9644C2.17531 14.9626 2.05907 13.8605 2.20256 12.9135C2.37098 11.8019 2.90603 10.8229 3.39208 10.3368L4.78098 8.94789C4.93726 8.79161 5.14923 8.70381 5.37024 8.70381ZM8.94046 14.2859L8.94761 14.2931L8.95484 14.3003L9.28432 14.6297L8.48467 15.4294C8.2763 15.6378 7.63499 16.0287 6.83684 16.1496C6.08237 16.2639 5.26934 16.1281 4.57061 15.4294C3.87188 14.7306 3.73611 13.9176 3.85042 13.1632C3.97135 12.365 4.36223 11.7237 4.57063 11.5153L5.37024 10.7157L8.94046 14.2859Z"
      fill="#7497F7" />
  </g>
  <defs>
    <clipPath id="clip0_5084_38297">
      <rect width="20" height="20" fill="white" />
    </clipPath>
  </defs>
</svg>