<!--
This icon is from Feather Icons with the MIT license: https://feathericons.com/

The MIT License (MIT)

Copyright (c) 2013-2017 Cole Bemis

Permission is hereby granted, free of charge, to any person obtaining a copy
of this software and associated documentation files (the "Software"), to deal
in the Software without restriction, including without limitation the rights
to use, copy, modify, merge, publish, distribute, sublicense, and/or sell
copies of the Software, and to permit persons to whom the Software is
furnished to do so, subject to the following conditions:

The above copyright notice and this permission notice shall be included in all
copies or substantial portions of the Software.

THE SOFTWARE IS PROVIDED "AS IS", WITHOUT WARRANTY OF ANY KIND, EXPRESS OR
IMPLIED, INCLUDING BUT NOT LIMITED TO THE WARRANTIES OF MERCHANTABILITY,
FITNESS FOR A PARTICULAR PURPOSE AND NONINFRINGEMENT. IN NO EVENT SHALL THE
AUTHORS OR COPYRIGHT HOLDERS BE LIABLE FOR ANY CLAIM, DAMAGES OR OTHER
LIABILITY, WHETHER IN AN ACTION OF CONTRACT, TORT OR OTHERWISE, ARISING FROM,
OUT OF OR IN CONNECTION WITH THE SOFTWARE OR THE USE OR OTHER DEALINGS IN THE
SOFTWARE.
-->

<svg width="16" height="16" viewBox="0 0 16 16" fill="none" xmlns="http://www.w3.org/2000/svg">
<path d="M14.9119 14.3879L13.9655 8.93074H14.2852C14.5423 8.93074 14.7494 8.7236 14.7494 8.46646V5.03789C14.7494 4.78074 14.5423 4.5736 14.2852 4.5736H9.8923V1.3236C9.8923 1.06646 9.68516 0.859314 9.42801 0.859314H6.57087C6.31373 0.859314 6.10659 1.06646 6.10659 1.3236V4.5736H1.71373C1.45659 4.5736 1.24944 4.78074 1.24944 5.03789V8.46646C1.24944 8.7236 1.45659 8.93074 1.71373 8.93074H2.03337L1.08694 14.3879C1.07534 14.4545 1.07847 14.5229 1.09611 14.5882C1.11374 14.6535 1.14545 14.7141 1.18902 14.7658C1.23258 14.8176 1.28694 14.8591 1.34828 14.8876C1.40962 14.9161 1.47645 14.9308 1.54409 14.9307H14.4548C14.4816 14.9307 14.5084 14.929 14.5334 14.9236C14.5935 14.9135 14.651 14.8916 14.7027 14.8591C14.7543 14.8267 14.799 14.7844 14.8342 14.7346C14.8694 14.6848 14.8944 14.6285 14.9077 14.569C14.9211 14.5095 14.9225 14.4479 14.9119 14.3879ZM2.49944 5.8236H7.35659V2.10931H8.6423V5.8236H13.4994V7.68074H2.49944V5.8236ZM10.8566 13.6807V10.895C10.8566 10.8165 10.7923 10.7522 10.7137 10.7522H9.85659C9.77801 10.7522 9.71373 10.8165 9.71373 10.895V13.6807H6.28516V10.895C6.28516 10.8165 6.22087 10.7522 6.1423 10.7522H5.28516C5.20659 10.7522 5.1423 10.8165 5.1423 10.895V13.6807H2.47801L3.28337 9.03789H12.7137L13.5191 13.6807H10.8566Z" fill="#7497F7"/>
</svg>
