<svg width="100" height="100" viewBox="0 0 16 16" fill="none"
  xmlns="http://www.w3.org/2000/svg">
  <g clip-path="url(#clip0_1432_12373)">
    <path fill-rule="evenodd" clip-rule="evenodd" d="M7.33325 6.66671C6.96506 6.66671 6.66659 6.96518 6.66659 7.33337V13.3334C6.66659 13.7016 6.96506 14 7.33325 14H13.3333C13.7014 14 13.9999 13.7016 13.9999 13.3334V7.33337C13.9999 6.96518 13.7014 6.66671 13.3333 6.66671H7.33325ZM5.33325 7.33337C5.33325 6.2288 6.22868 5.33337 7.33325 5.33337H13.3333C14.4378 5.33337 15.3333 6.2288 15.3333 7.33337V13.3334C15.3333 14.4379 14.4378 15.3334 13.3333 15.3334H7.33325C6.22868 15.3334 5.33325 14.4379 5.33325 13.3334V7.33337Z" fill="#7497F7"/>
    <path fill-rule="evenodd" clip-rule="evenodd" d="M2.66675 1.99996C2.48994 1.99996 2.32037 2.0702 2.19534 2.19522C2.07032 2.32025 2.00008 2.48981 2.00008 2.66663V8.66663C2.00008 8.84344 2.07032 9.01301 2.19534 9.13803C2.32037 9.26305 2.48994 9.33329 2.66675 9.33329H3.33341C3.7016 9.33329 4.00008 9.63177 4.00008 9.99996C4.00008 10.3681 3.7016 10.6666 3.33341 10.6666H2.66675C2.13631 10.6666 1.62761 10.4559 1.25253 10.0808C0.877462 9.70577 0.666748 9.19706 0.666748 8.66663V2.66663C0.666748 2.13619 0.877462 1.62749 1.25253 1.25241C1.62761 0.87734 2.13632 0.666626 2.66675 0.666626H8.66675C9.19718 0.666626 9.70589 0.87734 10.081 1.25241C10.456 1.62748 10.6667 2.13619 10.6667 2.66663V3.33329C10.6667 3.70148 10.3683 3.99996 10.0001 3.99996C9.63189 3.99996 9.33342 3.70148 9.33342 3.33329V2.66663C9.33342 2.48982 9.26318 2.32025 9.13815 2.19522C9.01313 2.0702 8.84356 1.99996 8.66675 1.99996H2.66675Z" fill="#7497F7"/>
  </g>
  <defs>
    <clipPath id="clip0_1432_12373">
      <rect width="16" height="16" fill="white"/>
    </clipPath>
  </defs>
</svg>
  