<svg width="20" height="19" viewBox="0 0 20 19" fill="none" xmlns="http://www.w3.org/2000/svg">
<path d="M9.18553 11.758C8.43428 12.465 7.4539 12.9255 6.11104 12.9255C5.62012 12.9255 5.22215 12.5275 5.22215 12.0366C5.22215 11.5457 5.62012 11.1477 6.11104 11.1477C6.99041 11.1477 7.53781 10.8674 7.96711 10.4634C8.44077 10.0176 8.79435 9.40381 9.2252 8.63787L9.25398 8.58667C9.65058 7.88126 10.1242 7.03886 10.8143 6.38933C11.5656 5.68226 12.546 5.2218 13.8888 5.2218C14.3797 5.2218 14.7777 5.61977 14.7777 6.11069C14.7777 6.60161 14.3797 6.99958 13.8888 6.99958C13.0095 6.99958 12.4621 7.27986 12.0328 7.6839C11.5591 8.1297 11.2055 8.7435 10.7747 9.50944L10.7459 9.56063C10.3493 10.266 9.87566 11.1085 9.18553 11.758Z" fill="#7497F7"/>
<path fill-rule="evenodd" clip-rule="evenodd" d="M10.8333 1.11068C10.8333 0.65044 10.4602 0.277344 9.99992 0.277344C9.53968 0.277344 9.16658 0.65044 9.16658 1.11068V2.22179H3.33325C1.95254 2.22179 0.833252 3.34108 0.833252 4.72179V13.0551C0.833252 14.4358 1.95254 15.5551 3.33325 15.5551H9.16658V17.2218H6.66658C6.20635 17.2218 5.83325 17.5949 5.83325 18.0551C5.83325 18.5154 6.20635 18.8885 6.66658 18.8885H13.3333C13.7935 18.8885 14.1666 18.5154 14.1666 18.0551C14.1666 17.5949 13.7935 17.2218 13.3333 17.2218H10.8333V15.5551H16.6666C18.0473 15.5551 19.1666 14.4358 19.1666 13.0551V4.72179C19.1666 3.34108 18.0473 2.22179 16.6666 2.22179H10.8333V1.11068ZM3.33325 3.88845C2.87301 3.88845 2.49992 4.26155 2.49992 4.72179V13.0551C2.49992 13.5154 2.87301 13.8885 3.33325 13.8885H16.6666C17.1268 13.8885 17.4999 13.5154 17.4999 13.0551V4.72179C17.4999 4.26155 17.1268 3.88845 16.6666 3.88845H3.33325Z" fill="#7497F7"/>
</svg>
