<!--
This icon is from Feather Icons with the MIT license: https://feathericons.com/

The MIT License (MIT)

Copyright (c) 2013-2017 Cole Bemis

Permission is hereby granted, free of charge, to any person obtaining a copy
of this software and associated documentation files (the "Software"), to deal
in the Software without restriction, including without limitation the rights
to use, copy, modify, merge, publish, distribute, sublicense, and/or sell
copies of the Software, and to permit persons to whom the Software is
furnished to do so, subject to the following conditions:

The above copyright notice and this permission notice shall be included in all
copies or substantial portions of the Software.

THE SOFTWARE IS PROVIDED "AS IS", WITHOUT WARRANTY OF ANY KIND, EXPRESS OR
IMPLIED, INCLUDING BUT NOT LIMITED TO THE WARRANTIES OF MERCHANTABILITY,
FITNESS FOR A PARTICULAR PURPOSE AND NONINFRINGEMENT. IN NO EVENT SHALL THE
AUTHORS OR COPYRIGHT HOLDERS BE LIABLE FOR ANY CLAIM, DAMAGES OR OTHER
LIABILITY, WHETHER IN AN ACTION OF CONTRACT, TORT OR OTHERWISE, ARISING FROM,
OUT OF OR IN CONNECTION WITH THE SOFTWARE OR THE USE OR OTHER DEALINGS IN THE
SOFTWARE.
-->

<svg width="20" height="20" viewBox="0 0 20 20" fill="none" xmlns="http://www.w3.org/2000/svg">
  <path fill-rule="evenodd" clip-rule="evenodd"
    d="M3.23223 1.56524C3.70107 1.0964 4.33696 0.833008 5 0.833008H11.6667C11.8877 0.833008 12.0996 0.920805 12.2559 1.07709L17.2559 6.07709C17.4122 6.23337 17.5 6.44533 17.5 6.66634V16.6663C17.5 17.3294 17.2366 17.9653 16.7678 18.4341C16.2989 18.9029 15.663 19.1663 15 19.1663H5C4.33696 19.1663 3.70107 18.9029 3.23223 18.4341C2.76339 17.9653 2.5 17.3294 2.5 16.6663V3.33301C2.5 2.66997 2.76339 2.03408 3.23223 1.56524ZM5 2.49967C4.77899 2.49967 4.56702 2.58747 4.41074 2.74375C4.25446 2.90003 4.16667 3.11199 4.16667 3.33301V16.6663C4.16667 16.8874 4.25446 17.0993 4.41074 17.2556C4.56702 17.4119 4.77899 17.4997 5 17.4997H15C15.221 17.4997 15.433 17.4119 15.5893 17.2556C15.7455 17.0993 15.8333 16.8874 15.8333 16.6663V7.01152L11.3215 2.49967H5Z"
    fill="#7497F7" />
  <path fill-rule="evenodd" clip-rule="evenodd"
    d="M11.6666 0.833008C12.1268 0.833008 12.4999 1.2061 12.4999 1.66634V5.83301H16.6666C17.1268 5.83301 17.4999 6.2061 17.4999 6.66634C17.4999 7.12658 17.1268 7.49967 16.6666 7.49967H11.6666C11.2063 7.49967 10.8333 7.12658 10.8333 6.66634V1.66634C10.8333 1.2061 11.2063 0.833008 11.6666 0.833008Z"
    fill="#7497F7" />
  <path fill-rule="evenodd" clip-rule="evenodd"
    d="M5.83325 10.8333C5.83325 10.3731 6.20635 10 6.66659 10H13.3333C13.7935 10 14.1666 10.3731 14.1666 10.8333C14.1666 11.2936 13.7935 11.6667 13.3333 11.6667H6.66659C6.20635 11.6667 5.83325 11.2936 5.83325 10.8333Z"
    fill="#7497F7" />
  <path fill-rule="evenodd" clip-rule="evenodd"
    d="M5.83325 14.1663C5.83325 13.7061 6.20635 13.333 6.66659 13.333H13.3333C13.7935 13.333 14.1666 13.7061 14.1666 14.1663C14.1666 14.6266 13.7935 14.9997 13.3333 14.9997H6.66659C6.20635 14.9997 5.83325 14.6266 5.83325 14.1663Z"
    fill="#7497F7" />
  <path fill-rule="evenodd" clip-rule="evenodd"
    d="M5.83325 7.50033C5.83325 7.04009 6.20635 6.66699 6.66659 6.66699H8.33325C8.79349 6.66699 9.16659 7.04009 9.16659 7.50033C9.16659 7.96056 8.79349 8.33366 8.33325 8.33366H6.66659C6.20635 8.33366 5.83325 7.96056 5.83325 7.50033Z"
    fill="#7497F7" />
</svg>
  