<!--
Licensed to the Apache Software Foundation (ASF) under one or more
contributor license agreements.  See the NOTICE file distributed with
this work for additional information regarding copyright ownership.
The ASF licenses this file to You under the Apache License, Version 2.0
(the "License"); you may not use this file except in compliance with
the License.  You may obtain a copy of the License at

    http://www.apache.org/licenses/LICENSE-2.0

Unless required by applicable law or agreed to in writing, software
distributed under the License is distributed on an "AS IS" BASIS,
WITHOUT WARRANTIES OR CONDITIONS OF ANY KIND, either express or implied.
See the License for the specific language governing permissions and
limitations under the License.
-->
<svg width="20" height="20" viewBox="0 0 20 20" fill="none" xmlns="http://www.w3.org/2000/svg">
  <path
    d="M9.99219 1.48926C5.16211 1.48731 1.25 5.39746 1.25 10.2236C1.25 14.04 3.69727 17.2842 7.10547 18.4756C7.56445 18.5908 7.49414 18.2647 7.49414 18.042V16.5283C4.84375 16.8389 4.73633 15.085 4.55859 14.792C4.19922 14.1787 3.34961 14.0225 3.60352 13.7295C4.20703 13.4189 4.82227 13.8076 5.53516 14.8604C6.05078 15.624 7.05664 15.4951 7.56641 15.3682C7.67773 14.9092 7.91602 14.499 8.24414 14.1807C5.49805 13.6885 4.35352 12.0127 4.35352 10.0205C4.35352 9.05371 4.67188 8.16504 5.29688 7.44824C4.89844 6.2666 5.33398 5.25488 5.39258 5.10449C6.52734 5.00293 7.70703 5.91699 7.79883 5.98926C8.44336 5.81543 9.17969 5.72363 10.0039 5.72363C10.832 5.72363 11.5703 5.81934 12.2207 5.99512C12.4414 5.82715 13.5352 5.04199 14.5898 5.1377C14.6465 5.28809 15.0723 6.27637 14.6973 7.44238C15.3301 8.16113 15.6523 9.05762 15.6523 10.0264C15.6523 12.0225 14.5 13.7002 11.7461 14.1846C11.982 14.4165 12.1693 14.6932 12.297 14.9984C12.4248 15.3035 12.4905 15.6311 12.4902 15.9619V18.1592C12.5059 18.335 12.4902 18.5088 12.7832 18.5088C16.2422 17.3428 18.7324 14.0752 18.7324 10.2256C18.7324 5.39746 14.8184 1.48926 9.99219 1.48926Z"
    fill="#7497F7" />
</svg>
  