<svg width="100" height="100" viewBox="0 0 24 24" fill="none"
  xmlns="http://www.w3.org/2000/svg">
  <path fill-rule="evenodd" clip-rule="evenodd" d="M12 7.50004C9.51472 7.50004 7.5 9.51476 7.5 12C7.5 14.4853 9.51472 16.5 12 16.5C14.4853 16.5 16.5 14.4853 16.5 12C16.5 9.51476 14.4853 7.50004 12 7.50004ZM9.5 12C9.5 10.6193 10.6193 9.50004 12 9.50004C13.3807 9.50004 14.5 10.6193 14.5 12C14.5 13.3808 13.3807 14.5 12 14.5C10.6193 14.5 9.5 13.3808 9.5 12Z" fill="#7497F7"/>
  <path fill-rule="evenodd" clip-rule="evenodd" d="M10.2168 1.93349C10.0009 1.51031 9.51711 1.29744 9.05927 1.42418C7.3353 1.9014 5.78257 2.78707 4.51135 3.96909C4.18782 4.26992 4.10003 4.7474 4.29539 5.14364C4.42608 5.40871 4.5 5.70752 4.5 6.02643C4.5 7.13099 3.60457 8.02643 2.5 8.02643L2.47217 8.02623C2.0301 8.01992 1.63635 8.30465 1.50385 8.72645C1.17624 9.76945 1 10.8783 1 12.0264C1 12.7842 1.07677 13.5251 1.22328 14.2413C1.32592 14.7431 1.79108 15.0862 2.30078 15.0361C2.36594 15.0297 2.43238 15.0264 2.5 15.0264C3.60457 15.0264 4.5 15.9219 4.5 17.0264C4.5 17.5184 4.32369 17.9665 4.02964 18.315C3.69934 18.7065 3.71823 19.2842 4.0734 19.6533C5.37143 21.0021 7.01182 22.0212 8.85656 22.5705C9.3784 22.7258 9.92863 22.4351 10.0944 21.9165C10.3525 21.1091 11.1095 20.5264 12 20.5264C12.8905 20.5264 13.6475 21.1091 13.9056 21.9165C14.0714 22.4351 14.6216 22.7258 15.1434 22.5705C16.9882 22.0212 18.6286 21.0021 19.9266 19.6533C20.2818 19.2842 20.3006 18.7065 19.9704 18.315C19.6763 17.9665 19.5 17.5184 19.5 17.0264C19.5 15.9219 20.3954 15.0264 21.5 15.0264C21.5676 15.0264 21.6341 15.0297 21.6992 15.0361C22.2089 15.0862 22.6741 14.7431 22.7767 14.2413C22.9232 13.5251 23 12.7842 23 12.0264C23 10.8783 22.8237 9.76944 22.4961 8.72646C22.3637 8.30465 21.9699 8.01991 21.5278 8.02623L21.5 8.02643C20.3954 8.02643 19.5 7.13099 19.5 6.02643C19.5 5.70751 19.5739 5.4087 19.7046 5.14364C19.9 4.7474 19.8122 4.26992 19.4886 3.96909C18.2174 2.78707 16.6647 1.9014 14.9407 1.42418C14.4829 1.29744 13.9991 1.51031 13.7832 1.93349C13.4512 2.5843 12.7763 3.02643 12 3.02643C11.2237 3.02643 10.5488 2.5843 10.2168 1.93349ZM6.5 6.02643C6.5 5.67437 6.45429 5.3321 6.36833 5.00569C7.12606 4.39699 7.98386 3.90882 8.91267 3.56964C9.64553 4.45829 10.7559 5.02643 12 5.02643C13.2441 5.02643 14.3545 4.45829 15.0873 3.56964C16.0161 3.90882 16.8739 4.39699 17.6317 5.00569C17.5457 5.3321 17.5 5.67437 17.5 6.02643C17.5 7.98325 18.9052 9.6119 20.7615 9.95839C20.9174 10.6216 21 11.3138 21 12.0264C21 12.3781 20.9799 12.7247 20.9408 13.0652C18.9964 13.3372 17.5 15.0071 17.5 17.0264C17.5 17.6657 17.6505 18.2709 17.9177 18.8075C17.1677 19.4627 16.3086 19.995 15.3717 20.3738C14.6614 19.2634 13.4176 18.5264 12 18.5264C10.5824 18.5264 9.33859 19.2634 8.62831 20.3738C7.69143 19.995 6.8323 19.4627 6.08229 18.8075C6.3495 18.2709 6.5 17.6657 6.5 17.0264C6.5 15.0071 5.00362 13.3372 3.05921 13.0652C3.02012 12.7247 3 12.3781 3 12.0264C3 11.3138 3.08262 10.6216 3.2385 9.95839C5.09485 9.6119 6.5 7.98325 6.5 6.02643Z" fill="#7497F7"/>
</svg>
  