<!--
Licensed to the Apache Software Foundation (ASF) under one or more
contributor license agreements.  See the NOTICE file distributed with
this work for additional information regarding copyright ownership.
The ASF licenses this file to You under the Apache License, Version 2.0
(the "License"); you may not use this file except in compliance with
the License.  You may obtain a copy of the License at

    http://www.apache.org/licenses/LICENSE-2.0

Unless required by applicable law or agreed to in writing, software
distributed under the License is distributed on an "AS IS" BASIS,
WITHOUT WARRANTIES OR CONDITIONS OF ANY KIND, either express or implied.
See the License for the specific language governing permissions and
limitations under the License.
-->
<svg width="20" height="20" viewBox="0 0 20 20" fill="none" xmlns="http://www.w3.org/2000/svg">
  <path
    d="M5.18033 12.4719C5.18033 13.4398 4.39804 14.2221 3.43013 14.2221C2.46222 14.2221 1.67993 13.4398 1.67993 12.4719C1.67993 11.504 2.46222 10.7217 3.43013 10.7217H5.18033V12.4719ZM6.05543 12.4719C6.05543 11.504 6.83772 10.7217 7.80563 10.7217C8.77354 10.7217 9.55583 11.504 9.55583 12.4719V16.8474C9.55583 17.8153 8.77354 18.5976 7.80563 18.5976C6.83772 18.5976 6.05543 17.8153 6.05543 16.8474V12.4719Z"
    fill="#7497F7" />
  <path
    d="M7.8057 5.44473C6.83779 5.44473 6.05551 4.66245 6.05551 3.69454C6.05551 2.72662 6.83779 1.94434 7.8057 1.94434C8.77362 1.94434 9.5559 2.72662 9.5559 3.69454V5.44473H7.8057ZM7.8057 6.33309C8.77362 6.33309 9.5559 7.11538 9.5559 8.08329C9.5559 9.05121 8.77362 9.83349 7.8057 9.83349H3.41695C2.44903 9.83349 1.66675 9.05121 1.66675 8.08329C1.66675 7.11538 2.44903 6.33309 3.41695 6.33309H7.8057Z"
    fill="#7497F7" />
  <path
    d="M14.8198 8.08329C14.8198 7.11538 15.6021 6.33309 16.57 6.33309C17.5379 6.33309 18.3202 7.11538 18.3202 8.08329C18.3202 9.05121 17.5379 9.83349 16.57 9.83349H14.8198V8.08329ZM13.9447 8.08329C13.9447 9.05121 13.1624 9.83349 12.1945 9.83349C11.2266 9.83349 10.4443 9.05121 10.4443 8.08329V3.69454C10.4443 2.72662 11.2266 1.94434 12.1945 1.94434C13.1624 1.94434 13.9447 2.72662 13.9447 3.69454V8.08329Z"
    fill="#7497F7" />
  <path
    d="M12.1945 15.0972C13.1624 15.0972 13.9447 15.8795 13.9447 16.8474C13.9447 17.8153 13.1624 18.5976 12.1945 18.5976C11.2266 18.5976 10.4443 17.8153 10.4443 16.8474V15.0972H12.1945ZM12.1945 14.2221C11.2266 14.2221 10.4443 13.4398 10.4443 12.4719C10.4443 11.504 11.2266 10.7217 12.1945 10.7217H16.5833C17.5512 10.7217 18.3335 11.504 18.3335 12.4719C18.3335 13.4398 17.5512 14.2221 16.5833 14.2221H12.1945Z"
    fill="#7497F7" />
</svg>
  