<svg width="24" height="24" viewBox="0 0 24 24" fill="none" xmlns="http://www.w3.org/2000/svg">
  <g clip-path="url(#clip0_2610_21738)">
    <path fill-rule="evenodd" clip-rule="evenodd" d="M12 4.33334C9.80042 4.33334 7.81848 5.25834 6.41912 6.7434C6.04037 7.14535 5.40748 7.16416 5.00553 6.7854C4.60358 6.40665 4.58478 5.77376 4.96353 5.37181C6.72503 3.50243 9.22679 2.33334 12 2.33334C16.9919 2.33334 21.1 6.1171 21.6128 10.973L22.2929 10.2929C22.6834 9.90238 23.3166 9.90238 23.7071 10.2929C24.0976 10.6834 24.0976 11.3166 23.7071 11.7071L21.3738 14.0404C20.9832 14.431 20.3501 14.431 19.9596 14.0404L17.6262 11.7071C17.2357 11.3166 17.2357 10.6834 17.6262 10.2929C18.0168 9.90238 18.6499 9.90238 19.0404 10.2929L19.578 10.8305C19.0149 7.1514 15.8365 4.33334 12 4.33334ZM2.62623 9.95957C3.01675 9.56905 3.64992 9.56905 4.04044 9.95957L6.37377 12.2929C6.7643 12.6834 6.7643 13.3166 6.37377 13.7071C5.98325 14.0976 5.35008 14.0976 4.95956 13.7071L4.42197 13.1695C4.9851 16.8486 8.16345 19.6667 12 19.6667C14.0424 19.6667 15.8965 18.8693 17.2714 17.5669C17.6723 17.1871 18.3053 17.2042 18.6851 17.6052C19.0649 18.0061 19.0478 18.6391 18.6468 19.0189C16.9153 20.6591 14.5742 21.6667 12 21.6667C7.00814 21.6667 2.90003 17.8829 2.38724 13.027L1.70711 13.7071C1.31658 14.0976 0.683418 14.0976 0.292893 13.7071C-0.0976311 13.3166 -0.0976311 12.6834 0.292893 12.2929L2.62623 9.95957Z" fill="#3D3E45" />
  </g>
  <defs>
    <clipPath id="clip0_2610_21738">
      <rect width="24" height="24" fill="white" />
    </clipPath>
  </defs>
</svg>
  