<svg xmlns="http://www.w3.org/2000/svg"
     viewBox="0 0 94.833 109"
     width="94.833"
     height="109">
  <g fill="#7497f7" fill-rule="evenodd" clip-rule="evenodd">
    <!-- Top hexagon -->
    <path d="M61.765 0 94.347 18.414v37.799L61.765 75.303 28.929 56.222V18.405L61.765 0ZM36.491 22.836v29.034l25.259 14.677 25.035-14.668V22.827L61.75 8.678 36.491 22.836Z"/>
    <!-- Mid‑layer hexagon -->
    <path d="M33.177 16.055 66.443 35.211v37.356L33.351 91.67 0 72.576V34.652l33.177-18.597Zm-25.615 23.028v29.109l25.773 14.755 25.545-14.647V39.582L33.127 24.753 7.562 39.083Z"/>
    <!-- Bottom hexagon -->
    <path d="M61.765 32.549 94.347 51.081v38L61.766 108.292 28.929 89.09V51.072l32.836-18.523Zm-25.274 22.94v29.263l25.259 14.771 25.035-14.762V55.48L61.75 41.24 36.491 55.489Z"/>
    <!-- Semi‑transparent highlights -->
    <path opacity=".5" d="M66.033 72.804 61.734 75.286l-7.538-4.38 4.685-2.704v-3.319l2.869 1.667 4.693-2.75v8.765Z"/>
    <path opacity=".5" d="M40.78 20.433 33.177 16.055l-4.249 2.382v8.669l4.198-2.353 3.364 1.937v-3.853l4.289-2.404Z"/>
    <path opacity=".5" d="M66.443 35.209 61.765 32.549l-7.622 4.299 4.737 2.728v3.282l2.87-1.619 4.693 2.669v-8.7Z"/>
    <path opacity=".5" d="M40.88 87.318 33.351 91.664l-.969-.555-3.453-2.02v-8.672l4.407 2.523 3.155-1.822v3.632l4.389 2.567Z"/>
    <path opacity=".5" d="M28.929 51.073v5.146l7.562 4.394v-5.123l3.164-1.785-3.164-1.839v-5.059l-7.562 4.266Z"/>
    <path opacity=".5" d="M86.785 46.781v5.095l-3.122 1.829 3.122 1.776v5.159l7.562-4.431v-5.128l-7.562-4.301Z"/>
  </g>
</svg>
