<svg width="36" height="36" viewBox="0 0 36 36" fill="none" xmlns="http://www.w3.org/2000/svg">
<path d="M24.8601 7.75227C24.8606 6.58118 25.3105 5.45494 26.1169 4.60578C26.9234 3.75663 28.025 3.24932 29.1945 3.18845C26.7937 3.06965 24.1226 3 21.345 3C10.6606 3 2 3.98733 2 5.20407C2 6.42082 10.6606 7.40814 21.345 7.40814V12.3243H28.9487C28.7076 12.3059 28.4704 12.2535 28.244 12.1686C27.2724 11.9079 26.414 11.3336 25.8021 10.5351C25.1902 9.73651 24.8591 8.7583 24.8601 7.75227Z" fill="#BDCEFB"/>
<path d="M21.345 7.40329C10.6606 7.40329 2 6.41596 2 5.19922V13.1757C2 14.0892 6.86288 14.8717 13.7987 15.2241V30.9066L21.4024 32.3609L21.345 7.40329Z" fill="#7497F7"/>
<path d="M29.428 12.3237C31.953 12.3237 34 10.2768 34 7.7517C34 5.22665 31.953 3.17969 29.428 3.17969C26.9029 3.17969 24.856 5.22665 24.856 7.7517C24.856 10.2768 26.9029 12.3237 29.428 12.3237Z" fill="#7497F7"/>
</svg>
