<?xml version="1.0" standalone="no"?>
<!DOCTYPE svg PUBLIC "-//W3C//DTD SVG 1.1//EN" "http://www.w3.org/Graphics/SVG/1.1/DTD/svg11.dtd">
<svg xmlns="http://www.w3.org/2000/svg">
<defs >
<font id="JetBrainsMono" horiz-adv-x="602" ><font-face
    font-family="JetBrains Mono SemiBold"
    units-per-em="1000"
    panose-1="2 0 0 9 0 0 0 0 0 0"
    ascent="1020"
    descent="-300"
    alphabetic="0" />
<glyph unicode=" " horiz-adv-x="600" />
<glyph unicode="!" horiz-adv-x="600" d="M257 228L235 597V730H365V597L343 228H257ZM285 -5Q255 -5 237 13T218 59Q218 88 236 106T285 124H315Q346 124 364 107T382 60Q382 31 364 13T315 -5H285Z" />
<glyph unicode="&quot;" horiz-adv-x="600" d="M361 430L348 609V730H468V609L456 430H361ZM145 430L132 609V730H252V609L240 430H145Z" />
<glyph unicode="#" horiz-adv-x="600" d="M77 0L111 187H28V267H125L160 463H61V543H174L207 730H293L259 543H404L437 730H523L489 543H572V463H475L440 267H539V187H426L393 0H307L341 187H196L163 0H77ZM210 267H355L390 463H245L210 267Z" />
<glyph unicode="$" horiz-adv-x="600" d="M270 -140V-9Q173 -1 118 53T61 194H177Q177 155 201 129T270 95V319L250 324Q167 347 122 403T77 538Q77 622 129 676T270 738V870H332V739Q422 731 475 678T529 541H412Q412 579 392 603T332 635V422L367 412Q450 390
494 334T539 197Q539 111 483 56T332 -9V-140H270ZM332 94Q375 101 399 126T423 193Q423 236 394 266T313 302L332 331V94ZM270 388V635Q233 628 213 605T193 546Q193 499 224 468T311 433L270 388Z" />
<glyph unicode="%" horiz-adv-x="600" d="M1 0L512 730H599L88 0H1ZM443 -5Q379 -5 339 31T299 130V195Q299 257 339 293T443 330Q507 330 547 294T587 195V130Q587 68 547 32T443 -5ZM443 71Q502 71 502 130V195Q502 255 443 255Q384 255 384 195V130Q384 71
443 71ZM157 400Q94 400 54 436T13 535V600Q13 663 53 699T157 735Q220 735 260 699T301 600V535Q301 472 261 436T157 400ZM157 475Q216 475 216 535V600Q216 660 157 660Q128 660 113 646T98 600V535Q98 504 113 490T157 475Z" />
<glyph unicode="&amp;" horiz-adv-x="600" d="M232 -10Q144 -10 95 38T46 173V273Q46 337 78 378T169 431L158 413Q127 456 111 495T95 574Q95 624 118 661T184 719T284 740Q344 740 388 718T456 655T480 561H370Q370 586 360 604T330 633T284 643Q260 643 241
634T213 607T203 566Q203 542 215 513T248 455L394 250L453 360H567L459 158L572 0H454L403 71Q332 -10 232 -10ZM241 88Q271 88 297 105T343 153L204 348Q181 341 170 322T158 273V173Q158 132 180 110T241 88Z" />
<glyph unicode="&apos;" horiz-adv-x="600" d="M250 430L237 576V730H357V576L345 430H250Z" />
<glyph unicode="(" horiz-adv-x="600" d="M485 -120Q335 -81 254 20T172 270V450Q172 547 209 625T317 759T485 840V726Q425 712 381 674T312 578T288 450V270Q288 200 312 144T380 49T485 -3V-120Z" />
<glyph unicode=")" horiz-adv-x="600" d="M115 -120V-3Q176 11 220 49T288 143T312 270V450Q312 521 288 578T220 673T115 726V840Q213 815 283 760T390 626T428 450V270Q428 122 347 21T115 -120Z" />
<glyph unicode="*" horiz-adv-x="600" d="M188 89L101 149L145 213Q160 234 181 254T223 293T261 323L258 328Q238 329 211 331T155 338T103 352L31 378L68 478L140 452Q163 444 188 429T236 398T275 369L280 373Q274 393 266 420T253 477T247 533V610H353V533Q353
507 348 477T335 420T320 373L324 369Q341 383 363 398T411 429T459 452L532 478L569 378L496 352Q473 344 445 339T390 331T342 328L339 322Q355 310 376 292T419 254T454 213L498 149L411 89L367 152Q353 173 341 200T319 253T303 300H296Q291 280 281 254T259
200T232 152L188 89Z" />
<glyph unicode="+" horiz-adv-x="600" d="M242 93V277H61V383H242V567H358V383H539V277H358V93H242Z" />
<glyph unicode="," horiz-adv-x="600" d="M154 -160L234 151H386L256 -160H154Z" />
<glyph unicode="-" horiz-adv-x="600" d="M140 277V383H460V277H140Z" />
<glyph unicode="." horiz-adv-x="600" d="M300 -10Q258 -10 234 14T209 80Q209 122 233 147T300 172Q342 172 366 147T391 80Q391 39 367 15T300 -10Z" />
<glyph unicode="/" horiz-adv-x="600" d="M64 -110L415 830H536L185 -110H64Z" />
<glyph unicode="0" horiz-adv-x="600" d="M300 -10Q230 -10 179 17T99 93T71 207V523Q71 589 99 637T178 713T300 740Q371 740 422 713T501 638T529 523V207Q529 142 501 93T422 17T300 -10ZM300 90Q354 90 386 122T418 207V523Q418 575 386 607T300 640Q246 640
214 608T182 523V207Q182 155 214 123T300 90ZM300 302Q271 302 254 320T236 368Q236 397 253 414T300 432Q329 432 346 415T364 368Q364 338 347 320T300 302Z" />
<glyph unicode="1" horiz-adv-x="600" d="M86 0V103H277V628L85 484V608L252 730H394V103H549V0H86Z" />
<glyph unicode="2" horiz-adv-x="600" d="M82 0V114L309 345Q359 397 382 438T406 522Q406 575 377 605T298 636Q242 636 211 604T179 516H62Q63 585 92 635T175 712T299 740Q367 740 417 714T495 641T523 530Q523 464 489 401T379 263L220 105H533V0H82Z" />
<glyph unicode="3" horiz-adv-x="600" d="M292 -10Q222 -10 171 16T91 89T62 200H179Q179 148 209 119T293 90Q348 90 377 120T407 200V256Q407 308 377 337T293 366H213V473L379 629H94V730H497V623L294 434V467Q400 467 461 410T523 256V200Q523 137 495 90T415
16T292 -10Z" />
<glyph unicode="4" horiz-adv-x="600" d="M395 0V148H69V320L351 730H481L181 290V252H395V420H511V0H395Z" />
<glyph unicode="5" horiz-adv-x="600" d="M298 -10Q201 -10 141 39T74 173H190Q194 135 222 114T299 92Q354 92 382 121T410 202V273Q410 326 382 354T300 383Q266 383 241 368T204 328H90L95 730H500V625H206L203 405H232L203 379Q203 426 239 453T338 480Q427
480 476 426T526 273V202Q526 104 466 47T298 -10Z" />
<glyph unicode="6" horiz-adv-x="600" d="M301 -10Q228 -10 173 20T88 105T58 233Q58 285 75 341T123 447L298 730H427L214 392L219 388Q239 418 273 434T348 450Q407 450 450 422T518 344T542 225Q542 155 512 102T428 20T301 -10ZM300 90Q357 90 392 127T427
225Q427 286 392 323T300 360Q243 360 208 323T173 225Q173 164 208 127T300 90Z" />
<glyph unicode="7" horiz-adv-x="600" d="M162 0L425 622H181V516H65V730H542V619L287 0H162Z" />
<glyph unicode="8" horiz-adv-x="600" d="M300 -10Q229 -10 177 14T97 83T68 188Q68 254 104 301T215 382L323 431Q361 449 382 479T404 547Q404 590 376 615T300 640Q252 640 224 615T195 546Q195 510 216 480T275 432L383 383Q461 347 496 300T532 188Q532 97
470 44T300 -10ZM300 90Q354 90 386 119T418 194Q418 231 396 263T336 314L223 367Q152 401 116 445T80 552Q80 608 107 650T183 717T300 741Q367 741 416 717T492 651T519 552Q519 489 484 445T376 366L262 313Q225 296 204 264T182 196Q182 148 214 119T300 90Z"
/>
<glyph unicode="9" horiz-adv-x="600" d="M173 0L386 338L381 342Q361 312 327 296T252 280Q193 280 150 308T82 386T58 505Q58 576 88 628T172 710T299 740Q373 740 427 710T512 625T542 497Q542 445 526 389T477 283L302 0H173ZM300 370Q357 370 392 407T427
505Q427 566 392 603T300 640Q243 640 208 603T173 505Q173 444 208 407T300 370Z" />
<glyph unicode=":" horiz-adv-x="600" d="M300 397Q259 397 234 419T209 478Q209 515 234 537T300 560Q341 560 366 538T391 478Q391 442 366 420T300 397ZM300 -10Q259 -10 234 12T209 72Q209 109 234 131T300 153Q341 153 366 131T391 72Q391 35 366 13T300 -10Z" />
<glyph unicode=";" horiz-adv-x="600" d="M159 -160L239 151H391L261 -160H159ZM290 397Q254 397 231 420T208 478Q208 513 231 536T290 560H310Q345 560 368 537T392 478Q392 443 369 420T310 397H290Z" />
<glyph unicode="&lt;" horiz-adv-x="600" d="M522 58L78 270V389L522 601V493L227 354Q207 345 188 339T159 331Q170 329 189 323T227 308L522 169V58Z" />
<glyph unicode="=" horiz-adv-x="600" d="M83 399V505H517V399H83ZM83 155V261H517V155H83Z" />
<glyph unicode="&gt;" horiz-adv-x="600" d="M78 58V167L373 305Q393 314 412 320T441 328Q430 330 411 336T373 352L78 490V601L522 389V270L78 58Z" />
<glyph unicode="?" horiz-adv-x="600" d="M198 214L196 409H268Q321 409 353 438T385 515Q385 563 353 592T267 621H124V730H262Q335 730 388 704T471 629T501 515Q501 455 476 409T407 336T303 308V214H198ZM235 -5Q206 -5 187 13T168 59Q168 88 187 106T235
124H265Q296 124 314 107T332 60Q332 31 314 13T265 -5H235Z" />
<glyph unicode="@" horiz-adv-x="600" d="M325 -180Q236 -180 172 -145T72 -44T36 110V450Q36 540 69 605T165 705T315 740Q394 740 451 710T538 625T569 497V65H480L485 120H455L471 145Q471 105 442 80T363 55Q300 55 266 96T231 214V330Q231 407 265 448T363
489Q412 489 441 465T471 399L457 420H486L471 489V497Q471 545 453 580T400 635T315 655Q229 655 182 601T134 450V110Q134 16 184 -36T325 -89H395V-180H325ZM400 128Q437 128 454 150T471 220V331Q471 374 454 395T400 417Q365 417 347 395T329 330V214Q329
169 347 149T400 128Z" />
<glyph unicode="A" horiz-adv-x="600" d="M39 0L224 730H376L561 0H443L400 181H200L158 0H39ZM221 277H378L332 480Q320 532 312 573T300 630Q297 614 289 574T269 481L221 277Z" />
<glyph unicode="B" horiz-adv-x="600" d="M81 0V730H300Q405 730 466 680T527 542Q527 493 505 457T445 400T358 380V387Q412 388 453 367T519 305T543 207Q543 144 515 97T436 25T313 0H81ZM194 99H305Q361 99 394 129T427 212Q427 266 394 298T305 331H194V99ZM194
427H299Q351 427 380 454T410 529Q410 577 381 604T300 631H194V427Z" />
<glyph unicode="C" horiz-adv-x="600" d="M304 -10Q235 -10 184 16T104 90T76 204V526Q76 592 104 640T183 714T304 740Q374 740 424 714T503 640T531 526H415Q415 580 386 608T304 637Q251 637 222 609T192 526V204Q192 151 221 122T304 93Q357 93 386 122T415
204H531Q531 140 503 92T425 17T304 -10Z" />
<glyph unicode="D" horiz-adv-x="600" d="M79 0V730H289Q363 730 416 702T500 624T530 504V227Q530 158 500 107T417 28T289 0H79ZM196 107H289Q347 107 380 139T413 227V504Q413 559 380 591T289 623H196V107Z" />
<glyph unicode="E" horiz-adv-x="600" d="M91 0V730H524V628H206V429H489V327H206V102H524V0H91Z" />
<glyph unicode="F" horiz-adv-x="600" d="M84 0V731H532V623H198V416H506V308H200V0H84Z" />
<glyph unicode="G" horiz-adv-x="600" d="M304 -10Q235 -10 184 16T104 90T76 204V526Q76 592 104 640T183 714T304 740Q374 740 424 714T503 640T531 526H415Q415 580 386 608T304 637Q251 637 222 609T192 526V204Q192 151 221 122T304 92Q357 92 386 121T415
205V282H284V384H531V204Q531 139 503 91T425 17T304 -10Z" />
<glyph unicode="H" horiz-adv-x="600" d="M81 0V730H198V432H402V730H519V0H402V324H198V0H81Z" />
<glyph unicode="I" horiz-adv-x="600" d="M94 0V103H241V627H94V730H506V627H359V103H506V0H94Z" />
<glyph unicode="J" horiz-adv-x="600" d="M270 -10Q161 -10 98 50T34 214H150Q150 157 182 125T270 92Q326 92 358 124T390 214V622H219V730H506V214Q506 110 443 50T270 -10Z" />
<glyph unicode="K" horiz-adv-x="600" d="M80 0V730H197V430H288L432 730H558L391 380L567 0H436L287 325H197V0H80Z" />
<glyph unicode="L" horiz-adv-x="600" d="M106 0V730H223V108H537V0H106Z" />
<glyph unicode="M" horiz-adv-x="600" d="M61 0V730H202L274 497Q285 463 292 434T302 390Q305 404 312 433T329 497L398 730H539V0H429V236Q429 285 432 343T439 460T449 572T459 665L356 316H246L141 665Q146 627 151 576T160 466T168 348T171 236V0H61Z" />
<glyph unicode="N" horiz-adv-x="600" d="M77 0V730H221L429 132Q427 162 424 203T418 289T416 369V730H523V0H379L172 598Q175 571 177 531T182 449T184 370V0H77Z" />
<glyph unicode="O" horiz-adv-x="600" d="M300 -10Q231 -10 181 16T103 90T76 204V526Q76 592 103 640T180 714T300 740Q370 740 420 714T497 640T524 526V204Q524 139 497 91T420 16T300 -10ZM300 93Q353 93 380 122T408 204V526Q408 580 381 608T300 637Q247
637 220 609T192 526V204Q192 151 220 122T300 93Z" />
<glyph unicode="P" horiz-adv-x="600" d="M80 0V730H322Q394 730 447 703T529 625T559 507Q559 441 530 391T447 313T322 285H197V0H80ZM197 390H322Q376 390 408 422T441 507Q441 562 409 593T322 625H197V390Z" />
<glyph unicode="Q" horiz-adv-x="600" d="M412 -180L303 0L322 -9Q318 -9 313 -9T300 -10Q231 -10 180 17T100 93T71 207V523Q71 589 99 637T179 713T300 740Q370 740 421 713T500 638T529 523V207Q529 141 501 92T420 16L539 -180H412ZM300 93Q354 93 383 123T412
207V523Q412 577 382 607T300 638Q248 638 218 608T188 523V207Q188 154 217 124T300 93Z" />
<glyph unicode="R" horiz-adv-x="600" d="M80 0V730H310Q381 730 433 704T515 629T544 515Q544 442 507 388T407 311L554 0H423L292 295H196V0H80ZM196 398H310Q363 398 394 428T426 512Q426 565 395 596T310 627H196V398Z" />
<glyph unicode="S" horiz-adv-x="600" d="M302 -10Q228 -10 174 15T91 86T61 194H177Q177 147 211 120T304 93Q359 93 391 119T423 193Q423 232 401 260T338 299L250 324Q167 347 122 403T77 538Q77 600 104 645T182 715T302 741Q406 741 467 687T529 541H412Q412
586 383 612T301 638Q250 638 222 614T193 546Q193 506 214 478T276 438L367 412Q450 390 494 334T539 197Q539 135 510 89T427 16T302 -10Z" />
<glyph unicode="T" horiz-adv-x="600" d="M242 0V623H48V731H552V623H358V0H242Z" />
<glyph unicode="U" horiz-adv-x="600" d="M300 -10Q194 -10 136 48T77 206V730H193V207Q193 153 220 123T300 92Q352 92 379 122T407 207V730H523V206Q523 106 465 48T300 -10Z" />
<glyph unicode="V" horiz-adv-x="600" d="M224 0L39 730H159L273 249Q283 210 291 169T303 103Q307 128 314 169T332 250L444 730H561L376 0H224Z" />
<glyph unicode="W" horiz-adv-x="600" d="M95 0L18 730H121L168 213Q169 195 170 171T173 122T175 80Q177 98 179 122T184 170T189 213L251 730H353L411 213Q413 195 415 171T421 122T425 80Q426 98 427 122T431 170T434 213L481 730H582L501 0H369L313 521Q311
542 309 566T305 614T301 655Q300 638 298 614T294 566T289 521L228 0H95Z" />
<glyph unicode="X" horiz-adv-x="600" d="M31 0L235 373L43 730H174L271 539Q281 520 289 501T302 472Q306 482 314 501T332 539L431 730H557L365 376L569 0H438L330 209Q320 228 312 247T298 278Q294 267 286 248T267 210L158 0H31Z" />
<glyph unicode="Y" horiz-adv-x="600" d="M242 0V267L26 730H147L269 465Q282 437 290 411T302 370Q305 385 313 411T334 465L453 730H574L358 267V0H242Z" />
<glyph unicode="Z" horiz-adv-x="600" d="M81 0V112L383 622H87V730H509V618L207 108H519V0H81Z" />
<glyph unicode="[" horiz-adv-x="600" d="M190 -110V830H461V723H306V-3H461V-110H190Z" />
<glyph unicode="\" horiz-adv-x="600" d="M414 -110L63 830H185L536 -110H414Z" />
<glyph unicode="]" horiz-adv-x="600" d="M139 -110V-3H294V723H139V830H410V-110H139Z" />
<glyph unicode="^" horiz-adv-x="600" d="M71 340L245 730H357L529 340H421L324 577Q316 598 311 617T302 646Q299 636 293 617T278 577L179 340H71Z" />
<glyph unicode="_" horiz-adv-x="600" d="M60 -129V-25H540V-129H60Z" />
<glyph unicode="`" horiz-adv-x="600" d="M284 645L168 785H297L404 645H284Z" />
<glyph unicode="a" horiz-adv-x="600" d="M242 -10Q157 -10 108 34T58 156Q58 236 111 280T260 324H405V373Q405 415 378 439T303 463Q260 463 232 445T198 394H84Q93 470 153 515T306 560Q406 560 464 510T522 374V0H408V98H389L409 122Q409 61 363 26T242 -10ZM279
78Q334 78 369 106T405 179V249H262Q222 249 198 227T174 166Q174 125 202 102T279 78Z" />
<glyph unicode="b" horiz-adv-x="600" d="M343 -10Q275 -10 235 28T195 132L220 105H195V0H80V730H197V574L194 445H220L195 418Q195 484 235 522T343 560Q426 560 476 504T526 351V199Q526 103 476 47T343 -10ZM302 91Q353 91 381 120T410 204V346Q410 400 382
429T302 459Q254 459 226 429T197 346V204Q197 151 225 121T302 91Z" />
<glyph unicode="c" horiz-adv-x="600" d="M304 -10Q234 -10 183 16T103 90T74 204V346Q74 412 102 460T182 534T304 560Q405 560 466 507T530 363H414Q411 408 382 433T304 458Q251 458 221 429T190 346V204Q190 151 220 122T304 92Q353 92 382 117T414 187H530Q527
96 466 43T304 -10Z" />
<glyph unicode="d" horiz-adv-x="600" d="M257 -10Q174 -10 124 46T74 199V351Q74 447 124 503T257 560Q325 560 365 522T405 418L380 445H406L403 574V730H520V0H405V105H380L405 132Q405 66 365 28T257 -10ZM298 91Q347 91 375 121T403 204V346Q403 399 375
429T298 459Q247 459 219 430T190 346V204Q190 150 218 121T298 91Z" />
<glyph unicode="e" horiz-adv-x="600" d="M300 -10Q232 -10 181 16T102 91T74 204V346Q74 410 102 458T181 533T300 560Q369 560 419 534T498 459T526 346V247H186V204Q186 145 215 114T301 83Q346 83 373 99T408 144H523Q510 74 449 32T300 -10ZM414 315V346Q414
405 386 436T300 468Q245 468 216 436T186 346V323L422 324L414 315Z" />
<glyph unicode="f" horiz-adv-x="600" d="M209 0V385H55V491H209V577Q209 647 255 688T379 730H540V627H381Q355 627 340 614T325 575V491H540V385H325V0H209Z" />
<glyph unicode="g" horiz-adv-x="600" d="M154 -180V-81H320Q362 -81 383 -61T404 -3V46L406 148H380L405 172Q405 107 366 70T259 33Q174 33 125 89T76 242V351Q76 447 125 503T259 560Q326 560 365 523T405 421L380 445H405L403 550H519V-5Q519 -86 467 -133T322
-180H154ZM298 134Q347 134 375 164T403 247V346Q403 399 375 429T298 459Q247 459 220 430T192 346V247Q192 193 219 164T298 134Z" />
<glyph unicode="h" horiz-adv-x="600" d="M80 0V730H197V550L195 445H225L195 418Q195 485 234 522T342 560Q424 560 473 507T522 363V0H405V351Q405 403 378 431T302 460Q253 460 225 430T197 346V0H80Z" />
<glyph unicode="i" horiz-adv-x="600" d="M78 0V106H271V445H103V550H383V106H557V0H78ZM317 644Q280 644 259 662T238 713Q238 746 259 765T317 784Q354 784 375 765T396 713Q396 681 375 663T317 644Z" />
<glyph unicode="j" horiz-adv-x="600" d="M83 -180V-72H226Q278 -72 307 -44T336 37V442H113V550H453V35Q453 -64 393 -122T230 -180H83ZM389 644Q352 644 331 662T310 713Q310 746 331 765T389 784Q426 784 447 765T468 713Q468 681 447 663T389 644Z" />
<glyph unicode="k" horiz-adv-x="600" d="M83 0V730H200V331H292L432 550H563L392 285L566 0H433L292 232H200V0H83Z" />
<glyph unicode="l" horiz-adv-x="600" d="M382 0Q329 0 290 21T228 82T206 173V625H28V730H323V173Q323 142 340 124T388 105H557V0H382Z" />
<glyph unicode="m" horiz-adv-x="600" d="M55 0V550H152V478H172L156 458Q156 505 181 532T248 560Q293 560 317 525T342 428L319 478H355L340 458Q340 505 366 532T435 560Q486 560 515 522T545 419V0H442V415Q442 444 430 460T393 476Q369 476 356 461T343 416V0H257V415Q257
445 244 460T207 476Q183 476 171 461T159 416V0H55Z" />
<glyph unicode="n" horiz-adv-x="600" d="M80 0V550H195V445H225L195 418Q195 485 234 522T342 560Q424 560 473 507T522 363V0H405V351Q405 403 378 431T302 459Q253 459 225 430T197 346V0H80Z" />
<glyph unicode="o" horiz-adv-x="600" d="M300 -9Q231 -9 181 17T102 91T74 206V344Q74 410 102 458T180 533T300 559Q370 559 420 533T498 459T526 345V206Q526 140 498 92T420 17T300 -9ZM300 93Q352 93 381 122T410 206V344Q410 400 381 428T300 457Q249 457
220 429T190 344V206Q190 151 219 122T300 93Z" />
<glyph unicode="p" horiz-adv-x="600" d="M80 -180V550H195V445H220L195 418Q195 484 235 522T344 560Q427 560 476 504T526 351V199Q526 136 504 89T441 16T344 -10Q276 -10 236 28T195 132L220 105H194L197 -24V-180H80ZM303 91Q353 91 381 120T410 204V346Q410
401 382 430T303 459Q254 459 226 429T197 346V204Q197 151 225 121T303 91Z" />
<glyph unicode="q" horiz-adv-x="600" d="M403 -180V-24L406 105H380L404 132Q404 66 365 28T257 -10Q174 -10 125 46T76 199V351Q76 447 125 503T257 560Q325 560 364 522T404 418L380 445H405V550H520V-180H403ZM298 91Q347 91 375 121T403 204V346Q403 399
375 429T298 459Q247 459 220 430T192 346V204Q192 150 219 121T298 91Z" />
<glyph unicode="r" horiz-adv-x="600" d="M98 0V550H209V445H238L203 380Q203 469 242 514T359 560Q448 560 499 506T550 354V316H429V346Q429 402 401 432T322 462Q271 462 243 432T215 346V0H98Z" />
<glyph unicode="s" horiz-adv-x="600" d="M280 -9Q219 -9 174 10T102 64T72 146H189Q192 119 216 103T280 87H323Q371 87 395 106T419 157Q419 187 398 204T333 228L263 238Q172 252 130 288T87 398Q87 475 137 517T287 559H325Q414 559 467 519T526 411H409Q406
434 384 448T325 463H287Q242 463 222 447T201 398Q201 369 219 355T276 334L348 324Q443 310 488 272T533 159Q533 79 481 35T323 -9H280Z" />
<glyph unicode="t" horiz-adv-x="600" d="M360 0Q283 0 240 42T197 160V445H46V550H197V705H313V550H527V445H313V160Q313 105 367 105H517V0H360Z" />
<glyph unicode="u" horiz-adv-x="600" d="M299 -10Q197 -10 138 48T78 206V550H195V207Q195 152 222 122T299 92Q349 92 377 122T405 207V550H522V206Q522 106 462 48T299 -10Z" />
<glyph unicode="v" horiz-adv-x="600" d="M225 0L43 550H162L271 207Q281 176 289 145T302 95Q307 113 315 144T332 207L439 550H557L376 0H225Z" />
<glyph unicode="w" horiz-adv-x="600" d="M108 0L24 550H122L170 200Q174 173 177 140T183 86Q185 107 190 140T199 200L253 550H347L401 200Q405 173 410 140T417 85Q419 107 423 140T432 200L482 550H576L489 0H367L316 349Q312 377 307 410T300 463Q297 443
293 410T284 349L230 0H108Z" />
<glyph unicode="x" horiz-adv-x="600" d="M39 0L232 284L52 550H185L276 407Q283 395 290 381T301 357Q304 366 311 380T325 407L416 550H549L369 283L561 0H428L326 158Q319 170 312 185T301 210Q297 200 290 185T274 158L172 0H39Z" />
<glyph unicode="y" horiz-adv-x="600" d="M169 -180L247 31L42 550H170L278 254Q286 233 293 203T306 153Q310 173 317 203T332 254L435 550H558L292 -180H169Z" />
<glyph unicode="z" horiz-adv-x="600" d="M81 0V108L373 447H90V550H508V442L212 103H519V0H81Z" />
<glyph unicode="{" horiz-adv-x="600" d="M457 -110Q400 -110 358 -89T293 -29T274 64L284 220Q286 263 267 284T197 306H81V413H197Q248 413 267 434T284 500L274 658Q271 712 293 750T357 809T457 830H519V723H470Q431 723 410 705T390 649L400 491Q404 430
366 394T259 358V363Q327 363 365 326T400 228L390 71Q389 35 410 16T470 -4H519V-110H457Z" />
<glyph unicode="|" horiz-adv-x="600" d="M242 -110V830H358V-110H242Z" />
<glyph unicode="}" horiz-adv-x="600" d="M81 -110V-4H130Q168 -4 190 15T210 71L200 228Q196 289 234 326T341 363V358Q273 358 235 394T200 491L210 649Q212 687 191 705T130 723H81V830H143Q201 830 243 810T307 751T326 658L316 500Q314 456 333 435T403 413H519V306H403Q353
306 334 285T316 220L326 64Q330 10 308 -29T243 -89T143 -110H81Z" />
<glyph unicode="~" horiz-adv-x="600" d="M54 255V332Q54 393 93 429T195 466Q235 466 262 453T307 419T340 379T370 346T405 332Q425 332 435 344T446 378V450H546V373Q546 313 508 276T405 239Q365 239 338 252T293 286T260 326T230 359T195 373Q175 373 165
362T154 327V255H54Z" />
<glyph unicode="&#xa0;" horiz-adv-x="600" />
<glyph unicode="&#xa1;" horiz-adv-x="600" d="M235 -180V-40L257 322H343L365 -40V-180H235ZM288 427Q257 427 238 445T218 492Q218 521 237 538T288 556H312Q343 556 362 539T382 492Q382 463 363 445T312 427H288Z" />
<glyph unicode="&#xa2;" horiz-adv-x="600" d="M276 -140V690H339V-140H276ZM304 -10Q234 -10 183 16T103 90T74 204V346Q74 412 102 460T182 534T304 560Q405 560 466 507T530 363H414Q411 408 382 433T304 458Q251 458 221 429T190 346V204Q190 151 220 122T304
92Q353 92 382 117T414 187H530Q527 96 466 43T304 -10Z" />
<glyph unicode="&#xa3;" horiz-adv-x="600" d="M75 0V127Q99 142 124 164T166 212T184 263Q184 305 173 334T145 387T111 433T83 483T71 548Q71 605 99 648T178 715T300 740Q368 740 418 716T497 647T527 541H408Q406 584 377 611T298 638Q246 638 218 612T189
542Q189 514 199 493T225 452T256 409T282 353T293 272Q293 229 273 195T223 139T165 107H535V0H75ZM71 296V394H435V296H71Z" />
<glyph unicode="&#xa4;" horiz-adv-x="600" d="M494 112L407 199Q385 185 358 178T301 171Q271 171 244 178T194 199L108 113L43 178L127 263Q112 286 104 314T95 373Q95 404 103 431T127 482L41 569L107 635L195 547Q218 561 244 568T301 575Q362 575 410 545L494
630L559 565L476 481Q490 458 497 431T505 373Q505 343 497 315T475 264L561 178L494 112ZM301 252Q335 252 362 267T404 311T419 373Q419 408 404 435T362 478T301 494Q267 494 240 479T197 436T181 373Q181 339 196 311T239 268T301 252Z" />
<glyph unicode="&#xa5;" horiz-adv-x="600" d="M60 266V354H540V266H60ZM60 111V199H540V111H60ZM242 0V267L26 730H147L269 465Q282 437 290 411T302 370Q305 385 313 411T334 465L453 730H574L358 267V0H242Z" />
<glyph unicode="&#xa6;" horiz-adv-x="600" d="M242 450V830H358V450H242ZM242 -110V270H358V-110H242Z" />
<glyph unicode="&#xa7;" horiz-adv-x="600" d="M285 -154Q223 -154 176 -135T100 -82T63 1H182Q190 -26 218 -43T285 -60H315Q366 -60 394 -39T422 17Q422 48 400 68T331 97L238 117Q162 133 117 176T72 279Q72 337 109 374T207 417V424Q178 428 148 444T96 492T75
573Q75 650 131 695T287 740H317Q406 740 463 700T530 592H410Q405 615 380 630T317 646H287Q240 646 215 627T189 574Q189 546 210 526T274 497L369 477Q448 460 492 416T536 311Q536 253 500 216T399 175V168Q429 166 461 149T515 100T537 17Q537 -62 479 -108T315
-154H285ZM323 195Q352 189 374 200T409 236T421 294Q421 328 401 353T346 386L281 399Q252 405 231 394T199 359T187 302Q187 266 206 240T256 208L323 195Z" />
<glyph unicode="&#xa8;" horiz-adv-x="600" d="M416 644Q383 644 364 662T345 713Q345 746 364 765T416 784Q448 784 467 765T487 713Q487 681 468 663T416 644ZM184 644Q152 644 133 662T113 713Q113 746 132 765T184 784Q217 784 236 765T255 713Q255 681 236
663T184 644Z" />
<glyph unicode="&#xa9;" horiz-adv-x="600" d="M300 110Q224 110 167 140T77 224T45 350V500Q45 572 77 626T166 710T300 740Q377 740 434 710T523 626T555 500V350Q555 278 523 224T434 140T300 110ZM300 160Q360 160 405 183T475 250T500 350V500Q500 557 475
599T405 666T300 690Q240 690 195 666T125 600T100 500V350Q100 293 125 250T195 184T300 160ZM305 245Q247 245 212 278T176 364V486Q176 539 211 572T305 605Q363 605 398 572T433 486H360Q360 511 345 526T305 541Q280 541 265 526T249 486V364Q249 339 264
324T305 309Q329 309 344 324T360 364H433Q433 311 398 278T305 245Z" />
<glyph unicode="&#xaa;" horiz-adv-x="600" d="M364 455V510H361V650Q361 669 346 680T305 691Q282 691 267 682T249 658H186Q192 696 224 718T305 740Q359 740 391 716T424 650V455H364ZM270 450Q225 450 198 473T171 537Q171 576 200 599T280 623H372V578H280Q258
578 246 568T234 538Q234 519 248 508T287 496Q321 496 341 512T361 555H372V510H361Q351 482 327 466T270 450Z" />
<glyph unicode="&#xab;" horiz-adv-x="600" d="M449 40L264 280L449 520H577L387 282L577 40H449ZM208 40L23 280L208 520H336L147 282L336 40H208Z" />
<glyph unicode="&#xac;" horiz-adv-x="600" d="M416 192V324H70V430H530V192H416Z" />
<glyph unicode="&#xad;" horiz-adv-x="600" d="M140 277V383H460V277H140Z" />
<glyph unicode="&#xae;" horiz-adv-x="600" d="M300 110Q224 110 167 140T77 224T45 350V500Q45 572 77 626T166 710T300 740Q377 740 434 710T523 626T555 500V350Q555 278 523 224T434 140T300 110ZM359 250L295 405H365L431 250H359ZM300 160Q360 160 405 183T475
250T500 350V500Q500 557 475 599T405 666T300 690Q240 690 195 666T125 600T100 500V350Q100 293 125 250T195 184T300 160ZM186 250V600H304Q359 600 392 571T425 493Q425 444 392 416T304 388H254V250H186ZM254 444H304Q328 444 342 458T356 495Q356 518 342
532T304 546H254V444Z" />
<glyph unicode="&#xaf;" horiz-adv-x="600" d="M131 663V754H469V663H131Z" />
<glyph unicode="&#xb0;" horiz-adv-x="600" d="M300 450Q233 450 192 490T150 595Q150 660 191 700T300 740Q368 740 409 700T450 595Q450 530 409 490T300 450ZM299 507Q337 507 360 531T383 595Q383 635 360 659T299 683Q262 683 240 659T217 595Q217 556 239
532T299 507Z" />
<glyph unicode="&#xb1;" horiz-adv-x="600" d="M68 0V88H244V280H63V386H244V570H360V386H542V280H360V88H532V0H68Z" />
<glyph unicode="&#xb2;" horiz-adv-x="600" d="M160 405V496L328 616Q348 630 359 651T371 695Q371 729 352 749T300 769Q267 769 248 749T228 695H147Q149 762 190 801T300 840Q370 840 411 801T452 697Q452 660 430 624T369 560L249 477H461V405H160Z" />
<glyph unicode="&#xb3;" horiz-adv-x="600" d="M284 395Q214 395 172 433T129 537H209Q209 504 229 485T284 466Q317 466 336 485T356 538Q356 572 337 591T285 610H255V677L342 758H160V831H410V747L296 640V671Q360 671 399 635T438 538Q438 472 396 434T284 395Z" />
<glyph unicode="&#xb4;" horiz-adv-x="600" d="M199 645L304 785H430L316 645H199Z" />
<glyph unicode="&#xb5;" horiz-adv-x="600" d="M79 -180V550H195V203Q195 149 220 121T299 92Q353 92 379 120T405 203V550H521V203Q521 103 466 47T312 -10Q266 -10 234 3T183 36T159 74H153Q154 74 159 59T169 24T175 -13L190 -180H79Z" />
<glyph unicode="&#xb6;" horiz-adv-x="600" d="M248 -180V310Q163 310 111 357T58 480V560Q58 637 110 683T248 730H342V-180H248ZM423 -180V730H516V-180H423Z" />
<glyph unicode="&#xb7;" horiz-adv-x="600" d="M300 256Q258 256 234 280T209 346Q209 388 233 413T300 438Q342 438 366 413T391 346Q391 305 367 281T300 256Z" />
<glyph unicode="&#xb8;" horiz-adv-x="600" d="M198 -213V-151H273Q296 -151 310 -140T324 -115Q324 -95 296 -82T215 -69L250 22H314L294 -37Q322 -39 352 -49T402 -79T423 -126Q423 -161 388 -187T294 -213H198Z" />
<glyph unicode="&#xb9;" horiz-adv-x="600" d="M151 405V478H282V758L160 670V758L257 830H364V478H467V405H151Z" />
<glyph unicode="&#xba;" horiz-adv-x="600" d="M300 447Q244 447 210 478T176 559V626Q176 676 210 706T300 737Q356 737 390 707T424 626V559Q424 510 390 479T300 447ZM300 500Q327 500 344 516T361 559V626Q361 652 344 668T300 684Q273 684 256 668T239 626V559Q239
533 256 517T300 500Z" />
<glyph unicode="&#xbb;" horiz-adv-x="600" d="M264 40L451 281L264 520H392L577 280L392 40H264ZM24 40L210 281L23 520H151L336 280L151 40H24Z" />
<glyph unicode="&#xbc;" horiz-adv-x="600" d="M33 405V466H149V680Q144 672 135 661T114 640L52 589V672L124 730H223V466H317V405H33ZM471 0V66H300V154L426 325H508L373 140V124H471V207H544V0H471ZM81 0L448 730H519L152 0H81Z" />
<glyph unicode="&#xbd;" horiz-adv-x="600" d="M313 0V75L443 149Q471 165 484 181T498 217Q498 242 483 256T444 271Q418 271 402 256T386 216H313Q314 267 350 298T444 330Q501 330 536 301T572 222Q572 189 549 160T481 107L403 64V54Q414 56 434 58T472 61H577V0H313ZM33
405V466H149V681Q144 673 135 662T114 641L52 590V672L124 730H223V466H322V405H33ZM81 0L448 730H519L152 0H81Z" />
<glyph unicode="&#xbe;" horiz-adv-x="600" d="M471 0V66H300V154L426 325H508L373 140V124H471V207H544V0H471ZM155 400Q95 400 59 429T22 505H95Q95 484 111 472T154 459Q180 459 196 472T212 507Q212 529 196 542T155 556H125V617L198 673H46V730H270V672L166
591V610Q220 610 252 582T285 507Q285 459 250 430T155 400ZM81 0L448 730H519L152 0H81Z" />
<glyph unicode="&#xbf;" horiz-adv-x="600" d="M336 -170Q263 -170 210 -144T127 -71T97 40Q97 99 121 144T190 215T295 242V336H400L402 141H330Q276 141 245 114T213 40Q213 -7 244 -34T331 -61H474V-170H336ZM338 426Q306 426 287 444T268 492Q268 521 287
538T338 555H362Q393 555 412 538T432 492Q432 462 413 444T362 426H338Z" />
<glyph unicode="&#xc0;" horiz-adv-x="600" d="M39 0L224 730H376L561 0H443L400 181H200L158 0H39ZM221 277H378L332 480Q320 532 312 573T300 630Q297 614 289 574T269 481L221 277ZM510 810L394 950H523L630 810H510Z" />
<glyph unicode="&#xc1;" horiz-adv-x="600" d="M39 0L224 730H376L561 0H443L400 181H200L158 0H39ZM221 277H378L332 480Q320 532 312 573T300 630Q297 614 289 574T269 481L221 277ZM229 810L334 950H460L346 810H229Z" />
<glyph unicode="&#xc2;" horiz-adv-x="600" d="M39 0L224 730H376L561 0H443L400 181H200L158 0H39ZM221 277H378L332 480Q320 532 312 573T300 630Q297 614 289 574T269 481L221 277ZM108 810L246 950H354L492 810H377L299 884L225 810H108Z" />
<glyph unicode="&#xc3;" horiz-adv-x="600" d="M39 0L224 730H376L561 0H443L400 181H200L158 0H39ZM221 277H378L332 480Q320 532 312 573T300 630Q297 614 289 574T269 481L221 277ZM370 808Q339 808 320 818T288 841T263 864T235 874Q222 874 214 865T205 840V813H131V846Q131
894 158 923T230 952Q261 952 280 942T312 919T337 896T365 886Q379 886 387 894T395 918V947H469V914Q469 866 442 837T370 808Z" />
<glyph unicode="&#xc4;" horiz-adv-x="600" d="M39 0L224 730H376L561 0H443L400 181H200L158 0H39ZM221 277H378L332 480Q320 532 312 573T300 630Q297 614 289 574T269 481L221 277ZM416 810Q383 810 364 829T345 880Q345 913 364 932T416 951Q448 951 467 932T487
880Q487 848 468 829T416 810ZM184 810Q152 810 133 829T113 880Q113 913 132 932T184 951Q217 951 236 932T255 880Q255 848 236 829T184 810Z" />
<glyph unicode="&#xc5;" horiz-adv-x="600" d="M39 0L224 730H376L561 0H443L400 181H200L158 0H39ZM221 277H378L332 480Q320 532 312 573T300 630Q297 614 289 574T269 481L221 277ZM300 760Q242 760 207 793T171 880Q171 934 206 967T300 1000Q358 1000 393
967T429 880Q429 826 394 793T300 760ZM300 821Q327 821 343 837T360 880Q360 907 344 923T300 940Q273 940 257 924T240 880Q240 853 256 837T300 821Z" />
<glyph unicode="&#xc6;" horiz-adv-x="600" d="M17 0L158 730H574V629H400V427H549V323H400V101H574V0H297V186H165L131 0H17ZM180 274H297V629H244L180 274Z" />
<glyph unicode="&#xc7;" horiz-adv-x="600" d="M206 -213V-151H280Q303 -151 317 -140T332 -115Q332 -95 303 -82T222 -69L257 22H321L301 -37Q329 -39 359 -49T409 -79T430 -126Q430 -161 395 -187T302 -213H206ZM304 -10Q235 -10 184 16T104 90T76 204V526Q76
592 104 640T183 714T304 740Q374 740 424 714T503 639T531 526H415Q415 580 386 608T304 637Q251 637 222 609T192 526V204Q192 151 221 122T304 93Q357 93 386 122T415 204H531Q531 140 503 92T425 17T304 -10Z" />
<glyph unicode="&#xc8;" horiz-adv-x="600" d="M91 0V730H524V628H206V429H489V327H206V102H524V0H91ZM530 810L414 950H543L650 810H530Z" />
<glyph unicode="&#xc9;" horiz-adv-x="600" d="M91 0V730H524V628H206V429H489V327H206V102H524V0H91ZM249 810L354 950H480L366 810H249Z" />
<glyph unicode="&#xca;" horiz-adv-x="600" d="M91 0V730H524V628H206V429H489V327H206V102H524V0H91ZM128 810L266 950H374L512 810H397L319 884L245 810H128Z" />
<glyph unicode="&#xcb;" horiz-adv-x="600" d="M91 0V730H524V628H206V429H489V327H206V102H524V0H91ZM436 810Q403 810 384 829T365 880Q365 913 384 932T436 951Q468 951 487 932T507 880Q507 848 488 829T436 810ZM204 810Q172 810 153 829T133 880Q133 913
152 932T204 951Q237 951 256 932T275 880Q275 848 256 829T204 810Z" />
<glyph unicode="&#xcc;" horiz-adv-x="600" d="M94 0V103H241V627H94V730H506V627H359V103H506V0H94ZM510 810L394 950H523L630 810H510Z" />
<glyph unicode="&#xcd;" horiz-adv-x="600" d="M94 0V103H241V627H94V730H506V627H359V103H506V0H94ZM229 810L334 950H460L346 810H229Z" />
<glyph unicode="&#xce;" horiz-adv-x="600" d="M94 0V103H241V627H94V730H506V627H359V103H506V0H94ZM108 810L246 950H354L492 810H377L299 884L225 810H108Z" />
<glyph unicode="&#xcf;" horiz-adv-x="600" d="M94 0V103H241V627H94V730H506V627H359V103H506V0H94ZM416 810Q383 810 364 829T345 880Q345 913 364 932T416 951Q448 951 467 932T487 880Q487 848 468 829T416 810ZM184 810Q152 810 133 829T113 880Q113 913
132 932T184 951Q217 951 236 932T255 880Q255 848 236 829T184 810Z" />
<glyph unicode="&#xd0;" horiz-adv-x="600" d="M10 331V414H290V331H10ZM79 0V730H289Q363 730 416 702T500 624T530 504V227Q530 158 500 107T417 28T289 0H79ZM196 107H289Q347 107 380 139T413 227V504Q413 559 380 591T289 623H196V107Z" />
<glyph unicode="&#xd1;" horiz-adv-x="600" d="M77 0V730H221L429 132Q427 162 424 203T418 289T416 369V730H523V0H379L172 598Q175 571 177 531T182 449T184 370V0H77ZM370 808Q339 808 320 818T288 841T263 864T235 874Q222 874 214 865T205 840V813H131V846Q131
894 158 923T230 952Q261 952 280 942T312 919T337 896T365 886Q379 886 387 894T395 918V947H469V914Q469 866 442 837T370 808Z" />
<glyph unicode="&#xd2;" horiz-adv-x="600" d="M300 -10Q231 -10 181 16T103 90T76 204V526Q76 592 103 640T180 714T300 740Q370 740 420 714T497 640T524 526V204Q524 139 497 91T420 16T300 -10ZM300 93Q353 93 380 122T408 204V526Q408 580 381 608T300 637Q247
637 220 609T192 526V204Q192 151 220 122T300 93ZM510 810L394 950H523L630 810H510Z" />
<glyph unicode="&#xd3;" horiz-adv-x="600" d="M300 -10Q231 -10 181 16T103 90T76 204V526Q76 592 103 640T180 714T300 740Q370 740 420 714T497 640T524 526V204Q524 139 497 91T420 16T300 -10ZM300 93Q353 93 380 122T408 204V526Q408 580 381 608T300 637Q247
637 220 609T192 526V204Q192 151 220 122T300 93ZM229 810L334 950H460L346 810H229Z" />
<glyph unicode="&#xd4;" horiz-adv-x="600" d="M300 -10Q231 -10 181 16T103 90T76 204V526Q76 592 103 640T180 714T300 740Q370 740 420 714T497 640T524 526V204Q524 139 497 91T420 16T300 -10ZM300 93Q353 93 380 122T408 204V526Q408 580 381 608T300 637Q247
637 220 609T192 526V204Q192 151 220 122T300 93ZM108 810L246 950H354L492 810H377L299 884L225 810H108Z" />
<glyph unicode="&#xd5;" horiz-adv-x="600" d="M300 -10Q231 -10 181 16T103 90T76 204V526Q76 592 103 640T180 714T300 740Q370 740 420 714T497 640T524 526V204Q524 139 497 91T420 16T300 -10ZM300 93Q353 93 380 122T408 204V526Q408 580 381 608T300 637Q247
637 220 609T192 526V204Q192 151 220 122T300 93ZM370 808Q339 808 320 818T288 841T263 864T235 874Q222 874 214 865T205 840V813H131V846Q131 894 158 923T230 952Q261 952 280 942T312 919T337 896T365 886Q379 886 387 894T395 918V947H469V914Q469 866 442
837T370 808Z" />
<glyph unicode="&#xd6;" horiz-adv-x="600" d="M300 -10Q231 -10 181 16T103 90T76 204V526Q76 592 103 640T180 714T300 740Q370 740 420 714T497 640T524 526V204Q524 139 497 91T420 16T300 -10ZM300 93Q353 93 380 122T408 204V526Q408 580 381 608T300 637Q247
637 220 609T192 526V204Q192 151 220 122T300 93ZM416 810Q383 810 364 829T345 880Q345 913 364 932T416 951Q448 951 467 932T487 880Q487 848 468 829T416 810ZM184 810Q152 810 133 829T113 880Q113 913 132 932T184 951Q217 951 236 932T255 880Q255 848
236 829T184 810Z" />
<glyph unicode="&#xd7;" horiz-adv-x="600" d="M167 120L93 195L224 326L93 459L167 533L299 401L433 535L507 460L372 326L505 195L431 120L299 253L167 120Z" />
<glyph unicode="&#xd8;" horiz-adv-x="600" d="M26 -40L475 750H574L125 -40H26ZM300 -10Q231 -10 181 16T103 90T76 204V526Q76 592 103 640T180 714T300 740Q370 740 420 714T497 640T524 526V204Q524 139 497 91T420 16T300 -10ZM300 93Q353 93 381 122T410
204V526Q410 580 382 608T300 637Q247 637 219 609T190 526V204Q190 151 218 122T300 93Z" />
<glyph unicode="&#xd9;" horiz-adv-x="600" d="M300 -10Q194 -10 136 48T77 206V730H193V207Q193 153 220 123T300 92Q352 92 379 122T407 207V730H523V206Q523 106 465 48T300 -10ZM510 810L394 950H523L630 810H510Z" />
<glyph unicode="&#xda;" horiz-adv-x="600" d="M300 -10Q194 -10 136 48T77 206V730H193V207Q193 153 220 123T300 92Q352 92 379 122T407 207V730H523V206Q523 106 465 48T300 -10ZM229 810L334 950H460L346 810H229Z" />
<glyph unicode="&#xdb;" horiz-adv-x="600" d="M300 -10Q194 -10 136 48T77 206V730H193V207Q193 153 220 123T300 92Q352 92 379 122T407 207V730H523V206Q523 106 465 48T300 -10ZM108 810L246 950H354L492 810H377L299 884L225 810H108Z" />
<glyph unicode="&#xdc;" horiz-adv-x="600" d="M300 -10Q194 -10 136 48T77 206V730H193V207Q193 153 220 123T300 92Q352 92 379 122T407 207V730H523V206Q523 106 465 48T300 -10ZM416 810Q383 810 364 829T345 880Q345 913 364 932T416 951Q448 951 467 932T487
880Q487 848 468 829T416 810ZM184 810Q152 810 133 829T113 880Q113 913 132 932T184 951Q217 951 236 932T255 880Q255 848 236 829T184 810Z" />
<glyph unicode="&#xdd;" horiz-adv-x="600" d="M242 0V267L26 730H147L269 465Q282 437 290 411T302 370Q305 385 313 411T334 465L453 730H574L358 267V0H242ZM229 810L334 950H460L346 810H229Z" />
<glyph unicode="&#xde;" horiz-adv-x="600" d="M81 0V730H198V587H336Q405 587 454 562T531 490T559 380Q559 285 499 229T336 173H198V0H81ZM198 273H325Q380 273 410 301T441 380Q441 431 410 459T325 487H198V273Z" />
<glyph unicode="&#xdf;" horiz-adv-x="600" d="M78 0V526Q78 590 105 638T183 713T300 740Q369 740 420 717T501 652T530 550Q530 499 508 461T444 402T344 382V397Q405 398 449 375T518 310T543 208Q543 147 515 100T435 27T314 0H254V101H306Q361 101 392 132T423
215Q423 268 392 297T306 327H261V420H304Q354 420 382 450T410 528Q410 580 381 609T299 639Q248 639 218 609T188 526V0H78Z" />
<glyph unicode="&#xe0;" horiz-adv-x="600" d="M242 -10Q157 -10 108 34T58 156Q58 236 111 280T260 324H405V373Q405 415 378 439T303 463Q260 463 232 445T198 394H84Q93 470 153 515T306 560Q406 560 464 510T522 374V0H408V98H389L409 122Q409 61 363 26T242
-10ZM279 78Q334 78 369 106T405 179V249H262Q222 249 198 227T174 166Q174 125 202 102T279 78ZM515 645L399 785H528L635 645H515Z" />
<glyph unicode="&#xe1;" horiz-adv-x="600" d="M242 -10Q157 -10 108 34T58 156Q58 236 111 280T260 324H405V373Q405 415 378 439T303 463Q260 463 232 445T198 394H84Q93 470 153 515T306 560Q406 560 464 510T522 374V0H408V98H389L409 122Q409 61 363 26T242
-10ZM279 78Q334 78 369 106T405 179V249H262Q222 249 198 227T174 166Q174 125 202 102T279 78ZM234 645L339 785H465L351 645H234Z" />
<glyph unicode="&#xe2;" horiz-adv-x="600" d="M242 -10Q157 -10 108 34T58 156Q58 236 111 280T260 324H405V373Q405 415 378 439T303 463Q260 463 232 445T198 394H84Q93 470 153 515T306 560Q406 560 464 510T522 374V0H408V98H389L409 122Q409 61 363 26T242
-10ZM279 78Q334 78 369 106T405 179V249H262Q222 249 198 227T174 166Q174 125 202 102T279 78ZM113 645L251 785H359L497 645H382L304 719L230 645H113Z" />
<glyph unicode="&#xe3;" horiz-adv-x="600" d="M242 -10Q157 -10 108 34T58 156Q58 236 111 280T260 324H405V373Q405 415 378 439T303 463Q260 463 232 445T198 394H84Q93 470 153 515T306 560Q406 560 464 510T522 374V0H408V98H389L409 122Q409 61 363 26T242
-10ZM279 78Q334 78 369 106T405 179V249H262Q222 249 198 227T174 166Q174 125 202 102T279 78ZM375 643Q344 643 325 653T293 676T268 699T240 709Q227 709 219 700T210 675V648H136V681Q136 729 163 758T235 787Q266 787 285 777T317 754T342 731T370 721Q384
721 392 729T400 753V782H474V749Q474 701 447 672T375 643Z" />
<glyph unicode="&#xe4;" horiz-adv-x="600" d="M242 -10Q157 -10 108 34T58 156Q58 236 111 280T260 324H405V373Q405 415 378 439T303 463Q260 463 232 445T198 394H84Q93 470 153 515T306 560Q406 560 464 510T522 374V0H408V98H389L409 122Q409 61 363 26T242
-10ZM279 78Q334 78 369 106T405 179V249H262Q222 249 198 227T174 166Q174 125 202 102T279 78ZM421 644Q388 644 369 662T350 713Q350 746 369 765T421 784Q453 784 472 765T492 713Q492 681 473 663T421 644ZM189 644Q157 644 138 662T118 713Q118 746 137 765T189
784Q222 784 241 765T260 713Q260 681 241 663T189 644Z" />
<glyph unicode="&#xe5;" horiz-adv-x="600" d="M242 -10Q157 -10 108 34T58 156Q58 236 111 280T260 324H405V373Q405 415 378 439T303 463Q260 463 232 445T198 394H84Q93 470 153 515T306 560Q406 560 464 510T522 374V0H408V98H389L409 122Q409 61 363 26T242
-10ZM279 78Q334 78 369 106T405 179V249H262Q222 249 198 227T174 166Q174 125 202 102T279 78ZM305 604Q247 604 212 637T176 724Q176 777 211 810T305 844Q363 844 398 811T434 724Q434 670 399 637T305 604ZM305 665Q332 665 348 681T365 724Q365 751 349 767T305
784Q278 784 262 768T245 724Q245 697 261 681T305 665Z" />
<glyph unicode="&#xe6;" horiz-adv-x="600" d="M171 -10Q109 -10 72 29T35 134V190Q35 252 78 289T193 327H254V404Q254 439 240 456T197 474Q171 474 156 458T140 411H42Q42 478 80 519T180 560Q219 560 244 548T283 517T299 482H305Q308 499 320 517T358 547T420
560Q487 560 526 518T565 404V253H349V146Q349 114 365 95T407 76Q435 76 451 91T467 134H565Q565 70 525 30T420 -10Q383 -10 358 2T321 33T305 68H299Q296 51 282 33T240 3T171 -10ZM194 76Q221 76 237 95T254 146V253H194Q167 253 152 237T136 190V134Q136 107
151 92T194 76ZM349 327H467V404Q467 437 451 455T407 474Q380 474 365 456T349 404V327Z" />
<glyph unicode="&#xe7;" horiz-adv-x="600" d="M202 -213V-151H276Q300 -151 314 -140T328 -115Q328 -95 299 -82T218 -69L253 22H317L297 -37Q325 -39 355 -49T406 -79T427 -126Q427 -161 392 -187T298 -213H202ZM304 -10Q234 -10 183 16T103 90T74 204V346Q74
412 102 460T182 534T304 560Q405 560 466 507T530 363H414Q411 408 382 433T304 458Q251 458 221 429T190 346V204Q190 151 220 122T304 92Q353 92 382 117T414 187H530Q527 96 466 43T304 -10Z" />
<glyph unicode="&#xe8;" horiz-adv-x="600" d="M300 -10Q232 -10 181 16T102 91T74 204V346Q74 410 102 458T181 533T300 560Q369 560 419 534T498 459T526 346V247H186V204Q186 145 215 114T301 83Q346 83 373 99T408 144H523Q510 74 449 32T300 -10ZM414 315V346Q414
405 386 436T300 468Q245 468 216 436T186 346V323L422 324L414 315ZM510 645L394 785H523L630 645H510Z" />
<glyph unicode="&#xe9;" horiz-adv-x="600" d="M300 -10Q232 -10 181 16T102 91T74 204V346Q74 410 102 458T181 533T300 560Q369 560 419 534T498 459T526 346V247H186V204Q186 145 215 114T301 83Q346 83 373 99T408 144H523Q510 74 449 32T300 -10ZM414 315V346Q414
405 386 436T300 468Q245 468 216 436T186 346V323L422 324L414 315ZM229 645L334 785H460L346 645H229Z" />
<glyph unicode="&#xea;" horiz-adv-x="600" d="M300 -10Q232 -10 181 16T102 91T74 204V346Q74 410 102 458T181 533T300 560Q369 560 419 534T498 459T526 346V247H186V204Q186 145 215 114T301 83Q346 83 373 99T408 144H523Q510 74 449 32T300 -10ZM414 315V346Q414
405 386 436T300 468Q245 468 216 436T186 346V323L422 324L414 315ZM108 645L246 785H354L492 645H377L299 719L225 645H108Z" />
<glyph unicode="&#xeb;" horiz-adv-x="600" d="M300 -10Q232 -10 181 16T102 91T74 204V346Q74 410 102 458T181 533T300 560Q369 560 419 534T498 459T526 346V247H186V204Q186 145 215 114T301 83Q346 83 373 99T408 144H523Q510 74 449 32T300 -10ZM414 315V346Q414
405 386 436T300 468Q245 468 216 436T186 346V323L422 324L414 315ZM416 644Q383 644 364 662T345 713Q345 746 364 765T416 784Q448 784 467 765T487 713Q487 681 468 663T416 644ZM184 644Q152 644 133 662T113 713Q113 746 132 765T184 784Q217 784 236 765T255
713Q255 681 236 663T184 644Z" />
<glyph unicode="&#xec;" horiz-adv-x="600" d="M78 0V106H271V445H103V550H383V106H557V0H78ZM527 645L411 785H540L647 645H527Z" />
<glyph unicode="&#xed;" horiz-adv-x="600" d="M78 0V106H271V445H103V550H383V106H557V0H78ZM246 645L351 785H477L363 645H246Z" />
<glyph unicode="&#xee;" horiz-adv-x="600" d="M78 0V106H271V445H103V550H383V106H557V0H78ZM125 645L263 785H371L509 645H394L316 719L242 645H125Z" />
<glyph unicode="&#xef;" horiz-adv-x="600" d="M78 0V106H271V445H103V550H383V106H557V0H78ZM433 644Q400 644 381 662T362 713Q362 746 381 765T433 784Q465 784 484 765T504 713Q504 681 485 663T433 644ZM201 644Q169 644 150 662T130 713Q130 746 149 765T201
784Q234 784 253 765T272 713Q272 681 253 663T201 644Z" />
<glyph unicode="&#xf0;" horiz-adv-x="600" d="M299 -6Q227 -6 172 23T87 104T57 224Q57 291 83 340T156 417T264 445Q296 445 321 434T364 408T391 378H401Q399 385 383 412T331 484L272 565L112 498V589L220 635L149 730H281L320 676L475 740V649L372 606L439
512Q491 441 517 371T543 235Q543 162 513 108T429 24T299 -6ZM299 94Q357 94 392 129T427 224Q427 263 411 292T367 337T299 353Q243 353 208 318T173 224Q173 165 208 130T299 94Z" />
<glyph unicode="&#xf1;" horiz-adv-x="600" d="M80 0V550H195V445H225L195 418Q195 485 234 522T342 560Q424 560 473 507T522 363V0H405V351Q405 403 378 431T302 459Q253 459 225 430T197 346V0H80ZM375 643Q344 643 325 653T293 676T268 699T240 709Q227 709
219 700T210 675V648H136V681Q136 729 163 758T235 787Q266 787 285 777T317 754T342 731T370 721Q384 721 392 729T400 753V782H474V749Q474 701 447 672T375 643Z" />
<glyph unicode="&#xf2;" horiz-adv-x="600" d="M300 -9Q231 -9 181 17T102 91T74 206V344Q74 410 102 458T180 533T300 559Q370 559 420 533T498 459T526 345V206Q526 140 498 92T420 17T300 -9ZM300 93Q352 93 381 122T410 206V344Q410 400 381 428T300 457Q249
457 220 429T190 344V206Q190 151 219 122T300 93ZM510 645L394 785H523L630 645H510Z" />
<glyph unicode="&#xf3;" horiz-adv-x="600" d="M300 -9Q231 -9 181 17T102 91T74 206V344Q74 410 102 458T180 533T300 559Q370 559 420 533T498 459T526 345V206Q526 140 498 92T420 17T300 -9ZM300 93Q352 93 381 122T410 206V344Q410 400 381 428T300 457Q249
457 220 429T190 344V206Q190 151 219 122T300 93ZM229 645L334 785H460L346 645H229Z" />
<glyph unicode="&#xf4;" horiz-adv-x="600" d="M300 -9Q231 -9 181 17T102 91T74 206V344Q74 410 102 458T180 533T300 559Q370 559 420 533T498 459T526 345V206Q526 140 498 92T420 17T300 -9ZM300 93Q352 93 381 122T410 206V344Q410 400 381 428T300 457Q249
457 220 429T190 344V206Q190 151 219 122T300 93ZM108 645L246 785H354L492 645H377L299 719L225 645H108Z" />
<glyph unicode="&#xf5;" horiz-adv-x="600" d="M300 -9Q231 -9 181 17T102 91T74 206V344Q74 410 102 458T180 533T300 559Q370 559 420 533T498 459T526 345V206Q526 140 498 92T420 17T300 -9ZM300 93Q352 93 381 122T410 206V344Q410 400 381 428T300 457Q249
457 220 429T190 344V206Q190 151 219 122T300 93ZM370 643Q339 643 320 653T288 676T263 699T235 709Q222 709 214 700T205 675V648H131V681Q131 729 158 758T230 787Q261 787 280 777T312 754T337 731T365 721Q379 721 387 729T395 753V782H469V749Q469 701 442
672T370 643Z" />
<glyph unicode="&#xf6;" horiz-adv-x="600" d="M300 -9Q231 -9 181 17T102 91T74 206V344Q74 410 102 458T180 533T300 559Q370 559 420 533T498 459T526 345V206Q526 140 498 92T420 17T300 -9ZM300 93Q352 93 381 122T410 206V344Q410 400 381 428T300 457Q249
457 220 429T190 344V206Q190 151 219 122T300 93ZM416 644Q383 644 364 662T345 713Q345 746 364 765T416 784Q448 784 467 765T487 713Q487 681 468 663T416 644ZM184 644Q152 644 133 662T113 713Q113 746 132 765T184 784Q217 784 236 765T255 713Q255 681
236 663T184 644Z" />
<glyph unicode="&#xf7;" horiz-adv-x="600" d="M100 280V383H500V280H100ZM288 74Q257 74 238 91T218 138Q218 167 237 185T288 203H312Q343 203 362 185T382 138Q382 109 363 92T312 74H288ZM288 460Q257 460 238 477T218 524Q218 553 237 571T288 589H312Q343
589 362 571T382 524Q382 495 363 478T312 460H288Z" />
<glyph unicode="&#xf8;" horiz-adv-x="600" d="M31 -30L468 590H569L132 -30H31ZM300 -10Q231 -10 181 16T103 90T76 204V346Q76 412 103 460T180 534T300 560Q370 560 420 534T497 460T524 346V204Q524 139 497 91T420 16T300 -10ZM300 92Q354 92 384 122T415
204V346Q415 399 385 428T300 458Q246 458 216 429T185 346V204Q185 152 215 122T300 92Z" />
<glyph unicode="&#xf9;" horiz-adv-x="600" d="M299 -10Q197 -10 138 48T78 206V550H195V207Q195 152 222 122T299 92Q349 92 377 122T405 207V550H522V206Q522 106 462 48T299 -10ZM510 645L394 785H523L630 645H510Z" />
<glyph unicode="&#xfa;" horiz-adv-x="600" d="M299 -10Q197 -10 138 48T78 206V550H195V207Q195 152 222 122T299 92Q349 92 377 122T405 207V550H522V206Q522 106 462 48T299 -10ZM229 645L334 785H460L346 645H229Z" />
<glyph unicode="&#xfb;" horiz-adv-x="600" d="M299 -10Q197 -10 138 48T78 206V550H195V207Q195 152 222 122T299 92Q349 92 377 122T405 207V550H522V206Q522 106 462 48T299 -10ZM108 645L246 785H354L492 645H377L299 719L225 645H108Z" />
<glyph unicode="&#xfc;" horiz-adv-x="600" d="M299 -10Q197 -10 138 48T78 206V550H195V207Q195 152 222 122T299 92Q349 92 377 122T405 207V550H522V206Q522 106 462 48T299 -10ZM416 644Q383 644 364 662T345 713Q345 746 364 765T416 784Q448 784 467 765T487
713Q487 681 468 663T416 644ZM184 644Q152 644 133 662T113 713Q113 746 132 765T184 784Q217 784 236 765T255 713Q255 681 236 663T184 644Z" />
<glyph unicode="&#xfd;" horiz-adv-x="600" d="M169 -180L247 31L42 550H170L278 254Q286 233 293 203T306 153Q310 173 317 203T332 254L435 550H558L292 -180H169ZM229 645L334 785H460L346 645H229Z" />
<glyph unicode="&#xfe;" horiz-adv-x="600" d="M78 -170V55H192V-170H78ZM340 -10Q272 -10 232 28T192 132L218 105H192V0H78V730H194V574L191 445H218L192 418Q192 484 232 522T340 560Q423 560 473 504T523 351V199Q523 103 473 47T340 -10ZM300 91Q350 91 378
120T407 204V346Q407 400 379 429T300 459Q251 459 223 429T194 346V204Q194 151 222 121T300 91Z" />
<glyph unicode="&#xff;" horiz-adv-x="600" d="M169 -180L247 31L42 550H170L278 254Q286 233 293 203T306 153Q310 173 317 203T332 254L435 550H558L292 -180H169ZM416 644Q383 644 364 662T345 713Q345 746 364 765T416 784Q448 784 467 765T487 713Q487 681
468 663T416 644ZM184 644Q152 644 133 662T113 713Q113 746 132 765T184 784Q217 784 236 765T255 713Q255 681 236 663T184 644Z" />
<glyph unicode="&#x2013;" horiz-adv-x="600" d="M78 277V383H522V277H78Z" />
<glyph unicode="&#x2014;" horiz-adv-x="600" d="M0 277V383H600V277H0Z" />
<glyph unicode="&#x2018;" horiz-adv-x="600" d="M451 775L371 464H219L349 775H451Z" />
<glyph unicode="&#x2019;" horiz-adv-x="600" d="M149 465L229 776H381L251 465H149Z" />
<glyph unicode="&#x201a;" horiz-adv-x="600" d="M154 -160L234 151H386L256 -160H154Z" />
<glyph unicode="&#x201c;" horiz-adv-x="600" d="M301 465L431 776H533L453 465H301ZM57 465L187 776H289L209 465H57Z" />
<glyph unicode="&#x201d;" horiz-adv-x="600" d="M311 465L391 776H543L413 465H311ZM67 465L147 776H299L169 465H67Z" />
<glyph unicode="&#x201e;" horiz-adv-x="600" d="M311 -160L391 151H543L413 -160H311ZM67 -160L147 151H299L169 -160H67Z" />
<glyph unicode="&#x2022;" horiz-adv-x="600" d="M300 238Q244 238 209 273T173 365Q173 421 208 456T300 492Q356 492 391 457T427 365Q427 309 392 274T300 238Z" />
<glyph unicode="&#x2039;" horiz-adv-x="600" d="M332 40L142 280L332 520H455L266 282L459 40H332Z" />
<glyph unicode="&#x203a;" horiz-adv-x="600" d="M146 40L335 278L142 520H269L459 280L269 40H146Z" />
</font>
</defs>
</svg>
