<?xml version="1.0" standalone="no"?>
<!DOCTYPE svg PUBLIC "-//W3C//DTD SVG 1.1//EN" "http://www.w3.org/Graphics/SVG/1.1/DTD/svg11.dtd">
<svg xmlns="http://www.w3.org/2000/svg">
<defs >
<font id="JetBrainsMono" horiz-adv-x="602" ><font-face
    font-family="JetBrains Mono SemiBold"
    units-per-em="1000"
    panose-1="2 0 0 9 0 0 0 0 0 0"
    ascent="1020"
    descent="-300"
    alphabetic="0" />
<glyph unicode=" " horiz-adv-x="600" />
<glyph unicode="!" horiz-adv-x="600" d="M250 228L286 597L307 730H437L415 597L335 228H250ZM240 -5Q210 -5 195 13T184 59Q188 88 209 106T260 124H290Q322 124 337 107T347 60Q343 31 322 13T270 -5H240Z" />
<glyph unicode="&quot;" horiz-adv-x="600" d="M385 430L400 609L420 730H540L520 609L480 430H385ZM169 430L184 609L204 730H324L304 609L264 430H169Z" />
<glyph unicode="#" horiz-adv-x="600" d="M33 0L96 187H14L27 267H123L189 463H91L103 543H215L279 730H366L303 543H445L508 730H595L532 543H614L601 463H505L439 267H537L525 187H413L349 0H262L325 187H183L120 0H33ZM210 267H352L418 463H276L210 267Z" />
<glyph unicode="$" horiz-adv-x="600" d="M204 -140L225 -9Q129 -1 82 53T48 194H164Q159 155 178 129T241 95L276 319L258 324Q178 347 142 403T118 538Q131 622 192 676T343 738L364 870H426L405 739Q494 731 538 678T570 541H454Q460 579 443 603T389 635L355
422L388 412Q468 390 503 334T526 197Q518 140 485 96T402 24T287 -9L266 -140H204ZM303 94Q347 101 375 126T409 193Q416 236 392 266T317 302L341 331L303 94ZM288 388L327 635Q289 628 266 605T236 546Q228 499 254 468T336 433L288 388Z" />
<glyph unicode="%" horiz-adv-x="600" d="M-43 0L582 730H671L46 0H-43ZM398 -5Q334 -5 300 31T276 130L286 195Q295 257 341 293T451 330Q515 330 549 294T574 195L564 130Q558 89 535 59T476 12T398 -5ZM410 71Q469 71 479 130L489 195Q494 226 481 240T439
255Q381 255 371 195L361 130Q352 71 410 71ZM176 400Q113 400 79 436T54 535L64 600Q71 642 94 672T152 719T229 735Q292 735 327 699T352 600L342 535Q336 493 313 463T254 417T176 400ZM188 475Q247 475 257 535L267 600Q277 660 218 660Q189 660 172 646T149
600L139 535Q135 504 147 490T188 475Z" />
<glyph unicode="&amp;" horiz-adv-x="600" d="M186 -10Q98 -10 57 38T29 173L45 273Q55 337 94 378T193 431L179 413Q154 456 145 495T142 574Q150 624 179 661T254 719T357 740Q417 740 457 718T515 655T525 561H415Q419 586 411 604T386 633T342 643Q317 643
298 634T265 607T248 566Q244 542 252 513T275 455L390 250L466 360H580L440 158L528 0H410L370 71Q287 -10 186 -10ZM211 88Q241 88 270 105T324 153L215 348Q192 341 177 322T157 273L141 173Q134 132 153 110T211 88Z" />
<glyph unicode="&apos;" horiz-adv-x="600" d="M274 430L284 576L309 730H429L404 576L369 430H274Z" />
<glyph unicode="(" horiz-adv-x="600" d="M421 -125Q278 -86 212 15T170 265L200 455Q215 552 265 630T394 764T575 845L557 731Q494 717 444 679T361 583T316 455L286 265Q276 195 290 139T343 44T439 -8L421 -125Z" />
<glyph unicode=")" horiz-adv-x="600" d="M51 -125L69 -8Q133 6 183 44T266 138T310 265L340 455Q351 526 337 583T284 678T187 731L205 845Q298 820 359 765T446 631T456 455L426 265Q411 167 362 89T234 -44T51 -125Z" />
<glyph unicode="*" horiz-adv-x="600" d="M159 89L81 149L135 213Q153 234 177 254T226 293T268 323L267 328Q247 329 220 331T165 338T115 352L48 378L99 478L167 452Q190 444 212 429T255 398T290 369L295 373Q292 393 289 420T285 477T288 533L300 610H407L394
533Q390 507 380 477T357 420T335 373L339 369Q358 383 383 398T435 429T487 452L564 478L585 378L508 352Q484 344 455 339T399 331T350 328L346 322Q360 310 379 292T415 254T444 213L479 149L382 89L347 152Q337 173 329 200T315 253T307 300H300Q292 280 278
254T248 200T213 152L159 89Z" />
<glyph unicode="+" horiz-adv-x="600" d="M213 93L242 277H60L77 383H259L288 567H403L374 383H556L539 277H358L328 93H213Z" />
<glyph unicode="," horiz-adv-x="600" d="M84 -160L213 151H367L188 -160H84Z" />
<glyph unicode="-" horiz-adv-x="600" d="M133 277L150 383H483L466 277H133Z" />
<glyph unicode="." horiz-adv-x="600" d="M254 -10Q212 -10 192 14T177 80Q184 122 213 147T283 172Q325 172 345 147T359 80Q353 39 325 15T254 -10Z" />
<glyph unicode="/" horiz-adv-x="600" d="M3 -110L499 830H623L127 -110H3Z" />
<glyph unicode="0" horiz-adv-x="600" d="M254 -10Q184 -10 137 17T70 93T60 207L110 523Q121 589 156 637T247 713T373 740Q444 740 491 713T558 638T567 523L517 207Q507 142 471 93T380 17T254 -10ZM271 90Q325 90 361 122T407 207L457 523Q466 575 439 607T357
640Q303 640 266 608T220 523L170 207Q161 155 189 123T271 90ZM313 302Q284 302 267 320T249 368Q249 397 266 414T313 432Q342 432 360 415T378 368Q378 338 360 320T313 302Z" />
<glyph unicode="1" horiz-adv-x="600" d="M42 0L58 103H250L333 628L117 484L137 608L324 730H466L366 103H521L505 0H42Z" />
<glyph unicode="2" horiz-adv-x="600" d="M38 0L56 114L320 345Q378 397 408 438T445 522Q454 575 430 605T355 636Q299 636 263 604T216 516H100Q112 585 149 635T244 712T372 740Q440 740 486 714T552 641T563 530Q552 463 508 398T377 260L194 105H506L489 0H38Z" />
<glyph unicode="3" horiz-adv-x="600" d="M246 -10Q176 -10 129 16T61 89T50 200H167Q158 148 183 119T263 90Q318 90 352 120T395 200L403 256Q411 308 386 337T307 366H227L244 473L432 629H150L166 730H569L552 623L318 431L324 467Q429 467 481 410T520 256L511
200Q502 137 466 90T373 16T246 -10Z" />
<glyph unicode="4" horiz-adv-x="600" d="M351 0L374 148H48L76 320L423 730H554L183 290L177 252H390L418 420H534L467 0H351Z" />
<glyph unicode="5" horiz-adv-x="600" d="M252 -10Q155 -10 103 39T57 173H174Q171 135 196 114T270 92Q324 92 356 121T398 202L409 273Q417 326 394 354T316 383Q283 383 256 368T212 328H98L167 730H572L555 625H261L223 405H252L219 379Q227 426 267 453T370
480Q459 480 500 426T526 273L514 202Q498 104 429 47T252 -10Z" />
<glyph unicode="6" horiz-adv-x="600" d="M255 -10Q182 -10 132 20T61 105T51 233Q59 285 85 341T150 447L370 730H499L235 392L240 388Q265 419 299 434T376 450Q435 450 474 422T529 344T534 225Q523 155 485 102T387 20T255 -10ZM270 90Q327 90 368 127T419
225Q429 286 400 323T313 360Q256 360 215 323T164 225Q155 164 184 127T270 90Z" />
<glyph unicode="7" horiz-adv-x="600" d="M118 0L478 622H236L219 516H103L137 730H614L596 619L245 0H118Z" />
<glyph unicode="8" horiz-adv-x="600" d="M254 -10Q147 -10 93 44T53 188Q64 254 108 301T232 382L348 431Q388 449 414 479T447 547Q454 590 430 615T357 640Q309 640 277 615T238 546Q232 510 248 480T299 432L400 383Q473 347 501 300T518 188Q509 127 473
83T382 14T254 -10ZM270 90Q324 90 360 119T404 194Q410 231 394 263T342 314L237 367Q171 401 143 445T124 552Q133 608 166 650T252 717T373 741Q440 741 485 717T551 651T562 552Q552 489 510 445T390 366L268 313Q228 296 202 264T169 196Q161 148 188 119T270
90Z" />
<glyph unicode="9" horiz-adv-x="600" d="M129 0L396 338L391 342Q367 312 331 296T252 280Q194 280 155 308T99 386T94 505Q105 576 143 628T240 710T372 740Q446 740 495 710T566 625T577 497Q569 445 543 389T478 283L258 0H129ZM315 370Q372 370 413 407T463
505Q473 566 444 603T357 640Q300 640 259 603T209 505Q199 444 228 407T315 370Z" />
<glyph unicode=":" horiz-adv-x="600" d="M319 397Q278 397 257 419T241 478Q247 515 276 537T345 560Q386 560 407 538T422 478Q417 442 389 420T319 397ZM254 -10Q213 -10 192 12T177 72Q182 109 211 131T280 153Q321 153 342 131T358 72Q352 35 324 13T254 -10Z" />
<glyph unicode=";" horiz-adv-x="600" d="M90 -160L219 151H371L192 -160H90ZM309 397Q273 397 254 420T240 478Q246 513 273 536T335 560H355Q390 560 409 537T423 478Q418 443 391 420T329 397H309Z" />
<glyph unicode="&lt;" horiz-adv-x="600" d="M487 58L77 270L96 389L573 601L555 487L239 349Q218 340 198 334T168 326Q178 324 196 318T232 302L504 164L487 58Z" />
<glyph unicode="=" horiz-adv-x="600" d="M102 399L119 505H553L536 399H102ZM63 155L81 261H515L498 155H63Z" />
<glyph unicode="&gt;" horiz-adv-x="600" d="M43 58L61 171L377 309Q398 318 418 324T449 332Q439 334 421 340T385 356L112 494L129 601L539 389L520 270L43 58Z" />
<glyph unicode="?" horiz-adv-x="600" d="M187 214L216 409H289Q342 409 378 438T423 515Q430 563 403 592T321 621H178L196 730H334Q444 730 499 672T539 515Q530 455 498 409T416 336T308 308L293 214H187ZM190 -5Q161 -5 146 13T134 59Q138 88 159 106T210
124H240Q272 124 287 107T297 60Q293 31 272 13T220 -5H190Z" />
<glyph unicode="@" horiz-adv-x="600" d="M252 -180Q164 -180 105 -145T21 -44T10 110L63 450Q78 540 121 605T233 705T388 740Q467 740 519 710T593 625T603 497L535 65H446L460 120H430L450 145Q444 105 411 80T328 55Q265 55 237 96T221 214L239 330Q252 407
293 448T397 489Q446 489 471 465T490 399L480 420H509L505 489L506 497Q513 545 501 580T457 635T375 655Q289 655 233 601T161 450L107 110Q92 16 134 -36T267 -89H337L322 -180H252ZM376 128Q413 128 434 150T462 220L479 331Q486 374 472 395T422 417Q387 417
366 395T337 330L319 214Q312 169 326 149T376 128Z" />
<glyph unicode="A" horiz-adv-x="600" d="M-5 0L296 730H448L517 0H402L389 181H188L117 0H-5ZM225 277H382L367 480Q364 532 362 573T358 630Q353 614 339 574T305 481L225 277Z" />
<glyph unicode="B" horiz-adv-x="600" d="M37 0L153 730H372Q477 730 530 680T569 542Q561 493 534 457T465 400T374 380L375 387Q429 388 467 367T523 305T532 207Q522 144 487 97T396 25T269 0H37ZM166 99H276Q333 99 370 129T417 212Q425 266 398 298T313 331H203L166
99ZM218 427H322Q374 427 408 454T450 529Q458 577 433 604T355 631H250L218 427Z" />
<glyph unicode="C" horiz-adv-x="600" d="M258 -10Q189 -10 142 16T74 90T64 204L115 526Q126 592 161 640T252 714T377 740Q447 740 493 714T560 639T570 526H454Q463 580 439 608T361 637Q308 637 274 609T231 526L181 204Q172 151 197 122T275 93Q327 93 360
122T403 204H520Q510 140 474 92T383 17T258 -10Z" />
<glyph unicode="D" horiz-adv-x="600" d="M35 0L151 730H361Q435 730 484 702T555 624T566 504L522 227Q511 158 473 107T377 28T245 0H35ZM169 107H262Q320 107 358 139T405 227L449 504Q458 559 430 591T344 623H250L169 107Z" />
<glyph unicode="E" horiz-adv-x="600" d="M47 0L163 730H596L580 628H261L230 429H513L497 327H214L178 102H497L480 0H47Z" />
<glyph unicode="F" horiz-adv-x="600" d="M40 0L156 731H604L586 623H253L220 416H527L510 308H205L156 0H40Z" />
<glyph unicode="G" horiz-adv-x="600" d="M258 -10Q189 -10 142 16T74 90T64 204L115 526Q126 592 161 640T252 714T377 740Q447 740 493 714T560 639T570 526H454Q463 580 439 608T361 637Q308 637 274 609T231 526L181 204Q172 151 197 122T275 92Q327 92 360
121T403 204L415 282H285L301 384H548L520 204Q510 140 474 92T383 17T258 -10Z" />
<glyph unicode="H" horiz-adv-x="600" d="M37 0L153 730H270L222 432H427L474 730H591L475 0H358L410 324H205L154 0H37Z" />
<glyph unicode="I" horiz-adv-x="600" d="M50 0L66 103H214L297 627H149L166 730H578L562 627H414L331 103H479L462 0H50Z" />
<glyph unicode="J" horiz-adv-x="600" d="M224 -10Q115 -10 61 50T24 214H140Q132 157 158 125T241 92Q297 92 334 124T379 214L444 622H274L291 730H578L496 214Q486 145 449 95T354 17T224 -10Z" />
<glyph unicode="K" horiz-adv-x="600" d="M36 0L152 730H269L221 430H310L503 730H630L404 374L523 0H397L298 325H204L153 0H36Z" />
<glyph unicode="L" horiz-adv-x="600" d="M62 0L178 730H295L196 108H510L493 0H62Z" />
<glyph unicode="M" horiz-adv-x="600" d="M17 0L133 730H271L306 497Q311 463 314 434T318 390Q323 404 334 433T361 497L468 730H611L495 0H385L423 236Q431 287 443 345T468 461T495 573T519 665L362 316H253L202 665Q201 627 198 576T191 466T180 348T164 236L127
0H17Z" />
<glyph unicode="N" horiz-adv-x="600" d="M33 0L149 730H292L406 132Q408 162 411 203T420 289T431 369L488 730H595L479 0H336L223 598Q221 571 218 531T209 449T198 370L140 0H33Z" />
<glyph unicode="O" horiz-adv-x="600" d="M254 -10Q185 -10 139 16T74 90T64 204L115 526Q126 592 160 640T249 714T373 740Q443 740 489 714T555 640T564 526L513 204Q503 139 468 91T378 16T254 -10ZM271 93Q323 93 355 122T396 204L447 526Q456 580 433 608T357
637Q304 637 272 609T231 526L181 204Q172 151 195 122T271 93Z" />
<glyph unicode="P" horiz-adv-x="600" d="M36 0L152 730H394Q466 730 514 703T584 625T596 507Q585 441 548 391T453 313T323 285H198L153 0H36ZM215 390H339Q394 390 431 422T477 507Q486 562 459 593T377 625H252L215 390Z" />
<glyph unicode="Q" horiz-adv-x="600" d="M343 -180L263 0L281 -8Q274 -8 268 -9T254 -10Q185 -10 138 17T70 93T60 207L110 523Q121 589 156 637T248 713T373 740Q443 740 490 713T557 638T567 523L517 207Q505 131 460 78T343 4L354 62L463 -180H343ZM271 93Q324
93 358 123T401 207L451 523Q460 577 435 607T357 638Q306 638 271 608T226 523L176 207Q167 154 192 124T271 93Z" />
<glyph unicode="R" horiz-adv-x="600" d="M36 0L152 730H382Q453 730 501 704T570 629T581 515Q573 460 545 416T474 342T378 302L392 360L510 0H384L295 295H199L152 0H36ZM215 398H329Q382 398 418 428T462 512Q471 565 445 596T365 627H252L215 398Z" />
<glyph unicode="S" horiz-adv-x="600" d="M256 -10Q146 -10 90 45T48 194H164Q157 147 186 120T274 93Q330 93 366 119T409 193Q416 234 399 263T344 303L260 328Q181 350 144 406T118 538Q128 600 162 645T251 715T375 741Q479 741 531 687T570 541H454Q461 586
437 612T358 638Q307 638 275 614T236 546Q229 505 245 476T299 435L385 409Q465 386 501 331T526 197Q517 134 480 88T385 16T256 -10Z" />
<glyph unicode="T" horiz-adv-x="600" d="M198 0L296 623H103L120 731H624L606 623H413L314 0H198Z" />
<glyph unicode="U" horiz-adv-x="600" d="M254 -10Q148 -10 99 48T66 206L149 730H265L182 207Q173 153 195 123T271 92Q323 92 355 122T396 207L479 730H595L512 206Q502 139 468 91T379 16T254 -10Z" />
<glyph unicode="V" horiz-adv-x="600" d="M180 0L111 730H229L266 249Q270 210 272 169T274 103Q282 127 295 168T325 250L513 730H633L332 0H180Z" />
<glyph unicode="W" horiz-adv-x="600" d="M51 0L90 730H190L155 213Q154 195 152 171T147 122T142 80Q147 98 152 122T164 170T176 213L320 730H425L400 213Q399 195 398 171T396 122T394 80Q398 98 403 122T413 170T424 213L553 730H654L457 0H325L351 521Q352
542 354 566T357 614T360 655Q357 638 351 614T339 566T327 521L184 0H51Z" />
<glyph unicode="X" horiz-adv-x="600" d="M-13 0L250 376L115 730H242L308 539Q314 520 320 501T330 472Q336 482 346 501T369 539L498 730H629L382 374L525 0H399L323 209Q316 228 310 247T301 278Q296 267 285 248T261 210L119 0H-13Z" />
<glyph unicode="Y" horiz-adv-x="600" d="M198 0L240 267L98 730H217L296 465Q304 437 308 411T314 370Q320 385 332 411T361 465L522 730H646L356 267L314 0H198Z" />
<glyph unicode="Z" horiz-adv-x="600" d="M37 0L55 112L434 622H141L159 730H581L562 618L183 108H492L475 0H37Z" />
<glyph unicode="[" horiz-adv-x="600" d="M129 -110L277 830H548L532 723H377L261 -3H416L400 -110H129Z" />
<glyph unicode="\" horiz-adv-x="600" d="M358 -110L150 830H267L475 -110H358Z" />
<glyph unicode="]" horiz-adv-x="600" d="M78 -110L94 -3H249L365 723H210L226 830H497L349 -110H78Z" />
<glyph unicode="^" horiz-adv-x="600" d="M81 340L317 730H429L539 340H434L375 577Q370 598 367 617T362 646Q358 636 350 617T329 577L192 340H81Z" />
<glyph unicode="_" horiz-adv-x="600" d="M-4 -129L12 -25H492L476 -129H-4Z" />
<glyph unicode="`" horiz-adv-x="600" d="M345 645L251 785H374L459 645H345Z" />
<glyph unicode="a" horiz-adv-x="600" d="M211 -10Q129 -10 89 46T64 199L88 351Q98 415 128 462T202 534T302 560Q370 560 404 522T428 418L406 445H433L447 550H563L476 0H362L379 105H353L383 132Q372 66 326 28T211 -10ZM269 91Q318 91 350 121T392 204L414
346Q423 399 400 429T327 459Q276 459 245 430T203 346L181 204Q172 150 195 121T269 91Z" />
<glyph unicode="b" horiz-adv-x="600" d="M297 -10Q229 -10 195 28T172 132L193 105H168L151 0H36L152 730H269L244 574L220 445H246L217 418Q227 484 274 522T388 560Q471 560 511 504T536 351L512 199Q502 135 472 88T398 16T297 -10ZM273 91Q323 91 355 120T396
204L418 346Q428 400 405 429T331 459Q282 459 250 429T208 346L185 204Q177 151 200 121T273 91Z" />
<glyph unicode="c" horiz-adv-x="600" d="M258 -10Q188 -10 141 16T74 90T64 204L86 346Q97 412 132 460T223 534T349 560Q450 560 502 507T544 363H428Q432 408 407 433T332 458Q279 458 246 429T203 346L181 204Q172 151 196 122T274 92Q323 92 356 117T400
187H516Q498 96 429 43T258 -10Z" />
<glyph unicode="d" horiz-adv-x="600" d="M211 -10Q129 -10 89 46T64 199L88 351Q98 415 128 462T202 534T302 560Q370 560 404 522T428 418L406 445H433L450 574L476 730H592L476 0H362L379 105H353L383 132Q372 66 326 28T211 -10ZM269 91Q318 91 350 121T392
204L414 346Q423 399 400 429T327 459Q276 459 245 430T203 346L181 204Q172 150 195 121T269 91Z" />
<glyph unicode="e" horiz-adv-x="600" d="M254 -10Q186 -10 140 16T74 91T64 204L86 346Q97 410 132 458T222 533T345 560Q414 560 460 534T526 459T535 346L520 247H183L176 204Q167 145 190 114T270 83Q315 83 344 99T385 144H500Q484 98 449 63T363 9T254 -10ZM418
315L423 346Q432 405 410 436T331 468Q275 468 242 436T199 346L195 323L428 324L418 315Z" />
<glyph unicode="f" horiz-adv-x="600" d="M-53 -180L-37 -81H69Q110 -81 134 -61T165 -3L226 385H72L89 491H242L254 566Q262 616 290 653T362 710T461 730H629L613 627H446Q414 627 395 611T371 563L359 491H573L556 385H342L281 -5Q268 -86 208 -133T55 -180H-53Z" />
<glyph unicode="g" horiz-adv-x="600" d="M82 -180L98 -81H264Q306 -81 330 -61T360 -3L368 46L386 148H361L390 172Q379 107 334 70T221 33Q137 33 97 89T71 242L88 351Q98 415 128 462T203 534T305 560Q372 560 405 523T429 421L407 445H432L447 550H563L475
-5Q462 -86 402 -133T250 -180H82ZM276 134Q325 134 358 164T400 247L415 346Q424 399 400 429T327 459Q277 459 245 430T204 346L189 247Q180 193 202 164T276 134Z" />
<glyph unicode="h" horiz-adv-x="600" d="M36 0L152 730H269L240 550L221 445H251L217 418Q228 485 273 522T387 560Q469 560 509 507T535 363L478 0H361L417 351Q425 403 402 431T331 460Q282 460 250 430T208 346L153 0H36Z" />
<glyph unicode="i" horiz-adv-x="600" d="M32 0L49 106H241L295 445H127L144 550H423L353 106H527L510 0H32ZM375 644Q339 644 321 662T307 713Q312 746 336 765T397 784Q434 784 452 765T465 713Q461 681 437 663T375 644Z" />
<glyph unicode="j" horiz-adv-x="600" d="M10 -180L28 -72H170Q223 -72 256 -44T298 37L362 442H139L156 550H496L414 35Q404 -31 369 -79T280 -154T157 -180H10ZM447 644Q411 644 393 662T379 713Q384 746 408 765T469 784Q506 784 524 765T537 713Q533 681 509
663T447 644Z" />
<glyph unicode="k" horiz-adv-x="600" d="M39 0L155 730H272L208 331H292L467 550H601L387 280L517 0H387L283 232H193L156 0H39Z" />
<glyph unicode="l" horiz-adv-x="600" d="M332 0Q252 0 212 47T184 173L256 625H88L105 730H389L301 173Q296 142 310 124T355 105H529L513 0H332Z" />
<glyph unicode="m" horiz-adv-x="600" d="M11 0L98 550H195L183 478H204L185 458Q193 505 222 532T293 560Q338 560 357 525T366 428L351 478H387L369 458Q377 505 407 532T480 560Q531 560 554 522T568 419L501 0H398L463 415Q468 444 458 460T424 476Q401 476
386 461T365 416L299 0H213L279 415Q284 445 274 460T239 476Q215 476 200 461T181 416L115 0H11Z" />
<glyph unicode="n" horiz-adv-x="600" d="M36 0L123 550H238L221 445H251L217 418Q228 485 273 522T387 560Q469 560 509 507T535 363L478 0H361L417 351Q425 403 402 431T331 460Q282 460 250 430T208 346L153 0H36Z" />
<glyph unicode="o" horiz-adv-x="600" d="M254 -10Q185 -10 139 16T74 90T64 204L86 346Q97 412 132 460T221 534T345 560Q415 560 460 534T526 460T536 346L513 204Q503 139 468 91T378 16T254 -10ZM271 92Q323 92 355 121T396 204L418 346Q428 401 405 429T328
458Q277 458 245 430T203 346L181 204Q172 150 195 121T271 92Z" />
<glyph unicode="p" horiz-adv-x="600" d="M7 -180L123 550H238L221 445H246L217 418Q227 484 274 522T389 560Q472 560 511 504T536 351L512 199Q502 136 473 89T399 16T298 -10Q230 -10 196 28T172 132L193 105H167L149 -24L124 -180H7ZM274 91Q324 91 356 120T396
204L418 346Q428 401 405 430T331 459Q283 459 250 429T208 346L185 204Q177 151 201 121T274 91Z" />
<glyph unicode="q" horiz-adv-x="600" d="M330 -180L355 -24L379 105H353L381 132Q371 66 325 28T211 -10Q128 -10 88 46T63 199L87 351Q97 415 127 462T202 534T302 560Q370 560 403 522T426 418L406 445H431L448 550H563L447 -180H330ZM268 91Q317 91 350 121T391
204L414 346Q423 399 399 429T326 459Q276 459 244 430T203 346L181 204Q172 150 195 121T268 91Z" />
<glyph unicode="r" horiz-adv-x="600" d="M54 0L141 550H252L235 445H264L219 380Q233 469 280 514T404 560Q493 560 535 506T562 354L556 316H435L440 346Q449 402 426 432T351 462Q300 462 268 432T225 346L171 0H54Z" />
<glyph unicode="s" horiz-adv-x="600" d="M232 -10Q139 -10 90 33T48 146H165Q164 119 186 103T247 86H290Q338 86 365 105T397 157Q402 187 384 206T323 231L255 241Q167 254 130 289T103 398Q115 475 172 517T329 560H367Q456 560 503 520T544 411H428Q428 434
409 449T352 464H314Q269 464 246 447T217 398Q213 369 227 354T281 332L351 321Q444 308 483 271T512 159Q499 79 439 35T274 -10H232Z" />
<glyph unicode="t" horiz-adv-x="600" d="M316 0Q239 0 203 42T178 160L223 445H73L89 550H240L264 700H380L356 550H570L553 445H340L295 160Q286 105 339 105H489L473 0H316Z" />
<glyph unicode="u" horiz-adv-x="600" d="M253 -10Q151 -10 101 48T67 206L121 550H238L184 207Q175 152 198 122T270 92Q319 92 352 122T394 207L448 550H565L510 206Q500 140 465 91T376 16T253 -10Z" />
<glyph unicode="v" horiz-adv-x="600" d="M181 0L88 550H205L257 207Q262 176 265 145T271 95Q278 113 291 144T318 207L476 550H598L332 0H181Z" />
<glyph unicode="w" horiz-adv-x="600" d="M64 0L67 550H162L155 200Q154 173 153 140T151 86Q157 107 166 140T184 200L294 550H390L389 200Q389 173 389 140T387 85Q392 107 401 140T419 200L525 550H619L445 0H323L327 349Q327 377 327 410T328 463Q322 443
312 410T294 349L186 0H64Z" />
<glyph unicode="x" horiz-adv-x="600" d="M-2 0L233 287L98 550H228L294 407Q299 395 304 381T312 357Q317 366 325 380T343 407L454 550H589L370 280L514 0H384L310 158Q305 170 299 185T291 210Q285 200 277 185T258 158L133 0H-2Z" />
<glyph unicode="y" horiz-adv-x="600" d="M80 -180L95 -81H262Q304 -81 328 -61T358 -3L366 48L384 155H354L388 182Q378 116 332 78T218 40Q137 40 96 93T70 237L120 550H236L188 249Q180 197 203 169T274 140Q323 140 356 170T397 254L444 550H561L473 -5Q461
-86 401 -133T248 -180H80Z" />
<glyph unicode="z" horiz-adv-x="600" d="M37 0L54 108L396 447H117L133 550H551L534 442L189 103H491L475 0H37Z" />
<glyph unicode="{" horiz-adv-x="600" d="M395 -110Q338 -110 299 -89T244 -29T240 64L275 220Q284 263 268 284T202 306H85L102 413H218Q269 413 292 434T319 500L334 658Q340 712 367 750T440 809T544 830H606L590 723H541Q502 723 478 705T449 649L434 491Q428
430 385 394T272 358L273 363Q341 363 373 326T393 228L358 71Q350 35 368 16T425 -4H475L458 -110H395Z" />
<glyph unicode="|" horiz-adv-x="600" d="M181 -110L329 830H445L297 -110H181Z" />
<glyph unicode="}" horiz-adv-x="600" d="M19 -110L36 -4H85Q124 -4 148 15T177 71L192 228Q197 289 242 326T354 363V358Q286 358 253 394T233 491L268 649Q277 687 259 705T201 723H151L168 830H230Q288 830 327 810T382 751T386 658L351 500Q342 456 358 435T424
413H541L524 306H408Q358 306 335 285T307 220L292 64Q287 10 259 -29T185 -89T82 -110H19Z" />
<glyph unicode="~" horiz-adv-x="600" d="M50 255L62 332Q72 393 116 429T225 466Q265 466 289 453T329 419T356 379T381 346T414 332Q433 332 445 344T461 378L473 450H573L561 373Q552 313 508 276T399 239Q360 239 335 252T295 286T268 326T243 359T210 373Q191
373 179 362T162 327L150 255H50Z" />
<glyph unicode="&#xa0;" horiz-adv-x="600" />
<glyph unicode="&#xa1;" horiz-adv-x="600" d="M162 -180L185 -40L264 322H349L314 -40L292 -180H162ZM311 427Q280 427 264 445T252 492Q257 521 279 538T332 556H356Q387 556 404 539T416 492Q411 463 389 445T336 427H311Z" />
<glyph unicode="&#xa2;" horiz-adv-x="600" d="M210 -140L341 690H404L273 -140H210ZM258 -10Q188 -10 141 16T74 90T64 204L86 346Q97 412 132 460T223 534T349 560Q450 560 502 507T544 363H428Q432 408 407 433T332 458Q279 458 246 429T203 346L181 204Q172
151 196 122T274 92Q323 92 356 117T400 187H516Q498 96 429 43T258 -10Z" />
<glyph unicode="&#xa3;" horiz-adv-x="600" d="M31 0L51 127Q78 142 106 164T155 212T181 263Q188 305 182 334T162 387T136 433T116 483T115 548Q124 605 158 648T248 715T373 740Q441 740 487 716T555 647T569 541H450Q455 584 430 611T355 638Q304 638 271
612T230 542Q226 514 233 493T252 452T277 409T294 353T292 272Q285 229 260 195T201 139T138 107H508L491 0H31ZM73 296L89 394H453L438 296H73Z" />
<glyph unicode="&#xa4;" horiz-adv-x="600" d="M470 112L362 239L422 218Q394 195 358 183T284 171Q245 171 213 183T157 219L223 232L83 112L27 180L163 299L141 236Q121 262 112 297T110 373Q117 413 135 447T184 508L193 444L87 571L162 635L269 507L210 529Q238
551 274 563T348 575Q389 575 421 562T478 525L411 511L548 630L605 563L468 445L493 509Q512 482 519 447T520 373Q513 334 495 300T449 237L438 302L545 176L470 112ZM297 252Q331 252 360 267T409 311T434 373Q440 408 429 435T393 478T335 494Q301 494 272
479T222 436T196 373Q190 339 201 311T238 268T297 252Z" />
<glyph unicode="&#xa5;" horiz-adv-x="600" d="M58 266L72 354H552L538 266H58ZM34 111L47 199H527L514 111H34ZM198 0L240 267L98 730H217L296 465Q304 437 308 411T314 370Q320 385 332 411T361 465L522 730H646L356 267L314 0H198Z" />
<glyph unicode="&#xa6;" horiz-adv-x="600" d="M269 450L329 830H445L385 450H269ZM181 -110L241 270H357L297 -110H181Z" />
<glyph unicode="&#xa7;" horiz-adv-x="600" d="M216 -154Q124 -154 71 -113T19 1H138Q142 -26 167 -43T231 -60H261Q312 -60 344 -39T381 17Q386 48 367 68T302 97L213 117Q139 133 101 176T72 279Q78 317 100 347T155 395T229 417L230 424Q202 428 174 444T130
492T122 573Q134 650 197 695T360 740H390Q479 740 529 700T579 592H460Q458 615 435 630T375 646H345Q298 646 270 627T237 574Q232 546 250 526T308 497L401 477Q477 460 514 416T541 311Q535 273 514 243T460 195T383 175L382 168Q411 166 440 149T487 100T496
17Q483 -62 418 -108T246 -154H216ZM310 195Q338 189 362 200T402 236T424 294Q429 328 413 353T363 386L300 399Q273 405 250 394T212 359T191 302Q185 266 200 240T246 208L310 195Z" />
<glyph unicode="&#xa8;" horiz-adv-x="600" d="M474 644Q441 644 425 662T414 713Q419 746 441 765T496 784Q529 784 545 765T556 713Q552 681 530 663T474 644ZM242 644Q210 644 194 662T182 713Q188 746 210 765T264 784Q297 784 313 765T324 713Q320 681 298
663T242 644Z" />
<glyph unicode="&#xa9;" horiz-adv-x="600" d="M273 110Q197 110 145 140T69 224T56 350L80 500Q92 572 132 626T234 710T373 740Q450 740 502 710T578 626T590 500L566 350Q555 278 515 224T412 140T273 110ZM281 160Q341 160 389 183T470 250T511 350L535 500Q544
557 526 599T467 666T365 690Q306 690 257 666T176 600T135 500L111 350Q102 293 120 250T180 184T281 160ZM300 245Q242 245 212 278T189 364L209 486Q217 539 258 572T357 605Q415 605 445 572T467 486H393Q397 511 384 526T347 541Q322 541 305 526T283 486L263
364Q259 340 272 325T310 309Q335 309 352 324T373 364H447Q439 311 399 278T300 245Z" />
<glyph unicode="&#xaa;" horiz-adv-x="600" d="M392 455L401 510H398L420 650Q423 669 410 680T371 691Q348 691 331 682T309 658H246Q258 696 293 718T378 740Q432 740 461 716T483 650L452 455H392ZM297 450Q252 450 229 473T212 537Q218 576 251 599T334 623H427L420
578H328Q306 578 292 568T275 538Q272 519 285 508T321 496Q355 496 378 512T405 555H416L409 510H398Q383 482 356 466T297 450Z" />
<glyph unicode="&#xab;" horiz-adv-x="600" d="M411 40L264 280L487 520H619L388 276L534 40H411ZM170 40L23 280L246 520H379L148 276L294 40H170Z" />
<glyph unicode="&#xac;" horiz-adv-x="600" d="M402 192L423 324H77L94 430H554L516 192H402Z" />
<glyph unicode="&#xad;" horiz-adv-x="600" d="M133 277L150 383H483L466 277H133Z" />
<glyph unicode="&#xae;" horiz-adv-x="600" d="M273 110Q197 110 144 140T68 224T56 350L80 500Q92 572 132 626T234 710T373 740Q450 740 502 710T578 626T590 500L566 350Q555 278 515 224T412 140T273 110ZM281 160Q341 160 389 183T470 250T511 350L535 500Q544
557 526 599T467 666T365 690Q306 690 257 666T176 600T135 500L111 350Q102 293 120 250T180 184T281 160ZM182 250L237 600H355Q410 600 438 571T459 493Q452 451 423 424T351 390L375 434L427 250H356L320 388H272L250 250H182ZM281 444H330Q354 444 370 458T390
495Q394 518 382 532T347 546H297L281 444Z" />
<glyph unicode="&#xaf;" horiz-adv-x="600" d="M192 663L206 754H544L530 663H192Z" />
<glyph unicode="&#xb0;" horiz-adv-x="600" d="M327 450Q260 450 225 490T200 595Q211 660 258 700T373 740Q441 740 476 700T500 595Q490 530 443 490T327 450ZM336 507Q374 507 400 531T433 595Q440 635 421 659T364 683Q326 683 300 659T267 595Q261 556 280
532T336 507Z" />
<glyph unicode="&#xb1;" horiz-adv-x="600" d="M24 0L38 88H215L245 280H63L80 386H261L290 570H406L377 386H558L542 280H360L330 88H502L488 0H24Z" />
<glyph unicode="&#xb2;" horiz-adv-x="600" d="M180 405L195 496L381 616Q403 630 418 651T437 695Q443 729 427 749T377 769Q345 769 323 749T294 695H213Q226 762 273 801T389 840Q459 840 494 801T519 697Q512 657 485 621T414 557L282 477H492L481 405H180Z" />
<glyph unicode="&#xb3;" horiz-adv-x="600" d="M303 395Q233 395 197 433T170 537H251Q245 504 262 485T314 466Q348 466 369 485T397 538Q402 572 386 591T338 610H308L318 677L414 758H235L247 831H498L484 748L353 637L358 671Q422 671 455 635T479 538Q469
472 421 434T303 395Z" />
<glyph unicode="&#xb4;" horiz-adv-x="600" d="M254 645L381 785H512L376 645H254Z" />
<glyph unicode="&#xb5;" horiz-adv-x="600" d="M6 -180L122 550H238L184 203Q175 149 195 121T270 92Q324 92 354 120T393 203L448 550H564L509 203Q493 103 429 47T266 -10Q220 -10 190 3T145 36T127 74H121Q122 74 124 59T129 24T129 -13L117 -180H6Z" />
<glyph unicode="&#xb6;" horiz-adv-x="600" d="M175 -180L253 310Q168 310 123 357T90 480L103 560Q111 611 141 649T217 709T320 730H414L269 -180H175ZM350 -180L495 730H588L443 -180H350Z" />
<glyph unicode="&#xb7;" horiz-adv-x="600" d="M254 256Q212 256 192 280T177 346Q184 388 213 413T283 438Q325 438 345 413T359 346Q353 305 325 281T254 256Z" />
<glyph unicode="&#xb8;" horiz-adv-x="600" d="M121 -213L130 -151H205Q228 -151 244 -140T262 -115Q265 -95 239 -82T160 -69L209 22H273L244 -37Q271 -39 300 -49T346 -79T359 -126Q354 -161 315 -187T217 -213H121Z" />
<glyph unicode="&#xb9;" horiz-adv-x="600" d="M171 405L182 478H314L358 758L222 670L236 758L344 830H451L395 478H498L487 405H171Z" />
<glyph unicode="&#xba;" horiz-adv-x="600" d="M326 447Q270 447 242 478T220 559L231 626Q240 676 278 706T372 737Q428 737 457 707T479 626L468 559Q461 510 422 479T326 447ZM335 500Q362 500 381 516T405 559L416 626Q420 652 406 668T364 684Q337 684 318
668T295 626L284 559Q280 533 294 517T335 500Z" />
<glyph unicode="&#xbb;" horiz-adv-x="600" d="M222 40L451 286L306 520H430L577 280L354 40H222ZM-19 40L210 286L66 520H189L336 280L113 40H-19Z" />
<glyph unicode="&#xbc;" horiz-adv-x="600" d="M53 405L63 466H179L213 680Q207 672 196 661T171 640L101 589L115 672L196 730H294L252 466H346L337 405H53ZM427 0L437 66H267L281 154L433 325H515L352 140L349 124H447L459 207H533L500 0H427ZM37 0L515 730H591L113
0H37Z" />
<glyph unicode="&#xbd;" horiz-adv-x="600" d="M269 0L281 75L423 149Q484 182 489 217Q493 242 480 256T442 271Q416 271 398 256T376 216H303Q312 267 353 298T452 330Q509 330 540 301T563 222Q558 189 530 160T453 107L369 64L368 54Q379 56 399 58T437 61H542L533
0H269ZM53 405L63 466H179L213 681Q207 673 196 662T171 641L102 590L115 672L196 730H295L252 466H352L342 405H53ZM37 0L515 730H591L113 0H37Z" />
<glyph unicode="&#xbe;" horiz-adv-x="600" d="M427 0L437 66H267L281 154L433 325H515L352 140L349 124H447L459 207H533L500 0H427ZM173 400Q114 400 83 429T58 505H131Q128 484 142 472T183 459Q209 459 227 472T249 507Q252 529 239 542T200 556H170L179 617L261
673H109L118 730H342L332 672L216 591L219 610Q273 610 301 582T322 507Q314 459 274 430T173 400ZM37 0L515 730H591L113 0H37Z" />
<glyph unicode="&#xbf;" horiz-adv-x="600" d="M265 -170Q192 -170 143 -144T71 -71T59 40Q68 99 100 144T181 215T289 242L304 336H409L380 141H308Q254 141 219 114T175 40Q168 -7 195 -34T278 -61H420L403 -170H265ZM361 426Q330 426 314 444T302 492Q307 521
329 538T382 555H406Q437 555 453 538T466 492Q461 462 439 444T386 426H361Z" />
<glyph unicode="&#xc0;" horiz-adv-x="600" d="M-5 0L296 730H448L517 0H402L389 181H188L117 0H-5ZM225 277H382L367 480Q364 532 362 573T358 630Q353 614 339 574T305 481L225 277ZM597 810L503 950H626L711 810H597Z" />
<glyph unicode="&#xc1;" horiz-adv-x="600" d="M-5 0L296 730H448L517 0H402L389 181H188L117 0H-5ZM225 277H382L367 480Q364 532 362 573T358 630Q353 614 339 574T305 481L225 277ZM310 810L437 950H568L432 810H310Z" />
<glyph unicode="&#xc2;" horiz-adv-x="600" d="M-5 0L296 730H448L517 0H402L389 181H188L117 0H-5ZM225 277H382L367 480Q364 532 362 573T358 630Q353 614 339 574T305 481L225 277ZM192 810L352 950H460L576 810H463L398 884L311 810H192Z" />
<glyph unicode="&#xc3;" horiz-adv-x="600" d="M-5 0L296 730H448L517 0H402L389 181H188L117 0H-5ZM225 277H382L367 480Q364 532 362 573T358 630Q353 614 339 574T305 481L225 277ZM454 808Q423 808 406 818T377 841T356 864T329 874Q316 874 306 865T294 840L290
813H216L221 846Q229 894 261 923T337 952Q368 952 385 942T414 919T435 896T462 886Q476 886 485 894T496 918L501 947H575L570 914Q562 866 531 837T454 808Z" />
<glyph unicode="&#xc4;" horiz-adv-x="600" d="M-5 0L296 730H448L517 0H402L389 181H188L117 0H-5ZM225 277H382L367 480Q364 532 362 573T358 630Q353 614 339 574T305 481L225 277ZM500 810Q467 810 451 829T440 880Q445 913 467 932T523 951Q555 951 571 932T582
880Q578 848 556 829T500 810ZM268 810Q236 810 220 829T208 880Q214 913 236 932T291 951Q324 951 340 932T350 880Q346 848 324 829T268 810Z" />
<glyph unicode="&#xc5;" horiz-adv-x="600" d="M-5 0L296 730H448L517 0H402L389 181H188L117 0H-5ZM225 277H382L367 480Q364 532 362 573T358 630Q353 614 339 574T305 481L225 277ZM376 760Q318 760 288 793T266 880Q275 934 315 967T414 1000Q472 1000 502
967T524 880Q516 826 475 793T376 760ZM386 821Q413 821 432 837T455 880Q460 907 446 923T405 940Q378 940 359 924T335 880Q331 853 345 837T386 821Z" />
<glyph unicode="&#xc6;" horiz-adv-x="600" d="M-27 0L230 730H646L630 629H456L424 427H573L557 323H408L372 101H547L530 0H253L282 186H150L87 0H-27ZM179 274H297L353 629H300L179 274Z" />
<glyph unicode="&#xc7;" horiz-adv-x="600" d="M128 -213L138 -151H212Q235 -151 251 -140T269 -115Q273 -95 246 -82T167 -69L216 22H280L251 -37Q279 -39 307 -49T353 -79T367 -126Q361 -161 322 -187T224 -213H128ZM258 -10Q189 -10 142 16T74 90T64 204L115
526Q126 592 161 640T252 714T377 740Q447 740 493 714T560 639T570 526H454Q463 580 439 608T361 637Q308 637 274 609T231 526L181 204Q172 151 197 122T275 93Q327 93 360 122T403 204H520Q510 140 474 92T383 17T258 -10Z" />
<glyph unicode="&#xc8;" horiz-adv-x="600" d="M47 0L163 730H596L580 628H261L230 429H513L497 327H214L178 102H497L480 0H47ZM617 810L523 950H646L731 810H617Z" />
<glyph unicode="&#xc9;" horiz-adv-x="600" d="M47 0L163 730H596L580 628H261L230 429H513L497 327H214L178 102H497L480 0H47ZM330 810L457 950H588L452 810H330Z" />
<glyph unicode="&#xca;" horiz-adv-x="600" d="M47 0L163 730H596L580 628H261L230 429H513L497 327H214L178 102H497L480 0H47ZM212 810L372 950H480L596 810H483L418 884L331 810H212Z" />
<glyph unicode="&#xcb;" horiz-adv-x="600" d="M47 0L163 730H596L580 628H261L230 429H513L497 327H214L178 102H497L480 0H47ZM520 810Q487 810 471 829T460 880Q465 913 487 932T543 951Q575 951 591 932T602 880Q598 848 576 829T520 810ZM288 810Q256 810
240 829T228 880Q234 913 256 932T311 951Q344 951 360 932T370 880Q366 848 344 829T288 810Z" />
<glyph unicode="&#xcc;" horiz-adv-x="600" d="M50 0L66 103H214L297 627H149L166 730H578L562 627H414L331 103H479L462 0H50ZM597 810L503 950H626L711 810H597Z" />
<glyph unicode="&#xcd;" horiz-adv-x="600" d="M50 0L66 103H214L297 627H149L166 730H578L562 627H414L331 103H479L462 0H50ZM310 810L437 950H568L432 810H310Z" />
<glyph unicode="&#xce;" horiz-adv-x="600" d="M50 0L66 103H214L297 627H149L166 730H578L562 627H414L331 103H479L462 0H50ZM192 810L352 950H460L576 810H463L398 884L311 810H192Z" />
<glyph unicode="&#xcf;" horiz-adv-x="600" d="M50 0L66 103H214L297 627H149L166 730H578L562 627H414L331 103H479L462 0H50ZM500 810Q467 810 451 829T440 880Q445 913 467 932T523 951Q555 951 571 932T582 880Q578 848 556 829T500 810ZM268 810Q236 810
220 829T208 880Q214 913 236 932T291 951Q324 951 340 932T350 880Q346 848 324 829T268 810Z" />
<glyph unicode="&#xd0;" horiz-adv-x="600" d="M10 331V414H290V331H10ZM35 0L151 730H361Q435 730 484 702T555 624T566 504L522 227Q511 158 473 107T377 28T245 0H35ZM169 107H262Q320 107 358 139T405 227L449 504Q458 559 430 591T344 623H250L169 107Z" />
<glyph unicode="&#xd1;" horiz-adv-x="600" d="M33 0L149 730H292L406 132Q408 162 411 203T420 289T431 369L488 730H595L479 0H336L223 598Q221 571 218 531T209 449T198 370L140 0H33ZM454 808Q423 808 406 818T377 841T356 864T329 874Q316 874 306 865T294
840L290 813H216L221 846Q229 894 261 923T337 952Q368 952 385 942T414 919T435 896T462 886Q476 886 485 894T496 918L501 947H575L570 914Q562 866 531 837T454 808Z" />
<glyph unicode="&#xd2;" horiz-adv-x="600" d="M254 -10Q185 -10 139 16T74 90T64 204L115 526Q126 592 160 640T249 714T373 740Q443 740 489 714T555 640T564 526L513 204Q503 139 468 91T378 16T254 -10ZM271 93Q323 93 355 122T396 204L447 526Q456 580 433
608T357 637Q304 637 272 609T231 526L181 204Q172 151 195 122T271 93ZM597 810L503 950H626L711 810H597Z" />
<glyph unicode="&#xd3;" horiz-adv-x="600" d="M254 -10Q185 -10 139 16T74 90T64 204L115 526Q126 592 160 640T249 714T373 740Q443 740 489 714T555 640T564 526L513 204Q503 139 468 91T378 16T254 -10ZM271 93Q323 93 355 122T396 204L447 526Q456 580 433
608T357 637Q304 637 272 609T231 526L181 204Q172 151 195 122T271 93ZM310 810L437 950H568L432 810H310Z" />
<glyph unicode="&#xd4;" horiz-adv-x="600" d="M254 -10Q185 -10 139 16T74 90T64 204L115 526Q126 592 160 640T249 714T373 740Q443 740 489 714T555 640T564 526L513 204Q503 139 468 91T378 16T254 -10ZM271 93Q323 93 355 122T396 204L447 526Q456 580 433
608T357 637Q304 637 272 609T231 526L181 204Q172 151 195 122T271 93ZM192 810L352 950H460L576 810H463L398 884L311 810H192Z" />
<glyph unicode="&#xd5;" horiz-adv-x="600" d="M254 -10Q185 -10 139 16T74 90T64 204L115 526Q126 592 160 640T249 714T373 740Q443 740 489 714T555 640T564 526L513 204Q503 139 468 91T378 16T254 -10ZM271 93Q323 93 355 122T396 204L447 526Q456 580 433
608T357 637Q304 637 272 609T231 526L181 204Q172 151 195 122T271 93ZM454 808Q423 808 406 818T377 841T356 864T329 874Q316 874 306 865T294 840L290 813H216L221 846Q229 894 261 923T337 952Q368 952 385 942T414 919T435 896T462 886Q476 886 485 894T496
918L501 947H575L570 914Q562 866 531 837T454 808Z" />
<glyph unicode="&#xd6;" horiz-adv-x="600" d="M254 -10Q185 -10 139 16T74 90T64 204L115 526Q126 592 160 640T249 714T373 740Q443 740 489 714T555 640T564 526L513 204Q503 139 468 91T378 16T254 -10ZM271 93Q323 93 355 122T396 204L447 526Q456 580 433
608T357 637Q304 637 272 609T231 526L181 204Q172 151 195 122T271 93ZM500 810Q467 810 451 829T440 880Q445 913 467 932T523 951Q555 951 571 932T582 880Q578 848 556 829T500 810ZM268 810Q236 810 220 829T208 880Q214 913 236 932T291 951Q324 951 340
932T350 880Q346 848 324 829T268 810Z" />
<glyph unicode="&#xd7;" horiz-adv-x="600" d="M143 120L79 196L231 327L122 460L206 532L316 401L472 535L536 459L380 325L491 193L407 121L296 253L143 120Z" />
<glyph unicode="&#xd8;" horiz-adv-x="600" d="M-24 -40L549 750H649L76 -40H-24ZM254 -10Q185 -10 139 16T74 90T64 204L115 526Q126 592 160 640T249 714T373 740Q443 740 488 714T554 640T564 526L513 204Q503 139 468 91T378 16T254 -10ZM271 93Q324 93 357
122T398 204L449 526Q458 580 434 608T357 637Q304 637 271 609T229 526L178 204Q170 151 194 122T271 93Z" />
<glyph unicode="&#xd9;" horiz-adv-x="600" d="M254 -10Q148 -10 99 48T66 206L149 730H265L182 207Q173 153 195 123T271 92Q323 92 355 122T396 207L479 730H595L512 206Q502 139 468 91T379 16T254 -10ZM597 810L503 950H626L711 810H597Z" />
<glyph unicode="&#xda;" horiz-adv-x="600" d="M254 -10Q148 -10 99 48T66 206L149 730H265L182 207Q173 153 195 123T271 92Q323 92 355 122T396 207L479 730H595L512 206Q502 139 468 91T379 16T254 -10ZM310 810L437 950H568L432 810H310Z" />
<glyph unicode="&#xdb;" horiz-adv-x="600" d="M254 -10Q148 -10 99 48T66 206L149 730H265L182 207Q173 153 195 123T271 92Q323 92 355 122T396 207L479 730H595L512 206Q502 139 468 91T379 16T254 -10ZM192 810L352 950H460L576 810H463L398 884L311 810H192Z" />
<glyph unicode="&#xdc;" horiz-adv-x="600" d="M254 -10Q148 -10 99 48T66 206L149 730H265L182 207Q173 153 195 123T271 92Q323 92 355 122T396 207L479 730H595L512 206Q502 139 468 91T379 16T254 -10ZM500 810Q467 810 451 829T440 880Q445 913 467 932T523
951Q555 951 571 932T582 880Q578 848 556 829T500 810ZM268 810Q236 810 220 829T208 880Q214 913 236 932T291 951Q324 951 340 932T350 880Q346 848 324 829T268 810Z" />
<glyph unicode="&#xdd;" horiz-adv-x="600" d="M198 0L240 267L98 730H217L296 465Q304 437 308 411T314 370Q320 385 332 411T361 465L522 730H646L356 267L314 0H198ZM310 810L437 950H568L432 810H310Z" />
<glyph unicode="&#xde;" horiz-adv-x="600" d="M37 0L153 730H270L247 587H385Q487 587 538 531T575 380Q565 316 531 270T442 199T320 173H181L154 0H37ZM197 273H324Q379 273 414 301T457 380Q465 431 439 459T358 487H230L197 273Z" />
<glyph unicode="&#xdf;" horiz-adv-x="600" d="M-132 -180L-116 -81H-68Q-25 -81 1 -61T33 -3L118 526Q128 590 163 638T253 713T378 740Q445 740 492 717T561 652T573 550Q565 499 537 461T463 402T361 382L363 397Q424 398 464 375T523 310T532 208Q522 147
486 100T395 27T270 0H210L226 101H278Q333 101 369 132T413 215Q422 268 395 297T314 327H268L283 420H326Q376 420 409 450T450 528Q458 580 433 609T356 639Q305 639 271 609T227 526L143 -5Q130 -86 70 -133T-82 -180H-132Z" />
<glyph unicode="&#xe0;" horiz-adv-x="600" d="M211 -10Q129 -10 89 46T64 199L88 351Q98 415 128 462T202 534T302 560Q370 560 404 522T428 418L406 445H433L447 550H563L476 0H362L379 105H353L383 132Q372 66 326 28T211 -10ZM269 91Q318 91 350 121T392 204L414
346Q423 399 400 429T327 459Q276 459 245 430T203 346L181 204Q172 150 195 121T269 91ZM576 645L482 785H605L690 645H576Z" />
<glyph unicode="&#xe1;" horiz-adv-x="600" d="M211 -10Q129 -10 89 46T64 199L88 351Q98 415 128 462T202 534T302 560Q370 560 404 522T428 418L406 445H433L447 550H563L476 0H362L379 105H353L383 132Q372 66 326 28T211 -10ZM269 91Q318 91 350 121T392 204L414
346Q423 399 400 429T327 459Q276 459 245 430T203 346L181 204Q172 150 195 121T269 91ZM289 645L416 785H547L411 645H289Z" />
<glyph unicode="&#xe2;" horiz-adv-x="600" d="M211 -10Q129 -10 89 46T64 199L88 351Q98 415 128 462T202 534T302 560Q370 560 404 522T428 418L406 445H433L447 550H563L476 0H362L379 105H353L383 132Q372 66 326 28T211 -10ZM269 91Q318 91 350 121T392 204L414
346Q423 399 400 429T327 459Q276 459 245 430T203 346L181 204Q172 150 195 121T269 91ZM171 645L331 785H439L555 645H442L377 719L290 645H171Z" />
<glyph unicode="&#xe3;" horiz-adv-x="600" d="M211 -10Q129 -10 89 46T64 199L88 351Q98 415 128 462T202 534T302 560Q370 560 404 522T428 418L406 445H433L447 550H563L476 0H362L379 105H353L383 132Q372 66 326 28T211 -10ZM269 91Q318 91 350 121T392 204L414
346Q423 399 400 429T327 459Q276 459 245 430T203 346L181 204Q172 150 195 121T269 91ZM433 643Q402 643 385 653T356 676T335 699T308 709Q295 709 285 700T273 675L269 648H195L200 681Q208 729 240 758T316 787Q347 787 364 777T392 754T413 731T440 721Q454
721 463 729T475 753L480 782H554L549 749Q541 701 510 672T433 643Z" />
<glyph unicode="&#xe4;" horiz-adv-x="600" d="M211 -10Q129 -10 89 46T64 199L88 351Q98 415 128 462T202 534T302 560Q370 560 404 522T428 418L406 445H433L447 550H563L476 0H362L379 105H353L383 132Q372 66 326 28T211 -10ZM269 91Q318 91 350 121T392 204L414
346Q423 399 400 429T327 459Q276 459 245 430T203 346L181 204Q172 150 195 121T269 91ZM479 644Q446 644 430 662T419 713Q424 746 446 765T501 784Q534 784 550 765T561 713Q557 681 535 663T479 644ZM247 644Q215 644 199 662T187 713Q193 746 215 765T269
784Q302 784 318 765T329 713Q325 681 303 663T247 644Z" />
<glyph unicode="&#xe5;" horiz-adv-x="600" d="M211 -10Q129 -10 89 46T64 199L88 351Q98 415 128 462T202 534T302 560Q370 560 404 522T428 418L406 445H433L447 550H563L476 0H362L379 105H353L383 132Q372 66 326 28T211 -10ZM269 91Q318 91 350 121T392 204L414
346Q423 399 400 429T327 459Q276 459 245 430T203 346L181 204Q172 150 195 121T269 91ZM357 604Q299 604 269 637T247 724Q255 777 295 810T394 844Q452 844 482 811T504 724Q496 670 456 637T357 604ZM366 665Q393 665 412 681T435 724Q440 751 426 767T385
784Q358 784 339 768T315 724Q311 697 325 681T366 665Z" />
<glyph unicode="&#xe6;" horiz-adv-x="600" d="M125 -10Q63 -10 33 29T12 134L21 190Q31 252 80 289T201 327H261L273 404Q279 439 268 456T227 474Q202 474 184 458T161 411H63Q74 478 118 519T225 560Q264 560 287 548T320 517T331 482H337Q343 499 358 517T401
547T465 560Q532 560 564 518T585 404L561 253H345L328 146Q323 114 336 95T376 76Q403 76 421 91T444 134H542Q532 70 486 30T374 -10Q337 -10 314 2T281 33T271 68H265Q260 51 243 33T196 3T125 -10ZM162 76Q189 76 208 95T233 146L250 253H190Q163 253 145 237T122
190L114 134Q109 107 122 92T162 76ZM357 327H474L487 404Q492 437 479 455T438 474Q411 474 393 456T369 404L357 327Z" />
<glyph unicode="&#xe7;" horiz-adv-x="600" d="M124 -213L134 -151H208Q232 -151 248 -140T266 -115Q269 -95 242 -82T163 -69L213 22H277L247 -37Q275 -39 303 -49T349 -79T363 -126Q358 -161 318 -187T220 -213H124ZM258 -10Q188 -10 141 16T74 90T64 204L86
346Q97 412 132 460T223 534T349 560Q450 560 502 507T544 363H428Q432 408 407 433T332 458Q279 458 246 429T203 346L181 204Q172 151 196 122T274 92Q323 92 356 117T400 187H516Q498 96 429 43T258 -10Z" />
<glyph unicode="&#xe8;" horiz-adv-x="600" d="M254 -10Q186 -10 140 16T74 91T64 204L86 346Q97 410 132 458T222 533T345 560Q414 560 460 534T526 459T535 346L520 247H183L176 204Q167 145 190 114T270 83Q315 83 344 99T385 144H500Q484 98 449 63T363 9T254
-10ZM418 315L423 346Q432 405 410 436T331 468Q275 468 242 436T199 346L195 323L428 324L418 315ZM571 645L477 785H600L685 645H571Z" />
<glyph unicode="&#xe9;" horiz-adv-x="600" d="M254 -10Q186 -10 140 16T74 91T64 204L86 346Q97 410 132 458T222 533T345 560Q414 560 460 534T526 459T535 346L520 247H183L176 204Q167 145 190 114T270 83Q315 83 344 99T385 144H500Q484 98 449 63T363 9T254
-10ZM418 315L423 346Q432 405 410 436T331 468Q275 468 242 436T199 346L195 323L428 324L418 315ZM284 645L411 785H542L406 645H284Z" />
<glyph unicode="&#xea;" horiz-adv-x="600" d="M254 -10Q186 -10 140 16T74 91T64 204L86 346Q97 410 132 458T222 533T345 560Q414 560 460 534T526 459T535 346L520 247H183L176 204Q167 145 190 114T270 83Q315 83 344 99T385 144H500Q484 98 449 63T363 9T254
-10ZM418 315L423 346Q432 405 410 436T331 468Q275 468 242 436T199 346L195 323L428 324L418 315ZM166 645L326 785H434L550 645H437L372 719L285 645H166Z" />
<glyph unicode="&#xeb;" horiz-adv-x="600" d="M254 -10Q186 -10 140 16T74 91T64 204L86 346Q97 410 132 458T222 533T345 560Q414 560 460 534T526 459T535 346L520 247H183L176 204Q167 145 190 114T270 83Q315 83 344 99T385 144H500Q484 98 449 63T363 9T254
-10ZM418 315L423 346Q432 405 410 436T331 468Q275 468 242 436T199 346L195 323L428 324L418 315ZM474 644Q441 644 425 662T414 713Q419 746 441 765T496 784Q529 784 545 765T556 713Q552 681 530 663T474 644ZM242 644Q210 644 194 662T182 713Q188 746 210
765T264 784Q297 784 313 765T324 713Q320 681 298 663T242 644Z" />
<glyph unicode="&#xec;" horiz-adv-x="600" d="M32 0L49 106H241L295 445H127L144 550H423L353 106H527L510 0H32ZM588 645L494 785H617L702 645H588Z" />
<glyph unicode="&#xed;" horiz-adv-x="600" d="M32 0L49 106H241L295 445H127L144 550H423L353 106H527L510 0H32ZM301 645L428 785H559L423 645H301Z" />
<glyph unicode="&#xee;" horiz-adv-x="600" d="M32 0L49 106H241L295 445H127L144 550H423L353 106H527L510 0H32ZM183 645L343 785H451L567 645H454L389 719L302 645H183Z" />
<glyph unicode="&#xef;" horiz-adv-x="600" d="M32 0L49 106H241L295 445H127L144 550H423L353 106H527L510 0H32ZM491 644Q458 644 442 662T431 713Q436 746 458 765T513 784Q546 784 562 765T573 713Q569 681 547 663T491 644ZM259 644Q227 644 211 662T199
713Q205 746 227 765T281 784Q314 784 330 765T341 713Q337 681 315 663T259 644Z" />
<glyph unicode="&#xf0;" horiz-adv-x="600" d="M254 -6Q182 -6 132 23T60 104T48 224Q59 291 92 340T177 417T291 445Q322 445 345 434T384 408T406 378H417Q416 385 405 411T367 484L321 564L147 498L161 591L278 637L224 730H345L375 676L548 740L535 648L418
604L472 512Q515 442 531 371T536 235Q525 162 487 108T389 24T254 -6ZM270 94Q328 94 368 129T418 224Q425 263 414 292T376 337T312 353Q255 353 215 318T165 224Q156 165 185 130T270 94Z" />
<glyph unicode="&#xf1;" horiz-adv-x="600" d="M36 0L123 550H238L221 445H251L217 418Q228 485 273 522T387 560Q469 560 509 507T535 363L478 0H361L417 351Q425 403 402 431T331 460Q282 460 250 430T208 346L153 0H36ZM428 643Q397 643 380 653T351 676T330
699T303 709Q290 709 280 700T268 675L264 648H190L195 681Q203 729 235 758T311 787Q342 787 359 777T387 754T408 731T435 721Q449 721 458 729T470 753L475 782H549L544 749Q536 701 505 672T428 643Z" />
<glyph unicode="&#xf2;" horiz-adv-x="600" d="M254 -10Q185 -10 139 16T74 90T64 204L86 346Q97 412 132 460T221 534T345 560Q415 560 460 534T526 460T536 346L513 204Q503 139 468 91T378 16T254 -10ZM271 92Q323 92 355 121T396 204L418 346Q428 401 405
429T328 458Q277 458 245 430T203 346L181 204Q172 150 195 121T271 92ZM571 645L477 785H600L685 645H571Z" />
<glyph unicode="&#xf3;" horiz-adv-x="600" d="M254 -10Q185 -10 139 16T74 90T64 204L86 346Q97 412 132 460T221 534T345 560Q415 560 460 534T526 460T536 346L513 204Q503 139 468 91T378 16T254 -10ZM271 92Q323 92 355 121T396 204L418 346Q428 401 405
429T328 458Q277 458 245 430T203 346L181 204Q172 150 195 121T271 92ZM284 645L411 785H542L406 645H284Z" />
<glyph unicode="&#xf4;" horiz-adv-x="600" d="M254 -10Q185 -10 139 16T74 90T64 204L86 346Q97 412 132 460T221 534T345 560Q415 560 460 534T526 460T536 346L513 204Q503 139 468 91T378 16T254 -10ZM271 92Q323 92 355 121T396 204L418 346Q428 401 405
429T328 458Q277 458 245 430T203 346L181 204Q172 150 195 121T271 92ZM166 645L326 785H434L550 645H437L372 719L285 645H166Z" />
<glyph unicode="&#xf5;" horiz-adv-x="600" d="M254 -10Q185 -10 139 16T74 90T64 204L86 346Q97 412 132 460T221 534T345 560Q415 560 460 534T526 460T536 346L513 204Q503 139 468 91T378 16T254 -10ZM271 92Q323 92 355 121T396 204L418 346Q428 401 405
429T328 458Q277 458 245 430T203 346L181 204Q172 150 195 121T271 92ZM428 643Q397 643 380 653T351 676T330 699T303 709Q290 709 280 700T268 675L264 648H190L195 681Q203 729 235 758T311 787Q342 787 359 777T387 754T408 731T435 721Q449 721 458 729T470
753L475 782H549L544 749Q536 701 505 672T428 643Z" />
<glyph unicode="&#xf6;" horiz-adv-x="600" d="M254 -10Q185 -10 139 16T74 90T64 204L86 346Q97 412 132 460T221 534T345 560Q415 560 460 534T526 460T536 346L513 204Q503 139 468 91T378 16T254 -10ZM271 92Q323 92 355 121T396 204L418 346Q428 401 405
429T328 458Q277 458 245 430T203 346L181 204Q172 150 195 121T271 92ZM474 644Q441 644 425 662T414 713Q419 746 441 765T496 784Q529 784 545 765T556 713Q552 681 530 663T474 644ZM242 644Q210 644 194 662T182 713Q188 746 210 765T264 784Q297 784 313
765T324 713Q320 681 298 663T242 644Z" />
<glyph unicode="&#xf7;" horiz-adv-x="600" d="M100 280L117 383H517L500 280H100ZM255 74Q224 74 208 91T196 138Q201 167 223 185T276 203H300Q331 203 348 185T360 138Q355 109 333 92T279 74H255ZM317 460Q286 460 270 477T257 524Q262 553 284 571T337 589H362Q393
589 409 571T421 524Q416 495 394 478T341 460H317Z" />
<glyph unicode="&#xf8;" horiz-adv-x="600" d="M-18 -30L516 590H618L84 -30H-18ZM254 -10Q185 -10 139 16T74 90T64 204L86 346Q97 412 132 460T221 534T345 560Q415 560 461 534T527 460T536 346L513 204Q503 139 468 91T378 16T254 -10ZM271 92Q325 92 360
122T403 204L426 346Q434 399 409 428T328 458Q274 458 239 429T196 346L173 204Q165 152 190 122T271 92Z" />
<glyph unicode="&#xf9;" horiz-adv-x="600" d="M253 -10Q151 -10 101 48T67 206L121 550H238L184 207Q175 152 198 122T270 92Q319 92 352 122T394 207L448 550H565L510 206Q500 140 465 91T376 16T253 -10ZM571 645L477 785H600L685 645H571Z" />
<glyph unicode="&#xfa;" horiz-adv-x="600" d="M253 -10Q151 -10 101 48T67 206L121 550H238L184 207Q175 152 198 122T270 92Q319 92 352 122T394 207L448 550H565L510 206Q500 140 465 91T376 16T253 -10ZM284 645L411 785H542L406 645H284Z" />
<glyph unicode="&#xfb;" horiz-adv-x="600" d="M253 -10Q151 -10 101 48T67 206L121 550H238L184 207Q175 152 198 122T270 92Q319 92 352 122T394 207L448 550H565L510 206Q500 140 465 91T376 16T253 -10ZM166 645L326 785H434L550 645H437L372 719L285 645H166Z" />
<glyph unicode="&#xfc;" horiz-adv-x="600" d="M253 -10Q151 -10 101 48T67 206L121 550H238L184 207Q175 152 198 122T270 92Q319 92 352 122T394 207L448 550H565L510 206Q500 140 465 91T376 16T253 -10ZM474 644Q441 644 425 662T414 713Q419 746 441 765T496
784Q529 784 545 765T556 713Q552 681 530 663T474 644ZM242 644Q210 644 194 662T182 713Q188 746 210 765T264 784Q297 784 313 765T324 713Q320 681 298 663T242 644Z" />
<glyph unicode="&#xfd;" horiz-adv-x="600" d="M80 -180L95 -81H262Q304 -81 328 -61T358 -3L366 48L384 155H354L388 182Q378 116 332 78T218 40Q137 40 96 93T70 237L120 550H236L188 249Q180 197 203 169T274 140Q323 140 356 170T397 254L444 550H561L473
-5Q461 -86 401 -133T248 -180H80ZM284 645L411 785H542L406 645H284Z" />
<glyph unicode="&#xfe;" horiz-adv-x="600" d="M5 -180L42 55H157L119 -180H5ZM294 -10Q226 -10 192 28T169 132L191 105H165L148 0H34L150 730H266L241 574L217 445H244L214 418Q225 484 271 522T385 560Q468 560 508 504T533 351L509 199Q499 135 469 88T395
16T294 -10ZM270 91Q321 91 353 120T393 204L416 346Q425 400 402 429T328 459Q279 459 247 429T205 346L183 204Q174 151 197 121T270 91Z" />
<glyph unicode="&#xff;" horiz-adv-x="600" d="M80 -180L95 -81H262Q304 -81 328 -61T358 -3L366 48L384 155H354L388 182Q378 116 332 78T218 40Q137 40 96 93T70 237L120 550H236L188 249Q180 197 203 169T274 140Q323 140 356 170T397 254L444 550H561L473
-5Q461 -86 401 -133T248 -180H80ZM474 644Q441 644 425 662T414 713Q419 746 441 765T496 784Q529 784 545 765T556 713Q552 681 530 663T474 644ZM242 644Q210 644 194 662T182 713Q188 746 210 765T264 784Q297 784 313 765T324 713Q320 681 298 663T242 644Z"
/>
<glyph unicode="&#x2013;" horiz-adv-x="600" d="M80 277L97 383H537L520 277H80Z" />
<glyph unicode="&#x2014;" horiz-adv-x="600" d="M0 277L17 383H617L600 277H0Z" />
<glyph unicode="&#x2018;" horiz-adv-x="600" d="M618 775L489 464H335L514 775H618Z" />
<glyph unicode="&#x2019;" horiz-adv-x="600" d="M178 465L307 776H461L282 465H178Z" />
<glyph unicode="&#x201a;" horiz-adv-x="600" d="M84 -160L213 151H367L188 -160H84Z" />
<glyph unicode="&#x201c;" horiz-adv-x="600" d="M331 465L510 776H612L483 465H331ZM87 465L266 776H368L239 465H87Z" />
<glyph unicode="&#x201d;" horiz-adv-x="600" d="M341 465L470 776H622L443 465H341ZM97 465L226 776H378L199 465H97Z" />
<glyph unicode="&#x201e;" horiz-adv-x="600" d="M242 -160L371 151H523L344 -160H242ZM-2 -160L127 151H279L100 -160H-2Z" />
<glyph unicode="&#x2022;" horiz-adv-x="600" d="M294 238Q238 238 208 273T187 365Q196 421 237 456T334 492Q390 492 419 457T441 365Q432 309 391 274T294 238Z" />
<glyph unicode="&#x2039;" horiz-adv-x="600" d="M294 40L142 280L370 520H497L267 276L416 40H294Z" />
<glyph unicode="&#x203a;" horiz-adv-x="600" d="M103 40L335 283L184 520H307L459 280L231 40H103Z" />
</font>
</defs>
</svg>
