<?xml version="1.0" standalone="no"?>
<!DOCTYPE svg PUBLIC "-//W3C//DTD SVG 1.1//EN" "http://www.w3.org/Graphics/SVG/1.1/DTD/svg11.dtd">
<svg xmlns="http://www.w3.org/2000/svg">
<defs >
<font id="JetBrainsMono" horiz-adv-x="602" ><font-face
    font-family="JetBrains Mono"
    units-per-em="1000"
    panose-1="2 0 0 9 0 0 0 0 0 0"
    ascent="1020"
    descent="-300"
    alphabetic="0" />
<glyph unicode=" " horiz-adv-x="600" />
<glyph unicode="!" horiz-adv-x="600" d="M254 233L232 592V730H368V592L346 233H254ZM285 -5Q254 -5 235 13T216 61Q216 90 235 108T285 127H315Q347 127 365 109T384 61Q384 32 365 14T314 -5H285Z" />
<glyph unicode="&quot;" horiz-adv-x="600" d="M360 430L347 599V730H473V599L461 430H360ZM140 430L127 599V730H253V599L241 430H140Z" />
<glyph unicode="#" horiz-adv-x="600" d="M75 0L108 182H26V268H123L157 462H58V548H172L204 730H295L262 548H402L434 730H525L492 548H574V462H477L443 268H542V182H428L396 0H305L338 182H198L166 0H75ZM213 268H353L387 462H247L213 268Z" />
<glyph unicode="$" horiz-adv-x="600" d="M269 -140V-8Q171 0 115 54T57 196H182Q182 159 205 135T269 102V314L251 319Q165 341 119 398T72 536Q72 621 125 675T269 738V870H331V739Q423 731 477 678T532 539H407Q407 575 388 598T331 628V426L364 417Q451 395
497 339T543 199Q543 112 486 56T331 -9V-140H269ZM331 101Q372 107 395 131T418 194Q418 238 387 267T302 299L331 337V101ZM269 388V628Q234 621 216 600T197 543Q197 498 227 469T313 437L269 388Z" />
<glyph unicode="%" horiz-adv-x="600" d="M-3 0L513 730H603L87 0H-3ZM442 -5Q378 -5 338 31T297 130V195Q297 257 337 293T442 330Q506 330 547 294T588 195V130Q588 68 547 32T442 -5ZM442 73Q499 73 499 130V195Q499 253 442 253Q385 253 385 195V130Q385 73
442 73ZM158 400Q95 400 54 436T12 535V600Q12 663 53 699T158 735Q221 735 262 699T303 600V535Q303 472 262 436T158 400ZM158 477Q215 477 215 535V600Q215 658 158 658Q130 658 116 644T101 600V535Q101 505 115 491T158 477Z" />
<glyph unicode="&amp;" horiz-adv-x="600" d="M233 -10Q143 -10 93 40T43 178V271Q43 338 76 381T172 434L159 407Q128 450 112 491T95 572Q95 622 119 659T186 718T287 740Q347 740 391 717T460 654T485 558H369Q369 582 359 600T331 627T287 637Q263 637 245
628T218 602T208 562Q208 538 220 509T255 450L393 255L448 360H569L462 157L574 0H449L402 66Q332 -10 233 -10ZM243 93Q272 93 297 109T340 153L203 345Q182 337 172 319T162 271V178Q162 138 183 116T243 93Z" />
<glyph unicode="&apos;" horiz-adv-x="600" d="M247 430L234 574V730H361V574L349 430H247Z" />
<glyph unicode="(" horiz-adv-x="600" d="M485 -120Q333 -80 250 21T167 269V450Q167 546 205 624T315 758T485 840V717Q426 703 383 666T316 574T293 450V269Q293 202 316 148T382 57T485 6V-120Z" />
<glyph unicode=")" horiz-adv-x="600" d="M115 -120V6Q175 20 218 56T284 147T307 269V450Q307 519 284 574T218 666T115 717V840Q214 814 285 759T394 625T433 450V269Q433 123 350 22T115 -120Z" />
<glyph unicode="*" horiz-adv-x="600" d="M190 87L98 151L139 210Q154 232 176 253T221 292T260 322L258 328Q237 328 209 330T151 337T97 351L30 375L69 481L135 457Q159 449 185 433T234 400T274 369L279 373Q273 394 265 422T250 481T244 538V610H356V538Q356
512 350 481T336 422T320 373L325 370Q341 384 364 400T414 433T464 457L531 481L570 375L502 351Q479 343 450 338T392 330T342 328L340 322Q356 310 378 292T423 252T460 210L501 151L409 87L368 146Q353 167 341 195T319 252T303 299H297Q291 280 282 252T260
196T231 146L190 87Z" />
<glyph unicode="+" horiz-adv-x="600" d="M238 92V272H59V388H238V568H362V388H541V272H362V92H238Z" />
<glyph unicode="," horiz-adv-x="600" d="M150 -160L230 151H390L260 -160H150Z" />
<glyph unicode="-" horiz-adv-x="600" d="M140 272V388H460V272H140Z" />
<glyph unicode="." horiz-adv-x="600" d="M300 -10Q257 -10 232 15T206 83Q206 126 231 151T300 177Q343 177 368 152T394 83Q394 40 369 15T300 -10Z" />
<glyph unicode="/" horiz-adv-x="600" d="M60 -110L410 830H540L190 -110H60Z" />
<glyph unicode="0" horiz-adv-x="600" d="M300 -10Q229 -10 177 17T97 93T68 208V522Q68 588 96 637T177 713T300 740Q372 740 423 713T503 637T532 522V208Q532 142 504 93T423 17T300 -10ZM300 98Q352 98 383 128T414 208V522Q414 572 383 602T300 632Q248 632
217 602T186 522V208Q186 158 217 128T300 98ZM300 300Q271 300 253 319T234 368Q234 398 252 416T300 434Q330 434 348 416T366 368Q366 338 348 319T300 300Z" />
<glyph unicode="1" horiz-adv-x="600" d="M84 0V110H274V619L83 477V609L251 730H399V110H552V0H84Z" />
<glyph unicode="2" horiz-adv-x="600" d="M79 0V121L307 350Q355 399 378 438T401 520Q401 571 373 599T297 628Q244 628 214 598T184 513H59Q60 583 89 633T173 712T299 740Q368 740 419 714T498 641T526 529Q526 462 492 399T381 262L229 113H535V0H79Z" />
<glyph unicode="3" horiz-adv-x="600" d="M293 -10Q222 -10 170 16T88 89T59 200H185Q185 151 213 124T294 96Q346 96 374 124T402 200V257Q402 306 374 333T294 361H212V474L373 623H92V730H500V617L294 428V468Q402 468 465 411T528 257V200Q528 136 499 89T417
16T293 -10Z" />
<glyph unicode="4" horiz-adv-x="600" d="M390 0V145H65V326L346 730H486L185 293V255H390V420H515V0H390Z" />
<glyph unicode="5" horiz-adv-x="600" d="M299 -10Q198 -10 137 40T70 178H195Q199 140 225 120T299 99Q351 99 378 126T405 203V274Q405 324 378 350T299 377Q267 377 244 364T209 328H87L92 730H503V617H210L208 405H237L207 380Q207 426 243 452T342 479Q431
480 480 426T530 274V203Q530 104 469 47T299 -10Z" />
<glyph unicode="6" horiz-adv-x="600" d="M300 -10Q227 -10 172 20T86 106T55 235Q55 287 72 344T121 451L293 730H432L216 390L222 386Q242 417 276 433T352 449Q411 449 454 421T521 343T545 226Q545 155 515 102T430 20T300 -10ZM300 96Q355 96 389 131T423
224Q423 283 389 318T300 354Q245 354 211 319T177 224Q177 167 211 132T300 96Z" />
<glyph unicode="7" horiz-adv-x="600" d="M155 0L419 614H185V508H60V730H544V612L289 0H155Z" />
<glyph unicode="8" horiz-adv-x="600" d="M300 -10Q228 -10 175 14T93 84T64 189Q64 255 101 302T211 382L323 433Q359 450 379 479T400 544Q400 585 373 609T300 634Q254 634 227 609T199 543Q199 508 220 479T276 434L387 383Q466 348 501 301T536 189Q536 97
473 44T300 -10ZM300 97Q352 97 382 124T413 197Q413 232 392 263T334 312L215 367Q147 399 112 443T76 550Q76 606 103 649T180 716T300 740Q369 740 418 716T495 649T523 550Q523 487 488 443T385 367L265 311Q229 295 208 264T187 198Q187 153 217 125T300 97Z"
/>
<glyph unicode="9" horiz-adv-x="600" d="M168 0L384 340L378 344Q358 313 324 297T248 281Q190 281 147 309T79 387T55 504Q55 576 85 628T171 710T299 740Q374 740 429 710T514 624T545 495Q545 444 528 387T479 279L307 0H168ZM300 376Q355 376 389 411T423
506Q423 563 389 598T300 634Q245 634 211 599T177 506Q177 447 211 412T300 376Z" />
<glyph unicode=":" horiz-adv-x="600" d="M300 392Q258 392 233 415T207 476Q207 514 232 537T300 560Q342 560 367 537T393 476Q393 439 368 416T300 392ZM300 -10Q258 -10 233 13T207 74Q207 112 232 135T300 158Q342 158 367 135T393 74Q393 36 368 13T300 -10Z" />
<glyph unicode=";" horiz-adv-x="600" d="M155 -160L235 151H395L265 -160H155ZM290 392Q253 392 230 416T206 476Q206 512 230 536T290 560H310Q346 560 370 536T394 476Q394 440 371 416T310 392H290Z" />
<glyph unicode="&lt;" horiz-adv-x="600" d="M524 56L76 267V392L524 603V488L234 354Q214 345 195 339T164 330Q175 328 195 322T234 307L524 173V56Z" />
<glyph unicode="=" horiz-adv-x="600" d="M82 395V510H518V395H82ZM82 150V265H518V150H82Z" />
<glyph unicode="&gt;" horiz-adv-x="600" d="M76 56V171L366 305Q386 314 405 320T436 329Q425 331 405 336T366 351L76 486V603L524 392V267L76 56Z" />
<glyph unicode="?" horiz-adv-x="600" d="M193 217L191 417H270Q320 417 350 444T380 515Q380 560 350 586T269 613H120V730H263Q337 730 391 704T475 629T505 515Q505 454 480 408T409 335T304 307V217H193ZM234 -5Q203 -5 184 13T165 61Q165 90 184 108T234
127H264Q295 127 313 109T332 61Q332 32 313 14T263 -5H234Z" />
<glyph unicode="@" horiz-adv-x="600" d="M325 -179Q235 -179 170 -144T69 -44T33 111V450Q33 540 67 605T164 705T315 740Q395 740 452 710T541 625T572 498V65H477L483 120H453L468 146Q468 106 439 81T360 55Q297 55 263 97T228 216V330Q228 407 262 449T360
491Q409 491 438 466T468 400L454 420H484L468 488V498Q468 543 450 577T398 630T315 650Q230 650 184 598T137 450V111Q137 18 186 -33T325 -84H395V-179H325ZM400 131Q436 131 452 152T468 220V330Q468 372 451 393T400 415Q366 415 349 394T332 330V216Q332
171 349 151T400 131Z" />
<glyph unicode="A" horiz-adv-x="600" d="M35 0L219 730H380L565 0H437L397 177H203L163 0H35ZM226 279H374L330 475Q319 524 311 563T300 621Q297 603 290 564T270 476L226 279Z" />
<glyph unicode="B" horiz-adv-x="600" d="M77 0V730H301Q407 730 469 680T531 542Q531 493 509 457T450 401T363 381V385Q416 386 457 366T523 305T548 208Q548 145 519 98T438 26T312 0H77ZM199 104H304Q359 104 390 133T422 214Q422 265 391 296T304 328H199V104ZM199
429H299Q349 429 377 455T406 528Q406 574 378 600T299 626H199V429Z" />
<glyph unicode="C" horiz-adv-x="600" d="M304 -10Q234 -10 182 16T101 91T72 206V524Q72 591 100 639T181 713T304 740Q375 740 426 714T507 639T536 524H410Q410 576 383 603T304 630Q253 630 225 603T197 525V206Q197 155 225 128T304 100Q355 100 382 127T410
206H536Q536 141 507 92T427 17T304 -10Z" />
<glyph unicode="D" horiz-adv-x="600" d="M75 0V730H292Q366 730 420 702T505 623T535 502V229Q535 160 505 109T421 29T292 0H75ZM200 115H292Q346 115 378 145T410 229V502Q410 554 378 584T292 615H200V115Z" />
<glyph unicode="E" horiz-adv-x="600" d="M88 0V730H526V621H211V431H491V323H211V109H526V0H88Z" />
<glyph unicode="F" horiz-adv-x="600" d="M80 0V730H534V614H203V419H508V303H205V0H80Z" />
<glyph unicode="G" horiz-adv-x="600" d="M304 -10Q234 -10 182 16T101 91T72 206V524Q72 591 100 639T181 713T304 740Q375 740 426 714T507 639T536 524H410Q410 576 383 603T304 630Q253 630 225 603T197 525V206Q197 155 225 127T304 99Q355 99 382 127T410
206V280H286V388H536V206Q536 140 507 92T427 17T304 -10Z" />
<glyph unicode="H" horiz-adv-x="600" d="M77 0V730H202V437H398V730H523V0H398V321H202V0H77Z" />
<glyph unicode="I" horiz-adv-x="600" d="M90 0V110H237V620H90V730H510V620H363V110H510V0H90Z" />
<glyph unicode="J" horiz-adv-x="600" d="M270 -11Q159 -11 95 50T30 216H155Q155 161 186 130T270 99Q323 99 354 129T385 215V614H215V730H510V215Q510 110 446 50T270 -11Z" />
<glyph unicode="K" horiz-adv-x="600" d="M76 0V730H201V435H288L425 730H561L398 380L569 0H430L286 321H201V0H76Z" />
<glyph unicode="L" horiz-adv-x="600" d="M103 0V730H228V116H538V0H103Z" />
<glyph unicode="M" horiz-adv-x="600" d="M56 0V730H204L275 498Q286 463 293 434T302 392Q304 405 311 434T328 498L396 730H544V0H427V227Q427 277 430 336T437 454T446 566T456 659L358 314H244L143 659Q148 621 153 570T162 460T170 341T173 227V0H56Z" />
<glyph unicode="N" horiz-adv-x="600" d="M72 0V730H225L428 140Q425 172 422 215T416 304T414 384V730H528V0H375L174 590Q176 561 179 520T184 436T186 357V0H72Z" />
<glyph unicode="O" horiz-adv-x="600" d="M300 -10Q230 -10 179 16T100 91T72 206V524Q72 590 99 638T178 713T300 740Q371 740 422 714T500 639T528 525V206Q528 140 501 92T422 17T300 -10ZM300 100Q351 100 377 127T403 206V524Q403 576 377 603T300 630Q249
630 223 603T197 524V206Q197 155 223 128T300 100Z" />
<glyph unicode="P" horiz-adv-x="600" d="M77 0V730H320Q393 730 447 702T532 624T562 505Q562 438 532 387T447 308T320 280H202V0H77ZM202 393H320Q372 393 403 423T435 505Q435 557 404 587T320 617H202V393Z" />
<glyph unicode="Q" horiz-adv-x="600" d="M409 -180L299 1L321 -9Q317 -9 312 -9T300 -10Q230 -10 178 17T97 93T68 208V522Q68 589 97 637T178 713T300 740Q370 740 422 713T503 637T532 522V208Q532 142 504 93T423 17L544 -180H409ZM300 100Q352 100 379 128T407
208V522Q407 574 379 602T300 631Q250 631 222 603T193 522V208Q193 157 221 129T300 100Z" />
<glyph unicode="R" horiz-adv-x="600" d="M76 0V730H307Q380 730 433 703T517 628T547 513Q547 441 511 386T412 308L557 0H417L290 290H201V0H76ZM201 400H307Q360 400 390 429T420 509Q420 561 390 590T307 620H201V400Z" />
<glyph unicode="S" horiz-adv-x="600" d="M302 -10Q227 -10 172 15T88 86T57 196H182Q182 151 214 126T303 100Q357 100 387 125T418 194Q418 231 397 258T335 296L251 319Q165 341 119 398T72 536Q72 598 100 644T179 715T301 740Q407 740 469 686T532 539H407Q407
582 379 606T300 631Q251 631 224 608T197 543Q197 505 217 479T277 441L364 417Q451 395 497 339T543 199Q543 137 513 90T429 16T302 -10Z" />
<glyph unicode="T" horiz-adv-x="600" d="M237 0V614H46V730H554V614H363V0H237Z" />
<glyph unicode="U" horiz-adv-x="600" d="M300 -10Q193 -10 133 48T72 208V730H198V209Q198 157 224 128T300 99Q349 99 375 128T402 209V730H528V208Q528 107 468 49T300 -10Z" />
<glyph unicode="V" horiz-adv-x="600" d="M219 0L35 730H165L275 254Q284 219 292 179T304 114Q308 139 315 179T330 255L439 730H565L381 0H219Z" />
<glyph unicode="W" horiz-adv-x="600" d="M91 0L16 730H124L168 220Q170 203 171 179T174 129T176 85Q178 104 180 129T184 178T189 220L249 730H354L410 220Q413 203 415 179T421 129T426 85Q427 104 428 129T430 178T434 220L477 730H584L505 0H367L313 512Q311
531 309 556T304 607T301 651Q300 633 298 608T293 557T289 512L230 0H91Z" />
<glyph unicode="X" horiz-adv-x="600" d="M28 0L230 374L40 730H180L272 547Q282 527 290 509T302 480Q305 490 313 508T331 547L424 730H560L370 377L572 0H432L329 202Q319 222 311 241T298 271Q294 260 286 241T268 202L164 0H28Z" />
<glyph unicode="Y" horiz-adv-x="600" d="M237 0V265L23 730H154L268 477Q281 447 290 418T302 373Q306 389 314 418T336 477L447 730H577L363 265V0H237Z" />
<glyph unicode="Z" horiz-adv-x="600" d="M79 0V119L372 614H86V730H510V611L216 116H521V0H79Z" />
<glyph unicode="[" horiz-adv-x="600" d="M185 -110V830H465V715H310V5H465V-110H185Z" />
<glyph unicode="\" horiz-adv-x="600" d="M409 -110L60 830H190L539 -110H409Z" />
<glyph unicode="]" horiz-adv-x="600" d="M135 -110V5H290V715H135V830H415V-110H135Z" />
<glyph unicode="^" horiz-adv-x="600" d="M68 340L241 730H361L532 340H415L323 570Q315 592 310 611T302 640Q300 630 294 611T279 570L184 340H68Z" />
<glyph unicode="_" horiz-adv-x="600" d="M60 -138V-25H540V-138H60Z" />
<glyph unicode="`" horiz-adv-x="600" d="M279 645L163 785H301L408 645H279Z" />
<glyph unicode="a" horiz-adv-x="600" d="M239 -10Q154 -10 105 35T56 156Q56 237 110 281T263 325H400V372Q400 412 374 434T303 457Q262 457 235 439T203 390H81Q90 468 151 514T307 560Q408 560 466 510T525 373V0H404V96H384L404 123Q404 62 359 26T239 -10ZM280
84Q333 84 366 111T400 181V248H265Q227 248 204 226T181 168Q181 129 207 107T280 84Z" />
<glyph unicode="b" horiz-adv-x="600" d="M347 -10Q279 -10 239 28T199 134L227 105H199V0H77V730H202V576L198 445H227L199 416Q199 483 239 521T347 560Q430 560 480 503T530 349V200Q530 104 480 47T347 -10ZM303 98Q351 98 378 126T405 206V344Q405 396 378
424T303 452Q256 452 229 424T202 344V206Q202 155 229 127T303 98Z" />
<glyph unicode="c" horiz-adv-x="600" d="M303 -10Q233 -10 181 16T99 91T70 206V344Q70 411 99 459T180 533T303 560Q407 560 469 507T534 361H409Q406 404 379 427T303 451Q253 451 224 424T195 345V206Q195 155 224 127T303 99Q351 99 378 122T409 189H534Q531
97 469 44T303 -10Z" />
<glyph unicode="d" horiz-adv-x="600" d="M253 -10Q171 -10 121 47T70 200V349Q70 446 120 503T253 560Q321 560 361 522T401 416L373 445H402L398 576V730H523V0H401V105H373L401 134Q401 67 361 29T253 -10ZM297 98Q345 98 371 126T398 206V344Q398 395 372
423T297 452Q249 452 222 424T195 344V206Q195 154 222 126T297 98Z" />
<glyph unicode="e" horiz-adv-x="600" d="M301 -10Q231 -10 179 17T99 92T70 206V344Q70 409 98 457T179 533T301 560Q370 560 421 533T501 458T530 344V245H191V206Q191 148 219 119T302 89Q344 89 370 103T403 146H526Q512 75 451 33T301 -10ZM409 315V345Q409
402 382 432T301 463Q247 463 219 432T191 344V323L418 325L409 315Z" />
<glyph unicode="f" horiz-adv-x="600" d="M205 0V376H54V489H205V572Q205 644 253 687T380 730H541V620H383Q359 620 345 607T330 570V489H541V376H330V0H205Z" />
<glyph unicode="g" horiz-adv-x="600" d="M152 -180V-76H315Q357 -76 378 -56T399 3V44L401 147H374L401 174Q401 107 362 70T255 32Q171 32 122 89T72 243V350Q72 446 121 503T255 560Q322 560 361 523T401 418L374 445H401L398 550H523V0Q523 -83 468 -131T317
-180H152ZM297 140Q345 140 371 168T398 248V344Q398 395 372 423T297 452Q249 452 223 424T197 344V248Q197 196 223 168T297 140Z" />
<glyph unicode="h" horiz-adv-x="600" d="M77 0V730H202V550L199 445H233L199 416Q199 484 238 522T347 560Q428 560 476 506T525 361V0H400V348Q400 398 374 425T301 452Q255 452 229 424T202 344V0H77Z" />
<glyph unicode="i" horiz-adv-x="600" d="M76 0V114H268V437H101V550H388V114H558V0H76ZM318 642Q280 642 258 661T236 714Q236 747 258 766T318 786Q356 786 378 767T400 714Q400 681 378 662T318 642Z" />
<glyph unicode="j" horiz-adv-x="600" d="M82 -180V-64H229Q279 -64 306 -37T333 39V434H112V550H458V36Q458 -64 398 -122T236 -180H82ZM391 642Q353 642 331 661T309 714Q309 747 331 766T391 786Q429 786 451 767T473 714Q473 681 451 662T391 642Z" />
<glyph unicode="k" horiz-adv-x="600" d="M80 0V730H205V334H292L426 550H566L400 284L569 0H426L292 228H205V0H80Z" />
<glyph unicode="l" horiz-adv-x="600" d="M384 0Q330 0 290 22T226 84T203 178V617H27V730H328V178Q328 148 345 131T393 113H559V0H384Z" />
<glyph unicode="m" horiz-adv-x="600" d="M52 0V550H154V476H175L158 458Q158 504 184 532T251 560Q295 560 319 524T344 427L322 476H356L343 458Q343 504 369 532T438 560Q489 560 519 522T549 419V0H439V414Q439 441 427 456T392 472Q370 472 358 457T345 414V0H255V414Q255
442 243 457T208 472Q185 472 174 457T162 414V0H52Z" />
<glyph unicode="n" horiz-adv-x="600" d="M77 0V550H199V445H233L199 416Q199 484 238 522T347 560Q428 560 476 506T525 361V0H400V348Q400 398 374 425T301 452Q255 452 229 424T202 344V0H77Z" />
<glyph unicode="o" horiz-adv-x="600" d="M300 -9Q230 -9 179 17T99 92T70 207V343Q70 409 98 457T178 532T300 559Q371 559 422 533T501 458T530 344V207Q530 141 502 93T422 18T300 -9ZM300 100Q350 100 377 127T405 207V343Q405 396 378 423T300 450Q251 450
223 423T195 343V207Q195 155 223 128T300 100Z" />
<glyph unicode="p" horiz-adv-x="600" d="M77 -180V550H199V445H227L199 416Q199 483 239 521T347 560Q430 560 480 503T530 350V201Q530 137 508 90T444 16T347 -10Q279 -10 239 28T199 134L227 105H198L202 -26V-180H77ZM303 98Q351 98 378 126T405 206V344Q405
396 378 424T303 452Q256 452 229 424T202 344V206Q202 155 229 127T303 98Z" />
<glyph unicode="q" horiz-adv-x="600" d="M398 -180V-26L402 105H373L400 134Q400 67 361 29T253 -10Q170 -10 121 47T72 201V350Q72 446 121 503T253 560Q321 560 360 522T400 416L373 445H401V550H523V-180H398ZM297 98Q345 98 371 126T398 206V344Q398 395
372 423T297 452Q249 452 223 424T197 344V206Q197 154 223 126T297 98Z" />
<glyph unicode="r" horiz-adv-x="600" d="M94 0V550H212V445H243L206 381Q206 470 246 515T364 560Q453 560 504 505T555 353V313H424V344Q424 397 397 426T321 455Q272 455 246 426T219 344V0H94Z" />
<glyph unicode="s" horiz-adv-x="600" d="M279 -9Q216 -9 169 11T96 66T67 150H192Q194 124 217 108T279 92H323Q369 92 392 110T415 159Q415 188 395 204T331 226L263 236Q169 249 125 286T81 397Q81 474 133 516T286 559H324Q416 559 471 518T530 408H405Q402
430 381 444T324 458H286Q243 458 224 443T204 397Q204 369 221 356T276 336L347 326Q445 312 491 274T538 160Q538 80 484 36T323 -9H279Z" />
<glyph unicode="t" horiz-adv-x="600" d="M360 0Q281 0 237 44T192 165V437H43V550H192V705H318V550H529V437H318V165Q318 113 369 113H519V0H360Z" />
<glyph unicode="u" horiz-adv-x="600" d="M300 -10Q195 -10 135 48T75 208V550H200V209Q200 156 226 128T300 99Q347 99 373 127T400 209V550H525V208Q525 107 464 49T300 -10Z" />
<glyph unicode="v" horiz-adv-x="600" d="M220 0L39 550H167L272 216Q281 186 289 154T302 103Q307 122 315 154T331 215L434 550H561L381 0H220Z" />
<glyph unicode="w" horiz-adv-x="600" d="M104 0L20 550H124L170 213Q174 184 177 149T183 91Q186 114 191 149T200 213L252 550H349L400 213Q404 184 409 149T417 90Q419 114 423 149T431 213L480 550H580L494 0H365L317 339Q313 367 308 401T300 458Q297 436
293 402T283 339L233 0H104Z" />
<glyph unicode="x" horiz-adv-x="600" d="M36 0L228 284L49 550H190L275 415Q283 403 289 388T300 364Q304 373 311 388T325 415L411 550H552L373 284L564 0H422L327 151Q319 164 312 179T300 203Q296 194 289 179T274 151L177 0H36Z" />
<glyph unicode="y" horiz-adv-x="600" d="M166 -180L243 30L38 550H175L277 269Q285 246 293 214T305 160Q310 181 318 213T334 269L430 550H562L297 -180H166Z" />
<glyph unicode="z" horiz-adv-x="600" d="M78 0V113L365 440H87V550H511V437L221 110H522V0H78Z" />
<glyph unicode="{" horiz-adv-x="600" d="M452 -111Q396 -111 354 -89T289 -28T270 67L280 219Q283 260 264 281T198 302H79V417H198Q244 417 263 438T280 499L270 656Q267 710 289 749T353 809T452 830H521V715H470Q434 715 414 698T395 644L405 488Q409 429
370 393T261 357V364Q330 364 369 328T405 231L395 75Q394 42 414 24T470 5H521V-111H452Z" />
<glyph unicode="|" horiz-adv-x="600" d="M237 -110V830H363V-110H237Z" />
<glyph unicode="}" horiz-adv-x="600" d="M79 -111V5H130Q165 5 186 23T205 75L195 231Q191 291 230 327T339 364V357Q270 357 231 393T195 488L205 644Q207 681 187 698T130 715H79V830H148Q204 830 246 809T311 749T330 656L320 499Q317 459 337 438T402 417H521V302H402Q357
302 337 281T320 219L330 67Q333 12 311 -27T247 -89T148 -111H79Z" />
<glyph unicode="~" horiz-adv-x="600" d="M50 255V334Q50 396 90 433T195 470Q236 470 263 456T308 422T341 382T371 348T406 334Q425 334 434 345T444 377V450H550V371Q550 310 511 273T405 235Q364 235 337 249T292 283T259 323T229 357T194 371Q176 371 166
360T156 328V255H50Z" />
<glyph unicode="&#xa0;" horiz-adv-x="600" />
<glyph unicode="&#xa1;" horiz-adv-x="600" d="M232 -180V-35L254 318H346L368 -35V-180H232ZM287 424Q255 424 236 442T216 491Q216 520 236 537T288 555H313Q345 555 364 538T384 490Q384 461 365 443T313 424H287Z" />
<glyph unicode="&#xa2;" horiz-adv-x="600" d="M275 -140V690H338V-140H275ZM303 -10Q233 -10 181 16T99 91T70 206V344Q70 411 99 459T180 533T303 560Q407 560 469 507T534 361H409Q406 404 379 427T303 451Q253 451 224 424T195 345V206Q195 155 224 127T303
99Q351 99 378 122T409 189H534Q531 97 469 44T303 -10Z" />
<glyph unicode="&#xa3;" horiz-adv-x="600" d="M75 0V135Q99 149 124 170T166 216T184 266Q184 307 172 336T143 388T108 432T79 481T67 546Q67 603 95 646T176 715T300 740Q369 740 420 715T500 645T531 538H404Q402 578 374 604T297 631Q248 631 220 606T192
539Q192 512 203 492T229 452T261 410T287 355T298 275Q298 232 277 199T225 145T165 115H535V0H75ZM69 293V397H435V293H69Z" />
<glyph unicode="&#xa4;" horiz-adv-x="600" d="M494 111L406 198Q384 185 357 178T301 171Q272 171 245 178T195 198L109 112L42 179L126 263Q111 286 103 314T95 373Q95 403 103 430T126 481L40 568L107 636L195 548Q218 561 245 568T301 575Q362 575 410 546L494
630L560 564L476 480Q490 457 497 430T505 373Q505 343 498 316T475 265L562 178L494 111ZM301 255Q334 255 360 270T401 313T416 373Q416 407 401 433T360 475T301 491Q268 491 242 476T200 434T184 373Q184 340 199 313T241 271T301 255Z" />
<glyph unicode="&#xa5;" horiz-adv-x="600" d="M60 264V357H540V264H60ZM60 108V201H540V108H60ZM237 0V265L23 730H154L268 477Q281 447 290 418T302 373Q306 389 314 418T336 477L447 730H577L363 265V0H237Z" />
<glyph unicode="&#xa6;" horiz-adv-x="600" d="M237 450V830H363V450H237ZM237 -110V270H363V-110H237Z" />
<glyph unicode="&#xa7;" horiz-adv-x="600" d="M284 -155Q221 -155 173 -136T95 -82T58 1H185Q193 -24 220 -40T284 -56H314Q364 -56 391 -36T419 18Q419 47 398 66T330 95L238 115Q159 131 114 174T68 277Q68 335 104 371T204 414V421Q175 425 144 442T91 491T70
571Q70 649 127 694T286 740H316Q409 740 467 701T534 591H407Q402 612 378 626T316 641H286Q240 641 216 623T192 573Q192 547 212 528T272 500L370 479Q451 461 496 417T541 312Q541 254 504 217T403 177V170Q433 167 465 150T519 101T542 17Q542 -62 482 -108T314
-155H284ZM321 198Q350 192 372 202T406 236T418 293Q418 326 398 351T345 383L282 396Q254 402 234 392T202 358T190 302Q190 267 208 242T257 211L321 198Z" />
<glyph unicode="&#xa8;" horiz-adv-x="600" d="M417 642Q384 642 364 661T344 714Q344 747 364 766T417 786Q451 786 471 767T491 714Q491 681 471 662T417 642ZM183 642Q149 642 129 661T109 714Q109 747 129 766T183 786Q216 786 236 767T256 714Q256 681 236
662T183 642Z" />
<glyph unicode="&#xa9;" horiz-adv-x="600" d="M300 110Q224 110 167 140T77 224T45 350V500Q45 572 77 626T166 710T300 740Q377 740 434 710T523 626T555 500V350Q555 278 523 224T434 140T300 110ZM300 160Q360 160 405 183T475 250T500 350V500Q500 557 475
599T405 666T300 690Q240 690 195 666T125 600T100 500V350Q100 293 125 250T195 184T300 160ZM305 245Q246 245 210 278T174 366V484Q174 538 210 571T305 605Q363 605 399 572T435 484H358Q358 509 344 523T305 538Q281 538 266 524T251 484V366Q251 341 266
327T305 312Q329 312 343 326T358 366H435Q435 312 400 279T305 245Z" />
<glyph unicode="&#xaa;" horiz-adv-x="600" d="M361 455V510H358V650Q358 668 344 678T305 688Q283 688 269 680T252 657H184Q191 695 223 717T305 740Q360 740 393 716T426 650V455H361ZM268 450Q224 450 197 474T169 537Q169 576 199 599T280 623H369V577H280Q260
577 249 567T237 538Q237 520 251 509T287 498Q320 498 339 513T358 555H369V510H358Q348 482 324 466T268 450Z" />
<glyph unicode="&#xab;" horiz-adv-x="600" d="M443 40L264 280L444 520H579L395 282L579 40H443ZM200 40L21 280L201 520H336L152 282L336 40H200Z" />
<glyph unicode="&#xac;" horiz-adv-x="600" d="M407 187V320H70V435H530V187H407Z" />
<glyph unicode="&#xad;" horiz-adv-x="600" d="M140 272V388H460V272H140Z" />
<glyph unicode="&#xae;" horiz-adv-x="600" d="M300 110Q224 110 167 140T77 224T45 350V500Q45 572 77 626T166 710T300 740Q377 740 434 710T523 626T555 500V350Q555 278 523 224T434 140T300 110ZM357 250L294 406H367L433 250H357ZM300 160Q360 160 405 183T475
250T500 350V500Q500 557 475 599T405 666T300 690Q240 690 195 666T125 600T100 500V350Q100 293 125 250T195 184T300 160ZM184 250V600H304Q360 600 393 571T427 492Q427 443 394 415T304 387H256V250H184ZM256 446H304Q327 446 340 459T354 495Q354 517 341
530T304 544H256V446Z" />
<glyph unicode="&#xaf;" horiz-adv-x="600" d="M128 661V757H472V661H128Z" />
<glyph unicode="&#xb0;" horiz-adv-x="600" d="M300 450Q233 450 192 490T150 595Q150 660 191 700T300 740Q368 740 409 700T450 595Q450 530 409 490T300 450ZM299 509Q336 509 358 533T381 595Q381 634 359 657T300 681Q263 681 241 658T219 595Q219 557 241
533T299 509Z" />
<glyph unicode="&#xb1;" horiz-adv-x="600" d="M67 0V94H241V275H62V390H241V570H365V390H544V275H365V94H533V0H67Z" />
<glyph unicode="&#xb2;" horiz-adv-x="600" d="M158 405V498L327 617Q347 630 358 651T370 695Q370 728 351 747T300 766Q269 766 250 747T230 695H146Q147 761 189 800T300 840Q371 840 413 801T455 696Q455 659 432 622T370 559L253 480H463V405H158Z" />
<glyph unicode="&#xb3;" horiz-adv-x="600" d="M284 395Q213 395 170 433T127 538H211Q211 505 231 487T284 469Q317 469 335 487T354 539Q354 572 336 591T285 610H255V676L340 755H158V830H412V746L298 640V672Q362 672 401 636T440 539Q440 473 397 434T284 395Z" />
<glyph unicode="&#xb4;" horiz-adv-x="600" d="M194 645L300 785H434L320 645H194Z" />
<glyph unicode="&#xb5;" horiz-adv-x="600" d="M75 -180V550H200V206Q200 154 224 127T300 99Q350 99 375 126T400 206V550H525V206Q525 105 469 48T313 -10Q267 -10 235 4T185 38T161 76H154Q155 76 160 61T170 25T177 -13L194 -180H75Z" />
<glyph unicode="&#xb6;" horiz-adv-x="600" d="M246 -180V310Q161 310 109 357T56 480V560Q56 637 108 683T246 730H344V-180H246ZM422 -180V730H520V-180H422Z" />
<glyph unicode="&#xb7;" horiz-adv-x="600" d="M300 255Q257 255 232 280T206 348Q206 391 231 416T300 442Q343 442 368 417T394 348Q394 305 369 280T300 255Z" />
<glyph unicode="&#xb8;" horiz-adv-x="600" d="M196 -216V-152H272Q296 -152 310 -141T325 -116Q325 -96 296 -83T213 -69L248 20H315L295 -37Q324 -40 354 -50T406 -79T428 -128Q428 -163 392 -189T296 -216H196Z" />
<glyph unicode="&#xb9;" horiz-adv-x="600" d="M149 405V481H281V755L158 667V757L256 830H366V481H469V405H149Z" />
<glyph unicode="&#xba;" horiz-adv-x="600" d="M300 448Q243 448 208 480T173 562V624Q173 675 208 706T300 738Q357 738 392 707T427 624V562Q427 512 392 480T300 448ZM300 505Q326 505 342 521T359 562V624Q359 650 343 665T300 680Q274 680 258 665T241 624V562Q241
537 257 521T300 505Z" />
<glyph unicode="&#xbb;" horiz-adv-x="600" d="M265 40L446 280L264 520H400L579 280L399 40H265ZM22 40L203 280L21 520H157L336 280L156 40H22Z" />
<glyph unicode="&#xbc;" horiz-adv-x="600" d="M34 404V469H150V677Q145 669 135 657T113 636L52 586V673L125 729H227V469H320V404H34ZM468 0V64H299V156L425 325H511L376 142V126H468V207H545V0H468ZM78 0L448 730H522L152 0H78Z" />
<glyph unicode="&#xbd;" horiz-adv-x="600" d="M312 0V79L446 154Q472 169 484 184T496 218Q496 241 482 254T445 268Q420 268 405 254T390 216H312Q313 267 350 298T445 330Q502 330 538 301T574 223Q574 190 551 161T481 108L409 68V58Q420 60 439 62T475 65H579V0H312ZM34
405V470H150V678Q145 669 135 658T113 637L52 587V673L125 730H227V470H324V405H34ZM78 0L448 730H522L152 0H78Z" />
<glyph unicode="&#xbe;" horiz-adv-x="600" d="M468 0V64H299V156L425 325H511L376 142V126H468V207H545V0H468ZM155 400Q94 400 58 429T21 505H98Q98 485 113 474T155 462Q179 462 194 474T209 508Q209 529 194 541T156 554H126V616L195 671H45V730H271V671L169
591V610Q222 610 254 582T287 508Q287 460 251 430T155 400ZM78 0L448 730H522L152 0H78Z" />
<glyph unicode="&#xbf;" horiz-adv-x="600" d="M334 -170Q261 -170 207 -144T123 -71T92 40Q92 100 117 145T187 216T293 243V333H404L407 133H327Q277 133 248 109T218 40Q218 -3 247 -28T328 -53H477V-170H334ZM339 423Q307 423 288 441T268 490Q268 520 287
537T339 555H364Q396 555 415 538T435 490Q435 460 416 442T364 423H339Z" />
<glyph unicode="&#xc0;" horiz-adv-x="600" d="M35 0L219 730H380L565 0H437L397 177H203L163 0H35ZM226 279H374L330 475Q319 524 311 563T300 621Q297 603 290 564T270 476L226 279ZM505 810L389 950H527L634 810H505Z" />
<glyph unicode="&#xc1;" horiz-adv-x="600" d="M35 0L219 730H380L565 0H437L397 177H203L163 0H35ZM226 279H374L330 475Q319 524 311 563T300 621Q297 603 290 564T270 476L226 279ZM224 810L330 950H464L350 810H224Z" />
<glyph unicode="&#xc2;" horiz-adv-x="600" d="M35 0L219 730H380L565 0H437L397 177H203L163 0H35ZM226 279H374L330 475Q319 524 311 563T300 621Q297 603 290 564T270 476L226 279ZM105 810L242 950H358L495 810H375L299 883L226 810H105Z" />
<glyph unicode="&#xc3;" horiz-adv-x="600" d="M35 0L219 730H380L565 0H437L397 177H203L163 0H35ZM226 279H374L330 475Q319 524 311 563T300 621Q297 603 290 564T270 476L226 279ZM370 806Q339 806 320 815T287 838T263 860T235 870Q222 870 214 862T205 837V811H128V844Q128
893 156 923T230 954Q261 954 280 945T313 922T337 900T365 890Q379 890 387 897T395 921V949H472V916Q472 867 444 837T370 806Z" />
<glyph unicode="&#xc4;" horiz-adv-x="600" d="M35 0L219 730H380L565 0H437L397 177H203L163 0H35ZM226 279H374L330 475Q319 524 311 563T300 621Q297 603 290 564T270 476L226 279ZM417 808Q384 808 364 827T344 880Q344 914 364 933T417 953Q451 953 471 934T491
880Q491 847 471 828T417 808ZM183 808Q149 808 129 827T109 880Q109 914 129 933T183 953Q216 953 236 934T256 880Q256 847 236 828T183 808Z" />
<glyph unicode="&#xc5;" horiz-adv-x="600" d="M35 0L219 730H380L565 0H437L397 177H203L163 0H35ZM226 279H374L330 475Q319 524 311 563T300 621Q297 603 290 564T270 476L226 279ZM300 758Q241 758 205 792T168 880Q168 935 204 968T300 1002Q359 1002 395
968T432 880Q432 825 396 792T300 758ZM300 821Q327 821 343 837T360 880Q360 907 344 923T300 939Q273 939 257 923T240 880Q240 854 256 838T300 821Z" />
<glyph unicode="&#xc6;" horiz-adv-x="600" d="M12 0L153 730H576V623H404V429H551V319H404V108H576V0H296V181H166L134 0H12ZM181 273H296V623H244L181 273Z" />
<glyph unicode="&#xc7;" horiz-adv-x="600" d="M204 -216V-152H280Q304 -152 318 -141T333 -116Q333 -96 304 -83T221 -69L256 20H322L303 -37Q332 -40 362 -50T414 -79T435 -128Q435 -163 399 -189T304 -216H204ZM304 -10Q234 -10 182 16T101 91T72 206V524Q72
591 100 639T181 713T304 740Q375 740 426 714T507 639T536 524H410Q410 576 383 603T304 630Q253 630 225 603T197 525V206Q197 155 225 128T304 100Q355 100 382 127T410 206H536Q536 141 507 92T427 17T304 -10Z" />
<glyph unicode="&#xc8;" horiz-adv-x="600" d="M88 0V730H526V621H211V431H491V323H211V109H526V0H88ZM525 810L409 950H547L654 810H525Z" />
<glyph unicode="&#xc9;" horiz-adv-x="600" d="M88 0V730H526V621H211V431H491V323H211V109H526V0H88ZM244 810L350 950H484L370 810H244Z" />
<glyph unicode="&#xca;" horiz-adv-x="600" d="M88 0V730H526V621H211V431H491V323H211V109H526V0H88ZM125 810L262 950H378L515 810H395L319 883L246 810H125Z" />
<glyph unicode="&#xcb;" horiz-adv-x="600" d="M88 0V730H526V621H211V431H491V323H211V109H526V0H88ZM437 808Q404 808 384 827T364 880Q364 914 384 933T437 953Q471 953 491 934T511 880Q511 847 491 828T437 808ZM203 808Q169 808 149 827T129 880Q129 914
149 933T203 953Q236 953 256 934T276 880Q276 847 256 828T203 808Z" />
<glyph unicode="&#xcc;" horiz-adv-x="600" d="M90 0V110H237V620H90V730H510V620H363V110H510V0H90ZM505 810L389 950H527L634 810H505Z" />
<glyph unicode="&#xcd;" horiz-adv-x="600" d="M90 0V110H237V620H90V730H510V620H363V110H510V0H90ZM224 810L330 950H464L350 810H224Z" />
<glyph unicode="&#xce;" horiz-adv-x="600" d="M90 0V110H237V620H90V730H510V620H363V110H510V0H90ZM105 810L242 950H358L495 810H375L299 883L226 810H105Z" />
<glyph unicode="&#xcf;" horiz-adv-x="600" d="M90 0V110H237V620H90V730H510V620H363V110H510V0H90ZM417 808Q384 808 364 827T344 880Q344 914 364 933T417 953Q451 953 471 934T491 880Q491 847 471 828T417 808ZM183 808Q149 808 129 827T109 880Q109 914
129 933T183 953Q216 953 236 934T256 880Q256 847 236 828T183 808Z" />
<glyph unicode="&#xd0;" horiz-adv-x="600" d="M10 329V416H290V329H10ZM75 0V730H292Q366 730 420 702T505 623T535 502V229Q535 160 505 109T421 29T292 0H75ZM200 115H292Q346 115 378 145T410 229V502Q410 554 378 584T292 615H200V115Z" />
<glyph unicode="&#xd1;" horiz-adv-x="600" d="M72 0V730H225L428 140Q425 172 422 215T416 304T414 384V730H528V0H375L174 590Q176 561 179 520T184 436T186 357V0H72ZM370 806Q339 806 320 815T287 838T263 860T235 870Q222 870 214 862T205 837V811H128V844Q128
893 156 923T230 954Q261 954 280 945T313 922T337 900T365 890Q379 890 387 897T395 921V949H472V916Q472 867 444 837T370 806Z" />
<glyph unicode="&#xd2;" horiz-adv-x="600" d="M300 -10Q230 -10 179 16T100 91T72 206V524Q72 590 99 638T178 713T300 740Q371 740 422 714T500 639T528 525V206Q528 140 501 92T422 17T300 -10ZM300 100Q351 100 377 127T403 206V524Q403 576 377 603T300 630Q249
630 223 603T197 524V206Q197 155 223 128T300 100ZM505 810L389 950H527L634 810H505Z" />
<glyph unicode="&#xd3;" horiz-adv-x="600" d="M300 -10Q230 -10 179 16T100 91T72 206V524Q72 590 99 638T178 713T300 740Q371 740 422 714T500 639T528 525V206Q528 140 501 92T422 17T300 -10ZM300 100Q351 100 377 127T403 206V524Q403 576 377 603T300 630Q249
630 223 603T197 524V206Q197 155 223 128T300 100ZM224 810L330 950H464L350 810H224Z" />
<glyph unicode="&#xd4;" horiz-adv-x="600" d="M300 -10Q230 -10 179 16T100 91T72 206V524Q72 590 99 638T178 713T300 740Q371 740 422 714T500 639T528 525V206Q528 140 501 92T422 17T300 -10ZM300 100Q351 100 377 127T403 206V524Q403 576 377 603T300 630Q249
630 223 603T197 524V206Q197 155 223 128T300 100ZM105 810L242 950H358L495 810H375L299 883L226 810H105Z" />
<glyph unicode="&#xd5;" horiz-adv-x="600" d="M300 -10Q230 -10 179 16T100 91T72 206V524Q72 590 99 638T178 713T300 740Q371 740 422 714T500 639T528 525V206Q528 140 501 92T422 17T300 -10ZM300 100Q351 100 377 127T403 206V524Q403 576 377 603T300 630Q249
630 223 603T197 524V206Q197 155 223 128T300 100ZM370 806Q339 806 320 815T287 838T263 860T235 870Q222 870 214 862T205 837V811H128V844Q128 893 156 923T230 954Q261 954 280 945T313 922T337 900T365 890Q379 890 387 897T395 921V949H472V916Q472 867
444 837T370 806Z" />
<glyph unicode="&#xd6;" horiz-adv-x="600" d="M300 -10Q230 -10 179 16T100 91T72 206V524Q72 590 99 638T178 713T300 740Q371 740 422 714T500 639T528 525V206Q528 140 501 92T422 17T300 -10ZM300 100Q351 100 377 127T403 206V524Q403 576 377 603T300 630Q249
630 223 603T197 524V206Q197 155 223 128T300 100ZM417 808Q384 808 364 827T344 880Q344 914 364 933T417 953Q451 953 471 934T491 880Q491 847 471 828T417 808ZM183 808Q149 808 129 827T109 880Q109 914 129 933T183 953Q216 953 236 934T256 880Q256 847
236 828T183 808Z" />
<glyph unicode="&#xd7;" horiz-adv-x="600" d="M170 115L89 197L217 325L89 455L170 536L299 407L430 538L511 456L380 325L510 197L428 115L299 245L170 115Z" />
<glyph unicode="&#xd8;" horiz-adv-x="600" d="M23 -40L473 750H577L127 -40H23ZM300 -10Q230 -10 179 16T100 91T72 206V524Q72 590 99 638T178 713T300 740Q371 740 422 714T500 639T528 525V206Q528 140 501 92T422 17T300 -10ZM300 100Q351 100 378 127T406
206V524Q406 576 379 603T300 630Q249 630 222 603T194 524V206Q194 155 221 128T300 100Z" />
<glyph unicode="&#xd9;" horiz-adv-x="600" d="M300 -10Q193 -10 133 48T72 208V730H198V209Q198 157 224 128T300 99Q349 99 375 128T402 209V730H528V208Q528 107 468 49T300 -10ZM505 810L389 950H527L634 810H505Z" />
<glyph unicode="&#xda;" horiz-adv-x="600" d="M300 -10Q193 -10 133 48T72 208V730H198V209Q198 157 224 128T300 99Q349 99 375 128T402 209V730H528V208Q528 107 468 49T300 -10ZM224 810L330 950H464L350 810H224Z" />
<glyph unicode="&#xdb;" horiz-adv-x="600" d="M300 -10Q193 -10 133 48T72 208V730H198V209Q198 157 224 128T300 99Q349 99 375 128T402 209V730H528V208Q528 107 468 49T300 -10ZM105 810L242 950H358L495 810H375L299 883L226 810H105Z" />
<glyph unicode="&#xdc;" horiz-adv-x="600" d="M300 -10Q193 -10 133 48T72 208V730H198V209Q198 157 224 128T300 99Q349 99 375 128T402 209V730H528V208Q528 107 468 49T300 -10ZM417 808Q384 808 364 827T344 880Q344 914 364 933T417 953Q451 953 471 934T491
880Q491 847 471 828T417 808ZM183 808Q149 808 129 827T109 880Q109 914 129 933T183 953Q216 953 236 934T256 880Q256 847 236 828T183 808Z" />
<glyph unicode="&#xdd;" horiz-adv-x="600" d="M237 0V265L23 730H154L268 477Q281 447 290 418T302 373Q306 389 314 418T336 477L447 730H577L363 265V0H237ZM224 810L330 950H464L350 810H224Z" />
<glyph unicode="&#xde;" horiz-adv-x="600" d="M78 0V730H203V589H337Q407 589 457 564T534 492T562 380Q562 284 502 228T337 171H203V0H78ZM203 278H322Q376 278 405 305T435 380Q435 429 406 455T322 482H203V278Z" />
<glyph unicode="&#xdf;" horiz-adv-x="600" d="M73 0V523Q73 588 101 637T180 713T299 740Q370 740 422 717T504 651T534 549Q534 498 512 460T447 402T346 381V396Q407 397 452 374T522 309T548 209Q548 147 519 100T437 26T313 0H255V107H306Q359 107 389 136T420
217Q420 267 390 296T306 325H260V422H304Q352 422 379 450T407 525Q407 575 378 604T298 633Q249 633 220 604T190 523V0H73Z" />
<glyph unicode="&#xe0;" horiz-adv-x="600" d="M239 -10Q154 -10 105 35T56 156Q56 237 110 281T263 325H400V372Q400 412 374 434T303 457Q262 457 235 439T203 390H81Q90 468 151 514T307 560Q408 560 466 510T525 373V0H404V96H384L404 123Q404 62 359 26T239
-10ZM280 84Q333 84 366 111T400 181V248H265Q227 248 204 226T181 168Q181 129 207 107T280 84ZM510 645L394 785H532L639 645H510Z" />
<glyph unicode="&#xe1;" horiz-adv-x="600" d="M239 -10Q154 -10 105 35T56 156Q56 237 110 281T263 325H400V372Q400 412 374 434T303 457Q262 457 235 439T203 390H81Q90 468 151 514T307 560Q408 560 466 510T525 373V0H404V96H384L404 123Q404 62 359 26T239
-10ZM280 84Q333 84 366 111T400 181V248H265Q227 248 204 226T181 168Q181 129 207 107T280 84ZM229 645L335 785H469L355 645H229Z" />
<glyph unicode="&#xe2;" horiz-adv-x="600" d="M239 -10Q154 -10 105 35T56 156Q56 237 110 281T263 325H400V372Q400 412 374 434T303 457Q262 457 235 439T203 390H81Q90 468 151 514T307 560Q408 560 466 510T525 373V0H404V96H384L404 123Q404 62 359 26T239
-10ZM280 84Q333 84 366 111T400 181V248H265Q227 248 204 226T181 168Q181 129 207 107T280 84ZM110 645L247 785H363L500 645H380L304 718L231 645H110Z" />
<glyph unicode="&#xe3;" horiz-adv-x="600" d="M239 -10Q154 -10 105 35T56 156Q56 237 110 281T263 325H400V372Q400 412 374 434T303 457Q262 457 235 439T203 390H81Q90 468 151 514T307 560Q408 560 466 510T525 373V0H404V96H384L404 123Q404 62 359 26T239
-10ZM280 84Q333 84 366 111T400 181V248H265Q227 248 204 226T181 168Q181 129 207 107T280 84ZM375 641Q344 641 325 650T292 673T268 695T240 705Q227 705 219 697T210 672V646H133V679Q133 728 161 758T235 789Q266 789 285 780T318 757T342 735T370 725Q384
725 392 732T400 756V784H477V751Q477 702 449 672T375 641Z" />
<glyph unicode="&#xe4;" horiz-adv-x="600" d="M239 -10Q154 -10 105 35T56 156Q56 237 110 281T263 325H400V372Q400 412 374 434T303 457Q262 457 235 439T203 390H81Q90 468 151 514T307 560Q408 560 466 510T525 373V0H404V96H384L404 123Q404 62 359 26T239
-10ZM280 84Q333 84 366 111T400 181V248H265Q227 248 204 226T181 168Q181 129 207 107T280 84ZM422 642Q389 642 369 661T349 714Q349 747 369 766T422 786Q456 786 476 767T496 714Q496 681 476 662T422 642ZM188 642Q154 642 134 661T114 714Q114 747 134 766T188
786Q221 786 241 767T261 714Q261 681 241 662T188 642Z" />
<glyph unicode="&#xe5;" horiz-adv-x="600" d="M239 -10Q154 -10 105 35T56 156Q56 237 110 281T263 325H400V372Q400 412 374 434T303 457Q262 457 235 439T203 390H81Q90 468 151 514T307 560Q408 560 466 510T525 373V0H404V96H384L404 123Q404 62 359 26T239
-10ZM280 84Q333 84 366 111T400 181V248H265Q227 248 204 226T181 168Q181 129 207 107T280 84ZM305 603Q246 603 210 636T173 724Q173 779 209 812T305 846Q364 846 400 813T437 724Q437 670 401 637T305 603ZM305 666Q332 666 348 682T365 725Q365 751 349 767T305
783Q278 783 262 767T245 724Q245 698 261 682T305 666Z" />
<glyph unicode="&#xe6;" horiz-adv-x="600" d="M171 -10Q110 -10 73 30T35 136V190Q35 253 79 290T195 328H251V405Q251 438 238 454T197 471Q172 471 158 455T143 408H40Q40 477 78 518T181 560Q219 560 244 548T282 517T298 483H304Q307 499 320 517T357 547T420
560Q486 560 525 518T565 406V252H351V144Q351 114 366 97T406 79Q433 79 447 94T462 136H565Q565 71 525 31T420 -10Q382 -10 357 2T320 33T304 67H298Q295 51 281 33T240 3T171 -10ZM195 79Q221 79 236 96T251 144V252H196Q170 252 155 236T140 190V136Q140 109
154 94T195 79ZM351 328H462V406Q462 437 448 454T406 471Q381 471 366 454T351 406V328Z" />
<glyph unicode="&#xe7;" horiz-adv-x="600" d="M200 -216V-152H275Q299 -152 313 -141T328 -116Q328 -96 299 -83T217 -69L252 20H318L298 -37Q327 -40 357 -50T409 -79T431 -128Q431 -163 395 -189T299 -216H200ZM303 -10Q233 -10 181 16T99 91T70 206V344Q70
411 99 459T180 533T303 560Q407 560 469 507T534 361H409Q406 404 379 427T303 451Q253 451 224 424T195 345V206Q195 155 224 127T303 99Q351 99 378 122T409 189H534Q531 97 469 44T303 -10Z" />
<glyph unicode="&#xe8;" horiz-adv-x="600" d="M301 -10Q231 -10 179 17T99 92T70 206V344Q70 409 98 457T179 533T301 560Q370 560 421 533T501 458T530 344V245H191V206Q191 148 219 119T302 89Q344 89 370 103T403 146H526Q512 75 451 33T301 -10ZM409 315V345Q409
402 382 432T301 463Q247 463 219 432T191 344V323L418 325L409 315ZM505 645L389 785H527L634 645H505Z" />
<glyph unicode="&#xe9;" horiz-adv-x="600" d="M301 -10Q231 -10 179 17T99 92T70 206V344Q70 409 98 457T179 533T301 560Q370 560 421 533T501 458T530 344V245H191V206Q191 148 219 119T302 89Q344 89 370 103T403 146H526Q512 75 451 33T301 -10ZM409 315V345Q409
402 382 432T301 463Q247 463 219 432T191 344V323L418 325L409 315ZM224 645L330 785H464L350 645H224Z" />
<glyph unicode="&#xea;" horiz-adv-x="600" d="M301 -10Q231 -10 179 17T99 92T70 206V344Q70 409 98 457T179 533T301 560Q370 560 421 533T501 458T530 344V245H191V206Q191 148 219 119T302 89Q344 89 370 103T403 146H526Q512 75 451 33T301 -10ZM409 315V345Q409
402 382 432T301 463Q247 463 219 432T191 344V323L418 325L409 315ZM105 645L242 785H358L495 645H375L299 718L226 645H105Z" />
<glyph unicode="&#xeb;" horiz-adv-x="600" d="M301 -10Q231 -10 179 17T99 92T70 206V344Q70 409 98 457T179 533T301 560Q370 560 421 533T501 458T530 344V245H191V206Q191 148 219 119T302 89Q344 89 370 103T403 146H526Q512 75 451 33T301 -10ZM409 315V345Q409
402 382 432T301 463Q247 463 219 432T191 344V323L418 325L409 315ZM417 642Q384 642 364 661T344 714Q344 747 364 766T417 786Q451 786 471 767T491 714Q491 681 471 662T417 642ZM183 642Q149 642 129 661T109 714Q109 747 129 766T183 786Q216 786 236 767T256
714Q256 681 236 662T183 642Z" />
<glyph unicode="&#xec;" horiz-adv-x="600" d="M76 0V114H268V437H101V550H388V114H558V0H76ZM523 645L407 785H545L652 645H523Z" />
<glyph unicode="&#xed;" horiz-adv-x="600" d="M76 0V114H268V437H101V550H388V114H558V0H76ZM242 645L348 785H482L368 645H242Z" />
<glyph unicode="&#xee;" horiz-adv-x="600" d="M76 0V114H268V437H101V550H388V114H558V0H76ZM123 645L260 785H376L513 645H393L317 718L244 645H123Z" />
<glyph unicode="&#xef;" horiz-adv-x="600" d="M76 0V114H268V437H101V550H388V114H558V0H76ZM435 642Q402 642 382 661T362 714Q362 747 382 766T435 786Q469 786 489 767T509 714Q509 681 489 662T435 642ZM201 642Q167 642 147 661T127 714Q127 747 147 766T201
786Q234 786 254 767T274 714Q274 681 254 662T201 642Z" />
<glyph unicode="&#xf0;" horiz-adv-x="600" d="M300 -4Q226 -4 170 25T83 106T52 227Q52 294 78 343T151 420T259 448Q291 448 317 437T361 409T389 377H398Q397 384 381 410T327 485L269 563L111 499V594L214 636L144 730H285L322 679L480 742V647L377 606L441
519Q495 445 521 375T548 239Q548 165 517 111T431 26T300 -4ZM300 102Q355 102 388 136T422 227Q422 264 407 292T365 335T300 351Q245 351 212 317T178 227Q178 170 211 136T300 102Z" />
<glyph unicode="&#xf1;" horiz-adv-x="600" d="M77 0V550H199V445H233L199 416Q199 484 238 522T347 560Q428 560 476 506T525 361V0H400V348Q400 398 374 425T301 452Q255 452 229 424T202 344V0H77ZM375 641Q344 641 325 650T292 673T268 695T240 705Q227 705
219 697T210 672V646H133V679Q133 728 161 758T235 789Q266 789 285 780T318 757T342 735T370 725Q384 725 392 732T400 756V784H477V751Q477 702 449 672T375 641Z" />
<glyph unicode="&#xf2;" horiz-adv-x="600" d="M300 -9Q230 -9 179 17T99 92T70 207V343Q70 409 98 457T178 532T300 559Q371 559 422 533T501 458T530 344V207Q530 141 502 93T422 18T300 -9ZM300 100Q350 100 377 127T405 207V343Q405 396 378 423T300 450Q251
450 223 423T195 343V207Q195 155 223 128T300 100ZM505 645L389 785H527L634 645H505Z" />
<glyph unicode="&#xf3;" horiz-adv-x="600" d="M300 -9Q230 -9 179 17T99 92T70 207V343Q70 409 98 457T178 532T300 559Q371 559 422 533T501 458T530 344V207Q530 141 502 93T422 18T300 -9ZM300 100Q350 100 377 127T405 207V343Q405 396 378 423T300 450Q251
450 223 423T195 343V207Q195 155 223 128T300 100ZM224 645L330 785H464L350 645H224Z" />
<glyph unicode="&#xf4;" horiz-adv-x="600" d="M300 -9Q230 -9 179 17T99 92T70 207V343Q70 409 98 457T178 532T300 559Q371 559 422 533T501 458T530 344V207Q530 141 502 93T422 18T300 -9ZM300 100Q350 100 377 127T405 207V343Q405 396 378 423T300 450Q251
450 223 423T195 343V207Q195 155 223 128T300 100ZM105 645L242 785H358L495 645H375L299 718L226 645H105Z" />
<glyph unicode="&#xf5;" horiz-adv-x="600" d="M300 -9Q230 -9 179 17T99 92T70 207V343Q70 409 98 457T178 532T300 559Q371 559 422 533T501 458T530 344V207Q530 141 502 93T422 18T300 -9ZM300 100Q350 100 377 127T405 207V343Q405 396 378 423T300 450Q251
450 223 423T195 343V207Q195 155 223 128T300 100ZM370 641Q339 641 320 650T287 673T263 695T235 705Q222 705 214 697T205 672V646H128V679Q128 728 156 758T230 789Q261 789 280 780T313 757T337 735T365 725Q379 725 387 732T395 756V784H472V751Q472 702
444 672T370 641Z" />
<glyph unicode="&#xf6;" horiz-adv-x="600" d="M300 -9Q230 -9 179 17T99 92T70 207V343Q70 409 98 457T178 532T300 559Q371 559 422 533T501 458T530 344V207Q530 141 502 93T422 18T300 -9ZM300 100Q350 100 377 127T405 207V343Q405 396 378 423T300 450Q251
450 223 423T195 343V207Q195 155 223 128T300 100ZM417 642Q384 642 364 661T344 714Q344 747 364 766T417 786Q451 786 471 767T491 714Q491 681 471 662T417 642ZM183 642Q149 642 129 661T109 714Q109 747 129 766T183 786Q216 786 236 767T256 714Q256 681
236 662T183 642Z" />
<glyph unicode="&#xf7;" horiz-adv-x="600" d="M100 275V388H500V275H100ZM287 70Q255 70 236 88T216 136Q216 166 235 184T287 202H313Q345 202 364 184T384 136Q384 106 365 88T312 70H287ZM287 460Q255 460 236 478T216 525Q216 555 235 573T287 592H313Q345
592 364 574T384 525Q384 496 365 478T312 460H287Z" />
<glyph unicode="&#xf8;" horiz-adv-x="600" d="M29 -30L466 590H571L134 -30H29ZM300 -10Q230 -10 179 16T100 91T72 206V344Q72 410 99 458T178 533T300 560Q371 560 422 534T500 459T528 345V206Q528 140 501 92T422 17T300 -10ZM300 99Q352 99 381 127T411
206V344Q411 394 382 422T300 451Q248 451 219 423T189 344V206Q189 156 218 128T300 99Z" />
<glyph unicode="&#xf9;" horiz-adv-x="600" d="M300 -10Q195 -10 135 48T75 208V550H200V209Q200 156 226 128T300 99Q347 99 373 127T400 209V550H525V208Q525 107 464 49T300 -10ZM505 645L389 785H527L634 645H505Z" />
<glyph unicode="&#xfa;" horiz-adv-x="600" d="M300 -10Q195 -10 135 48T75 208V550H200V209Q200 156 226 128T300 99Q347 99 373 127T400 209V550H525V208Q525 107 464 49T300 -10ZM224 645L330 785H464L350 645H224Z" />
<glyph unicode="&#xfb;" horiz-adv-x="600" d="M300 -10Q195 -10 135 48T75 208V550H200V209Q200 156 226 128T300 99Q347 99 373 127T400 209V550H525V208Q525 107 464 49T300 -10ZM105 645L242 785H358L495 645H375L299 718L226 645H105Z" />
<glyph unicode="&#xfc;" horiz-adv-x="600" d="M300 -10Q195 -10 135 48T75 208V550H200V209Q200 156 226 128T300 99Q347 99 373 127T400 209V550H525V208Q525 107 464 49T300 -10ZM417 642Q384 642 364 661T344 714Q344 747 364 766T417 786Q451 786 471 767T491
714Q491 681 471 662T417 642ZM183 642Q149 642 129 661T109 714Q109 747 129 766T183 786Q216 786 236 767T256 714Q256 681 236 662T183 642Z" />
<glyph unicode="&#xfd;" horiz-adv-x="600" d="M166 -180L243 30L38 550H175L277 269Q285 246 293 214T305 160Q310 181 318 213T334 269L430 550H562L297 -180H166ZM224 645L330 785H464L350 645H224Z" />
<glyph unicode="&#xfe;" horiz-adv-x="600" d="M75 -170V54H197V-170H75ZM345 -10Q277 -10 237 28T197 134L225 105H197V0H75V730H200V576L196 445H225L197 416Q197 483 237 521T345 560Q428 560 478 503T528 349V200Q528 104 478 47T345 -10ZM301 98Q349 98 375
126T402 206V344Q402 396 376 424T301 452Q254 452 227 424T200 344V206Q200 155 227 127T301 98Z" />
<glyph unicode="&#xff;" horiz-adv-x="600" d="M166 -180L243 30L38 550H175L277 269Q285 246 293 214T305 160Q310 181 318 213T334 269L430 550H562L297 -180H166ZM417 642Q384 642 364 661T344 714Q344 747 364 766T417 786Q451 786 471 767T491 714Q491 681
471 662T417 642ZM183 642Q149 642 129 661T109 714Q109 747 129 766T183 786Q216 786 236 767T256 714Q256 681 236 662T183 642Z" />
<glyph unicode="&#x2013;" horiz-adv-x="600" d="M77 272V388H523V272H77Z" />
<glyph unicode="&#x2014;" horiz-adv-x="600" d="M0 272V388H600V272H0Z" />
<glyph unicode="&#x2018;" horiz-adv-x="600" d="M455 775L375 464H215L345 775H455Z" />
<glyph unicode="&#x2019;" horiz-adv-x="600" d="M145 465L225 776H385L255 465H145Z" />
<glyph unicode="&#x201a;" horiz-adv-x="600" d="M150 -160L230 151H390L260 -160H150Z" />
<glyph unicode="&#x201c;" horiz-adv-x="600" d="M299 465L429 776H538L458 465H299ZM52 465L182 776H291L211 465H52Z" />
<glyph unicode="&#x201d;" horiz-adv-x="600" d="M309 465L389 776H548L418 465H309ZM62 465L142 776H301L171 465H62Z" />
<glyph unicode="&#x201e;" horiz-adv-x="600" d="M309 -160L389 151H548L418 -160H309ZM62 -160L142 151H301L171 -160H62Z" />
<glyph unicode="&#x2022;" horiz-adv-x="600" d="M300 236Q243 236 207 272T171 365Q171 422 207 458T300 494Q357 494 393 458T429 365Q429 308 393 272T300 236Z" />
<glyph unicode="&#x2039;" horiz-adv-x="600" d="M326 40L140 280L326 520H456L272 281L460 40H326Z" />
<glyph unicode="&#x203a;" horiz-adv-x="600" d="M144 40L329 279L140 520H274L460 280L274 40H144Z" />
</font>
</defs>
</svg>
