<?xml version="1.0" standalone="no"?>
<!DOCTYPE svg PUBLIC "-//W3C//DTD SVG 1.1//EN" "http://www.w3.org/Graphics/SVG/1.1/DTD/svg11.dtd">
<svg xmlns="http://www.w3.org/2000/svg">
<defs >
<font id="JetBrainsMono" horiz-adv-x="602" ><font-face
    font-family="JetBrains Mono Medium"
    units-per-em="1000"
    panose-1="2 0 0 9 0 0 0 0 0 0"
    ascent="1020"
    descent="-300"
    alphabetic="0" />
<glyph unicode=" " horiz-adv-x="600" />
<glyph unicode="!" horiz-adv-x="600" d="M252 224L291 601L311 730H433L412 601L331 224H252ZM240 -5Q212 -5 197 12T186 58Q190 86 211 103T260 121H290Q320 121 334 104T345 59Q340 31 319 13T270 -5H240Z" />
<glyph unicode="&quot;" horiz-adv-x="600" d="M386 430L403 619L422 730H534L516 619L474 430H386ZM175 430L192 619L210 730H322L304 619L263 430H175Z" />
<glyph unicode="#" horiz-adv-x="600" d="M34 0L100 191H17L29 266H125L191 464H94L106 539H217L282 730H364L299 539H446L511 730H594L528 539H611L599 464H503L437 266H534L522 191H411L346 0H264L329 191H182L117 0H34ZM207 266H354L421 464H274L207 266Z" />
<glyph unicode="$" horiz-adv-x="600" d="M206 -140L227 -9Q131 -1 85 52T51 193H159Q153 150 174 123T241 88L279 324L258 330Q181 353 146 408T123 541Q136 624 196 677T345 738L366 870H427L406 739Q493 731 536 679T567 542H459Q466 583 448 609T391 643L355
418L390 407Q466 385 500 329T522 195Q514 138 482 95T400 24T288 -9L267 -140H206ZM303 87Q348 94 378 121T414 191Q421 235 399 266T328 305L341 326L303 87ZM289 388L329 643Q289 636 264 612T233 548Q225 500 251 468T334 429L289 388Z" />
<glyph unicode="%" horiz-adv-x="600" d="M-39 0L582 730H667L46 0H-39ZM399 -5Q335 -5 302 31T278 130L288 195Q298 257 343 293T452 330Q515 330 548 294T573 195L563 130Q557 89 534 59T476 12T399 -5ZM410 68Q472 68 481 130L491 195Q496 227 483 242T440
258Q379 258 370 195L360 130Q350 68 410 68ZM175 400Q112 400 79 436T55 535L65 600Q72 642 94 672T151 719T228 735Q291 735 325 699T350 600L340 535Q334 493 311 463T252 417T175 400ZM187 472Q249 472 258 535L268 600Q278 663 218 663Q188 663 170 648T147
600L137 535Q132 503 144 488T187 472Z" />
<glyph unicode="&amp;" horiz-adv-x="600" d="M185 -10Q99 -10 59 37T32 167L48 276Q57 336 94 375T190 428L179 419Q154 461 145 499T142 576Q150 625 179 662T253 719T354 740Q413 740 453 718T511 657T520 563H416Q421 590 413 609T387 639T340 649Q315 649
295 640T261 613T243 570Q239 546 246 517T269 460L390 244L471 360H579L437 159L526 0H414L371 76Q286 -10 185 -10ZM208 82Q239 82 271 101T328 154L217 351Q191 345 175 326T153 276L136 167Q129 127 148 105T208 82Z" />
<glyph unicode="&apos;" horiz-adv-x="600" d="M277 430L287 577L312 730H424L400 577L365 430H277Z" />
<glyph unicode="(" horiz-adv-x="600" d="M421 -125Q280 -88 215 14T174 265L204 455Q220 552 269 631T397 765T575 845L558 741Q494 726 443 687T358 588T312 455L282 265Q271 193 286 134T340 37T438 -17L421 -125Z" />
<glyph unicode=")" horiz-adv-x="600" d="M51 -125L68 -17Q133 -2 184 36T269 134T314 265L344 455Q356 529 341 588T287 686T188 741L205 845Q297 821 357 766T443 631T452 455L422 265Q406 167 357 88T231 -45T51 -125Z" />
<glyph unicode="*" horiz-adv-x="600" d="M156 90L84 148L141 216Q158 236 181 256T228 293T269 323L267 329Q248 330 222 332T169 340T122 353L49 381L98 476L171 448Q192 440 214 426T256 397T290 368L295 372Q293 392 290 418T287 473T290 527L303 610H404L390
527Q386 502 376 474T355 419T334 372L338 368Q357 381 381 396T431 426T482 448L564 476L584 381L501 353Q478 345 451 340T397 333T349 329L345 322Q359 310 376 293T411 256T438 216L476 148L384 90L347 159Q337 178 329 204T315 255T307 300H300Q292 281 278
256T248 204T214 159L156 90Z" />
<glyph unicode="+" horiz-adv-x="600" d="M217 94L247 281H63L78 379H263L292 566H399L369 379H554L538 281H354L324 94H217Z" />
<glyph unicode="," horiz-adv-x="600" d="M87 -160L216 151H364L185 -160H87Z" />
<glyph unicode="-" horiz-adv-x="600" d="M136 281L152 379H481L465 281H136Z" />
<glyph unicode="." horiz-adv-x="600" d="M254 -10Q214 -10 194 13T180 77Q186 118 214 142T282 167Q323 167 343 143T356 77Q350 37 323 14T254 -10Z" />
<glyph unicode="/" horiz-adv-x="600" d="M7 -110L504 830H619L122 -110H7Z" />
<glyph unicode="0" horiz-adv-x="600" d="M254 -10Q185 -10 139 17T72 92T62 206L113 524Q124 590 158 638T248 713T373 740Q443 740 489 713T556 638T565 524L514 206Q504 141 469 93T378 17T254 -10ZM269 83Q326 83 364 117T411 206L462 524Q471 579 443 613T359
647Q302 647 264 613T216 524L165 206Q156 151 185 117T269 83ZM314 303Q285 303 268 321T250 368Q250 396 267 413T314 431Q342 431 359 414T376 368Q376 339 359 321T314 303Z" />
<glyph unicode="1" horiz-adv-x="600" d="M43 0L58 96H252L338 636L120 491L139 608L325 730H461L360 96H517L502 0H43Z" />
<glyph unicode="2" horiz-adv-x="600" d="M41 0L59 107L321 340Q382 394 413 437T451 524Q460 580 435 612T356 644Q298 644 260 611T211 519H104Q116 587 153 636T246 713T372 740Q439 740 484 714T550 641T560 530Q550 464 506 400T375 262L184 98H502L487 0H41Z" />
<glyph unicode="3" horiz-adv-x="600" d="M245 -10Q176 -10 130 16T63 89T53 200H161Q151 145 178 114T261 83Q318 83 354 115T399 200L407 254Q416 310 390 340T307 371H229L245 473L438 635H153L168 730H566L549 628L318 436L323 465Q427 465 478 408T515 255L507
200Q498 137 462 90T370 16T245 -10Z" />
<glyph unicode="4" horiz-adv-x="600" d="M356 0L379 152H52L78 314L429 730H550L179 287L173 249H395L423 420H530L463 0H356Z" />
<glyph unicode="5" horiz-adv-x="600" d="M252 -10Q157 -10 106 38T60 169H168Q166 129 192 107T268 85Q326 85 360 115T403 201L414 272Q423 328 399 358T318 389Q282 389 253 373T208 327H101L170 730H568L552 632H258L219 405H247L214 379Q222 426 263 453T366
480Q455 480 496 426T522 272L510 201Q494 104 426 47T252 -10Z" />
<glyph unicode="6" horiz-adv-x="600" d="M255 -10Q183 -10 134 20T64 104T54 230Q62 284 87 338T151 443L375 730H495L232 394L236 391Q261 420 295 435T372 451Q431 451 470 423T526 345T531 225Q520 155 482 102T385 20T255 -10ZM269 83Q329 83 371 122T424
225Q434 289 404 328T314 367Q254 367 212 328T160 225Q150 161 180 122T269 83Z" />
<glyph unicode="7" horiz-adv-x="600" d="M126 0L486 631H233L217 524H109L142 730H611L595 626L244 0H126Z" />
<glyph unicode="8" horiz-adv-x="600" d="M254 -10Q149 -10 96 43T57 186Q68 252 111 299T236 381L348 430Q391 449 418 480T451 550Q459 595 434 621T359 647Q308 647 275 621T234 549Q228 512 245 481T298 431L395 383Q468 346 496 299T514 186Q505 126 470
82T379 14T254 -10ZM269 84Q325 84 363 113T408 191Q415 230 398 263T345 316L245 367Q176 402 148 447T129 555Q138 610 170 652T255 717T373 741Q439 741 483 718T547 652T558 555Q548 491 506 447T382 366L265 315Q224 297 198 264T164 193Q156 144 184 114T269
84Z" />
<glyph unicode="9" horiz-adv-x="600" d="M133 0L399 336L394 339Q370 310 334 295T256 279Q198 279 158 307T102 386T97 505Q108 576 146 628T242 710T372 740Q444 740 493 710T564 626T574 500Q566 447 541 392T476 287L253 0H133ZM313 363Q373 363 415 402T468
505Q478 569 448 608T359 647Q299 647 257 608T204 505Q194 441 224 402T313 363Z" />
<glyph unicode=":" horiz-adv-x="600" d="M319 401Q280 401 260 423T244 481Q250 517 278 538T345 560Q385 560 405 539T420 481Q415 445 388 423T319 401ZM254 -10Q215 -10 194 12T179 69Q184 106 212 127T279 149Q320 149 340 128T355 69Q349 34 322 12T254 -10Z" />
<glyph unicode=";" horiz-adv-x="600" d="M94 -160L223 151H367L188 -160H94ZM310 401Q275 401 256 423T243 481Q248 515 274 537T335 560H355Q389 560 408 538T422 481Q416 446 390 424T330 401H310Z" />
<glyph unicode="&lt;" horiz-adv-x="600" d="M485 60L80 273L97 386L570 599L554 492L232 349Q211 340 192 334T163 326Q173 324 190 318T225 302L502 159L485 60Z" />
<glyph unicode="=" horiz-adv-x="600" d="M103 403L119 500H552L536 403H103ZM65 160L81 257H514L498 160H65Z" />
<glyph unicode="&gt;" horiz-adv-x="600" d="M46 60L62 166L384 309Q405 318 424 324T453 332Q444 334 427 340T392 356L115 499L131 599L537 386L519 273L46 60Z" />
<glyph unicode="?" horiz-adv-x="600" d="M191 211L220 401H285Q342 401 380 432T428 515Q435 567 407 598T320 629H183L200 730H333Q441 730 495 672T535 515Q526 456 494 410T414 338T307 309L292 211H191ZM192 -5Q163 -5 149 12T138 58Q142 86 162 103T212
121H242Q272 121 286 104T296 59Q292 31 271 13T221 -5H192Z" />
<glyph unicode="@" horiz-adv-x="600" d="M252 -180Q165 -180 106 -145T23 -44T12 110L66 450Q81 540 124 605T235 705T388 740Q466 740 517 710T590 625T600 496L532 65H449L461 120H432L453 143Q446 104 413 80T332 55Q268 55 240 95T224 213L242 330Q254 407
295 447T400 488Q449 488 474 464T493 399L483 420H510L508 489V496Q516 547 504 583T459 640T376 660Q288 660 231 605T158 450L104 110Q89 14 132 -40T266 -94H336L322 -180H252ZM376 125Q414 125 435 147T465 220L482 331Q489 375 475 396T422 418Q386 418 364
396T334 330L316 213Q309 167 324 146T376 125Z" />
<glyph unicode="A" horiz-adv-x="600" d="M-1 0L301 730H443L513 0H407L393 185H186L112 0H-1ZM220 274H386L369 485Q365 541 363 582T360 639Q355 624 341 583T304 486L220 274Z" />
<glyph unicode="B" horiz-adv-x="600" d="M41 0L157 730H372Q476 730 527 680T564 542Q557 492 530 456T461 399T368 379L369 389Q425 390 463 369T519 305T527 205Q517 143 483 97T394 25T270 0H41ZM161 93H275Q334 93 373 124T421 210Q429 266 401 300T314 334H199L161
93ZM213 424H322Q376 424 411 453T455 531Q463 580 437 608T357 637H247L213 424Z" />
<glyph unicode="C" horiz-adv-x="600" d="M258 -10Q190 -10 144 15T78 89T68 203L119 527Q130 593 165 641T254 714T377 740Q445 740 490 714T556 641T566 527H458Q468 584 443 614T362 644Q307 644 272 614T227 528L176 203Q167 147 193 117T273 86Q328 86 363
116T407 203H515Q505 138 470 90T381 16T258 -10Z" />
<glyph unicode="D" horiz-adv-x="600" d="M39 0L155 730H359Q431 730 480 703T550 625T560 507L516 224Q505 157 468 106T373 28T243 0H39ZM163 98H258Q318 98 358 131T408 224L452 507Q462 565 433 598T343 632H247L163 98Z" />
<glyph unicode="E" horiz-adv-x="600" d="M50 0L166 730H595L580 634H257L224 427H512L496 332H209L171 96H494L479 0H50Z" />
<glyph unicode="F" horiz-adv-x="600" d="M44 0L160 731H601L585 631H249L215 413H525L509 313H201L151 0H44Z" />
<glyph unicode="G" horiz-adv-x="600" d="M258 -10Q190 -10 144 15T78 89T68 203L119 527Q130 593 165 641T254 714T377 740Q445 740 490 714T556 641T566 527H458Q468 584 443 614T362 644Q307 644 272 614T227 528L176 203Q167 147 193 116T273 85Q328 85 363
116T407 203L420 285H284L299 380H543L515 203Q505 138 470 90T381 16T258 -10Z" />
<glyph unicode="H" horiz-adv-x="600" d="M41 0L157 730H265L216 428H431L479 730H587L471 0H363L415 328H201L149 0H41Z" />
<glyph unicode="I" horiz-adv-x="600" d="M54 0L69 96H217L302 634H154L170 730H574L559 634H411L326 96H474L458 0H54Z" />
<glyph unicode="J" horiz-adv-x="600" d="M224 -10Q116 -10 64 50T27 213H135Q126 152 153 119T239 85Q298 85 336 118T384 212L451 631H279L295 730H574L492 212Q482 144 446 94T353 17T224 -10Z" />
<glyph unicode="K" horiz-adv-x="600" d="M40 0L156 730H264L215 426H310L509 730H628L398 375L520 0H403L299 329H200L148 0H40Z" />
<glyph unicode="L" horiz-adv-x="600" d="M65 0L181 730H289L189 99H508L492 0H65Z" />
<glyph unicode="M" horiz-adv-x="600" d="M22 0L138 730H269L304 496Q309 463 313 433T318 387Q324 402 335 432T363 496L471 730H606L490 0H388L427 246Q435 295 446 352T472 468T499 579T523 672L360 317H255L201 672Q200 633 197 582T189 472T178 356T163 246L124
0H22Z" />
<glyph unicode="N" horiz-adv-x="600" d="M37 0L153 730H288L406 123Q408 152 411 192T420 275T431 353L491 730H591L475 0H340L223 607Q221 581 218 542T209 461T198 383L137 0H37Z" />
<glyph unicode="O" horiz-adv-x="600" d="M254 -10Q187 -10 142 15T77 89T68 203L119 527Q130 593 164 641T252 714T373 740Q441 740 486 715T551 641T560 528L509 203Q499 138 464 90T376 16T254 -10ZM269 86Q324 86 358 116T401 203L452 527Q461 584 437 614T358
644Q303 644 270 614T227 527L176 203Q167 147 191 117T269 86Z" />
<glyph unicode="P" horiz-adv-x="600" d="M40 0L156 730H395Q466 730 514 703T582 627T593 510Q583 444 546 394T453 317T326 290H194L148 0H40ZM209 387H341Q396 387 435 420T483 510Q492 567 464 600T380 633H248L209 387Z" />
<glyph unicode="Q" horiz-adv-x="600" d="M346 -180L267 -1L282 -8Q276 -8 269 -9T254 -10Q186 -10 139 17T72 92T62 206L113 524Q124 590 159 638T249 713T373 740Q442 740 488 713T555 638T565 524L514 206Q502 131 457 78T343 4L352 58L459 -180H346ZM269 85Q325
85 361 118T406 206L457 524Q466 580 440 612T359 645Q304 645 267 613T221 524L170 206Q161 151 187 118T269 85Z" />
<glyph unicode="R" horiz-adv-x="600" d="M40 0L156 730H385Q454 730 500 704T568 629T578 516Q570 462 542 418T472 345T376 306L389 360L507 0H389L298 300H195L148 0H40ZM210 395H331Q385 395 422 427T468 514Q477 570 450 602T369 634H248L210 395Z" />
<glyph unicode="S" horiz-adv-x="600" d="M257 -10Q147 -10 92 44T51 193H159Q151 143 181 115T273 86Q331 86 368 114T414 191Q421 234 403 264T347 307L260 333Q184 356 148 411T123 541Q133 601 167 646T255 716T377 741Q477 741 529 687T567 542H459Q467 590
442 617T361 645Q307 645 274 620T233 548Q226 506 243 475T298 432L388 404Q463 381 498 326T522 195Q513 133 477 87T384 16T257 -10Z" />
<glyph unicode="T" horiz-adv-x="600" d="M202 0L302 631H107L123 731H621L605 631H410L310 0H202Z" />
<glyph unicode="U" horiz-adv-x="600" d="M254 -10Q149 -10 102 47T70 204L153 730H261L178 204Q168 149 191 117T269 85Q324 85 357 117T400 204L483 730H591L508 204Q497 138 464 90T377 16T254 -10Z" />
<glyph unicode="V" horiz-adv-x="600" d="M184 0L115 730H224L264 244Q268 201 270 159T272 92Q279 116 293 158T326 245L518 730H629L327 0H184Z" />
<glyph unicode="W" horiz-adv-x="600" d="M56 0L93 730H187L153 206Q152 186 150 162T146 115T141 75Q145 92 150 115T162 162T175 206L322 730H424L399 206Q398 186 397 162T395 115T393 75Q397 92 401 115T412 162T423 206L557 730H651L453 0H328L353 531Q354
552 355 575T358 621T362 659Q358 644 353 622T341 576T329 531L182 0H56Z" />
<glyph unicode="X" horiz-adv-x="600" d="M-10 0L254 375L118 730H236L306 531Q312 512 319 493T329 464Q335 474 345 493T369 531L505 730H626L377 374L522 0H405L325 216Q318 235 312 254T303 285Q297 274 285 255T261 217L113 0H-10Z" />
<glyph unicode="Y" horiz-adv-x="600" d="M202 0L244 269L101 730H211L296 454Q304 427 308 404T314 367Q319 380 330 403T358 454L529 730H643L352 269L310 0H202Z" />
<glyph unicode="Z" horiz-adv-x="600" d="M38 0L55 105L445 631H144L160 730H580L562 625L172 99H490L474 0H38Z" />
<glyph unicode="[" horiz-adv-x="600" d="M134 -110L282 830H544L529 732H374L256 -12H411L396 -110H134Z" />
<glyph unicode="\" horiz-adv-x="600" d="M363 -110L154 830H262L471 -110H363Z" />
<glyph unicode="]" horiz-adv-x="600" d="M82 -110L97 -12H252L370 732H215L230 830H492L344 -110H82Z" />
<glyph unicode="^" horiz-adv-x="600" d="M84 340L322 730H424L536 340H440L377 584Q372 605 369 623T363 652Q359 642 350 624T329 584L186 340H84Z" />
<glyph unicode="_" horiz-adv-x="600" d="M-3 -119L12 -25H492L477 -119H-3Z" />
<glyph unicode="`" horiz-adv-x="600" d="M349 645L255 785H369L455 645H349Z" />
<glyph unicode="a" horiz-adv-x="600" d="M215 -10Q133 -10 93 46T68 197L92 352Q102 417 132 463T206 534T306 560Q374 560 408 523T432 420L413 445H437L452 550H559L472 0H366L383 105H360L387 130Q376 65 330 28T215 -10ZM268 84Q319 84 353 115T397 203L419
347Q429 403 405 434T328 466Q275 466 242 436T199 347L177 203Q167 145 191 115T268 84Z" />
<glyph unicode="b" horiz-adv-x="600" d="M293 -10Q225 -10 191 27T167 130L187 105H164L147 0H40L156 730H264L239 573L215 445H240L213 420Q223 485 270 522T384 560Q467 560 507 504T532 352L508 197Q498 133 468 87T394 16T293 -10ZM272 84Q324 84 358 114T401
203L423 347Q433 405 409 435T332 466Q281 466 247 435T203 347L180 203Q171 147 196 116T272 84Z" />
<glyph unicode="c" horiz-adv-x="600" d="M258 -10Q190 -10 144 15T78 89T68 203L90 347Q101 413 136 461T226 534T349 560Q448 560 499 508T540 366H433Q437 413 411 439T333 465Q278 465 243 435T199 348L176 203Q167 147 192 116T273 85Q325 85 359 111T404
184H512Q494 94 426 42T258 -10Z" />
<glyph unicode="d" horiz-adv-x="600" d="M215 -10Q133 -10 93 46T68 197L92 352Q102 417 132 463T206 534T306 560Q374 560 408 523T432 420L413 445H437L455 573L481 730H588L472 0H366L383 105H360L387 130Q376 65 330 28T215 -10ZM268 84Q319 84 353 115T397
203L419 347Q429 403 405 434T328 466Q275 466 242 436T199 347L177 203Q167 145 191 115T268 84Z" />
<glyph unicode="e" horiz-adv-x="600" d="M254 -10Q187 -10 142 16T78 91T68 203L90 347Q101 412 136 459T224 533T345 560Q413 560 458 534T522 460T531 347L516 249H179L172 203Q163 142 187 110T269 78Q316 78 346 94T389 143H496Q481 96 447 62T363 9T254
-10ZM422 314L427 348Q437 408 414 441T332 474Q274 474 240 441T195 347L191 322L431 323L422 314Z" />
<glyph unicode="f" horiz-adv-x="600" d="M-51 -180L-36 -87H72Q114 -87 137 -67T167 -8L231 394H75L90 492H246L258 567Q266 617 293 653T364 710T462 730H632L617 634H447Q412 634 392 617T366 566L354 492H572L556 394H338L275 -10Q263 -89 205 -134T58 -180H-51Z" />
<glyph unicode="g" horiz-adv-x="600" d="M85 -180L99 -87H268Q310 -87 334 -67T364 -8L373 47L391 149H368L394 169Q383 106 338 70T226 34Q141 34 101 90T75 241L93 353Q103 417 132 463T207 534T309 560Q376 560 410 524T434 424L414 445H437L452 550H559L471
-10Q458 -89 401 -134T254 -180H85ZM275 127Q327 127 361 158T405 246L420 347Q430 403 405 434T329 466Q276 466 243 436T200 347L184 246Q175 189 199 158T275 127Z" />
<glyph unicode="h" horiz-adv-x="600" d="M40 0L156 730H264L235 550L217 445H243L213 420Q224 486 269 523T383 560Q465 560 505 508T532 366L474 0H366L422 354Q430 408 407 438T332 468Q281 468 247 437T203 347L148 0H40Z" />
<glyph unicode="i" horiz-adv-x="600" d="M33 0L49 98H242L298 452H130L145 550H418L347 98H525L509 0H33ZM374 645Q339 645 322 663T308 713Q314 745 337 763T396 782Q431 782 449 764T462 713Q457 682 434 664T374 645Z" />
<glyph unicode="j" horiz-adv-x="600" d="M11 -180L27 -80H165Q221 -80 256 -50T301 35L366 451H141L157 550H490L408 34Q398 -32 363 -80T274 -154T152 -180H11ZM446 645Q411 645 394 663T380 713Q386 745 409 763T468 782Q503 782 521 764T534 713Q529 682 506
664T446 645Z" />
<glyph unicode="k" horiz-adv-x="600" d="M43 0L159 730H267L203 329H290L472 550H596L379 282L512 0H391L281 236H189L151 0H43Z" />
<glyph unicode="l" horiz-adv-x="600" d="M328 0Q251 0 212 46T185 167L258 632H92L108 730H382L293 167Q288 135 303 117T348 98H526L510 0H328Z" />
<glyph unicode="m" horiz-adv-x="600" d="M15 0L102 550H192L182 480H201L182 459Q190 505 219 532T291 560Q336 560 355 525T364 429L348 480H386L366 459Q374 505 404 532T477 560Q528 560 551 522T564 419L497 0H401L466 416Q471 447 461 464T426 481Q401 481
385 465T363 417L297 0H216L281 416Q287 448 276 464T239 481Q214 481 199 465T178 417L112 0H15Z" />
<glyph unicode="n" horiz-adv-x="600" d="M40 0L127 550H234L217 445H243L213 420Q224 486 269 523T383 560Q465 560 505 508T532 366L474 0H366L422 354Q430 408 407 438T332 468Q281 468 247 437T203 347L148 0H40Z" />
<glyph unicode="o" horiz-adv-x="600" d="M254 -10Q187 -10 142 15T77 89T68 203L90 347Q101 413 135 461T224 534T345 560Q413 560 458 535T522 461T532 348L509 203Q499 138 464 90T376 16T254 -10ZM269 85Q324 85 358 115T401 203L423 347Q433 405 409 435T330
465Q276 465 242 435T198 347L176 203Q167 145 191 115T269 85Z" />
<glyph unicode="p" horiz-adv-x="600" d="M11 -180L127 550H234L217 445H240L213 420Q223 485 270 522T385 560Q468 560 507 505T532 353L508 198Q498 134 469 88T395 16T294 -10Q227 -10 192 27T167 130L187 105H162L145 -23L119 -180H11ZM272 84Q325 84 358
114T401 203L423 347Q433 405 409 435T333 466Q282 466 248 435T203 347L180 203Q171 147 196 116T272 84Z" />
<glyph unicode="q" horiz-adv-x="600" d="M335 -180L360 -23L384 105H359L385 130Q375 65 329 28T215 -10Q132 -10 92 46T67 198L91 353Q101 417 131 463T206 535T306 560Q374 560 407 523T431 420L412 445H435L452 550H559L443 -180H335ZM267 84Q319 84 353 115T396
203L419 347Q428 403 404 434T327 466Q275 466 242 436T198 347L176 203Q167 145 191 115T267 84Z" />
<glyph unicode="r" horiz-adv-x="600" d="M58 0L145 550H249L232 445H258L215 380Q229 469 275 514T399 560Q487 560 529 506T557 356L551 319H440L445 347Q454 406 430 437T353 469Q300 469 266 437T221 347L166 0H58Z" />
<glyph unicode="s" horiz-adv-x="600" d="M232 -10Q142 -10 95 31T53 142H161Q161 115 183 98T246 81H289Q339 81 366 101T400 155Q404 187 386 206T324 232L255 243Q170 256 134 292T108 400Q119 476 175 518T330 560H368Q453 560 498 520T540 414H432Q432 438
412 453T353 469H315Q268 469 244 451T214 399Q210 369 225 353T280 330L351 319Q441 305 479 268T507 158Q494 79 436 35T274 -10H232Z" />
<glyph unicode="t" horiz-adv-x="600" d="M316 0Q241 0 206 41T182 155L229 452H77L92 550H244L268 700H376L352 550H567L552 452H337L290 155Q280 98 336 98H486L470 0H316Z" />
<glyph unicode="u" horiz-adv-x="600" d="M253 -10Q154 -10 105 47T71 204L125 550H233L179 204Q170 147 194 116T269 84Q320 84 354 115T398 204L453 550H561L506 204Q496 138 462 90T374 16T253 -10Z" />
<glyph unicode="v" horiz-adv-x="600" d="M185 0L93 550H201L255 198Q260 167 264 136T269 86Q277 104 290 135T318 198L480 550H593L327 0H185Z" />
<glyph unicode="w" horiz-adv-x="600" d="M69 0L71 550H160L153 187Q152 162 152 132T149 81Q155 101 164 131T181 187L296 550H389L387 187Q387 161 387 131T386 80Q391 101 400 131T417 187L527 550H615L440 0H326L328 359Q328 387 328 418T329 469Q324 450
315 419T296 359L184 0H69Z" />
<glyph unicode="x" horiz-adv-x="600" d="M2 0L237 287L102 550H223L293 398Q298 386 303 373T311 350Q316 359 324 372T342 398L459 550H585L366 280L510 0H388L311 165Q306 177 300 192T292 216Q286 207 277 192T259 165L128 0H2Z" />
<glyph unicode="y" horiz-adv-x="600" d="M83 -180L98 -87H267Q309 -87 333 -67T363 -8L372 51L390 155H363L393 180Q383 114 338 77T223 40Q142 40 101 92T74 234L125 550H232L184 246Q175 192 199 162T274 132Q325 132 359 163T403 253L450 550H558L469 -10Q458
-89 400 -134T253 -180H83Z" />
<glyph unicode="z" horiz-adv-x="600" d="M40 0L56 102L405 454H121L136 550H548L532 448L179 96H487L472 0H40Z" />
<glyph unicode="{" horiz-adv-x="600" d="M400 -110Q342 -110 303 -90T248 -31T243 61L279 220Q288 266 273 288T202 311H88L103 409H217Q272 409 295 431T323 500L338 660Q344 713 371 751T444 810T548 830H605L590 732H542Q501 732 475 713T445 654L430 494Q423
432 381 395T271 358V363Q338 363 369 326T387 226L352 66Q344 28 363 8T424 -12H472L457 -110H400Z" />
<glyph unicode="|" horiz-adv-x="600" d="M185 -110L333 830H441L293 -110H185Z" />
<glyph unicode="}" horiz-adv-x="600" d="M21 -110L36 -12H84Q125 -12 151 8T181 66L196 226Q202 288 245 325T355 363V358Q288 358 257 395T239 494L274 654Q283 694 264 713T202 732H154L169 830H226Q284 830 323 810T378 752T383 660L347 500Q338 453 353 431T424
409H538L523 311H409Q355 311 332 289T303 220L288 61Q283 8 255 -30T181 -89T78 -110H21Z" />
<glyph unicode="~" horiz-adv-x="600" d="M54 255L65 329Q75 390 119 426T224 462Q264 462 288 449T327 416T354 376T379 343T412 329Q433 329 446 342T463 379L474 450H569L558 376Q549 316 506 280T400 243Q361 243 337 256T297 289T270 329T245 362T211 376Q191
376 178 364T160 326L149 255H54Z" />
<glyph unicode="&#xa0;" horiz-adv-x="600" />
<glyph unicode="&#xa1;" horiz-adv-x="600" d="M166 -180L188 -45L268 327H347L310 -45L288 -180H166ZM313 430Q282 430 267 447T255 494Q259 522 280 539T333 556H355Q386 556 402 540T414 494Q410 465 388 448T336 430H313Z" />
<glyph unicode="&#xa2;" horiz-adv-x="600" d="M212 -140L343 690H404L273 -140H212ZM258 -10Q190 -10 144 15T78 89T68 203L90 347Q101 413 136 461T226 534T349 560Q448 560 499 508T540 366H433Q437 413 411 439T333 465Q278 465 243 435T199 348L176 203Q167
147 192 116T273 85Q325 85 359 111T404 184H512Q494 94 426 42T258 -10Z" />
<glyph unicode="&#xa3;" horiz-adv-x="600" d="M31 0L50 118Q76 134 104 158T155 208T181 260Q188 302 182 332T164 386T139 434T121 485T120 551Q129 607 162 650T250 716T373 740Q440 740 486 717T553 649T565 544H454Q460 589 434 617T357 645Q303 645 269
618T227 545Q222 515 229 494T248 452T271 407T288 350T286 269Q279 226 254 192T197 133T137 98H507L491 0H31ZM75 299L90 391H453L438 299H75Z" />
<glyph unicode="&#xa4;" horiz-adv-x="600" d="M470 112L365 236L421 217Q393 194 358 183T284 171Q245 171 213 183T158 218L219 230L83 113L28 180L161 296L140 238Q120 263 112 298T110 373Q117 413 135 446T183 507L191 448L88 572L162 635L267 510L212 531Q240
552 275 563T348 575Q388 575 420 563T477 526L414 513L548 629L604 564L471 449L494 508Q512 481 519 447T520 373Q513 334 496 300T451 239L440 298L544 175L470 112ZM296 248Q331 248 361 264T412 309T438 373Q444 409 432 437T396 481T336 498Q301 498 270
482T218 437T192 373Q186 337 198 309T235 265T296 248Z" />
<glyph unicode="&#xa5;" horiz-adv-x="600" d="M58 267L72 351H552L538 267H58ZM34 114L47 198H527L514 114H34ZM202 0L244 269L101 730H211L296 454Q304 427 308 404T314 367Q319 380 330 403T358 454L529 730H643L352 269L310 0H202Z" />
<glyph unicode="&#xa6;" horiz-adv-x="600" d="M273 450L333 830H441L381 450H273ZM185 -110L245 270H353L293 -110H185Z" />
<glyph unicode="&#xa7;" horiz-adv-x="600" d="M216 -154Q128 -154 76 -112T23 1H135Q139 -29 165 -47T230 -65H260Q314 -65 346 -43T384 15Q389 48 369 69T303 100L214 119Q142 134 105 178T77 281Q83 319 105 349T159 399T232 421L233 428Q206 430 178 445T135
493T127 575Q139 651 200 695T361 740H391Q476 740 526 700T575 593H464Q462 618 439 634T377 650H347Q298 650 269 630T234 576Q229 546 249 525T309 494L400 474Q474 458 510 415T536 310Q530 272 509 242T455 193T379 174L378 167Q407 165 436 148T482 99T491
16Q479 -62 414 -108T246 -154H216ZM311 192Q340 186 364 198T405 236T427 296Q432 330 416 355T365 388L299 402Q272 408 249 396T209 359T188 301Q181 264 197 238T244 205L311 192Z" />
<glyph unicode="&#xa8;" horiz-adv-x="600" d="M473 645Q441 645 426 663T415 713Q420 745 441 763T494 782Q526 782 541 764T552 713Q548 682 526 664T473 645ZM244 645Q213 645 198 663T186 713Q191 745 212 763T266 782Q297 782 313 764T323 713Q319 682 298
664T244 645Z" />
<glyph unicode="&#xa9;" horiz-adv-x="600" d="M273 110Q197 110 145 140T69 224T56 350L80 500Q92 572 132 626T234 710T373 740Q450 740 502 710T578 626T590 500L566 350Q555 278 515 224T412 140T273 110ZM281 160Q341 160 389 183T470 250T511 350L535 500Q544
557 526 599T467 666T365 690Q306 690 257 666T176 600T135 500L111 350Q102 293 120 250T180 184T281 160ZM300 245Q243 245 213 277T191 363L210 487Q219 540 259 572T357 605Q414 605 444 573T465 487H394Q398 513 385 528T347 544Q322 544 304 529T281 487L262
363Q258 337 271 322T310 306Q335 306 353 321T375 363H446Q437 310 397 278T300 245Z" />
<glyph unicode="&#xaa;" horiz-adv-x="600" d="M395 455L404 510H401L423 650Q426 670 412 682T371 694Q347 694 329 684T307 659H248Q260 697 294 718T378 740Q432 740 460 716T482 650L451 455H395ZM298 450Q253 450 230 473T213 537Q219 576 251 599T334 622H429L423
579H328Q305 579 290 568T272 537Q269 517 282 505T321 493Q357 493 380 510T408 555H419L412 510H401Q386 482 359 466T298 450Z" />
<glyph unicode="&#xab;" horiz-adv-x="600" d="M416 40L264 280L492 520H617L381 276L532 40H416ZM178 40L26 280L254 520H379L143 276L294 40H178Z" />
<glyph unicode="&#xac;" horiz-adv-x="600" d="M412 196L433 328H78L93 425H553L517 196H412Z" />
<glyph unicode="&#xad;" horiz-adv-x="600" d="M136 281L152 379H481L465 281H136Z" />
<glyph unicode="&#xae;" horiz-adv-x="600" d="M273 110Q197 110 144 140T68 224T56 350L80 500Q92 572 132 626T234 710T373 740Q450 740 502 710T578 626T590 500L566 350Q555 278 515 224T412 140T273 110ZM281 160Q341 160 389 183T470 250T511 350L535 500Q544
557 526 599T467 666T365 690Q306 690 257 666T176 600T135 500L111 350Q102 293 120 250T180 184T281 160ZM183 250L238 600H355Q410 600 438 571T458 494Q451 452 423 426T352 391L373 436L426 250H357L321 389H271L249 250H183ZM279 443H330Q355 443 371 457T391
495Q396 519 384 533T347 547H296L279 443Z" />
<glyph unicode="&#xaf;" horiz-adv-x="600" d="M195 666L209 751H541L527 666H195Z" />
<glyph unicode="&#xb0;" horiz-adv-x="600" d="M327 450Q260 450 225 490T200 595Q211 660 258 700T373 740Q441 740 476 700T500 595Q490 530 443 490T327 450ZM335 505Q374 505 401 530T436 595Q442 636 422 661T364 686Q326 686 299 661T264 595Q258 555 277
530T335 505Z" />
<glyph unicode="&#xb1;" horiz-adv-x="600" d="M25 0L38 82H217L249 285H65L80 382H264L294 570H401L371 382H556L541 285H356L324 82H501L487 0H25Z" />
<glyph unicode="&#xb2;" horiz-adv-x="600" d="M182 405L197 495L381 615Q404 630 419 651T439 695Q444 731 428 751T377 771Q344 771 321 751T292 695H214Q227 762 274 801T388 840Q458 840 492 801T516 697Q510 659 483 622T413 559L278 475H490L479 405H182Z" />
<glyph unicode="&#xb3;" horiz-adv-x="600" d="M303 395Q234 395 198 433T173 536H249Q244 503 261 484T314 464Q348 464 370 483T398 537Q403 571 387 590T338 610H308L318 677L417 761H238L249 831H496L483 750L351 638L355 670Q420 670 453 634T477 537Q467
472 420 434T303 395Z" />
<glyph unicode="&#xb4;" horiz-adv-x="600" d="M258 645L386 785H507L372 645H258Z" />
<glyph unicode="&#xb5;" horiz-adv-x="600" d="M10 -180L126 550H233L178 200Q169 144 190 114T269 84Q325 84 356 114T397 200L453 550H560L505 200Q489 102 426 46T265 -10Q218 -10 188 3T143 35T126 72H120Q121 72 123 58T126 24T127 -13L113 -180H10Z" />
<glyph unicode="&#xb6;" horiz-adv-x="600" d="M178 -180L256 310Q171 310 126 357T93 480L106 560Q114 611 144 649T220 709T323 730H411L266 -180H178ZM351 -180L496 730H584L439 -180H351Z" />
<glyph unicode="&#xb7;" horiz-adv-x="600" d="M254 258Q214 258 194 281T180 345Q186 386 214 410T282 435Q323 435 343 411T356 345Q350 305 323 282T254 258Z" />
<glyph unicode="&#xb8;" horiz-adv-x="600" d="M123 -210L133 -150H206Q229 -150 244 -139T262 -114Q265 -95 239 -82T161 -69L211 23H272L242 -36Q270 -39 298 -49T343 -77T355 -124Q350 -159 311 -184T216 -210H123Z" />
<glyph unicode="&#xb9;" horiz-adv-x="600" d="M172 405L183 475H315L360 761L224 673L237 758L346 830H448L392 475H496L484 405H172Z" />
<glyph unicode="&#xba;" horiz-adv-x="600" d="M326 446Q272 446 244 477T223 556L234 627Q243 676 280 706T372 736Q427 736 456 706T476 627L465 556Q458 508 420 477T326 446ZM334 495Q362 495 382 512T406 556L417 627Q422 654 408 671T365 688Q337 688 318
671T293 627L282 556Q278 529 292 512T334 495Z" />
<glyph unicode="&#xbb;" horiz-adv-x="600" d="M222 40L456 286L306 520H422L574 280L346 40H222ZM-16 40L218 286L68 520H184L336 280L108 40H-16Z" />
<glyph unicode="&#xbc;" horiz-adv-x="600" d="M52 405L61 462H178L213 684Q207 676 196 665T172 644L102 592L115 671L196 730H290L247 462H342L333 405H52ZM430 0L440 67H268L282 153L435 325H513L349 139L346 123H449L462 208H531L499 0H430ZM40 0L515 730H588L113
0H40Z" />
<glyph unicode="&#xbd;" horiz-adv-x="600" d="M270 0L281 71L419 144Q485 179 491 217Q495 243 482 258T441 274Q415 274 396 258T372 216H304Q314 267 354 298T450 330Q507 330 538 300T561 221Q556 188 528 159T452 106L363 60L362 50Q373 52 393 54T433 57H540L530
0H270ZM52 405L61 462H178L213 684Q207 677 196 666T172 645L103 593L115 671L196 730H290L247 462H349L340 405H52ZM40 0L515 730H588L113 0H40Z" />
<glyph unicode="&#xbe;" horiz-adv-x="600" d="M430 0L440 67H268L282 153L435 325H513L349 139L346 123H449L462 208H531L499 0H430ZM173 400Q114 400 83 429T59 505H128Q125 483 139 470T182 456Q210 456 229 470T251 506Q255 529 241 543T200 557H170L179 617L264
676H110L119 730H340L331 673L213 591L216 610Q270 610 299 582T320 506Q313 459 273 430T173 400ZM40 0L515 730H588L113 0H40Z" />
<glyph unicode="&#xbf;" horiz-adv-x="600" d="M266 -170Q194 -170 145 -144T75 -71T63 40Q72 98 104 143T184 213T290 241L306 339H406L377 149H312Q255 149 217 120T171 40Q163 -11 192 -40T279 -69H416L400 -170H266ZM361 429Q330 429 315 447T303 493Q308
522 329 538T381 555H404Q434 555 450 539T462 493Q458 465 436 447T384 429H361Z" />
<glyph unicode="&#xc0;" horiz-adv-x="600" d="M-1 0L301 730H443L513 0H407L393 185H186L112 0H-1ZM220 274H386L369 485Q365 541 363 582T360 639Q355 624 341 583T304 486L220 274ZM601 810L507 950H621L707 810H601Z" />
<glyph unicode="&#xc1;" horiz-adv-x="600" d="M-1 0L301 730H443L513 0H407L393 185H186L112 0H-1ZM220 274H386L369 485Q365 541 363 582T360 639Q355 624 341 583T304 486L220 274ZM314 810L442 950H563L428 810H314Z" />
<glyph unicode="&#xc2;" horiz-adv-x="600" d="M-1 0L301 730H443L513 0H407L393 185H186L112 0H-1ZM220 274H386L369 485Q365 541 363 582T360 639Q355 624 341 583T304 486L220 274ZM196 810L356 950H456L572 810H465L398 886L310 810H196Z" />
<glyph unicode="&#xc3;" horiz-adv-x="600" d="M-1 0L301 730H443L513 0H407L393 185H186L112 0H-1ZM220 274H386L369 485Q365 541 363 582T360 639Q355 624 341 583T304 486L220 274ZM454 811Q424 811 407 821T378 844T357 867T330 878Q317 878 307 869T295 843L290
816H219L224 847Q232 894 263 921T337 949Q367 949 384 939T413 916T434 893T461 882Q475 882 484 890T496 915L501 944H572L567 913Q559 866 529 839T454 811Z" />
<glyph unicode="&#xc4;" horiz-adv-x="600" d="M-1 0L301 730H443L513 0H407L393 185H186L112 0H-1ZM220 274H386L369 485Q365 541 363 582T360 639Q355 624 341 583T304 486L220 274ZM499 813Q467 813 452 831T441 880Q446 912 467 930T521 949Q552 949 567 931T578
880Q574 849 552 831T499 813ZM270 813Q239 813 224 831T212 880Q217 912 239 930T292 949Q324 949 339 931T349 880Q345 849 324 831T270 813Z" />
<glyph unicode="&#xc5;" horiz-adv-x="600" d="M-1 0L301 730H443L513 0H407L393 185H186L112 0H-1ZM220 274H386L369 485Q365 541 363 582T360 639Q355 624 341 583T304 486L220 274ZM376 762Q320 762 291 794T269 880Q277 933 317 965T414 998Q470 998 499 966T521
880Q513 827 473 795T376 762ZM386 820Q413 820 432 836T455 880Q460 907 446 924T405 941Q378 941 359 924T335 880Q331 853 345 837T386 820Z" />
<glyph unicode="&#xc6;" horiz-adv-x="600" d="M-23 0L236 730H645L630 635H453L420 425H572L556 328H405L367 95H544L529 0H255L285 192H150L84 0H-23ZM178 276H298L356 635H302L178 276Z" />
<glyph unicode="&#xc7;" horiz-adv-x="600" d="M130 -210L139 -150H212Q235 -150 251 -139T268 -114Q272 -95 246 -82T168 -69L217 23H279L249 -36Q276 -39 304 -49T349 -77T362 -124Q357 -159 318 -184T222 -210H130ZM258 -10Q190 -10 144 15T78 89T68 203L119
527Q130 593 165 641T254 714T377 740Q445 740 490 714T556 641T566 527H458Q468 584 443 614T362 644Q307 644 272 614T227 528L176 203Q167 147 193 117T273 86Q328 86 363 116T407 203H515Q505 138 470 90T381 16T258 -10Z" />
<glyph unicode="&#xc8;" horiz-adv-x="600" d="M50 0L166 730H595L580 634H257L224 427H512L496 332H209L171 96H494L479 0H50ZM621 810L527 950H641L727 810H621Z" />
<glyph unicode="&#xc9;" horiz-adv-x="600" d="M50 0L166 730H595L580 634H257L224 427H512L496 332H209L171 96H494L479 0H50ZM334 810L462 950H583L448 810H334Z" />
<glyph unicode="&#xca;" horiz-adv-x="600" d="M50 0L166 730H595L580 634H257L224 427H512L496 332H209L171 96H494L479 0H50ZM216 810L376 950H476L592 810H485L418 886L330 810H216Z" />
<glyph unicode="&#xcb;" horiz-adv-x="600" d="M50 0L166 730H595L580 634H257L224 427H512L496 332H209L171 96H494L479 0H50ZM519 813Q487 813 472 831T461 880Q466 912 487 930T541 949Q572 949 587 931T598 880Q594 849 572 831T519 813ZM290 813Q259 813
244 831T232 880Q237 912 259 930T312 949Q344 949 359 931T369 880Q365 849 344 831T290 813Z" />
<glyph unicode="&#xcc;" horiz-adv-x="600" d="M54 0L69 96H217L302 634H154L170 730H574L559 634H411L326 96H474L458 0H54ZM601 810L507 950H621L707 810H601Z" />
<glyph unicode="&#xcd;" horiz-adv-x="600" d="M54 0L69 96H217L302 634H154L170 730H574L559 634H411L326 96H474L458 0H54ZM314 810L442 950H563L428 810H314Z" />
<glyph unicode="&#xce;" horiz-adv-x="600" d="M54 0L69 96H217L302 634H154L170 730H574L559 634H411L326 96H474L458 0H54ZM196 810L356 950H456L572 810H465L398 886L310 810H196Z" />
<glyph unicode="&#xcf;" horiz-adv-x="600" d="M54 0L69 96H217L302 634H154L170 730H574L559 634H411L326 96H474L458 0H54ZM499 813Q467 813 452 831T441 880Q446 912 467 930T521 949Q552 949 567 931T578 880Q574 849 552 831T499 813ZM270 813Q239 813 224
831T212 880Q217 912 239 930T292 949Q324 949 339 931T349 880Q345 849 324 831T270 813Z" />
<glyph unicode="&#xd0;" horiz-adv-x="600" d="M10 332V413H290V332H10ZM39 0L155 730H359Q431 730 480 703T550 625T560 507L516 224Q505 157 468 106T373 28T243 0H39ZM163 98H258Q318 98 358 131T408 224L452 507Q462 565 433 598T343 632H247L163 98Z" />
<glyph unicode="&#xd1;" horiz-adv-x="600" d="M37 0L153 730H288L406 123Q408 152 411 192T420 275T431 353L491 730H591L475 0H340L223 607Q221 581 218 542T209 461T198 383L137 0H37ZM454 811Q424 811 407 821T378 844T357 867T330 878Q317 878 307 869T295
843L290 816H219L224 847Q232 894 263 921T337 949Q367 949 384 939T413 916T434 893T461 882Q475 882 484 890T496 915L501 944H572L567 913Q559 866 529 839T454 811Z" />
<glyph unicode="&#xd2;" horiz-adv-x="600" d="M254 -10Q187 -10 142 15T77 89T68 203L119 527Q130 593 164 641T252 714T373 740Q441 740 486 715T551 641T560 528L509 203Q499 138 464 90T376 16T254 -10ZM269 86Q324 86 358 116T401 203L452 527Q461 584 437
614T358 644Q303 644 270 614T227 527L176 203Q167 147 191 117T269 86ZM601 810L507 950H621L707 810H601Z" />
<glyph unicode="&#xd3;" horiz-adv-x="600" d="M254 -10Q187 -10 142 15T77 89T68 203L119 527Q130 593 164 641T252 714T373 740Q441 740 486 715T551 641T560 528L509 203Q499 138 464 90T376 16T254 -10ZM269 86Q324 86 358 116T401 203L452 527Q461 584 437
614T358 644Q303 644 270 614T227 527L176 203Q167 147 191 117T269 86ZM314 810L442 950H563L428 810H314Z" />
<glyph unicode="&#xd4;" horiz-adv-x="600" d="M254 -10Q187 -10 142 15T77 89T68 203L119 527Q130 593 164 641T252 714T373 740Q441 740 486 715T551 641T560 528L509 203Q499 138 464 90T376 16T254 -10ZM269 86Q324 86 358 116T401 203L452 527Q461 584 437
614T358 644Q303 644 270 614T227 527L176 203Q167 147 191 117T269 86ZM196 810L356 950H456L572 810H465L398 886L310 810H196Z" />
<glyph unicode="&#xd5;" horiz-adv-x="600" d="M254 -10Q187 -10 142 15T77 89T68 203L119 527Q130 593 164 641T252 714T373 740Q441 740 486 715T551 641T560 528L509 203Q499 138 464 90T376 16T254 -10ZM269 86Q324 86 358 116T401 203L452 527Q461 584 437
614T358 644Q303 644 270 614T227 527L176 203Q167 147 191 117T269 86ZM454 811Q424 811 407 821T378 844T357 867T330 878Q317 878 307 869T295 843L290 816H219L224 847Q232 894 263 921T337 949Q367 949 384 939T413 916T434 893T461 882Q475 882 484 890T496
915L501 944H572L567 913Q559 866 529 839T454 811Z" />
<glyph unicode="&#xd6;" horiz-adv-x="600" d="M254 -10Q187 -10 142 15T77 89T68 203L119 527Q130 593 164 641T252 714T373 740Q441 740 486 715T551 641T560 528L509 203Q499 138 464 90T376 16T254 -10ZM269 86Q324 86 358 116T401 203L452 527Q461 584 437
614T358 644Q303 644 270 614T227 527L176 203Q167 147 191 117T269 86ZM499 813Q467 813 452 831T441 880Q446 912 467 930T521 949Q552 949 567 931T578 880Q574 849 552 831T499 813ZM270 813Q239 813 224 831T212 880Q217 912 239 930T292 949Q324 949 339
931T349 880Q345 849 324 831T270 813Z" />
<glyph unicode="&#xd7;" horiz-adv-x="600" d="M141 125L83 194L239 329L127 464L202 528L315 394L475 533L533 463L373 326L486 191L411 126L298 261L141 125Z" />
<glyph unicode="&#xd8;" horiz-adv-x="600" d="M-21 -40L550 750H646L75 -40H-21ZM254 -10Q187 -10 142 15T77 89T68 203L119 527Q130 593 164 641T252 714T373 740Q441 740 486 715T550 641T560 528L509 203Q499 138 464 90T376 16T254 -10ZM269 86Q325 86 359
116T402 203L453 527Q463 584 438 614T358 644Q303 644 269 614T225 527L174 203Q165 147 190 117T269 86Z" />
<glyph unicode="&#xd9;" horiz-adv-x="600" d="M254 -10Q149 -10 102 47T70 204L153 730H261L178 204Q168 149 191 117T269 85Q324 85 357 117T400 204L483 730H591L508 204Q497 138 464 90T377 16T254 -10ZM601 810L507 950H621L707 810H601Z" />
<glyph unicode="&#xda;" horiz-adv-x="600" d="M254 -10Q149 -10 102 47T70 204L153 730H261L178 204Q168 149 191 117T269 85Q324 85 357 117T400 204L483 730H591L508 204Q497 138 464 90T377 16T254 -10ZM314 810L442 950H563L428 810H314Z" />
<glyph unicode="&#xdb;" horiz-adv-x="600" d="M254 -10Q149 -10 102 47T70 204L153 730H261L178 204Q168 149 191 117T269 85Q324 85 357 117T400 204L483 730H591L508 204Q497 138 464 90T377 16T254 -10ZM196 810L356 950H456L572 810H465L398 886L310 810H196Z" />
<glyph unicode="&#xdc;" horiz-adv-x="600" d="M254 -10Q149 -10 102 47T70 204L153 730H261L178 204Q168 149 191 117T269 85Q324 85 357 117T400 204L483 730H591L508 204Q497 138 464 90T377 16T254 -10ZM499 813Q467 813 452 831T441 880Q446 912 467 930T521
949Q552 949 567 931T578 880Q574 849 552 831T499 813ZM270 813Q239 813 224 831T212 880Q217 912 239 930T292 949Q324 949 339 931T349 880Q345 849 324 831T270 813Z" />
<glyph unicode="&#xdd;" horiz-adv-x="600" d="M202 0L244 269L101 730H211L296 454Q304 427 308 404T314 367Q319 380 330 403T358 454L529 730H643L352 269L310 0H202ZM314 810L442 950H563L428 810H314Z" />
<glyph unicode="&#xde;" horiz-adv-x="600" d="M40 0L156 730H264L241 584H384Q485 584 536 529T572 380Q563 317 529 271T441 201T319 176H176L148 0H40ZM190 269H326Q382 269 418 299T462 380Q470 432 443 461T361 491H225L190 269Z" />
<glyph unicode="&#xdf;" horiz-adv-x="600" d="M-132 -180L-117 -87H-62Q-19 -87 6 -67T37 -8L123 529Q133 592 167 640T256 714T377 740Q443 740 489 718T557 653T569 551Q561 501 533 463T460 403T360 382L362 397Q421 398 461 375T519 310T528 208Q518 147
483 100T393 27T270 0H208L223 95H277Q333 95 370 127T417 214Q426 268 399 299T314 330H269L283 417H325Q377 417 412 449T454 530Q463 584 437 614T359 645Q306 645 271 614T226 529L140 -10Q128 -89 70 -134T-76 -180H-132Z" />
<glyph unicode="&#xe0;" horiz-adv-x="600" d="M215 -10Q133 -10 93 46T68 197L92 352Q102 417 132 463T206 534T306 560Q374 560 408 523T432 420L413 445H437L452 550H559L472 0H366L383 105H360L387 130Q376 65 330 28T215 -10ZM268 84Q319 84 353 115T397
203L419 347Q429 403 405 434T328 466Q275 466 242 436T199 347L177 203Q167 145 191 115T268 84ZM580 645L486 785H600L686 645H580Z" />
<glyph unicode="&#xe1;" horiz-adv-x="600" d="M215 -10Q133 -10 93 46T68 197L92 352Q102 417 132 463T206 534T306 560Q374 560 408 523T432 420L413 445H437L452 550H559L472 0H366L383 105H360L387 130Q376 65 330 28T215 -10ZM268 84Q319 84 353 115T397
203L419 347Q429 403 405 434T328 466Q275 466 242 436T199 347L177 203Q167 145 191 115T268 84ZM293 645L421 785H542L407 645H293Z" />
<glyph unicode="&#xe2;" horiz-adv-x="600" d="M215 -10Q133 -10 93 46T68 197L92 352Q102 417 132 463T206 534T306 560Q374 560 408 523T432 420L413 445H437L452 550H559L472 0H366L383 105H360L387 130Q376 65 330 28T215 -10ZM268 84Q319 84 353 115T397
203L419 347Q429 403 405 434T328 466Q275 466 242 436T199 347L177 203Q167 145 191 115T268 84ZM175 645L335 785H435L551 645H444L377 721L289 645H175Z" />
<glyph unicode="&#xe3;" horiz-adv-x="600" d="M215 -10Q133 -10 93 46T68 197L92 352Q102 417 132 463T206 534T306 560Q374 560 408 523T432 420L413 445H437L452 550H559L472 0H366L383 105H360L387 130Q376 65 330 28T215 -10ZM268 84Q319 84 353 115T397
203L419 347Q429 403 405 434T328 466Q275 466 242 436T199 347L177 203Q167 145 191 115T268 84ZM433 646Q403 646 386 656T357 679T336 702T309 713Q296 713 286 704T273 678L269 651H198L203 682Q211 729 242 756T316 784Q346 784 363 774T391 751T412 728T439
717Q453 717 462 725T475 750L480 779H551L546 748Q538 701 508 674T433 646Z" />
<glyph unicode="&#xe4;" horiz-adv-x="600" d="M215 -10Q133 -10 93 46T68 197L92 352Q102 417 132 463T206 534T306 560Q374 560 408 523T432 420L413 445H437L452 550H559L472 0H366L383 105H360L387 130Q376 65 330 28T215 -10ZM268 84Q319 84 353 115T397
203L419 347Q429 403 405 434T328 466Q275 466 242 436T199 347L177 203Q167 145 191 115T268 84ZM478 645Q446 645 431 663T420 713Q425 745 446 763T499 782Q531 782 546 764T557 713Q553 682 531 664T478 645ZM249 645Q218 645 203 663T191 713Q196 745 217
763T271 782Q302 782 318 764T328 713Q324 682 303 664T249 645Z" />
<glyph unicode="&#xe5;" horiz-adv-x="600" d="M215 -10Q133 -10 93 46T68 197L92 352Q102 417 132 463T206 534T306 560Q374 560 408 523T432 420L413 445H437L452 550H559L472 0H366L383 105H360L387 130Q376 65 330 28T215 -10ZM268 84Q319 84 353 115T397
203L419 347Q429 403 405 434T328 466Q275 466 242 436T199 347L177 203Q167 145 191 115T268 84ZM357 605Q300 605 271 637T249 723Q258 776 297 808T394 841Q451 841 480 809T501 723Q494 670 454 638T357 605ZM366 663Q393 663 412 679T435 723Q440 751 426
767T385 784Q358 784 339 768T315 723Q311 696 325 680T366 663Z" />
<glyph unicode="&#xe6;" horiz-adv-x="600" d="M125 -10Q63 -10 33 29T12 133L21 190Q31 252 79 289T199 326H264L276 402Q282 441 270 459T227 477Q201 477 183 460T159 414H65Q76 480 120 520T225 560Q264 560 287 548T321 517T332 481H337Q343 498 358 516T401
547T465 560Q532 560 564 518T585 403L561 254H343L327 147Q321 114 334 94T376 73Q405 73 424 89T448 133H542Q532 69 486 30T374 -10Q337 -10 314 2T281 33T271 69H266Q261 52 244 34T197 3T125 -10ZM161 73Q189 73 209 93T236 147L252 254H189Q160 254 142 237T118
190L110 133Q105 105 119 89T161 73ZM354 326H478L491 403Q496 437 483 457T439 477Q411 477 392 457T367 403L354 326Z" />
<glyph unicode="&#xe7;" horiz-adv-x="600" d="M127 -210L137 -150H210Q233 -150 248 -139T266 -114Q269 -95 243 -82T165 -69L214 23H276L246 -36Q273 -39 301 -49T346 -77T359 -124Q354 -159 315 -184T219 -210H127ZM258 -10Q190 -10 144 15T78 89T68 203L90
347Q101 413 136 461T226 534T349 560Q448 560 499 508T540 366H433Q437 413 411 439T333 465Q278 465 243 435T199 348L176 203Q167 147 192 116T273 85Q325 85 359 111T404 184H512Q494 94 426 42T258 -10Z" />
<glyph unicode="&#xe8;" horiz-adv-x="600" d="M254 -10Q187 -10 142 16T78 91T68 203L90 347Q101 412 136 459T224 533T345 560Q413 560 458 534T522 460T531 347L516 249H179L172 203Q163 142 187 110T269 78Q316 78 346 94T389 143H496Q481 96 447 62T363 9T254
-10ZM422 314L427 348Q437 408 414 441T332 474Q274 474 240 441T195 347L191 322L431 323L422 314ZM575 645L481 785H595L681 645H575Z" />
<glyph unicode="&#xe9;" horiz-adv-x="600" d="M254 -10Q187 -10 142 16T78 91T68 203L90 347Q101 412 136 459T224 533T345 560Q413 560 458 534T522 460T531 347L516 249H179L172 203Q163 142 187 110T269 78Q316 78 346 94T389 143H496Q481 96 447 62T363 9T254
-10ZM422 314L427 348Q437 408 414 441T332 474Q274 474 240 441T195 347L191 322L431 323L422 314ZM288 645L416 785H537L402 645H288Z" />
<glyph unicode="&#xea;" horiz-adv-x="600" d="M254 -10Q187 -10 142 16T78 91T68 203L90 347Q101 412 136 459T224 533T345 560Q413 560 458 534T522 460T531 347L516 249H179L172 203Q163 142 187 110T269 78Q316 78 346 94T389 143H496Q481 96 447 62T363 9T254
-10ZM422 314L427 348Q437 408 414 441T332 474Q274 474 240 441T195 347L191 322L431 323L422 314ZM170 645L330 785H430L546 645H439L372 721L284 645H170Z" />
<glyph unicode="&#xeb;" horiz-adv-x="600" d="M254 -10Q187 -10 142 16T78 91T68 203L90 347Q101 412 136 459T224 533T345 560Q413 560 458 534T522 460T531 347L516 249H179L172 203Q163 142 187 110T269 78Q316 78 346 94T389 143H496Q481 96 447 62T363 9T254
-10ZM422 314L427 348Q437 408 414 441T332 474Q274 474 240 441T195 347L191 322L431 323L422 314ZM473 645Q441 645 426 663T415 713Q420 745 441 763T494 782Q526 782 541 764T552 713Q548 682 526 664T473 645ZM244 645Q213 645 198 663T186 713Q191 745 212
763T266 782Q297 782 313 764T323 713Q319 682 298 664T244 645Z" />
<glyph unicode="&#xec;" horiz-adv-x="600" d="M33 0L49 98H242L298 452H130L145 550H418L347 98H525L509 0H33ZM591 645L497 785H611L697 645H591Z" />
<glyph unicode="&#xed;" horiz-adv-x="600" d="M33 0L49 98H242L298 452H130L145 550H418L347 98H525L509 0H33ZM304 645L432 785H553L418 645H304Z" />
<glyph unicode="&#xee;" horiz-adv-x="600" d="M33 0L49 98H242L298 452H130L145 550H418L347 98H525L509 0H33ZM186 645L346 785H446L562 645H455L388 721L300 645H186Z" />
<glyph unicode="&#xef;" horiz-adv-x="600" d="M33 0L49 98H242L298 452H130L145 550H418L347 98H525L509 0H33ZM489 645Q457 645 442 663T431 713Q436 745 457 763T510 782Q542 782 557 764T568 713Q564 682 542 664T489 645ZM260 645Q229 645 214 663T202 713Q207
745 228 763T282 782Q313 782 329 764T339 713Q335 682 314 664T260 645Z" />
<glyph unicode="&#xf0;" horiz-adv-x="600" d="M254 -7Q183 -7 134 21T64 101T52 221Q63 288 96 337T181 414T296 442Q326 442 349 432T387 407T408 379H419Q418 387 407 413T370 483L323 566L149 497L162 586L283 636L228 730H341L372 674L543 739L530 649L412
604L470 506Q511 438 526 367T531 231Q520 159 482 106T386 23T254 -7ZM269 86Q329 86 371 123T422 221Q429 262 417 292T379 339T312 356Q253 356 212 319T160 221Q151 160 181 123T269 86Z" />
<glyph unicode="&#xf1;" horiz-adv-x="600" d="M40 0L127 550H234L217 445H243L213 420Q224 486 269 523T383 560Q465 560 505 508T532 366L474 0H366L422 354Q430 408 407 438T332 468Q281 468 247 437T203 347L148 0H40ZM428 646Q398 646 381 656T352 679T331
702T304 713Q291 713 281 704T268 678L264 651H193L198 682Q206 729 237 756T311 784Q341 784 358 774T386 751T407 728T434 717Q448 717 457 725T470 750L475 779H546L541 748Q533 701 503 674T428 646Z" />
<glyph unicode="&#xf2;" horiz-adv-x="600" d="M254 -10Q187 -10 142 15T77 89T68 203L90 347Q101 413 135 461T224 534T345 560Q413 560 458 535T522 461T532 348L509 203Q499 138 464 90T376 16T254 -10ZM269 85Q324 85 358 115T401 203L423 347Q433 405 409
435T330 465Q276 465 242 435T198 347L176 203Q167 145 191 115T269 85ZM575 645L481 785H595L681 645H575Z" />
<glyph unicode="&#xf3;" horiz-adv-x="600" d="M254 -10Q187 -10 142 15T77 89T68 203L90 347Q101 413 135 461T224 534T345 560Q413 560 458 535T522 461T532 348L509 203Q499 138 464 90T376 16T254 -10ZM269 85Q324 85 358 115T401 203L423 347Q433 405 409
435T330 465Q276 465 242 435T198 347L176 203Q167 145 191 115T269 85ZM288 645L416 785H537L402 645H288Z" />
<glyph unicode="&#xf4;" horiz-adv-x="600" d="M254 -10Q187 -10 142 15T77 89T68 203L90 347Q101 413 135 461T224 534T345 560Q413 560 458 535T522 461T532 348L509 203Q499 138 464 90T376 16T254 -10ZM269 85Q324 85 358 115T401 203L423 347Q433 405 409
435T330 465Q276 465 242 435T198 347L176 203Q167 145 191 115T269 85ZM170 645L330 785H430L546 645H439L372 721L284 645H170Z" />
<glyph unicode="&#xf5;" horiz-adv-x="600" d="M254 -10Q187 -10 142 15T77 89T68 203L90 347Q101 413 135 461T224 534T345 560Q413 560 458 535T522 461T532 348L509 203Q499 138 464 90T376 16T254 -10ZM269 85Q324 85 358 115T401 203L423 347Q433 405 409
435T330 465Q276 465 242 435T198 347L176 203Q167 145 191 115T269 85ZM428 646Q398 646 381 656T352 679T331 702T304 713Q291 713 281 704T268 678L264 651H193L198 682Q206 729 237 756T311 784Q341 784 358 774T386 751T407 728T434 717Q448 717 457 725T470
750L475 779H546L541 748Q533 701 503 674T428 646Z" />
<glyph unicode="&#xf6;" horiz-adv-x="600" d="M254 -10Q187 -10 142 15T77 89T68 203L90 347Q101 413 135 461T224 534T345 560Q413 560 458 535T522 461T532 348L509 203Q499 138 464 90T376 16T254 -10ZM269 85Q324 85 358 115T401 203L423 347Q433 405 409
435T330 465Q276 465 242 435T198 347L176 203Q167 145 191 115T269 85ZM473 645Q441 645 426 663T415 713Q420 745 441 763T494 782Q526 782 541 764T552 713Q548 682 526 664T473 645ZM244 645Q213 645 198 663T186 713Q191 745 212 763T266 782Q297 782 313
764T323 713Q319 682 298 664T244 645Z" />
<glyph unicode="&#xf7;" horiz-adv-x="600" d="M101 285L116 379H516L501 285H101ZM257 78Q226 78 211 94T199 140Q204 168 225 186T277 204H299Q330 204 346 186T358 140Q354 111 332 95T279 78H257ZM318 460Q287 460 271 476T259 522Q264 551 285 568T337 586H360Q391
586 407 569T418 522Q414 494 393 477T340 460H318Z" />
<glyph unicode="&#xf8;" horiz-adv-x="600" d="M-17 -30L517 590H617L82 -30H-17ZM254 -10Q187 -10 142 15T77 89T68 203L90 347Q101 413 135 461T224 534T345 560Q413 560 458 535T523 461T532 348L509 203Q499 138 464 90T376 16T254 -10ZM269 85Q326 85 362
116T407 203L430 347Q439 403 413 434T330 465Q273 465 237 434T192 347L169 203Q160 148 186 117T269 85Z" />
<glyph unicode="&#xf9;" horiz-adv-x="600" d="M253 -10Q154 -10 105 47T71 204L125 550H233L179 204Q170 147 194 116T269 84Q320 84 354 115T398 204L453 550H561L506 204Q496 138 462 90T374 16T253 -10ZM575 645L481 785H595L681 645H575Z" />
<glyph unicode="&#xfa;" horiz-adv-x="600" d="M253 -10Q154 -10 105 47T71 204L125 550H233L179 204Q170 147 194 116T269 84Q320 84 354 115T398 204L453 550H561L506 204Q496 138 462 90T374 16T253 -10ZM288 645L416 785H537L402 645H288Z" />
<glyph unicode="&#xfb;" horiz-adv-x="600" d="M253 -10Q154 -10 105 47T71 204L125 550H233L179 204Q170 147 194 116T269 84Q320 84 354 115T398 204L453 550H561L506 204Q496 138 462 90T374 16T253 -10ZM170 645L330 785H430L546 645H439L372 721L284 645H170Z" />
<glyph unicode="&#xfc;" horiz-adv-x="600" d="M253 -10Q154 -10 105 47T71 204L125 550H233L179 204Q170 147 194 116T269 84Q320 84 354 115T398 204L453 550H561L506 204Q496 138 462 90T374 16T253 -10ZM473 645Q441 645 426 663T415 713Q420 745 441 763T494
782Q526 782 541 764T552 713Q548 682 526 664T473 645ZM244 645Q213 645 198 663T186 713Q191 745 212 763T266 782Q297 782 313 764T323 713Q319 682 298 664T244 645Z" />
<glyph unicode="&#xfd;" horiz-adv-x="600" d="M83 -180L98 -87H267Q309 -87 333 -67T363 -8L372 51L390 155H363L393 180Q383 114 338 77T223 40Q142 40 101 92T74 234L125 550H232L184 246Q175 192 199 162T274 132Q325 132 359 163T403 253L450 550H558L469
-10Q458 -89 400 -134T253 -180H83ZM288 645L416 785H537L402 645H288Z" />
<glyph unicode="&#xfe;" horiz-adv-x="600" d="M8 -180L45 56H152L114 -180H8ZM290 -10Q222 -10 188 27T164 130L183 105H160L143 0H37L153 730H261L235 573L212 445H236L210 420Q220 485 267 522T381 560Q464 560 504 504T529 352L504 197Q494 133 465 87T390
16T290 -10ZM268 84Q321 84 354 114T397 203L420 347Q429 405 405 435T328 466Q278 466 244 435T199 347L177 203Q168 147 192 116T268 84Z" />
<glyph unicode="&#xff;" horiz-adv-x="600" d="M83 -180L98 -87H267Q309 -87 333 -67T363 -8L372 51L390 155H363L393 180Q383 114 338 77T223 40Q142 40 101 92T74 234L125 550H232L184 246Q175 192 199 162T274 132Q325 132 359 163T403 253L450 550H558L469
-10Q458 -89 400 -134T253 -180H83ZM473 645Q441 645 426 663T415 713Q420 745 441 763T494 782Q526 782 541 764T552 713Q548 682 526 664T473 645ZM244 645Q213 645 198 663T186 713Q191 745 212 763T266 782Q297 782 313 764T323 713Q319 682 298 664T244 645Z"
/>
<glyph unicode="&#x2013;" horiz-adv-x="600" d="M81 281L96 379H536L521 281H81Z" />
<glyph unicode="&#x2014;" horiz-adv-x="600" d="M1 281L16 379H616L601 281H1Z" />
<glyph unicode="&#x2018;" horiz-adv-x="600" d="M615 775L486 464H338L517 775H615Z" />
<glyph unicode="&#x2019;" horiz-adv-x="600" d="M181 465L310 776H458L279 465H181Z" />
<glyph unicode="&#x201a;" horiz-adv-x="600" d="M87 -160L216 151H364L185 -160H87Z" />
<glyph unicode="&#x201c;" horiz-adv-x="600" d="M332 465L511 776H606L477 465H332ZM93 465L272 776H367L238 465H93Z" />
<glyph unicode="&#x201d;" horiz-adv-x="600" d="M342 465L471 776H616L437 465H342ZM103 465L232 776H377L198 465H103Z" />
<glyph unicode="&#x201e;" horiz-adv-x="600" d="M243 -160L372 151H517L338 -160H243ZM4 -160L133 151H278L99 -160H4Z" />
<glyph unicode="&#x2022;" horiz-adv-x="600" d="M294 241Q240 241 211 276T190 365Q198 420 238 454T334 489Q389 489 418 455T438 365Q430 311 390 276T294 241Z" />
<glyph unicode="&#x2039;" horiz-adv-x="600" d="M299 40L143 280L375 520H496L261 277L415 40H299Z" />
<glyph unicode="&#x203a;" horiz-adv-x="600" d="M105 40L341 283L186 520H301L457 280L225 40H105Z" />
</font>
</defs>
</svg>
