<!--
Licensed to the Apache Software Foundation (ASF) under one or more
contributor license agreements.  See the NOTICE file distributed with
this work for additional information regarding copyright ownership.
The ASF licenses this file to You under the Apache License, Version 2.0
(the "License"); you may not use this file except in compliance with
the License.  You may obtain a copy of the License at

    http://www.apache.org/licenses/LICENSE-2.0

Unless required by applicable law or agreed to in writing, software
distributed under the License is distributed on an "AS IS" BASIS,
WITHOUT WARRANTIES OR CONDITIONS OF ANY KIND, either express or implied.
See the License for the specific language governing permissions and
limitations under the License.
-->
<svg width="36" height="36" viewBox="0 0 36 36" fill="none" xmlns="http://www.w3.org/2000/svg">
  <path
    d="M18 2.5C14.8355 2.5 11.7421 3.43838 9.11088 5.19649C6.4797 6.95459 4.42894 9.45345 3.21793 12.3771C2.00693 15.3007 1.69008 18.5177 2.30744 21.6214C2.92481 24.7251 4.44866 27.5761 6.6863 29.8137C8.92394 32.0513 11.7749 33.5752 14.8786 34.1926C17.9823 34.8099 21.1993 34.4931 24.1229 33.2821C27.0466 32.0711 29.5454 30.0203 31.3035 27.3891C33.0616 24.7579 34 21.6645 34 18.5C34 14.2565 32.3143 10.1869 29.3137 7.18629C26.3131 4.18571 22.2435 2.5 18 2.5V2.5ZM27.3675 19.085C26.4589 19.1338 25.5491 19.0125 24.685 18.7275C23.5063 18.3325 22.4075 17.705 21.265 17.2C19.64 16.4825 17.98 15.9862 16.1738 16.3675C13.66 16.8987 11.6975 18.8575 11.4488 21.2425C11.2163 23.4587 12.0325 25.3125 13.8163 26.6487C15.0652 27.5869 16.6161 28.032 18.1725 27.8987C18.6594 27.873 19.1363 27.7502 19.575 27.5374C20.0138 27.3246 20.4055 27.0262 20.7272 26.6598C21.0489 26.2934 21.294 25.8663 21.4482 25.4037C21.6024 24.9412 21.6625 24.4524 21.625 23.9662C21.5388 22.485 20.4288 21.52 18.8925 21.5912C17.5725 21.6525 16.535 22.7012 16.6525 24.0087C16.7075 24.6112 17.0475 25.1887 17.265 25.7962C16.883 25.676 16.5291 25.4803 16.2242 25.2207C15.9192 24.9611 15.6696 24.6429 15.49 24.285C14.4588 22.2312 15.28 19.7912 17.405 18.945C21.3925 17.3587 25.2575 19.7575 25.7975 23.38C26.1375 25.6575 25.215 27.505 23.5275 28.975C21.9138 30.385 19.9675 31.0537 17.8638 31.1887C14.8338 31.3837 12.035 30.645 9.56001 28.8387C7.83251 27.5812 6.73376 25.875 5.96251 23.7762C6.33751 24.0675 6.61251 24.3087 6.91501 24.5037C7.60126 24.9475 8.33626 25.1587 9.08251 24.6775C9.82876 24.1962 9.84501 23.4525 9.74501 22.67C9.60251 21.5575 9.42251 20.445 9.37001 19.3262C9.28501 17.5112 9.99501 16.0475 11.495 14.98C11.8236 14.7593 12.1237 14.499 12.3888 14.205C13.2088 13.2325 12.8125 12.0362 11.5688 11.7625C10.2788 11.4787 9.13251 11.8687 8.13501 12.6912C6.90376 13.7087 6.22501 15.0862 5.70501 16.5575C5.60751 16.9047 5.45381 17.2337 5.25001 17.5312C5.30001 16.9462 5.32876 16.3562 5.40876 15.7812C5.48195 15.2237 5.5867 14.6707 5.72251 14.125C7.47251 7.28625 15.49 4.97375 20.6475 9.83875C21.5363 10.6775 22.2925 11.6587 23.1075 12.5775C23.6738 13.2162 24.1663 13.9437 24.8175 14.4762C25.4535 15.001 26.1806 15.4044 26.9625 15.6662C28.0388 16.0087 28.9388 15.5025 29.1438 14.3962C29.345 13.3087 29.2788 12.17 29.32 11.0525C29.3288 10.8375 29.3438 10.6112 29.3388 10.4L29.3225 10.1875C29.3685 10.2494 29.4079 10.3161 29.44 10.3862C30.4763 12.5112 31.2963 14.695 30.315 17.0912C29.8013 18.3575 28.685 19.0075 27.3675 19.085Z"
    fill="#7497F7" />
</svg>